<?xml version="1.0" encoding="utf-8"?>
<!-- Generator: Adobe Illustrator 26.5.0, SVG Export Plug-In . SVG Version: 6.00 Build 0)  -->
<svg version="1.1" id="Layer_1" xmlns="http://www.w3.org/2000/svg" xmlns:xlink="http://www.w3.org/1999/xlink" x="0px" y="0px"
	 viewBox="0 0 500 500" style="enable-background:new 0 0 500 500;" xml:space="preserve">
<style type="text/css">
	.st0{fill:url(#SVGID_1_);}
	.st1{fill:url(#SVGID_00000163786593664178878080000010297598111631783102_);}
	.st2{fill:url(#SVGID_00000071549591773551249450000005512277714508788110_);}
	.st3{fill:url(#SVGID_00000065071801381974220200000006758101024440280744_);}
	.st4{fill:url(#SVGID_00000115473537609265317100000013394689007880393401_);}
	.st5{fill:url(#SVGID_00000136413987855180536100000007259809104089937302_);}
	.st6{fill:url(#SVGID_00000083050094223991679440000003794133910402009994_);}
</style>
<g>
	
		<linearGradient id="SVGID_1_" gradientUnits="userSpaceOnUse" x1="-47.9542" y1="668.842" x2="-47.0804" y2="669.1078" gradientTransform="matrix(116.8536 0 0 -106.8006 5915.4653 71481.1641)">
		<stop  offset="0" style="stop-color:#F69923"/>
		<stop  offset="0.3123" style="stop-color:#F79A23"/>
		<stop  offset="0.8383" style="stop-color:#E97826"/>
	</linearGradient>
	<path class="st0" d="M335.7,9.3c-7.6,4.5-20.3,17.2-35.4,35.7v1.1l13.3,24.5l0.7,0.5c9.8-13.9,19.6-26.5,29.6-37.2
		c0.8-0.9,1.1-1.2,1.1-1.2c-0.4,0.4-0.8,0.9-1.1,1.2c-3.2,3.6-13.1,15-27.8,37.7l1.7,0.4c0,0,34.6-3.4,51.2-6.2l0.9-0.9
		c5.3-29.7-5.2-43.4-5.2-43.4S351.4,0.1,335.7,9.3z"/>
	
		<linearGradient id="SVGID_00000126283372412287567060000011455309513698283915_" gradientUnits="userSpaceOnUse" x1="-49.0637" y1="667.6906" x2="-47.2849" y2="670.0074" gradientTransform="matrix(116.2646 0 0 -191.4397 5793.8052 128326.9844)">
		<stop  offset="0.3233" style="stop-color:#9E2064"/>
		<stop  offset="0.6302" style="stop-color:#C92037"/>
		<stop  offset="0.7514" style="stop-color:#CD2335"/>
		<stop  offset="1" style="stop-color:#E97826"/>
	</linearGradient>
	<path style="fill:url(#SVGID_00000126283372412287567060000011455309513698283915_);" d="M273.3,138.8c4.3-7.9,8.5-15.6,12.8-23.1
		c4.5-7.8,9-15.3,13.6-22.6c0.3-0.4,0.6-0.9,0.8-1.3c4.5-7.2,9.1-14,13.7-20.6l-13.9-26.2c-1,1.2-2.1,2.6-3.1,3.9
		c-4,5-8.1,10.3-12.4,16c-4.8,6.4-9.8,13.3-14.8,20.5c-4.6,6.6-9.4,13.6-14,20.7c-4,6.2-8,12.4-12,18.9c-0.2,0.3-0.3,0.5-0.5,0.8v1
		l17.3,34.4l0.8,0.3C265.4,153.8,269.3,146.2,273.3,138.8z"/>
	
		<linearGradient id="SVGID_00000074433710252234319450000010175632715381698479_" gradientUnits="userSpaceOnUse" x1="-47.9709" y1="669.5559" x2="-46.5943" y2="670.8621" gradientTransform="matrix(150.1945 0 0 -339.4552 7301.9766 227761.8594)">
		<stop  offset="0.3233" style="stop-color:#9E2064"/>
		<stop  offset="0.6302" style="stop-color:#C92037"/>
		<stop  offset="0.7514" style="stop-color:#CD2335"/>
		<stop  offset="1" style="stop-color:#E97826"/>
	</linearGradient>
	<path style="fill:url(#SVGID_00000074433710252234319450000010175632715381698479_);" d="M197.8,307.1c3.1-8.1,6.4-16.4,9.8-24.7
		c3.2-8,6.4-16,9.8-24.1c3.3-8,6.8-16.1,10.3-24.2c3.6-8.2,7.2-16.5,10.9-24.6c3.7-8,7.4-16.1,11.2-24.1c1.3-2.8,2.7-5.8,4.2-8.6
		c2.4-4.9,4.8-9.8,7.2-14.7c0.1-0.3,0.3-0.5,0.4-0.8l-18.1-35.7c-0.3,0.5-0.6,0.9-0.9,1.4c-4.2,6.9-8.4,13.9-12.5,21.1
		c-4.2,7.3-8.2,14.7-12.2,22.2c-3.4,6.3-6.6,12.7-9.8,19.1c-0.7,1.3-1.2,2.6-1.9,3.9c-4,8.1-7.5,15.9-10.7,23.5
		c-3.6,8.5-6.8,16.7-9.7,24.4c-1.9,5.1-3.5,9.9-5.1,14.7c-1.2,4-2.5,8-3.6,12c-2.7,9.5-5,18.8-6.9,28.3l0.3,1.1l17.3,34.5l0.6,0.3
		c2.4-6.4,4.8-12.9,7.4-19.5C196.4,310.8,197.1,309,197.8,307.1z"/>
	
		<linearGradient id="SVGID_00000071527519461137629290000007894005589425274774_" gradientUnits="userSpaceOnUse" x1="-47.0441" y1="670.4473" x2="-45.9288" y2="671.1699" gradientTransform="matrix(97.4319 0 0 -322.4903 4701.6655 216660.7344)">
		<stop  offset="0" style="stop-color:#282662"/>
		<stop  offset="9.548389e-02" style="stop-color:#662E8D"/>
		<stop  offset="0.7882" style="stop-color:#9F2064"/>
		<stop  offset="0.9487" style="stop-color:#CD2032"/>
	</linearGradient>
	<path style="fill:url(#SVGID_00000071527519461137629290000007894005589425274774_);" d="M169.9,297.5c-2.3,11.5-3.9,22.9-4.7,34.3
		c0,0.4-0.1,0.8-0.1,1.2c-5.7-9.1-20.8-17.9-20.8-17.9c10.9,15.7,19.1,31.3,20.4,46.7c-5.8,1.2-13.7-0.6-23-3.9
		c9.6,8.8,16.8,11.3,19.6,11.9c-8.8,0.6-18,6.6-27.3,13.5c13.5-5.5,24.4-7.7,32.3-6c-12.4,35.1-24.8,74-37.3,115
		c3.8-1.1,6.1-3.7,7.4-7.2c2.2-7.5,16.9-56.3,40-120.6c0.7-1.8,1.3-3.7,2-5.5c0.2-0.5,0.4-1,0.6-1.5c2.5-6.7,4.9-13.6,7.6-20.6
		c0.6-1.6,1.2-3.2,1.8-4.8v-0.1l-18.1-35.8C170.1,296.8,170,297.2,169.9,297.5z"/>
	
		<linearGradient id="SVGID_00000065780572676040520550000012512590537377728696_" gradientUnits="userSpaceOnUse" x1="-48.6935" y1="667.2118" x2="-47.4996" y2="669.9283" gradientTransform="matrix(173.2296 0 0 -163.2685 8562.833 109460.1953)">
		<stop  offset="0.3233" style="stop-color:#9E2064"/>
		<stop  offset="0.6302" style="stop-color:#C92037"/>
		<stop  offset="0.7514" style="stop-color:#CD2335"/>
		<stop  offset="1" style="stop-color:#E97826"/>
	</linearGradient>
	<path style="fill:url(#SVGID_00000065780572676040520550000012512590537377728696_);" d="M316,71.7c-4.1,6.2-8.5,13.4-13.4,21.4
		c-0.3,0.4-0.5,0.9-0.8,1.2c-4.2,7-8.5,14.6-13.2,23c-4,7.2-8.1,15-12.5,23.4c-3.8,7.3-7.7,15-11.6,23.2l0.9,0.4l44-4.7l1-0.8
		c13.4-6.2,19.3-11.7,25.1-19.8c1.5-2.2,3.1-4.5,4.6-6.9c4.7-7.4,9.4-15.4,13.4-23.5c4-7.8,7.5-15.5,10.2-22.4
		c1.7-4.5,3.1-8.5,4.1-12.1c0.9-3.2,1.5-6.2,2-9.1C352.1,68.1,330.3,71,316,71.7z"/>
	
		<linearGradient id="SVGID_00000024691592705083107320000006374409193009885074_" gradientUnits="userSpaceOnUse" x1="-47.9419" y1="669.4701" x2="-47.0568" y2="670.9229" gradientTransform="matrix(233.7739 0 0 -305.7132 11350.3613 205165.4531)">
		<stop  offset="0.3233" style="stop-color:#9E2064"/>
		<stop  offset="0.6302" style="stop-color:#C92037"/>
		<stop  offset="0.7514" style="stop-color:#CD2335"/>
		<stop  offset="1" style="stop-color:#E97826"/>
	</linearGradient>
	<path style="fill:url(#SVGID_00000024691592705083107320000006374409193009885074_);" d="M262.8,167.6c-1.5,3.2-3.1,6.5-4.7,9.8
		c-1.7,3.6-3.5,7.4-5.2,11.2c-0.9,1.9-1.8,3.9-2.7,5.8c-2.7,5.9-5.4,11.9-8.2,18.2c-3.4,7.7-6.9,15.7-10.4,24
		c-3.4,8-6.8,16.1-10.2,24.6c-3.3,8-6.6,16.4-9.9,24.9c-3,7.7-6.1,15.4-9.1,23.6c-0.2,0.4-0.3,0.8-0.5,1.1c-3,8-6,16.2-9.1,24.7
		c-0.1,0.2-0.3,0.7-0.4,0.9l0.7,0.1l13.2-1.4l0.7-0.3c-0.3-0.1-0.5-0.5-0.7-0.6c17.4-2.2,40.6-15.2,55.7-31.3
		c6.9-7.4,13.2-16.2,19-26.4c4.4-7.7,8.3-16.1,12.2-25.5c3.4-8.1,6.6-17,9.8-26.6c-4,2.1-8.6,3.7-13.6,4.7c-0.9,0.2-1.8,0.4-2.7,0.6
		c-0.9,0.2-1.9,0.3-2.7,0.5c16.3-6.2,26.5-18.4,34-33.1c-4.3,2.9-11.3,6.7-19.6,8.6c-1.1,0.3-2.3,0.5-3.5,0.7
		c-0.3,0-0.6,0.1-0.9,0.1c5.7-2.4,10.4-5,14.6-8.1c0.9-0.7,1.7-1.3,2.6-2.1c1.2-1.1,2.5-2.3,3.6-3.4c0.8-0.8,1.4-1.5,2.2-2.4
		c1.6-1.9,3.1-4,4.5-6.2c0.5-0.7,0.9-1.4,1.3-2.1c0.6-1,1-2.1,1.5-3.1c2.3-4.5,4.1-8.6,5.5-12.2c0.8-1.8,1.3-3.4,1.9-5
		c0.2-0.6,0.4-1.2,0.7-1.8c0.6-1.7,1-3.2,1.4-4.6c0.6-2,0.9-3.6,1-4.7c-0.6,0.5-1.1,0.9-1.9,1.3c-4.9,2.9-13.4,5.6-20.2,6.8
		l13.4-1.5l-13.4,1.5c-0.9,0.2-1.6,0.3-2.4,0.5c0.1-0.1-15.1,1.5-45.6,4.8C264.4,164.1,263.3,166.5,262.8,167.6z"/>
	
		<linearGradient id="SVGID_00000096740282862149284840000016643743509097439390_" gradientUnits="userSpaceOnUse" x1="-47.5956" y1="669.8883" x2="-46.7081" y2="671.8926" gradientTransform="matrix(138.8327 0 0 -131.8288 6766.8789 88782.2812)">
		<stop  offset="0" style="stop-color:#282662"/>
		<stop  offset="9.548389e-02" style="stop-color:#662E8D"/>
		<stop  offset="0.7882" style="stop-color:#9F2064"/>
		<stop  offset="0.9487" style="stop-color:#CD2032"/>
	</linearGradient>
	<path style="fill:url(#SVGID_00000096740282862149284840000016643743509097439390_);" d="M191,339.9c-2.4,6.5-4.8,13.3-7.2,20.1
		c0,0.1-0.1,0.2-0.1,0.3c-0.4,0.9-0.7,1.9-1,2.9c-1.6,4.6-3,8.7-6.2,18.2c5.3,2.5,9.6,8.8,13.6,16.1c-0.4-7.5-3.5-14.6-9.5-20
		c26.2,1.1,48.9-5.5,60.5-24.6c1-1.7,2-3.5,2.8-5.4c-5.3,6.7-11.9,9.6-24.2,8.9h-0.1h0.1c18.3-8.1,27.4-16,35.5-29
		c1.9-3.1,3.8-6.4,5.7-10.1c-16,16.4-34.5,21-53.9,17.5l-14.6,1.6C191.9,337.4,191.4,338.6,191,339.9z"/>
</g>
</svg>
