<?xml version="1.0" encoding="utf-8"?>
<!-- Generator: Adobe Illustrator 26.5.0, SVG Export Plug-In . SVG Version: 6.00 Build 0)  -->
<svg version="1.1" id="Layer_1" xmlns="http://www.w3.org/2000/svg" xmlns:xlink="http://www.w3.org/1999/xlink" x="0px" y="0px"
	 viewBox="0 0 500 500" style="enable-background:new 0 0 500 500;" xml:space="preserve">
<style type="text/css">
	.st0{fill:#1A1919;}
	.st1{fill:#FFFFFF;}
</style>
<g>
	<g>
		<path class="st0" d="M183.7,491.9c-17.3,0-33.8-6.5-46.5-18.3h-3.6l0-3.7c-11.8-12.7-18.3-29.1-18.3-46.4
			c0-17.5,6.5-33.9,18.3-46.5v-3.6l3.6-0.1c7.9-7.4,17.3-12.7,27.6-15.7v-23.7c-15.6-3.5-29.8-11.3-41.4-22.7l-0.1-0.1l-0.4-0.4
			c-16.2-16.3-25.2-37.9-25.2-60.8c0-22.8,8.9-44.4,25.2-60.7l1.8-1.8h0.2c11.2-10.7,24.9-18,39.9-21.4v-23.7
			c-10.3-3-19.7-8.3-27.6-15.6h-3.6l0-3.7c-11.8-12.8-18.3-29.2-18.3-46.5c0-18.1,7-35.1,19.7-48l0.4-0.4
			c13-12.9,30.1-20.1,48.3-20.1c17.4,0,33.9,6.5,46.7,18.4h0l0.2,0.2c0.5,0.5,1,1,1.5,1.5l1.8,1.8V30c11.8,12.7,18.3,29.1,18.3,46.6
			c0,17.8-6.8,34.6-19.2,47.5l-0.1,0.1l-0.8,0.8c-8.3,8.2-18.3,14.1-29.4,17.4V166c15,3.4,28.7,10.7,40,21.4h0.1l1.9,1.8
			c0.8,0.8,1.6,1.6,2.3,2.4l20.5-11.9c-2.8-11.2-2.7-23,0.3-34.3c4.7-17.6,16-32.3,31.9-41.5l0.5-0.3c10.3-5.8,22-8.9,33.7-8.9
			c6,0,11.9,0.8,17.7,2.4c17.6,4.7,32.4,16.1,41.6,31.9l0.8,1.4v0.1c8.5,15.5,10.6,33.3,6,50.4c-4.7,17.7-16,32.4-31.9,41.6
			l-5.3,3.1h-0.7c-8.9,4-18.3,6-28.1,6c-6,0-12-0.8-17.8-2.3c-11.2-3-21.4-8.7-29.8-16.8l-20.5,11.9c2.6,8.3,3.9,16.8,3.9,25.5
			c0,8.7-1.3,17.3-3.9,25.6l20.5,11.8c8.3-8,18.5-13.8,29.8-16.8c5.8-1.6,11.8-2.4,17.8-2.4c11.9,0,23.6,3.2,34,9.1l4.2,2v0.6
			c13.8,9.3,23.7,23.1,27.9,39.2c4.6,17.2,2.2,36.1-6.8,51.6l-5,10.1l-0.9-1.4c-9,11.3-21.4,19.5-35.6,23.4
			c-5.8,1.5-11.8,2.3-17.8,2.3c-12,0-23.8-3.2-34.2-9.1l-3-1.7v-0.2c-14.3-9.2-24.5-23.2-28.9-39.7c-3.1-11.3-3.2-23-0.3-34.2
			l-20.6-11.9c-0.7,0.8-1.5,1.5-2.3,2.4l-0.2,0.2c-11.6,11.6-25.9,19.5-41.7,23v23.7c11.1,3.2,21.1,9.1,29.4,17.4l0.8,0.8l0,0.1
			c12.4,12.8,19.2,29.6,19.2,47.5c0,17.6-6.7,34.2-18.8,47l-0.1,0.2l-1.2,1.2C219.1,484.8,201.9,491.9,183.7,491.9z M165.8,408.9
			c-3.3,4.1-5.1,9.2-5.1,14.5c0,6.1,2.4,11.9,6.6,16.1l0.2,0.2c4.2,4.2,10,6.6,16.1,6.6c5.8,0,11.3-2.1,15.6-6l0.1-0.1l0.7-0.7
			c4.2-4.1,6.6-10,6.6-16.1c0-5.8-2-11.2-5.8-15.4l-1-0.9c-4.2-4.3-10-6.7-16.2-6.7c-6.2,0-11.9,2.4-16.1,6.7L165.8,408.9
			L165.8,408.9z M322.4,356.7c3.5,2,7.3,3,11.3,3c0,0,0,0,0,0c2.1,0,4.1-0.3,6.2-0.8c5.9-1.6,10.9-5.3,13.9-10.5l0.5-0.9
			c2.7-5,3.3-11.1,1.8-16.6c-1.6-6-5.4-11-10.7-14l-0.2-0.1l-0.3-0.2c-3.4-1.8-7.1-2.7-10.9-2.7c-2,0-4,0.3-6,0.8l-0.1,0
			c-5.8,1.4-10.8,5.3-13.8,10.7c-3.1,5.3-3.9,11.5-2.3,17.5c1.6,5.7,5.2,10.5,10.2,13.6L322.4,356.7z M183.7,214
			c-9.5,0-18.6,3.8-25.4,10.6c-6.7,6.7-10.5,15.8-10.5,25.4c0,9.6,3.7,18.7,10.5,25.5c6.8,6.7,15.8,10.5,25.4,10.5
			c9.6,0,18.6-3.7,25.5-10.5c6.7-6.8,10.5-15.9,10.5-25.5c0-9.6-3.7-18.6-10.5-25.4C202.3,217.8,193.3,214,183.7,214z M313.9,174.7
			l0.1,0.2c3.1,5.2,8,8.9,13.8,10.5l0.1,0c1.9,0.5,4,0.8,6,0.8c4,0,7.9-1.1,11.3-3.1l0.2-0.1l0.3-0.2c5-3.1,8.6-7.9,10.2-13.7
			c1.6-5.9,0.8-12-2.1-17.3l-0.2-0.3l-0.1-0.1c-3-5.1-7.9-8.8-13.8-10.4c-1.9-0.5-4-0.8-6-0.8c-3.7,0-7.2,0.9-10.5,2.6l-0.9,0.5
			c-5.3,3-9.1,8-10.7,14c-1.6,5.8-0.8,11.9,2.2,17.2L313.9,174.7z M167.3,92.7l0.3,0.3c4.2,4.3,9.9,6.6,16.1,6.6
			c6,0,11.6-2.2,15.9-6.2l0.1-0.1l0.5-0.5c4.3-4.2,6.6-10,6.6-16.2c0-5.8-2.1-11.2-5.8-15.4l-0.9-0.9c-4.3-4.3-10.1-6.7-16.3-6.7
			c-6.2,0-11.9,2.4-16.1,6.7l-1.8,1.8c-3.3,4.1-5.1,9.1-5.1,14.5c0,6.1,2.3,11.7,6.4,16L167.3,92.7z"/>
		<path class="st1" d="M183.7,14.1c17.2,0,32.8,7,44.2,18.3v0.1h0c11.3,11.3,18.3,27,18.3,44.1c0,17.2-7,32.7-18.3,44.1l0,0.1
			c-8.4,8.4-19.2,14.4-31.2,17V171c16.8,2.8,32,10.8,43.5,22.5h0.1c1.8,1.9,3.6,3.9,5.3,5.9l28.9-16.7c-3.9-11.7-4.1-24-0.9-35.5
			c4.1-15.4,14.1-29.2,29.1-37.9l0.5-0.3c9.7-5.5,20.3-8.2,30.7-8.2c5.5,0,10.9,0.7,16.1,2.1c15.4,4.1,29.3,14.2,37.9,29.1v0
			c8.6,14.9,10.4,32,6.2,47.3c-4.1,15.4-14.1,29.3-29.1,37.9l-3.9,2.3h-0.4c-8.6,4.1-17.8,6-26.8,6c-5.5,0-11-0.7-16.2-2.1
			c-11.5-3-22-9.4-30.3-18.6l-28.9,16.7c3.3,8.8,5.2,18.3,5.2,28.2c0,9.9-1.8,19.5-5.2,28.4l28.9,16.6c8.2-9.2,18.8-15.5,30.3-18.6
			c5.3-1.4,10.7-2.2,16.2-2.2c10.6,0,21.3,2.7,31.2,8.5l1,0.4v0.1c14.4,8.7,24.1,22.2,28.1,37.5c4.1,15.3,2.4,32.4-6.2,47.3l-0.5,1
			l-0.1-0.1c-8.6,14.4-22.3,24.1-37.3,28.2c-5.2,1.4-10.7,2.1-16.2,2.1c-10.6,0-21.4-2.7-31.2-8.3v-0.1c-15-8.7-25-22.5-29.1-37.9
			c-3.1-11.5-2.9-23.8,0.9-35.5l-28.9-16.7c-1.7,2-3.5,3.9-5.3,5.8l-0.1,0.1c-11.6,11.6-26.7,19.7-43.5,22.3v33.4
			c12,2.5,22.8,8.5,31.2,16.9l0,0.1c11.3,11.2,18.3,26.9,18.3,44.1c0,17.2-7,32.7-18.3,44l0,0.2c-11.4,11.3-27,18.3-44.2,18.3
			c-17.1,0-32.7-7-44.1-18.3h0v-0.2c-11.3-11.3-18.3-26.8-18.3-44c0-17.2,7-32.9,18.3-44.1v-0.1h0c8.4-8.4,19.2-14.4,31.1-16.9
			v-33.4c-16.9-2.7-32-10.8-43.5-22.3l-0.1-0.1c-14.4-14.5-23.4-34.4-23.4-56.5c0-22,9-42,23.4-56.5h0.1
			c11.5-11.7,26.6-19.7,43.5-22.5v-33.3c-12-2.6-22.7-8.6-31.1-17h0v-0.1c-11.3-11.3-18.3-26.9-18.3-44.1c0-17.1,7-32.8,18.3-44.1
			l0-0.1C150.9,21.1,166.6,14.1,183.7,14.1 M183.7,105.5c8.1,0,15.3-3.2,20.5-8.4l0.1-0.1c5.2-5.2,8.4-12.4,8.4-20.4
			c0-8-3.2-15.3-8.4-20.5h-0.1c-5.2-5.2-12.5-8.5-20.5-8.5c-8,0-15.2,3.2-20.4,8.5h-0.1c-5.2,5.2-8.4,12.5-8.4,20.5
			c0,8.1,3.2,15.3,8.4,20.4l0.1,0.1C168.4,102.3,175.6,105.5,183.7,105.5 M319.4,138.2L319.4,138.2c-6.9,3.9-11.5,10.4-13.5,17.6
			c-1.9,7.2-1.1,15.1,2.9,22l0.1,0.2c4,6.8,10.4,11.4,17.5,13.2c2.5,0.7,5,1,7.6,1c4.9,0,9.8-1.3,14.3-3.9l0.4-0.2
			c6.8-4,11.2-10.4,13.1-17.4c1.9-7.2,1.2-15.1-2.8-22l-0.2-0.4c-4-6.7-10.4-11.2-17.4-13.1c-2.5-0.7-5-1-7.6-1
			C328.9,134.3,323.9,135.6,319.4,138.2 M183.7,291.9c11.6,0,22.1-4.7,29.7-12.2c7.6-7.6,12.2-18.1,12.2-29.8
			c0-11.6-4.7-22-12.2-29.6c-7.6-7.6-18.1-12.3-29.7-12.3c-11.6,0-22,4.8-29.6,12.3c-7.6,7.6-12.2,18-12.2,29.6
			c0,11.6,4.7,22.1,12.2,29.8C161.6,287.2,172.1,291.9,183.7,291.9 M319.4,361.9L319.4,361.9c4.6,2.6,9.5,3.8,14.4,3.8
			c2.6,0,5.2-0.3,7.7-1c7.2-1.9,13.7-6.5,17.6-13.4l0.5-1c3.5-6.6,4.2-14.2,2.3-21c-1.9-7.2-6.6-13.6-13.5-17.6l-0.4-0.3
			c-4.4-2.4-9.2-3.6-14-3.6c-2.5,0-5.1,0.3-7.5,1c-7.2,1.8-13.7,6.6-17.6,13.5c-4,6.8-4.8,14.7-2.9,22
			C307.8,351.4,312.5,357.8,319.4,361.9 M183.7,452.4c8.1,0,15.3-3.3,20.5-8.4l0.1-0.2c5.2-5.1,8.4-12.4,8.4-20.4
			c0-8.1-3.2-15.3-8.4-20.5h-0.1c-5.2-5.3-12.5-8.5-20.5-8.5c-8,0-15.2,3.2-20.4,8.5h-0.1c-5.2,5.2-8.4,12.5-8.4,20.5
			c0,8,3.2,15.2,8.4,20.4l0.1,0.2C168.4,449.1,175.6,452.4,183.7,452.4 M183.7,2.1c-19.8,0-38.5,7.8-52.6,21.8l-0.7,0.7l-0.1,0.1
			c-13.6,14-21.1,32.4-21.1,51.9c0,18.1,6.5,35.2,18.3,48.8v7.4h7.3c7,6.1,15.1,10.8,23.9,14v14.6c-13.5,3.8-25.8,10.6-36.3,20.1
			h-0.3l-3.5,3.5c-17.4,17.5-26.9,40.5-26.9,64.9c0,24.5,9.6,47.5,26.9,65l0.7,0.7l0.2,0.1c11.1,10.9,24.5,18.7,39.2,22.8v14.7
			c-8.7,3.1-16.8,7.8-23.9,14h-7.3l0,7.3c-11.9,13.5-18.3,30.7-18.3,48.9c0,18.1,6.5,35.2,18.3,48.7v7.4h7.3
			c13.6,11.8,30.7,18.3,48.8,18.3c19.8,0,38.5-7.7,52.6-21.8l2.5-2.4l0.1-0.4c12.5-13.7,19.3-31.3,19.3-49.9
			c0-19.1-7.2-37.1-20.2-50.9l-0.1-0.2l-1.6-1.6c-7.9-7.9-17.3-13.9-27.7-17.5v-14.7c14.7-4.1,28.1-11.8,39.2-22.7l12.7,7.3
			c-2,10.8-1.6,22,1.4,32.8c4.5,16.8,14.6,31.3,28.7,41.3v0.5l6,3.5c11.3,6.5,24.2,9.9,37.2,9.9c6.5,0,12.9-0.8,19.2-2.5l0.1,0
			l0.1,0c12.8-3.5,24.2-10.2,33.3-19.4l2.4,3.6l9.2-18.6l0.4-0.7c9.6-16.9,12.3-37.3,7.2-56c-4.4-16.4-14.1-30.7-27.7-40.7v-1.3
			l-6.9-3.2l-0.5-0.2c-11.2-6.4-23.9-9.8-36.7-9.8c-6.5,0-13.1,0.9-19.4,2.6c-10.8,2.9-20.6,8.1-29,15.2l-12.7-7.3
			c1.9-7.4,2.8-15.1,2.8-22.8c0-7.7-1-15.3-2.8-22.6l12.7-7.3c8.4,7.2,18.3,12.4,29,15.2c6.3,1.7,12.8,2.5,19.3,2.5
			c10.2,0,20.1-2,29.4-6h1.1l2.8-1.7l3.9-2.3c17.2-9.9,29.5-26,34.6-45.2c4.8-18.1,2.8-37-5.8-53.5v-0.1l-1.6-2.8
			c-10-17.3-26-29.6-45.2-34.7c-6.2-1.7-12.7-2.6-19.2-2.6c-12.8,0-25.5,3.4-36.7,9.7l-0.1,0.1l-0.1,0.1l-0.4,0.3
			c-17.2,10-29.5,26-34.6,45.1c-2.9,10.8-3.4,21.9-1.3,32.8l-12.7,7.3l-2.6-2.7H245c-10.5-9.5-22.8-16.3-36.3-20.1v-14.6
			c10.3-3.7,19.7-9.6,27.6-17.5l1.6-1.6l0.1-0.2c13-13.9,20.2-31.9,20.2-50.9c0-18.2-6.5-35.3-18.3-48.9v-0.3l-3.5-3.5
			c-0.3-0.3-0.5-0.5-0.8-0.8l-2.6-2.6h-0.2C219,8.6,201.8,2.1,183.7,2.1L183.7,2.1z M170.3,66.1l1.5-1.6c3.1-3.1,7.3-4.9,11.8-4.9
			c4.6,0,8.9,1.7,12,4.9l1.1,1.1c2.5,3,3.9,6.9,3.9,11c0,4.6-1.7,8.8-4.9,11.9l-0.9,0.9c-3.1,2.7-7,4.2-11.3,4.2
			c-4.6,0-8.8-1.7-11.8-4.8l-0.5-0.5l-0.1-0.1c-2.9-3.1-4.5-7.2-4.5-11.5C166.7,72.7,168,69,170.3,66.1L170.3,66.1z M326.1,148.2
			c2.4-1.2,5-1.8,7.7-1.8c1.5,0,3,0.2,4.5,0.6c4.4,1.2,8,3.9,10.2,7.7l0.2,0.3l0.2,0.2c2.1,3.8,2.6,8.3,1.4,12.6
			c-1.1,4.1-3.7,7.6-7.3,9.9l-0.3,0.1l-0.4,0.2c-2.5,1.5-5.4,2.2-8.3,2.2c-1.5,0-3-0.2-4.4-0.6l-0.1,0l-0.1,0
			c-4.3-1.1-7.9-3.8-10.2-7.7l-0.3-0.5l-0.1-0.1c-2.1-3.8-2.6-8.2-1.5-12.4c1.2-4.4,4-8.1,7.9-10.3L326.1,148.2L326.1,148.2z
			 M162.5,271.2c-5.6-5.7-8.7-13.3-8.7-21.3c0-8,3.1-15.5,8.7-21.1c5.7-5.7,13.2-8.8,21.1-8.8c8,0,15.5,3.1,21.2,8.8
			c5.6,5.6,8.7,13.1,8.7,21.1c0,8-3.1,15.6-8.7,21.3c-5.7,5.6-13.3,8.7-21.2,8.7C175.7,279.9,168.2,276.8,162.5,271.2L162.5,271.2z
			 M317.5,341.1c-1.1-4.4-0.5-9,1.7-12.8l0-0.1l0-0.1c2.2-3.9,5.9-6.8,10.1-7.8l0.1,0l0.1,0c1.4-0.4,2.9-0.6,4.4-0.6
			c2.7,0,5.4,0.7,7.8,1.9l0.2,0.2l0.4,0.2c3.9,2.3,6.7,5.9,7.9,10.3l0,0.1l0,0.1c1.1,4,0.6,8.4-1.3,12.1l0,0l0,0l-0.4,0.8
			c-2.2,3.8-5.8,6.5-10.2,7.6c-1.5,0.4-3.1,0.6-4.6,0.6c-3,0-5.8-0.7-8.3-2.2l-0.6-0.4C321.2,348.8,318.6,345.3,317.5,341.1
			L317.5,341.1z M170.3,412.9l1.6-1.7c3-3.1,7.2-4.8,11.8-4.8c4.6,0,8.9,1.7,12,4.9l1.1,1.1c2.5,3,3.9,6.9,3.9,11
			c0,4.5-1.8,8.8-4.8,11.8l-1.1,1.1c-3.1,2.6-7,4-11,4c-4.5,0-8.7-1.7-11.8-4.8l-0.1-0.1l-0.1-0.1l-0.1-0.1
			c-3.1-3.1-4.9-7.4-4.9-11.8C166.7,419.6,168,415.9,170.3,412.9L170.3,412.9z"/>
	</g>
</g>
</svg>
