<?xml version="1.0" encoding="utf-8"?>
<!-- Generator: Adobe Illustrator 26.5.0, SVG Export Plug-In . SVG Version: 6.00 Build 0)  -->
<svg version="1.1" id="Layer_1" xmlns="http://www.w3.org/2000/svg" xmlns:xlink="http://www.w3.org/1999/xlink" x="0px" y="0px"
	 viewBox="0 0 500 500" style="enable-background:new 0 0 500 500;" xml:space="preserve">
<style type="text/css">
	.st0{fill-rule:evenodd;clip-rule:evenodd;fill:#FF9900;}
	.st1{fill:#2B2B2B;}
	.st2{fill:#FFFFFF;}
</style>
<g>
	<g>
		<path class="st0" d="M435.1,341c-50.2,37.2-123.2,57-186,57c-88,0-167.2-32.6-227.1-86.9c-4.7-4.3-0.5-10.1,5.2-6.7
			c64.8,37.7,144.6,60.5,227.3,60.5c55.7,0,116.9-11.7,173.3-35.6C436.2,325.5,443.4,334.9,435.1,341L435.1,341z"/>
		<path class="st0" d="M456,317.1c-6.4-8.2-42.4-4-58.8-2c-4.9,0.6-5.7-3.7-1.2-6.9c28.7-20.2,75.9-14.4,81.4-7.7
			c5.5,6.9-1.5,54.2-28.4,76.9c-4.1,3.5-8.1,1.7-6.3-2.9C448.8,359.4,462.4,325.3,456,317.1L456,317.1z"/>
	</g>
	<g>
		<g>
			<path class="st1" d="M59,280.8c-15.4,0-28-4.6-37.4-13.6C12.1,258.1,7.3,246,7.3,231c0-16.1,5.9-29.1,17.4-38.8
				c11.2-9.4,26.2-14.1,44.7-14.1c8.8,0,18.6,1.1,29.2,3.2V171c0-8.1-1.6-13.8-4.7-16.6c-2.3-2.1-7.5-4.5-19.3-4.5
				c-12.4,0-24.8,1.8-36.7,5.4c-6.3,1.9-8.7,2.3-10.4,2.3c-4.8,0-10.4-3.2-10.4-12.2v-7.7c0-3.9,0.8-7,2.3-9.3
				c1.5-2.3,4-4.2,7.6-5.7c6.4-2.9,14.5-5.2,24.1-6.9c9.5-1.7,19-2.5,28.4-2.5c19.8,0,34.9,4.4,44.8,13.1
				c10.1,8.9,15.3,22.3,15.3,39.8v98.1c0,7.7-5,12.7-12.7,12.7h-12.3c-6.4,0-11.1-3.6-12.8-9.4c-4.8,3.1-9.9,5.7-15.2,7.8
				C77.3,279,68.1,280.8,59,280.8z M75.1,211.6c-22.4,0-25.4,9.1-25.4,18c0,5.4,1.3,9.2,3.9,11.8c2.7,2.6,6.7,3.9,12.3,3.9
				c5.5,0,11.3-1.1,17.4-3.3c5.2-1.9,10.3-4.5,15.2-7.9V214C90.6,212.4,82.7,211.6,75.1,211.6z"/>
			<path class="st2" d="M79.4,120.3c18.2,0,31.6,3.8,40.2,11.3c8.6,7.6,12.9,19.1,12.9,34.6v98.1c0,3.8-1.9,5.7-5.7,5.7h-12.3
				c-3.6,0-5.7-1.8-6.3-5.5l-1.4-9.5c-6.9,5.9-14.5,10.5-22.8,13.8c-8.3,3.3-16.6,4.9-24.8,4.9c-13.6,0-24.4-3.9-32.6-11.6
				c-8.1-7.7-12.2-18.1-12.2-31.1c0-14,5-25.1,14.9-33.4c9.9-8.3,23.3-12.5,40.2-12.5c10.7,0,22.8,1.6,36.2,4.9V171
				c0-10.3-2.3-17.6-7-21.8c-4.7-4.2-12.7-6.3-24-6.3c-13.2,0-26.1,1.9-38.7,5.7c-4.4,1.3-7.2,2-8.3,2c-2.3,0-3.4-1.7-3.4-5.2v-7.7
				c0-2.5,0.4-4.3,1.1-5.5c0.8-1.1,2.3-2.2,4.6-3.2c5.9-2.7,13.4-4.8,22.5-6.5C61.4,121.1,70.4,120.3,79.4,120.3 M65.9,252.3
				c6.3,0,12.9-1.2,19.8-3.7c6.9-2.5,13.5-6.1,19.8-10.9v-29.3c-10.3-2.5-20.5-3.7-30.4-3.7c-21.6,0-32.4,8.3-32.4,25
				c0,7.3,2,12.9,6,16.8C52.7,250.3,58.5,252.3,65.9,252.3 M79.4,106.3c-9.8,0-19.7,0.9-29.6,2.7c-10.2,1.8-18.6,4.3-25.7,7.4
				c-4.9,2.1-8.3,4.8-10.7,8.2c-2.3,3.5-3.5,7.8-3.5,13.2v7.7c0,13.2,9,19.2,17.4,19.2c2.4,0,5.2-0.4,12.4-2.6
				c11.2-3.4,22.9-5.1,34.7-5.1c11.2,0,14.3,2.5,14.6,2.7c0.9,0.8,2.4,4.1,2.4,11.4v1.9c-7.9-1.2-15.3-1.8-22.2-1.8
				c-20.1,0-36.7,5.3-49.2,15.7C7.2,197.8,0.3,213,0.3,231c0,16.9,5.6,30.8,16.5,41.3c10.8,10.3,25,15.5,42.2,15.5
				c9.9,0,20-2,29.9-5.8c3.4-1.3,6.8-2.9,10-4.6c3.7,4.3,9.1,6.7,15.4,6.7h12.3c11.6,0,19.7-8.1,19.7-19.7v-98.1
				c0-19.6-5.9-34.8-17.7-45.1C117.6,111.2,101,106.3,79.4,106.3L79.4,106.3z M65.9,238.3c-2.5,0-5.8-0.3-7.4-1.9
				c-1.5-1.5-1.8-4.5-1.8-6.8c0-5.6,1.9-7,2.6-7.6c1.6-1.2,5.8-3.3,15.8-3.3c5.4,0,10.9,0.4,16.4,1.2v10.4c-3.4,2.1-7,3.8-10.5,5.1
				C75.6,237.3,70.6,238.3,65.9,238.3L65.9,238.3z"/>
		</g>
		<g>
			<path class="st1" d="M297.2,277c-4.6,0-8.2-1.1-10.9-3.4c-2.4-2.1-4.2-5.3-5.6-9.9l-21.9-80.8l-21.7,80.8
				c-1.4,4.7-3.2,7.8-5.6,9.9c-2.6,2.3-6.3,3.4-10.9,3.4h-14.1c-4.6,0-8.1-1.1-10.7-3.2c-2.2-1.9-4.1-4.9-5.7-9.5l-42.5-126.9
				c-1.7-5.2-2.1-7.3-2.1-8.8c0-6.6,4.5-11,11.3-11h16.4c4.8,0,8.4,1.1,11,3.2c2.4,2,4.1,5.1,5.5,9.8l24.3,84.2l22.3-84.2
				c1.4-4.8,3.3-8,5.8-10c2.6-2.1,6.1-3.1,10.6-3.1h13.2c4.5,0,8,1,10.6,3.1c2.6,2,4.4,5.2,5.8,10l22.6,85.8l25.1-85.7
				c1.4-4.7,3.1-7.8,5.5-9.8c2.6-2.2,6.2-3.2,11-3.2h15.5c6.8,0,11.3,4.4,11.3,11c0,1.5-0.4,3.6-2.1,8.8l-43.6,126.9
				c-1.6,4.6-3.4,7.6-5.7,9.5c-2.6,2.2-6.1,3.2-10.7,3.2H297.2z"/>
			<path class="st2" d="M362.1,124.6c2.9,0,4.3,1.3,4.3,4c0,1-0.6,3.2-1.7,6.6L321,262c-1.1,3.3-2.3,5.4-3.6,6.5
				c-1.2,1.1-3.3,1.6-6.2,1.6h-14.1c-2.9,0-5-0.6-6.3-1.7c-1.3-1.1-2.5-3.3-3.4-6.6l-28.7-105.6l-28.4,105.6c-1,3.3-2.1,5.5-3.4,6.6
				c-1.3,1.1-3.4,1.7-6.3,1.7h-14.1c-2.9,0-4.9-0.5-6.2-1.6c-1.2-1-2.4-3.2-3.6-6.5l-42.5-126.8c-1.1-3.4-1.7-5.6-1.7-6.6
				c0-2.7,1.4-4,4.3-4h16.4c3.1,0,5.2,0.5,6.5,1.6c1.2,1.1,2.3,3.2,3.3,6.5l31.3,108.5L243,132.6c1-3.3,2.1-5.4,3.4-6.5
				c1.3-1,3.4-1.6,6.3-1.6h13.2c2.9,0,5,0.5,6.3,1.6c1.3,1.1,2.5,3.2,3.4,6.5l29,109.9l32.1-109.9c1-3.3,2.1-5.4,3.3-6.5
				c1.2-1,3.4-1.6,6.5-1.6H362.1 M362.1,110.6h-15.5c-6.5,0-11.6,1.6-15.5,4.9c-3.5,2.9-5.9,7.1-7.7,13.2l-18,61.6L289.2,129
				l-0.1-0.2l-0.1-0.2c-1.8-6.2-4.5-10.6-8.2-13.5l0,0l0,0c-3.9-3-8.9-4.6-14.9-4.6h-13.2c-6.1,0-11.1,1.5-15,4.6
				c-3.7,2.9-6.4,7.4-8.2,13.5l-0.1,0.2l0,0.2l-15.7,59.5l-17.2-59.8l0,0l0,0c-1.8-6.1-4.2-10.2-7.7-13.2l0,0l0,0
				c-3.9-3.3-9-4.9-15.5-4.9h-16.4c-10.6,0-18.3,7.6-18.3,18c0,2.7,0.6,5.6,2.4,11l42.5,126.9l0,0.1l0,0.1c2,5.8,4.5,9.8,7.8,12.5
				c3.8,3.2,8.9,4.9,15.2,4.9h14.1c6.3,0,11.5-1.7,15.4-5.1c3.5-3,6-7.3,7.8-13.3l0-0.2l0-0.2l15-55.6l15.1,55.6l0,0.1l0,0.1
				c1.8,6,4.3,10.3,7.8,13.3c3.9,3.4,9.1,5.1,15.4,5.1h14.1c6.3,0,11.4-1.6,15.2-4.9c3.3-2.7,5.7-6.7,7.8-12.5l0-0.1l0-0.1
				l43.6-126.8l0-0.1l0-0.1c1.8-5.4,2.4-8.3,2.4-11C380.4,118.1,372.7,110.6,362.1,110.6L362.1,110.6z"/>
		</g>
		<g>
			<path class="st1" d="M430.1,281.3c-16.9,0-32.4-2.9-46-8.6c-3.5-1.5-6-3.2-7.6-5.4c-1.8-2.4-2.7-5.6-2.7-9.7v-8
				c0-9,5.6-12.2,10.4-12.2c2.2,0,5.1,0.6,9.4,2.1c11.8,3.8,24.3,5.7,37.1,5.7c7.8,0,13.6-1.4,17.2-4.1c1.9-1.4,4.5-4.1,4.5-10.2
				c0-3.5-1.3-5.2-2.3-6.2c-1.3-1.2-4.7-3.8-13.7-7.1l-24.5-9.2c-30.1-11.1-36.4-31.5-36.4-46.7c0-14.6,5.8-26.6,17.1-35.6
				c10.9-8.6,25.1-13,42.4-13c13.2,0,26.2,2.4,38.8,7c3.6,1.2,6.3,3,8.1,5.3c1.9,2.5,2.9,5.8,2.9,9.9v7.7c0,8.4-5.4,12.2-10.7,12.2
				c-2.1,0-4.8-0.5-8.7-1.8c-9.4-2.8-19.1-4.3-28.9-4.3c-20.5,0-20.5,8.2-20.5,11.7c0,4,1.4,5.7,2.4,6.7c1.3,1.3,5.2,4,15.8,8
				l22.4,8.6c12.6,4.9,21.5,10.7,27.3,17.7c6,7.3,9.1,16.7,9.1,27.8c0,15.8-6,28.5-17.9,37.9C463.5,276.8,448.4,281.3,430.1,281.3z"
				/>
			<path class="st2" d="M434.9,120.3c12.4,0,24.6,2.2,36.4,6.6c2.3,0.8,3.9,1.8,4.9,3c1,1.2,1.4,3.1,1.4,5.6v7.7
				c0,3.4-1.2,5.2-3.7,5.2c-1.3,0-3.5-0.5-6.6-1.4c-10.1-3.1-20.5-4.6-31-4.6c-18.4,0-27.5,6.2-27.5,18.7c0,5,1.5,8.9,4.6,11.8
				c3.1,2.9,9.1,6,18.1,9.5l22.4,8.6c11.3,4.4,19.4,9.6,24.4,15.6c5,6,7.5,13.8,7.5,23.4c0,13.6-5.1,24.4-15.2,32.4
				c-10.1,8-23.6,12.1-40.5,12.1c-16.1,0-30.5-2.7-43.3-8c-2.3-1-3.9-2-4.7-3.2c-0.9-1.1-1.3-3-1.3-5.5v-8c0-3.4,1.1-5.2,3.4-5.2
				c1.3,0,3.7,0.6,7.2,1.7c12.6,4,25.7,6,39.3,6c9.4,0,16.5-1.8,21.4-5.5c4.9-3.6,7.3-8.9,7.3-15.8c0-4.6-1.5-8.3-4.4-11.2
				c-3-2.9-8.4-5.7-16.2-8.6l-24.4-9.2c-21.2-7.8-31.9-21.2-31.9-40.2c0-12.4,4.8-22.5,14.5-30.1
				C406.6,124.1,419.3,120.3,434.9,120.3 M434.9,106.3c-18.8,0-34.6,4.9-46.7,14.5c-13,10.3-19.8,24.5-19.8,41.1
				c0,17.4,7.1,40.8,41,53.3l24.3,9.2l0.1,0l0.1,0c8.7,3.2,11.1,5.3,11.3,5.5c0,0,0.1,0.1,0.1,0.1c0,0,0,0,0,0c0,0,0.1,0.3,0.1,1.1
				c0,3.3-1,4.1-1.7,4.6c-1.1,0.8-4.5,2.7-13,2.7c-12,0-23.8-1.8-35-5.3c-5.1-1.7-8.5-2.4-11.5-2.4c-8.4,0-17.4,6-17.4,19.2v8
				c0,5.6,1.4,10.2,4.1,13.9c2.4,3.2,5.9,5.7,10.6,7.7c14.5,6,30.9,9.1,48.7,9.1c20,0,36.5-5.1,49.2-15.1
				c13.4-10.6,20.5-25.6,20.5-43.4c0-12.9-3.6-23.7-10.7-32.3c-6.6-8-16.4-14.4-30.1-19.8l0,0l0,0l-22.4-8.6
				c-10.5-4-13.2-6.3-13.5-6.6c0-0.1-0.2-0.6-0.2-1.6c0-1.9,0.4-2.1,0.7-2.4c0.8-0.5,4-2.3,12.8-2.3c9.1,0,18.1,1.3,26.9,4
				c4.5,1.4,7.8,2.1,10.7,2.1c8.8,0,17.7-6.6,17.7-19.2v-7.7c0-5.6-1.5-10.4-4.3-14.1l0,0l0,0c-2.6-3.4-6.4-6-11.3-7.7
				C462.7,108.7,448.9,106.3,434.9,106.3L434.9,106.3z"/>
		</g>
	</g>
</g>
</svg>
