<?xml version="1.0" encoding="utf-8"?>
<!-- Generator: Adobe Illustrator 26.5.0, SVG Export Plug-In . SVG Version: 6.00 Build 0)  -->
<svg version="1.1" id="Layer_1" xmlns="http://www.w3.org/2000/svg" xmlns:xlink="http://www.w3.org/1999/xlink" x="0px" y="0px"
	 viewBox="0 0 500 500" style="enable-background:new 0 0 500 500;" xml:space="preserve">
<style type="text/css">
	.st0{fill:#B5DD64;}
	.st1{fill:#A8CB54;}
	.st2{fill:#DCF3A3;}
</style>
<g>
	<path class="st0" d="M27,302.6c-8.8-14.5-12.9-30.2-12.7-47.1c2.4-2.1,5.2-1.5,7.9-1.5c39.6,0,79.3,0,118.9,0c71,0,142,0,213,0
		c1.5,0,3.1-0.1,4.6,0c3.8,0.3,6.7-0.5,7-5.1c0-0.6,0.5-1.1,0.9-1.6c3,0.2,2.2,2.7,2.3,4.4c0.3,5.4-0.3,10.8,0.5,16.1
		c1.5,10.3,4.3,20.1,9,29.4c0.9,1.8,2.9,3.9,0.4,6.1c-2.1,0.8-4.2,0.7-6.4,0.7c-112.7,0-225.3,0-338,0
		C31.9,304.1,29.2,304.5,27,302.6z"/>
	<path class="st1" d="M27,302.6c117.6,0,235.1,0,352.7,0c1.9,0.3,2.7,1.9,3.6,3.3c14.6,22.1,34.9,35.7,60.8,41.2
		c1.7,0.4,4.2-0.3,4.8,2.5c-1.5,0-3.1,0.1-4.6,0.1c-112.5,0-224.9,0.2-337.4-0.1c-34.5-0.1-60.6-16.4-79.2-45.2
		C27.3,303.9,27.2,303.2,27,302.6z"/>
	<path class="st1" d="M367.6,247.2c-0.2,0.4-0.6,0.8-0.7,1.2c-1.1,7.2-1.1,7.2-8.6,7.2c-114.7,0-229.4,0-344,0
		c-0.5-17,3.8-32.7,12.7-47.1c2.4-1.9,5.3-1.4,8-1.4c29.5,0,59.1,0,88.6,0c82,0,163.9,0,245.9,0c3,0,6.2-0.5,9,1.1
		c1.6,1.6,1,3.4,0.2,5.1c-5,9.6-7.8,19.8-9.5,30.4C369,244.9,368.8,246.3,367.6,247.2z"/>
	<path class="st0" d="M378.9,209.5c-1.8-1.9-4.1-1-6.1-1c-113.1,0-226.2,0-339.3,0c-2.2,0-4.3,0-6.5,0c14-24.3,35.1-39,62.2-45.1
		c6.3-1.4,12.7-2,19.2-2c112.2,0,224.5,0,336.7,0c1.5,0,3.1,0.1,4.6,0.1c-0.1,2.4-2.2,1.8-3.5,2c-27.3,5-48.3,19.3-63.5,42.4
		C381.8,207.4,381.1,209.4,378.9,209.5z"/>
	<path class="st2" d="M378.9,209.5c8.2-13,18-24.4,31-32.8c11.9-7.7,24.6-12.9,38.7-14.5c0.4,0,0.8-0.5,1.1-0.7
		c6.1,0.1,12.3-1,18.3,0.8c11.3,3.5,18.3,14.4,16.8,25.9c-1.5,11.4-11.7,20.2-23.7,20.3c-26.1,0.2-46.7,22.2-46.7,47.1
		c0,24.9,20.6,46.9,46.7,47.1c13.6,0.1,23.9,10.5,23.8,23.9c-0.1,13-10.7,23.1-24.1,23.1c-4,0-8-0.1-12-0.1
		c-7.7-2.4-15.7-3.7-23.1-6.9c-17.8-7.5-31.9-19.2-42.6-35.1c-1.1-1.7-2.2-3.3-3.4-5c-9.9-17.2-13.2-35.8-12-55.4
		c1.1-11.6,4-22.7,9.2-33.1C377.6,212.6,378.2,211,378.9,209.5z"/>
</g>
</svg>
