<?xml version="1.0" encoding="utf-8"?>
<!-- Generator: Adobe Illustrator 27.8.1, SVG Export Plug-In . SVG Version: 6.00 Build 0)  -->
<svg version="1.1" id="Layer_1" xmlns="http://www.w3.org/2000/svg" xmlns:xlink="http://www.w3.org/1999/xlink" x="0px" y="0px"
	 viewBox="0 0 500 500" style="enable-background:new 0 0 500 500;" xml:space="preserve">
<style type="text/css">
	.st0{fill:#2396ED;}
</style>
<g>
	<path class="st0" d="M480.6,208.9c-10.8-7.5-35.7-10.3-55.1-6.6c-2.3-18.8-12.6-35.2-30.7-49.8l-10.4-7.5l-7.2,10.8
		c-9,14.1-13.5,33.8-12.2,52.6c0.5,6.6,2.7,18.3,9.5,28.7c-6.3,3.8-19.4,8.5-36.6,8.5H11.6l-0.9,3.8c-3.2,18.8-3.2,77.5,33.9,122.6
		c28,34.3,69.5,51.7,124.1,51.7c118.3,0,205.8-56.8,246.9-159.7c16.3,0.5,51,0,68.6-35.2c0.5-0.9,1.4-2.8,4.5-9.9l1.8-3.8
		L480.6,208.9L480.6,208.9z M272.5,76.4h-49.7v47h49.7V76.4L272.5,76.4z M272.5,132.8h-49.7v47h49.7V132.8L272.5,132.8z
		 M213.8,132.8h-49.7v47h49.7V132.8L213.8,132.8z M155.2,132.8h-49.7v47h49.7V132.8L155.2,132.8z M96.5,189.2H46.8v47h49.7V189.2
		L96.5,189.2z M155.2,189.2h-49.7v47h49.7V189.2L155.2,189.2z M213.8,189.2h-49.7v47h49.7V189.2L213.8,189.2z M272.5,189.2h-49.7v47
		h49.7V189.2L272.5,189.2z M331.2,189.2h-49.7v47h49.7V189.2L331.2,189.2z"/>
</g>
</svg>
