<?xml version="1.0" encoding="utf-8"?>
<!-- Generator: Adobe Illustrator 27.8.1, SVG Export Plug-In . SVG Version: 6.00 Build 0)  -->
<svg version="1.1" id="Layer_1" xmlns="http://www.w3.org/2000/svg" xmlns:xlink="http://www.w3.org/1999/xlink" x="0px" y="0px"
	 viewBox="0 0 500 500" style="enable-background:new 0 0 500 500;" xml:space="preserve">
<style type="text/css">
	.st0{fill-rule:evenodd;clip-rule:evenodd;fill:#19BCFE;}
	.st1{fill-rule:evenodd;clip-rule:evenodd;fill:#09CF83;}
	.st2{fill-rule:evenodd;clip-rule:evenodd;fill:#A259FF;}
	.st3{fill-rule:evenodd;clip-rule:evenodd;fill:#F24E1E;}
	.st4{fill-rule:evenodd;clip-rule:evenodd;fill:#FF7262;}
</style>
<g transform="translate(4)">
	<circle class="st0" cx="324.3" cy="250" r="78.3"/>
	<path class="st1" d="M167.7,485c43.3,0,78.3-35.1,78.3-78.3c0-11.8,0-37.9,0-78.3c-35.2,0-61.3,0-78.3,0
		c-43.3,0-78.3,35.1-78.3,78.3S124.4,485,167.7,485z"/>
	<path class="st2" d="M167.7,328.3c14.4,0,40.5,0,78.3,0V171.7c-37.8,0-63.9,0-78.3,0c-43.3,0-78.3,35.1-78.3,78.3
		S124.4,328.3,167.7,328.3z"/>
	<path class="st3" d="M167.7,171.7c14.4,0,40.5,0,78.3,0V15c-37.8,0-63.9,0-78.3,0c-43.3,0-78.3,35.1-78.3,78.3
		S124.4,171.7,167.7,171.7z"/>
	<path class="st4" d="M324.3,171.7H246l0,0V15h78.3l0,0c43.3,0,78.3,35.1,78.3,78.3S367.6,171.7,324.3,171.7z"/>
</g>
</svg>
