<?xml version="1.0" encoding="utf-8"?>
<!-- Generator: Adobe Illustrator 26.5.0, SVG Export Plug-In . SVG Version: 6.00 Build 0)  -->
<svg version="1.1" id="Layer_1" xmlns="http://www.w3.org/2000/svg" xmlns:xlink="http://www.w3.org/1999/xlink" x="0px" y="0px"
	 viewBox="0 0 500 500" style="enable-background:new 0 0 500 500;" xml:space="preserve">
<style type="text/css">
	.st0{fill:#FF0101;}
	.st1{fill:#0101FF;}
	.st2{fill:#01FF01;}
</style>
<g>
	<path class="st0" d="M191.2,236.1C146,210,124,156.9,137.5,106.5c13.5-50.3,59.1-85.4,111.2-85.4s97.7,35,111.2,85.4
		c13.5,50.3-8.5,103.5-53.7,129.5L271.7,176c18-10.4,26.7-31.5,21.3-51.5s-23.5-34-44.3-34s-38.9,13.9-44.3,34s3.4,41.2,21.3,51.5
		L191.2,236.1z"/>
	<path class="st1" d="M437.8,263.9c45.1,26.1,67.1,79.2,53.7,129.5s-59.1,85.4-111.2,85.4s-97.7-35-111.2-85.4s8.5-103.5,53.7-129.5
		l34.7,60.1c-18,10.4-26.7,31.5-21.3,51.5c5.4,20,23.5,34,44.3,34c20.7,0,38.9-13.9,44.3-34c5.4-20-3.4-41.2-21.3-51.5L437.8,263.9z
		"/>
	<path class="st2" d="M235,363.7c0,52.1-35,97.7-85.4,111.2c-50.3,13.5-103.5-8.5-129.5-53.7s-18.6-102.2,18.3-139
		c36.9-36.9,93.9-44.4,139-18.3L142.7,324c-18-10.4-40.6-7.4-55.3,7.3c-14.7,14.7-17.6,37.3-7.3,55.3c10.4,18,31.5,26.7,51.5,21.3
		c20-5.4,34-23.5,34-44.3H235z"/>
</g>
</svg>
