<?xml version="1.0" encoding="utf-8"?>
<!-- Generator: Adobe Illustrator 28.0.0, SVG Export Plug-In . SVG Version: 6.00 Build 0)  -->
<svg version="1.1" id="Layer_1" xmlns="http://www.w3.org/2000/svg" xmlns:xlink="http://www.w3.org/1999/xlink" x="0px" y="0px"
	 viewBox="0 0 48 48" style="enable-background:new 0 0 48 48;" xml:space="preserve">
<style type="text/css">
	.st0{fill:#C4C4C4;filter:url(#Adobe_OpacityMaskFilter);}
	.st1{mask:url(#mask0_639_13800_00000049916685001910118530000013075630045845253518_);}
	.st2{fill:url(#SVGID_1_);}
	.st3{opacity:0.5;stroke:#000000;stroke-opacity:0.5;enable-background:new    ;}
	.st4{fill:url(#SVGID_00000024688230210864954520000002654135799757592721_);}
	.st5{fill:url(#SVGID_00000154393529903322251800000015123932768439018929_);}
</style>
<defs>
	<filter id="Adobe_OpacityMaskFilter" filterUnits="userSpaceOnUse" x="-1" y="-0.2" width="50.7" height="49.9">
		<feColorMatrix  type="matrix" values="1 0 0 0 0  0 1 0 0 0  0 0 1 0 0  0 0 0 1 0"/>
	</filter>
</defs>
<mask maskUnits="userSpaceOnUse" x="-1" y="-0.2" width="50.7" height="49.9" id="mask0_639_13800_00000049916685001910118530000013075630045845253518_">
	<path class="st0" d="M0.7,22c-1,1.1-1,2.8,0,4l17.8,20.5c0.8,0.9,2.2,0.9,3,0l1.9-2.2l2.1,2.3c0.8,0.9,2.2,0.9,3,0L47.2,26
		c1.1-1.2,1.1-2.9,0-4.1L28.5,1.4c-0.8-0.9-2.2-0.9-3,0l-2.1,2.3l-1.9-2.2c-0.8-0.9-2.2-0.9-3,0L0.7,22z"/>
</mask>
<g class="st1">
	
		<linearGradient id="SVGID_1_" gradientUnits="userSpaceOnUse" x1="30.819" y1="-0.1686" x2="2.4043" y2="68.7976" gradientTransform="matrix(1 0 0 -1 0 50)">
		<stop  offset="0" style="stop-color:#742774"/>
		<stop  offset="1" style="stop-color:#BB35A4"/>
	</linearGradient>
	<path class="st2" d="M20,48.2L-1,24L20-0.2l21,24.2L20,48.2z"/>
	<path class="st3" d="M27,0.5l22,24.2L27,49l-9.2-10.1c-1.1-1.2-1.1-2.9,0-4.1l7.3-8c1.1-1.2,1.1-2.9,0-4.1l-7.3-8
		c-1.1-1.2-1.1-2.9,0-4.1L27,0.5z"/>
	
		<linearGradient id="SVGID_00000153670454047073582050000009363151651032323484_" gradientUnits="userSpaceOnUse" x1="17.8698" y1="51.1055" x2="41.1942" y2="2.8123" gradientTransform="matrix(1 0 0 -1 0 50)">
		<stop  offset="0" style="stop-color:#E48CC7"/>
		<stop  offset="1" style="stop-color:#D467B9"/>
	</linearGradient>
	<path style="fill:url(#SVGID_00000153670454047073582050000009363151651032323484_);" d="M27-0.2l22,24.2L27,48.2l-9.2-10.1
		c-1.1-1.2-1.1-2.9,0-4.1l7.3-8c1.1-1.2,1.1-2.9,0-4.1l-7.3-8c-1.1-1.2-1.1-2.9,0-4.1L27-0.2z"/>
	
		<linearGradient id="SVGID_00000034809705342147651120000009739775020106282924_" gradientUnits="userSpaceOnUse" x1="34.5364" y1="36.7311" x2="41.6455" y2="15.0686" gradientTransform="matrix(1 0 0 -1 0 50)">
		<stop  offset="0" style="stop-color:#E9A1CB"/>
		<stop  offset="1" style="stop-color:#E48CC7"/>
	</linearGradient>
	<path style="fill:url(#SVGID_00000034809705342147651120000009739775020106282924_);" d="M36.6,13.5c0.8-0.9,2.2-0.9,3,0l7.7,8.4
		c1.1,1.2,1.1,2.9,0,4.1l-7.7,8.4c-0.8,0.9-2.2,0.9-3,0L28.9,26c-1.1-1.2-1.1-2.9,0-4.1L36.6,13.5z"/>
</g>
</svg>
