<?xml version="1.0" encoding="utf-8"?>
<!-- Generator: Adobe Illustrator 26.5.0, SVG Export Plug-In . SVG Version: 6.00 Build 0)  -->
<svg version="1.1" id="Layer_1" xmlns="http://www.w3.org/2000/svg" xmlns:xlink="http://www.w3.org/1999/xlink" x="0px" y="0px"
	 viewBox="0 0 500 500" style="enable-background:new 0 0 500 500;" xml:space="preserve">
<style type="text/css">
	.st0{fill:#FF6600;}
</style>
<path class="st0" d="M454.9,202.4H306.4c-7.4,0-13.5-6-13.5-13.5V34.2c0-11.5-9.3-20.7-20.7-20.7h-53c-11.5,0-20.7,9.3-20.7,20.7
	V188c0,8-6.4,14.5-14.4,14.5l-48.6,0.2c-8,0-14.6-6.5-14.6-14.5l0.3-153.9c0-11.5-9.3-20.8-20.7-20.8H47.5
	c-11.5,0-20.7,9.3-20.7,20.7v433.2c0,10.2,8.2,18.4,18.4,18.4h409.7c10.2,0,18.4-8.2,18.4-18.4V220.8
	C473.3,210.7,465,202.4,454.9,202.4z M385.3,365.1c0,13.3-10.8,24.1-24.1,24.1h-41.9c-13.3,0-24.1-10.8-24.1-24.1v-41.9
	c0-13.3,10.8-24.1,24.1-24.1h41.9c13.3,0,24.1,10.8,24.1,24.1L385.3,365.1L385.3,365.1z"/>
</svg>
