<?xml version="1.0" encoding="utf-8"?>
<!-- Generator: Adobe Illustrator 26.5.0, SVG Export Plug-In . SVG Version: 6.00 Build 0)  -->
<svg version="1.1" id="Layer_1" xmlns="http://www.w3.org/2000/svg" xmlns:xlink="http://www.w3.org/1999/xlink" x="0px" y="0px"
	 viewBox="0 0 250 250" style="enable-background:new 0 0 250 250;" xml:space="preserve">
<style type="text/css">
	.st0{fill:url(#SVGID_1_);stroke:#000000;stroke-miterlimit:10;}
	.st1{fill:url(#SVGID_00000010278674537830032270000007276061226229361590_);stroke:#000000;stroke-miterlimit:10;}
	.st2{fill:url(#SVGID_00000071556497961972098090000016459239463109931954_);}
</style>
<linearGradient id="SVGID_1_" gradientUnits="userSpaceOnUse" x1="-172.3798" y1="542.1259" x2="-172.3475" y2="542.1259" gradientTransform="matrix(539.015 -318.4933 318.4933 539.015 -79692.7422 -346894.4688)">
	<stop  offset="0" style="stop-color:#909CA9"/>
	<stop  offset="1" style="stop-color:#EDEDEE"/>
</linearGradient>
<path class="st0" d="M158,116.8l-48.2,15.8l-42,18.5l-11.7,3.1c-3,2.9-6.1,5.7-9.6,8.6c-3.7,3.2-7.2,6.1-9.8,8.2
	c-3,2.4-7.3,6.7-9.6,9.4c-3.3,4.2-6,8.6-7.1,12c-2,6.1-1.1,12.3,2.9,18.1c4.9,7.3,14.8,14.7,26.3,19.7c5.9,2.6,15.8,5.9,23.2,7.8
	c12.3,3.1,36.2,6.6,49.4,7.1c2.6,0.1,6.2,0.1,6.3,0c0.2-0.2,2.4-4.1,4.7-9c8.1-16.5,13.9-32,17.1-45.2c1.9-8,3.3-18.7,4.4-31.3
	c0.2-3.6,0.4-15.4,0.1-19.4c-0.4-6.6-1-11.8-1.8-17.1c-0.1-0.7-0.2-1.4-0.1-1.4c0.1-0.1,0.6-0.2,6.6-1.9L158,116.8z M147,123.2
	c0.5,0,1.6,11.2,1.9,18.3c0.1,1.4,0,2.5,0,2.5c-0.2,0-6.1-3.5-10.4-6.1c-3.6-2.3-10.5-6.9-11.6-7.8c-0.4-0.2-0.4-0.2,2.6-1.3
	C134.5,127,146.5,123.2,147,123.2z M122.3,131.3c0.4,0,1.2,0.5,3.2,1.7c7.5,4.7,17.7,10.4,22.1,12.3c1.3,0.6,1.4,0.4-1.6,2.5
	c-6.6,4.5-14.9,9-25,13.4c-1.8,0.8-3.2,1.4-3.3,1.4s0.1-1,0.5-2c2.4-9.1,3.8-18.3,3.9-25.6C122,131.3,122,131.3,122.3,131.3
	L122.3,131.3z M117.3,133.3c0.2,0.2,0.1,8.4-0.2,10.6c-0.6,5.3-1.7,10.3-3.3,15.9c-0.4,1.3-0.7,2.5-0.8,2.5
	c-0.1,0.2-5.1-4.7-6.8-6.6c-2.9-3.2-5-6.6-6.7-9.8c-0.8-1.7-2.2-4.9-2-4.9C97.9,140.5,117.2,133.1,117.3,133.3L117.3,133.3z
	 M93.5,142.6c0.2,0.1,0.5,0.7,0.6,1.3c1.2,3.2,3.8,7.9,6.1,10.8c2.5,3.2,5.7,6.8,8.4,9.1c0.8,0.7,1.7,1.4,1.8,1.6
	c0.2,0.2,0.2,0.2-5.6,2.4c-6.9,2.6-14.3,5.3-23,8c-2,0.7-4.1,1.3-6.1,2c-0.4,0.1-0.2-0.1,0.7-1.6c4.3-6.7,10.8-19.7,14.3-29.1
	c0.6-1.6,1.2-3.2,1.3-3.6c0.1-0.5,0.4-0.7,0.8-1C93.2,142.7,93.4,142.6,93.5,142.6L93.5,142.6z M86.2,145.6c0.1,0.1-1.8,3.9-3.6,7.5
	c-3.6,6.9-7.4,13.6-12.6,21.9c-0.8,1.4-1.7,2.7-1.8,2.9c-0.2,0.2-0.2,0.2-0.8-1c-1.2-2.4-2.3-5.6-2.7-8.5c-0.6-2.9-0.5-7.8,0.2-10.9
	c0.5-2.3,0.5-2.3,1.6-2.7C70.9,152.5,86,145.4,86.2,145.6L86.2,145.6z M149,148.2v1.6c0,8.1-0.8,19.2-2.2,27.4
	c-0.2,1.4-0.4,2.6-0.5,2.6c0,0-1.1-0.2-2.3-0.6c-5.5-1.7-11.4-4.2-16.7-7.2c-3.6-1.9-8.7-5.1-8.5-5.3c0,0,1.6-0.8,3.3-1.8
	c7.2-3.7,14-7.8,20-11.7c2.3-1.4,5.6-3.9,6.3-4.5L149,148.2z M58.7,159c0.1,0,0.1,0.2-0.1,1.6c-0.1,1-0.4,2.7-0.4,3.9
	c-0.2,5.3,0.6,9.2,3.2,14.6c0.7,1.4,1.3,2.7,1.3,2.7c-0.2,0.2-24.4,7.3-31.9,9.3c-2.3,0.6-4.2,1.2-4.4,1.2c-0.2,0.1-0.2,0-0.2-0.6
	c0.8-5.4,4.9-12.3,10.6-18.3c3.8-3.9,6.8-6.2,12-9.2C52.5,162.3,58.1,159.1,58.7,159C58.6,159,58.6,159,58.7,159L58.7,159z
	 M115.5,169.1c0,0,1,0.5,1.9,1.1c7.8,4.5,18.7,8.7,27.9,10.9l0.8,0.2l-1.2,0.6c-4.9,2.7-20.8,9.3-37.1,15.4
	c-2.4,0.8-4.7,1.8-5.1,1.9c-0.5,0.2-0.8,0.2-0.8,0.2s0.6-1.3,1.4-2.9c4.5-8.5,9.1-18.9,11.5-26.1
	C115.3,169.7,115.5,169.1,115.5,169.1L115.5,169.1z M109.8,171c0,0-0.2,0.8-0.6,1.7c-3.2,7.7-7.3,16-12.7,25.5
	c-1.3,2.4-2.5,4.3-2.5,4.3s-1.1-0.6-2.4-1.4c-7.8-4.8-14.6-10.5-19-16.3l-0.6-0.8l3.3-1c11.8-3.2,22-6.7,32-11
	C108.5,171.5,109.7,171,109.8,171L109.8,171z M145.8,183.6c0,0.8-1.8,8.4-3.3,13.7c-1.3,4.5-2.4,8.1-4.4,14.5c-0.8,2.7-1.7,5-1.7,5
	s-0.2,0-0.5-0.1c-10.8-1.9-20.6-4.7-29.6-8.4c-2.5-1.1-6.2-2.6-6.5-2.9c-0.1-0.1,2.2-1.1,4.9-2.3c16.6-7.3,33.7-15.4,39.7-19
	C145.1,183.8,145.7,183.6,145.8,183.6L145.8,183.6z M62.7,186.5c0.1,0.1-4.5,6.7-11,15.8c-2.3,3.2-4.9,6.9-5.9,8.2
	c-1,1.4-2.5,3.6-3.3,4.9l-1.6,2.4l-1.7-1.4c-1.9-1.6-5.3-5-6.8-6.9c-3.1-3.9-5.3-8-6.1-11.7c-0.4-1.8-0.4-2.6,0-2.7
	c0.6-0.1,10.3-2.4,19.4-4.5c5-1.2,10.9-2.5,13-3.1C60.9,186.8,62.6,186.5,62.7,186.5L62.7,186.5z M67.3,188.2l1.2,1.3
	c5.3,5.9,10.6,10.2,17.1,14c1.2,0.6,2,1.2,1.9,1.3c-0.2,0.2-22.5,8.1-32.9,11.6c-5.7,2-10.5,3.7-10.6,3.7l-0.7-0.5l-0.6-0.5l1.1-1.6
	c3.5-4.9,7.8-10.4,17.1-21.6L67.3,188.2z M96.4,209.1c0,0,1.7,0.6,3.6,1.3c4.8,1.8,8.5,2.9,13.5,4.2c6.2,1.6,15.2,3.1,20.4,3.6
	c0.8,0.1,1.2,0.1,1.1,0.2c-0.2,0.1-5.6,1.9-9.6,3.2c-6.2,1.9-25.3,7.7-41,12.1c-2.9,0.8-5.4,1.6-5.5,1.6c-0.4,0.1-1.6-0.2-1.6-0.4
	s0.8-1.2,1.9-2.4c5.3-6.2,10.4-13.3,14.8-19.8C95.3,210.5,96.4,209.1,96.4,209.1L96.4,209.1z M89.9,209.2c0,0-2.5,4.2-7.1,11.4
	c-1.9,3-4.1,6.5-4.9,7.7c-0.7,1.2-1.8,3-2.4,4.1l-1.1,1.9l-0.6-0.1c-1.3-0.4-10.5-3.6-12.9-4.5c-3-1.2-6.1-2.6-8.5-3.9
	c-2.9-1.6-6.6-3.9-6.2-3.9c0.1,0,5-1.4,11.1-3c15.9-4.3,24.7-6.8,30.6-8.7C89,209.4,89.9,209.2,89.9,209.2L89.9,209.2z M135.2,219.8
	c0.2,0.4-5.7,16.7-7.9,21.9c-0.5,1.2-0.6,1.4-1,1.4c-0.6,0-9.2-1.2-14.3-2c-9.1-1.4-24.3-4.1-28.1-4.9l-0.8-0.2l5.4-1.2
	c11.7-2.6,17.2-4.1,23-5.7c7.2-2.2,14.2-4.9,21.4-8.2C134.1,220.3,135,219.8,135.2,219.8z"/>
<linearGradient id="SVGID_00000038372232649653816100000015850010456468038846_" gradientUnits="userSpaceOnUse" x1="-174.2837" y1="554.387" x2="-174.2514" y2="554.387" gradientTransform="matrix(433.7041 0 0 433.7041 75643.3281 -240412.6875)">
	<stop  offset="0" style="stop-color:#939FAB"/>
	<stop  offset="1" style="stop-color:#DCDEE1"/>
</linearGradient>
<path style="fill:url(#SVGID_00000038372232649653816100000015850010456468038846_);stroke:#000000;stroke-miterlimit:10;" d="
	M108.2,4.5c-0.8-0.1-13.7,4.5-22.1,7.9c-11.2,4.5-20,9-25.3,12.8c-2,1.4-4.5,3.9-4.9,4.9c-0.1,0.4-0.2,0.8-0.2,1.2l4.9,4.7l11.6,3.7
	l27.6,4.9l31.6,5.4l0.4-2.7h-0.2l-4.2-0.6l-0.8-1.4c-4.3-7.5-9.1-17-11.8-23.3c-2.2-4.9-4.2-10.6-5.3-14.7
	C108.7,4.6,108.6,4.5,108.2,4.5L108.2,4.5z M107.6,6.3c0.1,0,0.2,1.1,0.4,2.3c0.6,5.1,1.8,10,3.6,15.3c1.3,4.1,1.3,3.8-0.2,3.3
	c-3.7-1.1-20.3-3.9-32.4-5.6c-1.9-0.2-3.6-0.5-3.6-0.6c-0.1-0.1,8.7-4.8,12.6-6.6C92.9,12.1,106.7,6.5,107.6,6.3L107.6,6.3z
	 M72.5,22.7l1.4,0.5c7.8,2.6,27.1,6.3,37.9,7.2c1.2,0.1,2.3,0.2,2.3,0.2s-1,0.6-2.3,1.2c-5.1,2.6-10.9,5.7-14.8,8.2
	c-1.2,0.7-2.3,1.3-2.4,1.3s-1-0.1-1.7-0.2l-1.4-0.2l-3.6-3.6c-6.5-6.2-11.5-11-13.4-12.9L72.5,22.7z M71,23.7l5.1,6.5
	c2.7,3.6,5.6,6.9,6.2,7.8c0.6,0.7,1.1,1.4,1.1,1.4c-0.1,0.1-7.4-1.3-11.2-2.2c-3.9-1-5.6-1.3-8-2.2l-2-0.6V34c0-2.4,3.1-6.1,8.4-9.8
	L71,23.7z M114.7,32.5c0.1,0,0.4,0.4,0.7,1.3c1.2,2.7,5.1,10,6.1,11.5c0.2,0.5,0.8,0.5-4.3-0.4c-12.3-2-16.3-2.6-16.3-2.7
	c0,0,0.4-0.2,0.8-0.6c3.8-2.2,7.7-4.8,11.1-7.7C113.7,33.2,114.4,32.6,114.7,32.5C114.6,32.5,114.7,32.5,114.7,32.5z"/>
<radialGradient id="SVGID_00000137825892564301491130000007253293550691916174_" cx="-168.8601" cy="542.5912" r="3.232495e-02" gradientTransform="matrix(-552.9619 -83.0608 167.9883 -1105.9233 -184395.7031 586130.125)" gradientUnits="userSpaceOnUse">
	<stop  offset="0" style="stop-color:#EE352C"/>
	<stop  offset="1" style="stop-color:#A91D22"/>
</radialGradient>
<path style="fill:url(#SVGID_00000137825892564301491130000007253293550691916174_);" d="M56.1,29.5c0,0-0.8,1.3,0,3.2
	c0.5,1.2,1.9,2.6,3.5,4.1c0,0,16.3,15.8,18.2,18.1c9,10.4,12.9,20.6,13.3,34.6c0.2,9.1-1.4,17-5.7,26.2c-7.5,16.5-23.6,34.8-48.2,55
	l3.6-1.2c2.3-1.8,5.5-3.6,12.9-7.7c17.2-9.4,36.5-18.1,60.1-26.9c34.1-12.8,90.1-27.9,122.1-32.8l3.3-0.5l-0.5-0.8
	c-2.9-4.5-4.9-7.3-7.3-10.3c-6.9-8.7-15.4-15.7-25.8-21.5c-14.2-8-32.8-14.2-56.2-18.9c-4.4-0.8-14.1-2.5-22-3.7
	c-16.7-2.6-27.5-4.4-39.3-6.5c-4.3-0.7-10.6-1.8-14.8-2.7c-2.2-0.5-6.3-1.4-9.7-2.6C60.6,33.7,56.9,32.6,56.1,29.5L56.1,29.5z
	 M65.6,38.7c0,0,0.6,0.2,1.4,0.5c1.4,0.5,3.2,1.1,5.3,1.6c1.6,0.5,3.2,0.8,4.8,1.3c2.2,0.6,4.1,1.1,4.1,1.1
	c0.2,0.2,3.9,12.1,5.1,16.5c0.5,1.7,0.8,3.2,0.8,3.2s-0.5-0.6-1-1.4c-4.3-7.5-11-15.1-18.8-21.3C66.3,39.3,65.6,38.7,65.6,38.7
	L65.6,38.7z M83.5,43.6c0.2,0,1,0.1,1.9,0.4c6.2,1.4,17.3,3.5,24.4,4.7c1.2,0.2,2.2,0.4,2.2,0.5s-0.5,0.4-1,0.6
	c-1.2,0.6-6.1,3.5-7.7,4.5c-4.1,2.7-7.7,5.6-10.3,8.2l-1.9,1.9c0,0-0.2-0.6-0.4-1.4c-1.3-5-4.1-12.6-6.6-17.8
	C83.7,44.4,83.4,43.6,83.5,43.6C83.4,43.6,83.4,43.6,83.5,43.6L83.5,43.6z M114.9,49.6c0.2,0.1,0.6,1.3,1.3,4.1
	c1.3,5.3,1.9,11.2,1.8,16.7c-0.1,1.6-0.1,3-0.2,3.1l-0.1,0.4l-1.9-0.6c-3.9-1.2-10.3-3.1-15.7-4.7c-3.1-0.8-5.6-1.6-5.6-1.7
	c0-0.2,4.5-4.8,6.5-6.5C104.6,57.2,114.7,49.4,114.9,49.6L114.9,49.6z M117.4,49.9c0.1-0.1,15.1,2.5,21.9,3.8c5,1,12.4,2.5,12.9,2.7
	c0.2,0.1-0.6,0.5-3,1.6c-9.6,4.3-16.7,8.2-23.9,12.9c-1.9,1.2-3.5,2.3-3.5,2.3s-0.1-1.1-0.1-2.3c0-6.9-1.4-13.9-3.9-19.8
	C117.7,50.5,117.4,50,117.4,49.9z M156.2,57.6c0.1,0.1-0.4,3.1-0.8,4.8c-1.3,5.4-4.9,13.5-9.2,21c-0.7,1.3-1.4,2.4-1.6,2.5
	c-0.1,0-1.1-0.5-2.2-1.2c-4.2-2.5-9.1-4.8-14.2-6.9c-1.4-0.6-2.7-1.1-2.7-1.2c-0.2-0.2,11.5-8,17.7-11.7
	C148,61.9,156.1,57.5,156.2,57.6z M158.9,58.1c0.4,0,6.9,1.8,10.4,2.9c8.6,2.5,18.4,6.1,24.7,9.1l2.6,1.2l-1.9,0.5
	c-15.7,3.6-29.1,7.8-42,13c-1.1,0.5-2,0.8-2,0.8c-0.1,0,0.2-0.8,0.7-1.9c3.9-8.2,6.5-16.9,7.1-24.3
	C158.8,58.7,158.9,58.1,158.9,58.1L158.9,58.1z M92.9,73.2c0.1-0.1,5.1,1.1,7.9,1.9c4.2,1.2,12.9,4.1,12.9,4.3c0,0-1,0.8-2.2,1.9
	c-4.8,3.9-9.3,8.1-14.8,13.5c-1.7,1.6-3,2.9-3.1,2.9s-0.1-0.2-0.1-0.5c0.8-6.1,0.6-14-0.5-22C93,74.1,92.9,73.2,92.9,73.2L92.9,73.2
	z M199.3,73.4c0.1,0.1-2.4,3.8-3.8,6c-2.2,3.1-5.4,7.3-12.7,16.4c-3.8,4.8-8.1,10.3-9.6,12.1c-1.4,1.8-2.6,3.3-2.7,3.3
	c0,0-0.5-0.6-1.1-1.4c-4.1-6.1-9-11.5-14.7-16.3c-1.1-1-2.3-1.9-2.7-2.2c-0.4-0.2-0.7-0.6-0.7-0.6c0-0.1,6.2-2.7,10.9-4.7
	c8.2-3.3,19.5-7.4,27.9-9.9C194.5,74.6,199.3,73.2,199.3,73.4z M202.2,74.1c0.1,0,1.1,0.4,2,1.1c8.8,5,17.6,11.6,24.4,18.3
	c1.9,1.9,6.7,6.8,6.6,6.9c0,0-1.7,0.1-3.6,0.2c-15.3,1.2-34.9,4.4-53.8,9c-1.3,0.2-2.4,0.6-2.5,0.6c-0.1,0,1.3-1.4,3.1-3.1
	c11.1-10.6,16.1-17.5,22.1-29.4C201.4,75.6,202.1,74.2,202.2,74.1C202.1,74.1,202.1,74.1,202.2,74.1L202.2,74.1z M121,82.3
	c0.5,0.1,5.3,2.4,8.8,4.1c3.2,1.7,8.2,4.3,8.5,4.4c0,0-1.7,1-3.8,2c-6.8,3.5-12.7,6.7-18.9,10.4c-1.8,1.1-3.2,1.9-3.2,1.9
	c-0.1,0-0.1-0.1,0.8-1.9c3.2-6,5.9-13.2,7.4-20.1C120.8,82.7,120.9,82.3,121,82.3L121,82.3z M116.4,83.3c0.1,0.1-1.1,4.5-1.9,7.1
	c-1.4,4.7-4.1,10.4-6.5,14.8c-0.6,1.1-1.4,2.5-1.9,3.3l-1,1.4l-2-1.9c-2.4-2.3-4.3-3.7-6.8-5c-1-0.5-1.8-1-1.8-1.1
	c0-0.2,6.2-6,11-10C108.9,88.9,116.2,83.2,116.4,83.3z M145.3,95.1l1.8,1.2c4.1,2.6,8.8,6.2,12.6,9.3c2,1.7,6.1,5.3,6.9,6.2l0.5,0.5
	l-3,0.8c-16.7,4.7-29.5,8.7-44.6,14.2c-1.7,0.6-3.1,1.1-3.2,1.1c-0.2,0-0.4,0.2,3.3-3.2c9.6-8.8,18.2-18.7,24.5-28.1L145.3,95.1z
	 M137.6,97c0.1,0.1-4.9,7.1-7.9,11.1c-3.6,4.8-9.9,12.7-14.2,17.8c-1.8,2.2-3.3,3.9-3.5,3.9s-0.1-0.5-0.1-1.3
	c0-4.4-1.1-9.1-3.1-13.2c-0.8-1.7-1-2-0.8-2.3c0.7-0.6,11.2-6.7,18.1-10.3C130.5,100.5,137.5,96.9,137.6,97z M91.6,108.3
	c0.1,0,1,0.5,1.9,1c2.3,1.3,4.4,2.7,6.2,4.2c0.1,0.1-0.8,0.8-2.2,1.8c-3.5,2.5-8.7,6.5-11.7,8.8c-3.2,2.5-3.3,2.6-3,2
	c2.4-3.7,3.6-5.7,4.9-8.4c1.1-2.4,2.3-5.1,3.1-7.7C91.1,109.1,91.5,108.3,91.6,108.3L91.6,108.3z M103.9,118c0.2,0,0.4,0.2,1.4,1.8
	c2,3.1,3.7,7.3,4.1,10.6l0.1,0.7l-5,1.9c-9,3.5-17.2,6.9-22.7,9.4c-1.6,0.7-4.3,2-6.1,2.9c-1.8,1-3.2,1.6-3.2,1.6s1.1-0.8,2.5-1.9
	c10.9-7.9,20.3-16.6,27.4-25.2C103.1,118.8,103.8,118,103.9,118L103.9,118z M98.3,119.3c0.1,0.1-4.1,4.9-6.8,7.8
	c-7.1,7.2-14,12.8-22.6,18.3c-1.1,0.7-2,1.3-2.2,1.4c-0.2,0.1,0.1-0.2,3.8-4.3c2.4-2.6,4.2-4.8,6.3-7.4c1.4-1.8,1.7-2,3.6-3.5
	C85.8,127.5,98.1,119.1,98.3,119.3z"/>
</svg>
