<?xml version="1.0" encoding="utf-8"?>
<!-- Generator: Adobe Illustrator 26.5.0, SVG Export Plug-In . SVG Version: 6.00 Build 0)  -->
<svg version="1.1" id="Layer_1" xmlns="http://www.w3.org/2000/svg" xmlns:xlink="http://www.w3.org/1999/xlink" x="0px" y="0px"
	 viewBox="0 0 250 250" style="enable-background:new 0 0 250 250;" xml:space="preserve">
<style type="text/css">
	.st0{fill:#0F80CC;}
	.st1{fill:url(#SVGID_1_);}
	.st2{fill:#003B57;}
</style>
<path class="st0" d="M176.4,21H35.6c-9.4,0-17.1,7.7-17.1,17.2v155.2c0,9.4,7.7,17.1,17.1,17.1h92.7C127.3,164.3,143,74.8,176.4,21
	L176.4,21z"/>
<linearGradient id="SVGID_1_" gradientUnits="userSpaceOnUse" x1="-21.7225" y1="543.9018" x2="-21.7225" y2="542.9779" gradientTransform="matrix(147.7726 0 0 -156.0311 3307.3865 84894.7578)">
	<stop  offset="0" style="stop-color:#97D9F6"/>
	<stop  offset="0.9202" style="stop-color:#0F80CC"/>
	<stop  offset="1" style="stop-color:#0F80CC"/>
</linearGradient>
<path class="st1" d="M171.3,26H35.6c-6.7,0-12.1,5.4-12.1,12.1V182c30.7-11.8,76.8-22,108.7-21.5C138.6,127,157.4,61.4,171.3,26
	L171.3,26z"/>
<path class="st2" d="M209.2,15.9c-9.6-8.6-21.3-5.1-32.8,5.1c-1.7,1.5-3.4,3.2-5.1,5c-19.7,20.9-38,59.6-43.7,89.2
	c2.2,4.5,3.9,10.2,5.1,14.6c0.3,1.1,0.6,2.2,0.8,3.1c0.5,2.1,0.8,3.5,0.8,3.5s-0.2-0.7-0.9-2.8c-0.1-0.4-0.3-0.8-0.5-1.4
	c-0.1-0.2-0.2-0.5-0.3-0.8c-1.3-3-4.8-9.3-6.4-12c-1.3,3.9-2.5,7.6-3.5,11c4.5,8.3,7.3,22.4,7.3,22.4s-0.2-0.9-1.4-4.1
	c-1-2.8-6-11.6-7.2-13.7c-2,7.5-2.8,12.6-2.1,13.8c1.4,2.4,2.8,6.5,3.9,11.1c2.7,10.3,4.5,22.8,4.5,22.8s0.1,0.8,0.2,2.1
	c-0.4,8.6-0.1,17.6,0.5,25.7c0.9,10.7,2.6,19.9,4.7,24.8l1.4-0.8c-3.1-9.7-4.4-22.4-3.8-37.1c0.8-22.4,6-49.4,15.5-77.6
	c16.1-42.5,38.4-76.6,58.9-92.9c-18.6,16.8-43.9,71.3-51.4,91.5c-8.5,22.6-14.4,43.8-18.1,64.1c6.2-19,26.4-27.2,26.4-27.2
	s9.9-12.2,21.4-29.6c-6.9,1.6-18.3,4.3-22.1,5.9c-5.6,2.4-7.1,3.2-7.1,3.2s18.2-11.1,33.8-16.1C209.4,84.8,232.7,36.9,209.2,15.9"/>
</svg>
