<?xml version="1.0" encoding="utf-8"?>
<!-- Generator: Adobe Illustrator 26.5.0, SVG Export Plug-In . SVG Version: 6.00 Build 0)  -->
<svg version="1.1" id="Layer_1" xmlns="http://www.w3.org/2000/svg" xmlns:xlink="http://www.w3.org/1999/xlink" x="0px" y="0px"
	 viewBox="0 0 250 250" style="enable-background:new 0 0 250 250;" xml:space="preserve">
<style type="text/css">
	.st0{fill:#FF4B4B;}
	.st1{fill:#7D353B;}
	.st2{fill:#BD4043;}
</style>
<g>
	<path class="st0" d="M121.2,62.6c1.8-2.7,5.8-2.7,7.6,0l0,0l37.5,55.9l39.9,59.4c-0.5,0.8-1,1.6-1.6,2.4c-0.4,0.5-0.8,1-1.3,1.4
		l0,0l0,0l0,0c-0.1,0.1-0.2,0.2-0.3,0.3l-0.1,0.1c-0.5,0.3-0.9,0.7-1.4,1c-0.4,0.2-0.7,0.5-1.2,0.7c-0.5,0.2-1.2,0.5-1.6,0.6
		c-0.4,0.2-0.6,0.2-0.9,0.3c-0.2,0-0.3,0.1-0.5,0.1c-0.1,0-0.2,0-0.3,0.1c0,0,0,0-0.1,0l0,0l-0.5,0.1c-0.5,0.1-1.1,0.1-1.6,0.1
		c-46.3,5-92.9,5-139.2,0c-0.1,0-0.1,0-0.2,0l0,0l-0.2,0l0,0l-0.1,0H55c-0.1,0-0.1,0-0.2,0l0,0h-0.1c-0.1,0-0.1,0-0.2,0
		c-0.4,0-0.9-0.1-1.3-0.2c-0.4-0.1-0.6-0.1-0.9-0.2c-3.6-0.8-6.8-3-8.3-6.5c0-0.1-0.1-0.2-0.1-0.3l0,0l0,0L7.4,84.5
		c-1-2.6,1.7-5.2,4.3-4c0.1,0,0.2,0,0.3,0.1l0,0l71.7,37.9L121.2,62.6z M238.1,80.6c2.6-1.4,5.4,1,4.5,3.8l0,0v0.1l-36.4,93.3
		l-39.9-59.4L238.1,80.6L238.1,80.6z"/>
	<path class="st1" d="M238.1,80.6L238.1,80.6l-71.8,37.9l39.9,59.4l36.4-93.3v-0.1C243.5,81.6,240.7,79.1,238.1,80.6"/>
	<path class="st2" d="M128.8,62.6c-1.8-2.7-5.8-2.7-7.6,0l-37.5,55.9l41.3,21.8l78.3,41.4c0.5-0.5,0.9-1,1.3-1.4
		c0.6-0.7,1.2-1.5,1.6-2.4l-39.9-59.4L128.8,62.6z"/>
</g>
</svg>
