<?xml version="1.0" encoding="utf-8"?>
<!-- Generator: Adobe Illustrator 26.5.0, SVG Export Plug-In . SVG Version: 6.00 Build 0)  -->
<svg version="1.1" id="Layer_1" xmlns="http://www.w3.org/2000/svg" xmlns:xlink="http://www.w3.org/1999/xlink" x="0px" y="0px"
	 viewBox="0 0 250 250" style="enable-background:new 0 0 250 250;" xml:space="preserve">
<style type="text/css">
	.st0{fill:#E55B2D;}
	.st1{fill:#ED8E24;}
	.st2{fill:#F8BF3C;}
</style>
<g>
	<path class="st0" d="M138.9,44.8v35.3l61.1,35.3V80.1L138.9,44.8z M16.6,80.1v35.3L47.2,133V97.7L16.6,80.1z M108.3,97.7
		l-30.6,17.6v105.9l30.6,17.6v-70.6l30.6,17.6v-35.3L108.3,133V97.7z"/>
	<path class="st1" d="M138.9,44.8L47.2,97.7V133l61.1-35.3V133l30.6-17.6V44.8z M230.6,62.4L200,80.1v35.3l30.6-17.6V62.4z
		 M169.4,133l-30.6,17.6v35.3l30.6-17.6V133z M138.9,185.9l-30.6-17.6v70.6l30.6-17.6V185.9z"/>
	<path class="st2" d="M138.9,9.5L16.6,80.1l30.6,17.6l91.7-52.9L200,80.1l30.6-17.6L138.9,9.5z M138.9,115.4L108.3,133l30.6,17.6
		l30.6-17.6L138.9,115.4z"/>
</g>
</svg>
