<?xml version="1.0" encoding="utf-8"?>
<!-- Generator: Adobe Illustrator 27.8.1, SVG Export Plug-In . SVG Version: 6.00 Build 0)  -->
<svg version="1.1" id="Layer_1" xmlns="http://www.w3.org/2000/svg" xmlns:xlink="http://www.w3.org/1999/xlink" x="0px" y="0px"
	 viewBox="0 0 500 500" style="enable-background:new 0 0 500 500;" xml:space="preserve">
<style type="text/css">
	.st0{fill-rule:evenodd;clip-rule:evenodd;fill:#7952B3;}
</style>
<path class="st0" d="M113,63.4c-26.8,0-46.5,23.4-45.6,48.8c0.9,24.4-0.2,56-8.2,81.8c-8,25.8-21.4,42.2-43.5,44.3v23.7
	c22.1,2.1,35.5,18.5,43.5,44.3c7.9,25.7,9,57.3,8.2,81.7c-0.9,25.4,18.9,48.8,45.6,48.8h274c26.8,0,46.5-23.4,45.6-48.8
	c-0.9-24.4,0.2-56,8.2-81.7c8-25.8,21.4-42.2,43.4-44.3v-23.7c-22.1-2.1-35.5-18.5-43.4-44.3c-7.9-25.7-9-57.3-8.2-81.8
	c0.9-25.4-18.9-48.8-45.6-48.8L113,63.4L113,63.4z M333.4,293.2c0,35-26.1,56.2-69.4,56.2h-73.6c-2.1,0-4.2-0.9-5.6-2.3
	c-1.5-1.5-2.3-3.5-2.3-5.6V158.7c0-2.1,0.9-4.2,2.3-5.6s3.5-2.3,5.6-2.3h73.2c36.1,0,59.8,19.6,59.8,49.6
	c0,21.1-15.9,39.9-36.2,43.2v1.1C314.9,247.6,333.4,266.8,333.4,293.2z M256.1,175.9h-42v59.3h35.3c27.3,0,42.4-11,42.4-30.7
	C291.9,186.1,278.9,175.9,256.1,175.9z M214.1,258.8v65.4h43.6c28.5,0,43.6-11.4,43.6-32.9s-15.5-32.5-45.4-32.5H214.1L214.1,258.8z
	"/>
</svg>
