<?xml version="1.0" encoding="utf-8"?>
<!-- Generator: Adobe Illustrator 26.5.0, SVG Export Plug-In . SVG Version: 6.00 Build 0)  -->
<svg version="1.1" id="Layer_1" xmlns="http://www.w3.org/2000/svg" xmlns:xlink="http://www.w3.org/1999/xlink" x="0px" y="0px"
	 viewBox="0 0 500 500" style="enable-background:new 0 0 500 500;" xml:space="preserve">
<style type="text/css">
	.st0{fill:#FFFFFF;}
</style>
<g>
	<circle class="st0" cx="250" cy="250" r="238"/>
	<g>
		<path d="M235.3,26.1c-1,0.1-4,0.4-6.8,0.6c-63.6,5.7-123.2,40.1-161,92.8c-21,29.3-34.5,62.6-39.5,97.9c-1.8,12.3-2,15.9-2,32.6
			s0.2,20.3,2,32.6c12.2,84.1,72,154.8,153.2,181c14.5,4.7,29.9,7.9,47.3,9.8c6.8,0.7,36.1,0.7,42.9,0c30.1-3.3,55.6-10.8,80.7-23.6
			c3.9-2,4.6-2.5,4.1-2.9c-0.4-0.3-16.8-22.3-36.5-48.9l-35.8-48.4l-44.9-66.4c-24.7-36.5-45-66.4-45.2-66.4
			c-0.2,0-0.4,29.5-0.4,65.5c-0.1,63.1-0.2,65.6-1,67.1c-1.1,2.1-2,3-3.9,4c-1.4,0.7-2.6,0.8-9.2,0.8h-7.6l-2-1.3
			c-1.3-0.8-2.3-1.9-2.9-3.2l-0.9-2L166,260l0.1-87.8l1.4-1.7c0.7-0.9,2.2-2.1,3.2-2.7c1.8-0.9,2.5-1,10.1-1
			c8.9,0,10.4,0.4,12.7,2.9c0.7,0.7,25,37.3,54,81.4S316.4,355.4,336,385l35.5,53.7l1.8-1.2c15.9-10.3,32.7-25,46-40.4
			c28.3-32.5,46.6-72.2,52.7-114.5c1.8-12.3,2-15.9,2-32.6s-0.2-20.3-2-32.6c-12.2-84.1-72-154.8-153.2-181
			c-14.3-4.6-29.6-7.8-46.6-9.8C267.9,26.3,239,25.8,235.3,26.1L235.3,26.1z M327,161.6c2.1,1.1,3.8,3.1,4.4,5.2
			c0.4,1.1,0.4,25.5,0.4,80.3l-0.1,78.7l-13.9-21.3l-13.9-21.3V226c0-37,0.2-57.8,0.4-58.8c0.7-2.5,2.2-4.4,4.3-5.5
			c1.8-0.9,2.5-1,9.3-1C324.4,160.7,325.6,160.8,327,161.6z"/>
	</g>
</g>
</svg>
