<?xml version="1.0" encoding="utf-8"?>
<!-- Generator: Adobe Illustrator 28.0.0, SVG Export Plug-In . SVG Version: 6.00 Build 0)  -->
<svg version="1.1" id="Layer_1" xmlns="http://www.w3.org/2000/svg" xmlns:xlink="http://www.w3.org/1999/xlink" x="0px" y="0px"
	 viewBox="0 0 48 48" style="enable-background:new 0 0 48 48;" xml:space="preserve">
<style type="text/css">
	.st0{fill:url(#SVGID_1_);}
	.st1{fill:url(#SVGID_00000041294696242487162780000009815368783645384321_);}
	.st2{opacity:0.24;enable-background:new    ;}
	.st3{opacity:0.32;enable-background:new    ;}
	.st4{fill:url(#SVGID_00000047055900315544495000000002450603217457437615_);}
	.st5{fill:url(#SVGID_00000079481996105094581070000005316395244540855185_);}
</style>
<linearGradient id="SVGID_1_" gradientUnits="userSpaceOnUse" x1="18.1649" y1="49.9508" x2="30.2496" y2="6.6991" gradientTransform="matrix(1 0 0 -1 0 50)">
	<stop  offset="0" style="stop-color:#A391E8"/>
	<stop  offset="1" style="stop-color:#685CD0"/>
</linearGradient>
<path class="st0" d="M5.8,33.4l24-18L48,29.1l-24,18L5.8,33.4z"/>
<linearGradient id="SVGID_00000103945331997722380580000006087084993978906279_" gradientUnits="userSpaceOnUse" x1="35.9756" y1="4.7271" x2="27.7403" y2="28.4918" gradientTransform="matrix(1 0 0 -1 0 50)">
	<stop  offset="0" style="stop-color:#38389F"/>
	<stop  offset="1" style="stop-color:#4B44C0"/>
</linearGradient>
<path style="fill:url(#SVGID_00000103945331997722380580000006087084993978906279_);" d="M12.5,28.4l17.3-13L48,29.1L32.1,41
	c-0.4,0.3-0.9,0.5-1.4,0.5c-0.5,0-1-0.2-1.4-0.5L12.5,28.4z"/>
<path class="st2" d="M0,19.2l24-18l18.2,13.7L19.7,31.8c-0.4,0.3-0.9,0.5-1.4,0.5s-1-0.2-1.4-0.5L0,19.2z"/>
<path class="st3" d="M0,19.9l24-18l18.2,13.7L19.7,32.6c-0.4,0.3-0.9,0.5-1.4,0.5s-1-0.2-1.4-0.5L0,19.9z"/>
<linearGradient id="SVGID_00000142154743931395893600000012516946277935840425_" gradientUnits="userSpaceOnUse" x1="14.2882" y1="53.1604" x2="25.987" y2="18.9111" gradientTransform="matrix(1 0 0 -1 0 50)">
	<stop  offset="0" style="stop-color:#DBCEF8"/>
	<stop  offset="1" style="stop-color:#C0AFF1"/>
</linearGradient>
<path style="fill:url(#SVGID_00000142154743931395893600000012516946277935840425_);" d="M0,19L24,1l18.2,13.7L19.7,31.6
	c-0.4,0.3-0.9,0.5-1.4,0.5s-1-0.2-1.4-0.5L0,19z"/>
<linearGradient id="SVGID_00000066493035008758832110000008955911631311610009_" gradientUnits="userSpaceOnUse" x1="12.2774" y1="50.5534" x2="24.875" y2="5.5558" gradientTransform="matrix(1 0 0 -1 0 50)">
	<stop  offset="0" style="stop-color:#C0AFF1"/>
	<stop  offset="1" style="stop-color:#8675DD"/>
</linearGradient>
<path style="fill:url(#SVGID_00000066493035008758832110000008955911631311610009_);" d="M0,18.7L15.9,6.8c0.4-0.3,0.9-0.5,1.4-0.5
	s1,0.2,1.4,0.5l16.8,12.6L19.7,31.3c-0.4,0.3-0.9,0.5-1.4,0.5s-1-0.2-1.4-0.5L0,18.7z"/>
</svg>
