<?xml version="1.0" encoding="utf-8"?>
<!-- Generator: Adobe Illustrator 26.5.0, SVG Export Plug-In . SVG Version: 6.00 Build 0)  -->
<svg version="1.1" id="Layer_1" xmlns="http://www.w3.org/2000/svg" xmlns:xlink="http://www.w3.org/1999/xlink" x="0px" y="0px"
	 viewBox="0 0 800 800" style="enable-background:new 0 0 800 800;" xml:space="preserve">
<style type="text/css">
	.st0{stroke:#FFFFFF;stroke-width:29;stroke-miterlimit:10;}
</style>
<g>
	<path class="st0" d="M408.9,718.5c-13.2,0-26.5-5-36.5-15.1c-20.2-20.2-20.2-52.9,0-73.1l258.4-258.4c20.2-20.2,52.9-20.2,73.1,0
		c20.2,20.2,20.2,52.9,0,73.1L445.5,703.4C435.4,713.5,422.1,718.5,408.9,718.5z"/>
</g>
<g>
	<path class="st0" d="M124.7,666.8c-13.2,0-26.5-5-36.5-15.1c-20.2-20.2-20.2-52.9,0-73.1l491-491c20.2-20.2,52.9-20.2,73.1,0
		c20.2,20.2,20.2,52.9,0,73.1l-491,491C151.1,661.8,137.9,666.8,124.7,666.8z"/>
</g>
</svg>
