<?xml version="1.0" encoding="utf-8"?>
<!-- Generator: Adobe Illustrator 28.0.0, SVG Export Plug-In . SVG Version: 6.00 Build 0)  -->
<svg version="1.1" id="Layer_1" xmlns="http://www.w3.org/2000/svg" xmlns:xlink="http://www.w3.org/1999/xlink" x="0px" y="0px"
	 viewBox="0 0 48 48" style="enable-background:new 0 0 48 48;" xml:space="preserve">
<style type="text/css">
	.st0{clip-path:url(#SVGID_00000152960897842731963490000010827638472200759951_);}
	.st1{fill:#C4C4C4;filter:url(#Adobe_OpacityMaskFilter);}
	.st2{mask:url(#mask0_639_13792_00000075856528844028537190000007697384974456847779_);}
	.st3{fill:url(#SVGID_00000085248439032269559410000013815821764943568019_);}
	.st4{opacity:0.5;stroke:#000000;stroke-opacity:0.5;enable-background:new    ;}
	.st5{fill:url(#SVGID_00000090278055825488649830000008200119219860610989_);}
	.st6{fill:url(#SVGID_00000114053317963742680400000010233021503001214895_);}
</style>
<g>
	<defs>
		<rect id="SVGID_1_" width="48" height="48"/>
	</defs>
	<clipPath id="SVGID_00000069362182976762897440000018299336775699017615_">
		<use xlink:href="#SVGID_1_"  style="overflow:visible;"/>
	</clipPath>
	<g style="clip-path:url(#SVGID_00000069362182976762897440000018299336775699017615_);">
		<defs>
			<filter id="Adobe_OpacityMaskFilter" filterUnits="userSpaceOnUse" x="-3.5" y="4.5" width="52.8" height="40.3">
				<feColorMatrix  type="matrix" values="1 0 0 0 0  0 1 0 0 0  0 0 1 0 0  0 0 0 1 0"/>
			</filter>
		</defs>
		
			<mask maskUnits="userSpaceOnUse" x="-3.5" y="4.5" width="52.8" height="40.3" id="mask0_639_13792_00000075856528844028537190000007697384974456847779_">
			<path class="st1" d="M14.6,24L0.5,40.2c-1.1,1.3-0.2,3.3,1.5,3.3h28.7c0.6,0,1.1-0.2,1.5-0.7l15.3-17.5c0.7-0.8,0.7-1.9,0-2.6
				L32.2,5.2c-0.4-0.4-0.9-0.7-1.5-0.7L2,4.5c-1.7,0-2.6,2-1.5,3.3L14.6,24z"/>
		</mask>
		<g class="st2">
			
				<linearGradient id="SVGID_00000109016382850519202390000011309143711062971779_" gradientUnits="userSpaceOnUse" x1="21.959" y1="22.5127" x2="14.6251" y2="45.5" gradientTransform="matrix(1 0 0 -1 0 50)">
				<stop  offset="0" style="stop-color:#0D36A5"/>
				<stop  offset="1" style="stop-color:#1152D4"/>
			</linearGradient>
			<path style="fill:url(#SVGID_00000109016382850519202390000011309143711062971779_);" d="M31.6,4.5L14.6,24l-17-19.5H31.6z"/>
			<path class="st4" d="M-2.4,44.3l34-39l17,19.5l-17,19.5H-2.4z"/>
			
				<linearGradient id="SVGID_00000147181065421601856750000013087437254815280804_" gradientUnits="userSpaceOnUse" x1="23.1319" y1="45.5" x2="23.1319" y2="6.5" gradientTransform="matrix(1 0 0 -1 0 50)">
				<stop  offset="0" style="stop-color:#84CAFF"/>
				<stop  offset="1" style="stop-color:#61B1FB"/>
			</linearGradient>
			<path style="fill:url(#SVGID_00000147181065421601856750000013087437254815280804_);" d="M-2.4,43.5l34-39l17,19.5l-17,19.5H-2.4
				z"/>
			
				<linearGradient id="SVGID_00000155138895818212878660000000517653446854635687_" gradientUnits="userSpaceOnUse" x1="18.8785" y1="45.5" x2="18.8785" y2="6.5" gradientTransform="matrix(1 0 0 -1 0 50)">
				<stop  offset="0" style="stop-color:#3B90F5"/>
				<stop  offset="1" style="stop-color:#2A78EE"/>
			</linearGradient>
			<path style="fill:url(#SVGID_00000155138895818212878660000000517653446854635687_);" d="M-2.4,43.5l34-39l8.5,9.8L14.6,43.5
				H-2.4z"/>
		</g>
	</g>
</g>
</svg>
