<?xml version="1.0" encoding="utf-8"?>
<!-- Generator: Adobe Illustrator 26.5.0, SVG Export Plug-In . SVG Version: 6.00 Build 0)  -->
<svg version="1.1" id="Layer_1" xmlns="http://www.w3.org/2000/svg" xmlns:xlink="http://www.w3.org/1999/xlink" x="0px" y="0px"
	 viewBox="0 0 500 500" style="enable-background:new 0 0 500 500;" xml:space="preserve">
<style type="text/css">
	.st0{fill:#00A9E5;}
	.st1{fill:#353535;}
	.st2{fill:#00BFB3;}
	.st3{fill:#019B8F;}
	.st4{fill:#F9B110;}
	.st5{fill:#FED10A;}
</style>
<g>
	<path class="st0" d="M361,176.8H233.5c0.6,3,1.8,6.1,2.4,8.5c4.3,14.6,6.7,29.9,7.9,45.7c0.6,6.1,0.6,12.8,0.6,18.9
		c0,6.1,0,12.8-0.6,18.9c-1.2,15.9-3.7,31.1-7.9,45.7c-0.6,3-1.8,6.1-2.4,8.5H361c40.3,0,72.6-32.9,72.6-73.2S401.2,176.8,361,176.8
		z"/>
	<path class="st1" d="M243.9,268.9c0.6-6.1,0.6-12.8,0.6-18.9c0-6.1,0-12.8-0.6-18.9c-1.2-15.9-3.7-31.1-7.9-45.7
		c-0.6-3-1.8-6.1-2.4-8.5h-197c-7.3,23.2-11,47.6-11,73.2c0,25.6,3.7,50,11,73.2h197c0.6-3,1.8-6.1,2.4-8.5
		C240.2,300,242.7,284.8,243.9,268.9z"/>
	<path class="st2" d="M382.9,347.6H224.4c-4.9,11-10.4,21.3-16.5,31.1c-9.1,15.2-20.1,28.7-32.3,41.5c-4.3,4.3-8.5,7.9-12.8,12.2
		c-8.5,7.9-18.3,14.6-28.1,21.3c38.4,25.6,84.8,40.3,134.2,40.3c84.8,0,159.2-43.3,203.1-108.6C449.4,362.2,417.7,347.6,382.9,347.6
		L382.9,347.6z"/>
	<path class="st3" d="M207.9,378.7c6.1-9.8,11.6-20.1,16.5-31.1H45.6c18.9,43.3,50,80.5,89.7,106.1c9.8-6.7,18.9-13.4,28.1-21.3
		c4.3-3.7,8.5-7.9,12.8-12.2C187.8,408,198.7,394,207.9,378.7L207.9,378.7z"/>
	<path class="st4" d="M175.6,79.8c-4.3-4.3-8.5-7.9-12.8-12.2c-8.5-7.9-18.3-14.6-28.1-21.3c-39,25.6-70.1,62.8-89.7,106.1h178.7
		c-4.9-11-10.4-21.3-16.5-31.1C198.7,106,187.8,92,175.6,79.8z"/>
	<path class="st5" d="M268.9,6c-49.4,0-95.8,14.6-134.2,40.3c9.8,6.7,18.9,13.4,28.1,21.3c4.3,3.7,8.5,7.9,12.8,12.2
		c12.2,12.8,23.2,26.2,32.3,41.5c6.1,9.8,11.6,20.1,16.5,31.1h158.6c34.8,0,66.5-14.6,89.1-37.8C428.1,49.3,353.7,6,268.9,6z"/>
</g>
</svg>
