<?xml version="1.0" encoding="utf-8"?>
<!-- Generator: Adobe Illustrator 27.8.1, SVG Export Plug-In . SVG Version: 6.00 Build 0)  -->
<svg version="1.1" id="Layer_1" xmlns="http://www.w3.org/2000/svg" xmlns:xlink="http://www.w3.org/1999/xlink" x="0px" y="0px"
	 viewBox="0 0 500 500" style="enable-background:new 0 0 500 500;" xml:space="preserve">
<style type="text/css">
	.st0{fill:#FFC24A;}
	.st1{fill:#FFA712;}
	.st2{fill:#F4BD62;}
	.st3{fill:#FFA50E;}
	.st4{fill:#F6820C;}
	.st5{fill:#FDE068;}
	.st6{fill:#FCCA3F;}
	.st7{fill:#EEAB37;}
</style>
<g>
	<path class="st0" d="M82.5,391.2l2.8-3.9L217,137.5l0.3-2.6l-58.1-109c-2.8-5.3-9.3-7.2-14.6-4.4c-3,1.6-5.1,4.5-5.6,7.8
		L82.5,391.2z"/>
	<path class="st1" d="M84.1,388.3l2.1-4.1l130.3-247.2L158.7,27.5c-2.4-4.9-8.4-6.8-13.2-4.4c-3,1.5-5,4.4-5.4,7.8L84.1,388.3z"/>
	<path class="st2" d="M259.6,217.3l43.2-44.3l-43.2-82.5c-2.9-5.4-9.7-7.5-15.1-4.5c-1.9,1-3.5,2.6-4.5,4.5l-23.1,44v3.8
		L259.6,217.3z"/>
	<path class="st3" d="M258.8,215.5l42-43l-42-80.1c-2-5-7.6-7.4-12.6-5.4c-2.2,0.9-4,2.5-5.1,4.7L218,136.4l-0.7,2.3L258.8,215.5z"
		/>
	<polygon class="st4" points="82.5,391.2 83.8,390 88.4,388.1 256.9,220.2 259,214.4 217,134.3 	"/>
	<path class="st5" d="M265,475.9l152.5-85l-43.6-268.2c-0.9-5.7-6.3-9.5-12-8.6c-2.1,0.4-4.1,1.4-5.7,2.9L82.5,391.2l151.6,84.7
		C243.7,481.2,255.4,481.2,265,475.9"/>
	<path class="st6" d="M416.1,390.1L372.9,124c-0.2-5-4.5-9-9.5-8.8c-2.4,0.1-4.7,1.2-6.4,3L84.1,390.7l149.9,83.8
		c9.5,5.3,21.1,5.3,30.6,0L416.1,390.1z"/>
	<path class="st7" d="M265,473.3c-9.6,5.3-21.3,5.3-30.8,0L83.7,389.9l-1.2,1.3l151.6,84.7c9.6,5.3,21.3,5.3,30.8,0l152.5-85
		l-0.4-2.3L265,473.3z"/>
</g>
</svg>
