<?xml version="1.0" encoding="utf-8"?>

<!DOCTYPE svg PUBLIC "-//W3C//DTD SVG 1.1//EN" "http://www.w3.org/Graphics/SVG/1.1/DTD/svg11.dtd">
<svg version="1.1" id="Layer_1" xmlns="http://www.w3.org/2000/svg" xmlns:xlink="http://www.w3.org/1999/xlink" x="0px" y="0px"
	 viewBox="0 0 2604.051 678.007" enable-background="new 0 0 2604.051 678.007" xml:space="preserve">
<g>
	<path d="M1302.025,35.927c-5.691,4.884-10.997,9.69-15.854,14.376c-71.885,67.142-45.346,145.531,15.854,152.368
		c61.2-6.837,87.739-85.226,15.854-152.368C1313.022,45.617,1307.716,40.811,1302.025,35.927z M1302.025,270.705
		c-12.788-22.641-11.875-54.884,0-86.178C1313.9,215.822,1314.813,248.064,1302.025,270.705z M1302.025,445.705
		c-148.829-26.387-325.236-180.955-422.569-180.955c-111.852,0-131.573,96.866-131.573,127.374
		c0,30.485,43.664,191.364,261.337,191.364c236.812,0,264.906-257.745,115.397-257.745c-115.397,0-296.844,203.158-501.11,213.178
		c-91.502,4.473-100.47-87.908-50.241-83.414c0,0-4.496-43.937-50.229-43.937c-45.756,0-67.284,67.262-16.152,119.297
		c0,0-86.102-47.849-86.102-123.805c0-64.574,16.13-46.614,16.13-94.464c0-34.705-40.059-31.102-40.059-13.761
		c0,0-15.546-10.169-23.325,1.785c0,0,16.153-78.941,87.304-78.941c47.255,0,55.033,48.456,55.033,48.456
		s-6.601-15.545-28.723-15.545c-48.433,0-58.008,105.857,28.723,105.857c104.633,0,101.647-200.355-44.864-200.355
		c-137.532,0-195.556,194.338-53.225,342.669c0,0-57.996-44.246-78.335-72.363c-20.338-28.106-59.792-69.367-92.09-35.29
		c0,0-10.759-5.982-29.296-5.982s-29.296,25.725-14.35,40.654c0,0-16.146-4.176-40.672-4.176
		c-184.192,0-175.812,216.473-44.863,216.473c31.096,0,69.99-13.761,69.99-62.195c0-22.1-9.581-32.887-9.581-32.887
		s-0.893,11.656-17.931,11.656c-40.369,0-54.713-93.274,71.758-93.274c61.909,0,99.554,27.798,99.554,27.798
		s-35.885-5.045-36.776,17.959c-0.583,15.545,9.871,19.732,9.871,19.732s-39.768,4.771-39.768,44.83
		c0,52.036,81.338,51.453,81.338,6.589c0-23.919-20.339-24.503-20.339-24.503s14.963-9.003,32.899-9.003
		c77.729,0,110.628,54.451,245.769,54.451c223.953,0,518.166-283.174,691.285-283.174c1.947,0,3.876,0.033,5.788,0.098
		c1.912-0.065,3.841-0.098,5.788-0.098c173.119,0,467.332,283.174,691.285,283.174c135.141,0,168.04-54.451,245.769-54.451
		c17.936,0,32.899,9.003,32.899,9.003s-20.34,0.583-20.34,24.503c0,44.864,81.338,45.448,81.338-6.589
		c0-40.059-39.768-44.83-39.768-44.83s10.455-4.186,9.871-19.732c-0.891-23.004-36.776-17.959-36.776-17.959
		s37.645-27.798,99.554-27.798c126.471,0,112.126,93.274,71.758,93.274c-17.039,0-17.931-11.656-17.931-11.656
		s-9.581,10.787-9.581,32.887c0,48.433,38.894,62.195,69.99,62.195c130.949,0,139.329-216.473-44.863-216.473
		c-24.526,0-40.672,4.176-40.672,4.176c14.946-14.929,4.187-40.654-14.35-40.654c-18.537,0-29.296,5.982-29.296,5.982
		c-32.298-34.077-71.752,7.184-92.09,35.29c-20.338,28.117-78.335,72.363-78.335,72.363
		c142.331-148.331,84.306-342.669-53.225-342.669c-146.511,0-149.497,200.355-44.864,200.355
		c86.731,0,77.156-105.857,28.723-105.857c-22.122,0-28.723,15.545-28.723,15.545s7.778-48.456,55.033-48.456
		c71.151,0,87.304,78.941,87.304,78.941c-7.779-11.954-23.325-1.785-23.325-1.785c0-17.341-40.059-20.944-40.059,13.761
		c0,47.85,16.129,29.891,16.129,94.464c0,75.956-86.102,123.805-86.102,123.805c51.132-52.035,29.604-119.297-16.152-119.297
		c-45.734,0-50.229,43.937-50.229,43.937c50.229-4.495,41.261,87.887-50.241,83.414c-204.266-10.02-385.714-213.178-501.11-213.178
		c-149.509,0-121.415,257.745,115.396,257.745c217.674,0,261.338-160.879,261.338-191.364c0-30.508-19.721-127.374-131.573-127.374
		C1627.261,264.751,1450.854,419.318,1302.025,445.705z M1302.025,600.113c-6.192,0.473-12.604,0.717-19.24,0.717
		c-183.884,0-418.898-225.167-568.693-225.167c-139.043,0-167.754,245.791,26.904,245.791
		c171.942,0,393.195-247.861,549.876-247.861c3.83,0,7.549,0.279,11.153,0.814c3.603-0.535,7.323-0.814,11.152-0.814
		c156.681,0,377.935,247.861,549.876,247.861c194.658,0,165.947-245.791,26.904-245.791c-149.795,0-384.809,225.167-568.693,225.167
		C1314.629,600.83,1308.217,600.587,1302.025,600.113z M1302.025,541.997c-6.069,0.915-12.572,1.398-19.525,1.398
		c-148.308,0-442.521-254.725-674.539-254.725c-155.503,0-169.847,206.921,9.551,206.921c186.572,0,383.93-217.696,519.071-217.696
		c197.335,0,193.744,355.228-133.963,355.228c-397.072,0-352.803-423.394-162.641-423.394c137.532,0,41.856,200.939-138.744,200.939
		c-138.732,0-119.606-162.675-1.19-162.675c150.601,0,368.921,217.263,601.981,252.382
		c233.06-35.119,451.38-252.382,601.981-252.382c118.416,0,137.542,162.675-1.19,162.675c-180.6,0-276.276-200.939-138.744-200.939
		c190.162,0,234.431,423.394-162.641,423.394c-327.707,0-331.298-355.228-133.963-355.228
		c135.141,0,332.499,217.696,519.071,217.696c179.399,0,165.054-206.921,9.551-206.921c-232.018,0-526.231,254.725-674.54,254.725
		C1314.598,543.395,1308.094,542.912,1302.025,541.997z M1302.025,69.286c-93.738,86.48-97.881,254.317,0,296.671
		C1399.906,323.603,1395.764,155.766,1302.025,69.286z M1302.025,362.396c-95.772-40.164-83.793-193.505,0-278.681
		C1385.818,168.892,1397.798,322.232,1302.025,362.396z M1302.025,496.52C1093.5,461.519,861.506,244.721,701.521,244.721
		c-127.362,0-157.858,170.42,8.98,170.42c169.55,0,279.868-209.896,129.171-209.896c-210.777,0-240.404,433.266,165.042,433.266
		c327.421,0,338.173-364.185,131.869-364.185c-144.406,0-336.377,217.067-515.787,217.067s-154.279-199.154-8.075-199.154
		c210.81,0,504.12,256.543,672.765,256.543c5.796,0,11.309-0.399,16.541-1.159c5.231,0.76,10.744,1.159,16.541,1.159
		c168.646,0,461.955-256.543,672.765-256.543c146.203,0,171.335,199.154-8.075,199.154s-371.381-217.067-515.787-217.067
		c-206.303,0-195.552,364.185,131.869,364.185c405.446,0,375.819-433.266,165.042-433.266
		c-150.698,0-40.379,209.896,129.171,209.896c166.838,0,136.342-170.42,8.98-170.42
		C1742.545,244.721,1510.55,461.519,1302.025,496.52z M1302.025,370.208c-4.151-0.527-8.471-0.801-12.96-0.801
		c-161.463,0-383.906,248.468-548.96,248.468c-182.991,0-152.483-239.512-25.121-239.512c126.482,0,375.843,226.048,569.609,226.048
		c5.989,0,11.799-0.194,17.432-0.573c5.633,0.379,11.443,0.573,17.432,0.573c193.766,0,443.127-226.048,569.609-226.048
		c127.362,0,157.87,239.512-25.121,239.512c-165.054,0-387.498-248.468-548.96-248.468
		C1310.496,369.407,1306.176,369.681,1302.025,370.208z M1302.025,316.523c-1.612-0.045-3.237-0.068-4.873-0.068
		c-176.722,0-469.138,283.769-696.97,283.769c-103.456,0-177.019-55.011-227.249-55.011c-61.004,0-58.591,18.544-58.591,18.544
		s29.891-11.36,29.891,17.936c0,41.272-73.559,41.855-73.559-5.994c0-35.29,36.474-41.844,36.474-41.844s24.525,4.77,23.918-1.201
		c-0.594-5.972-21.539-1.202-21.539-1.202s-10.753,5.972-10.753-18.531c0-24.514,35.885-17.959,35.885-17.959
		s26.012,20.648,30.496,13.475c4.496-7.172-23.324-14.344-23.324-14.344s-39.476-31.389-121.082-31.389
		c-67.296,0-91.513,36.776-91.513,65.477c0,28.69,17.953,38.561,32.304,38.561c14.344,0,15.253-9.871,15.253-9.871
		s8.071,8.064,8.071,24.216c0,86.125-156.098,78.953-156.098-31.388c0-133.643,153.398-125.601,177.615-117.514
		c8.688,2.883,30.502,11.656,30.502,8.957c0-2.677-3.569-9.861-24.217-9.861c-14.35,0-21.523-37.658,13.453-37.658
		c24.233,0,13.458,6.269,22.414,6.269c7.196,0,16.169-13.441,30.52-13.441c27.798,0,82.511,82.511,141.73,121.987
		c9.552,6.371,40.346,35.873,43.045,25.109c2.688-10.753-35.873-25.109-35.873-25.109c-62.8-59.209-88.16-137.246-88.801-183.894
		c-0.915-64.562,45.733-159.667,132.75-159.667c146.214,0,144.406,192.863,42.153,192.863c-78.93,0-68.165-96.889-26.024-96.889
		c26.917,0,31.412,24.217,31.412,24.217s9.872-62.778-59.209-66.381c-66.301-3.42-81.63,55.64-94.189,99.588
		c-12.549,43.961,16.152,56.486,8.98,40.357c-7.172-16.14-10.765-57.412,5.387-59.219c16.152-1.785,18.83,9.871,18.83,9.871
		c0-25.086,35.883-27.785,35.883,4.496c0,32.282-20.304,31.446-17.948,95.082c2.688,72.672,81.64,122.009,96.877,130.062
		c15.26,8.077,48.445,30.52,47.541,19.733c-0.893-10.741-43.96-22.432-43.96-22.432c-58.294-42.13-32.281-127.363,7.195-121.082
		c39.454,6.28,43.045,35.873,43.045,35.873c-56.52-2.678-43.045,93.296,57.413,91.513c206.27-3.684,393.79-213.511,499.635-213.511
		c147.095,0,115.706,252.071-116.621,252.071c-286.138,0-327.409-312.149-128.256-312.149c87.167,0,268.654,154.619,421.975,180.292
		c153.322-25.673,334.808-180.292,421.975-180.292c199.153,0,157.882,312.149-128.256,312.149
		c-232.326,0-263.715-252.071-116.621-252.071c105.845,0,293.366,209.827,499.635,213.511
		c100.458,1.784,113.933-94.19,57.413-91.513c0,0,3.591-29.593,43.045-35.873c39.476-6.281,65.489,78.952,7.195,121.082
		c0,0-43.067,11.69-43.96,22.432c-0.904,10.787,32.28-11.656,47.541-19.733c15.237-8.053,94.189-57.39,96.877-130.062
		c2.357-63.635-17.948-62.8-17.948-95.082c0-32.28,35.883-29.582,35.883-4.496c0,0,2.678-11.656,18.83-9.871
		c16.152,1.807,12.559,43.079,5.387,59.219c-7.172,16.13,21.528,3.604,8.979-40.357c-12.559-43.948-27.888-103.008-94.189-99.588
		c-69.081,3.603-59.209,66.381-59.209,66.381s4.496-24.217,31.412-24.217c42.141,0,52.906,96.889-26.024,96.889
		c-102.254,0-104.061-192.863,42.153-192.863c87.017,0,133.665,95.105,132.75,159.667c-0.641,46.648-26.001,124.685-88.801,183.894
		c0,0-38.561,14.356-35.873,25.109c2.699,10.764,33.493-18.738,43.045-25.109c59.219-39.476,113.932-121.987,141.73-121.987
		c14.35,0,23.324,13.441,30.52,13.441c8.956,0-1.819-6.269,22.414-6.269c34.976,0,27.803,37.658,13.453,37.658
		c-20.648,0-24.217,7.184-24.217,9.861c0,2.699,21.814-6.075,30.502-8.957c24.217-8.087,177.615-16.128,177.615,117.514
		c0,110.341-156.098,117.513-156.098,31.388c0-16.152,8.071-24.216,8.071-24.216s0.909,9.871,15.253,9.871
		c14.35,0,32.304-9.871,32.304-38.561c0-28.701-24.217-65.477-91.512-65.477c-81.606,0-121.082,31.389-121.082,31.389
		s-27.82,7.172-23.324,14.344c4.484,7.172,30.496-13.475,30.496-13.475s35.885-6.555,35.885,17.959
		c0,24.503-10.753,18.531-10.753,18.531s-20.945-4.77-21.539,1.202c-0.607,5.97,23.918,1.201,23.918,1.201
		s36.474,6.555,36.474,41.844c0,47.849-73.559,47.266-73.559,5.994c0-29.296,29.891-17.936,29.891-17.936
		s2.413-18.544-58.591-18.544c-50.229,0-123.793,55.011-227.249,55.011c-227.832,0-520.248-283.769-696.97-283.769
		C1305.262,316.455,1303.638,316.477,1302.025,316.523z M1302.025,167.881c-17.161,38.333-17.927,80.621,0,107.915
		C1319.953,248.503,1319.186,206.215,1302.025,167.881z M1302.025,196.417c-63.787-10.424-69.343-87.258-16.448-136.574
		c4.121-4.544,9.687-9.861,16.448-15.733c6.761,5.871,12.327,11.189,16.448,15.733
		C1371.368,109.159,1365.813,185.993,1302.025,196.417z"/>
</g>
</svg>
