<?xml version="1.0" encoding="utf-8"?>

<!DOCTYPE svg PUBLIC "-//W3C//DTD SVG 1.1//EN" "http://www.w3.org/Graphics/SVG/1.1/DTD/svg11.dtd">
<svg version="1.1" id="Layer_1" xmlns="http://www.w3.org/2000/svg" xmlns:xlink="http://www.w3.org/1999/xlink" x="0px" y="0px"
	 viewBox="0 0 2606.027 468.937" enable-background="new 0 0 2606.027 468.937" xml:space="preserve">
<path d="M1303.014,358.148c-31.363-12.891-66.324-30.755-93.572-47.1C1055.5,448.07,853.398,441.667,758.842,386.795
	c-39.99-23.204-68.043-58.688-68.81-107.379c0-77.09,55.062-150.823,127.077-175.354c-76.285-31.703-155.133-58.3-236.951-68.534
	C236.632-7.342-71.524,242.532,66.298,398.172c17.02,15.174,35.792,25.804,56.324,31.909
	c122.183,36.316,175.655-40.261,254.433-104.605c10.734-8.879,20.628-15.259,29.689-19.144c8.566-3.67,20.654-7.508,29.689-5.271
	l0.554-0.556c0.825,0.415,7.032,3.518,7.768,3.885l-1.109,1.111c1.855,2.22,2.774,5.367,2.774,9.434
	c0,5.548-2.22,12.208-6.659,19.976c-13.432,23.509-67.127,65.683-134.014,89.344c-66.402,23.534-155.177,36.155-216.142,3.885
	c-2.098-1.394-31.631-16.487-31.631-22.752c-40.93-47.324-44.738-104.431-17.481-159.818
	c38.91-79.024,150.45-174.637,337.951-211.982c160.292-31.888,306.572,0.493,454.758,66.037
	c43.225-11.453,87.469-8.578,129.852,3.883c18.899-22.036,45.813-39.4,72.696-50.776c158.102-66.877,345.205,50.806,206.431,223.358
	c17.414,13.847,42.474,33.315,60.832,46.063c18.354-12.745,43.409-32.209,60.832-46.063
	c-151.877-188.845,87.83-311.013,246.942-201.16c12.573,8.696,23.307,18.225,32.186,28.578
	c42.374-12.458,86.62-15.338,129.852-3.883c106.771-47.225,214.021-78.245,327.403-78.245
	c326.205,0,577.772,233.761,447.825,384.008c0,4.935-20.327,16.57-24.695,18.867c-5.874,3.095-20.804,12.857-48.833,18.59
	c-138.229,28.333-314.919-75.109-314.919-127.909c0-4.066,0.919-7.214,2.774-9.434l-1.109-1.111c0.736-0.367,6.943-3.47,7.768-3.885
	l0.554,0.556c39.392-9.751,96.601,63.661,153.992,104.048c45.356,31.916,94.102,44.505,159.818,24.972
	c93.888-27.916,132.403-139.781,24.138-249.995C2399.877,70.523,2175.017-5.446,1949.567,49.678
	c-54.452,13.328-107.519,32.303-160.649,54.384c49.613,16.901,95.257,58.599,116.809,117.365
	c66.569,181.838-191.038,244.754-374.573,172.582c-49.387-19.422-94.25-47.074-134.569-82.961
	C1369.469,327.314,1334.514,345.2,1303.014,358.148z M1188.909,318.261c5.056-5.033,7.432-6.296,12.208-11.099
	c-105.808-54.75-132.594-74.915-258.593-142.614c-2.004,12.194-1.635,30.241,3.329,42.174
	c12.225,29.258,40.426,15.309,70.754,35.514c13.77,9.184,8.443,29.412-14.15,29.412c-13.204,0-44.858-10.648-62.986-49.388
	c-5.359-11.464-8.045-24.972-8.045-40.511c0-9.916,2.22-12.296,2.22-22.196c-52.877-26.439-72.973-36.472-103.771-49.944
	c-73.188,19.835-147.707,92.382-85.18,170.363C825.066,380.206,1054.133,431.229,1188.909,318.261z M1884.918,218.93
	c0-41.612-42.435-91.344-108.764-109.32c-30.803,13.474-50.904,23.51-103.771,49.944c0,3.702,0.365,7.403,1.111,11.097
	c7.003,35.255-14.004,80.445-49.39,95.726c-38.758,16.76-52.107-12.519-34.683-24.14c26.309-17.528,48.703-9.588,62.985-23.861
	c6.881-6.881,10.308-16.22,11.376-25.804c1.052-9.48,1.252-18.706-0.279-28.023c-125.44,67.398-152.928,87.938-258.593,142.614
	c4.76,4.787,7.167,6.081,12.208,11.099C1584.869,458.869,1884.918,342.748,1884.918,218.93z M955.84,112.384
	c-36.827-9.197-69.651-13.463-108.209-6.659c30.153,13.975,59.52,28.279,88.787,43.285
	C940.12,136.802,946.598,124.592,955.84,112.384z M1669.609,149.01c29.215-14.979,58.578-29.284,88.787-43.285
	c-38.344-6.766-70.74-2.698-108.209,6.659C1659.429,124.592,1665.907,136.802,1669.609,149.01z M1209.441,299.394
	c6.922-6.922,13.279-13.68,18.867-19.978c-1.846-1.846-3.458-3.026-7.214-5.548c-71.128-56.374-160.692-129.452-256.375-159.264
	c-9.615,13.319-16.093,26.273-19.422,38.845C1068.921,218.713,1095.746,240.135,1209.441,299.394z M1660.73,153.449
	c-3.329-12.573-9.807-25.526-19.422-38.845c-93.991,29.285-181.143,99.636-256.375,159.264c-3.928,2.638-5.451,3.786-7.214,5.548
	c5.585,6.294,11.94,13.051,18.867,19.978C1510.246,240.154,1537.13,218.7,1660.73,153.449z M971.933,105.725
	c97.123,31.376,184.253,105.664,263.589,164.814c118.071-145.944-20.238-255.289-164.535-220.307
	C1029.845,60.207,994.475,81.136,971.933,105.725z M1370.505,270.539c79.424-59.216,166.422-133.424,263.589-164.814
	c-12.21-13.319-27.746-25.153-46.613-35.514C1434.827-11.2,1235.763,103.989,1370.505,270.539z M1303.014,336.136
	c-14.417-9.902-49.444-37.22-68.046-51.724c-5.548,6.657-11.28,12.954-17.202,18.867c25.711,13.336,58.394,29.297,85.248,40.597
	c26.854-11.3,59.544-27.264,85.248-40.597c-5.922-5.913-11.653-12.21-17.202-18.867
	C1344.896,304.811,1316.077,327.164,1303.014,336.136z"/>
</svg>
