<?xml version="1.0" encoding="utf-8"?>

<!DOCTYPE svg PUBLIC "-//W3C//DTD SVG 1.1//EN" "http://www.w3.org/Graphics/SVG/1.1/DTD/svg11.dtd">
<svg version="1.1" id="Layer_1" xmlns="http://www.w3.org/2000/svg" xmlns:xlink="http://www.w3.org/1999/xlink" x="0px" y="0px"
	 viewBox="0 0 2634.049 647.588" enable-background="new 0 0 2634.049 647.588" xml:space="preserve">
<g>
	<path d="M1317.025,378.586c98.151,54.688,188.788,108.698,251.794,108.698c134.13,0,157.779-116.158,157.779-152.743
		c0-36.556-52.36-229.478-313.388-229.478c-36.075,0-68.111,4.988-96.184,13.696c-28.073-8.708-60.109-13.696-96.184-13.696
		c-261.028,0-313.388,192.922-313.388,229.478c0,36.584,23.649,152.743,157.779,152.743
		C1128.237,487.285,1218.874,433.274,1317.025,378.586z M1317.025,407.774c138.403-38.462,337.391-238.41,558.721-249.267
		c109.727-5.364,120.481,105.417,60.247,100.027c0,0,5.391,52.687,60.233,52.687c54.869,0,80.685-80.658,19.369-143.058
		c0,0,103.251,57.379,103.251,148.463c0,77.435-19.342,55.898-19.342,113.279c0,41.617,48.038,37.297,48.038,16.502
		c0,0,18.643,12.194,27.971-2.141c0,0-19.37,94.664-104.692,94.664c-56.667,0-65.994-58.107-65.994-58.107
		s7.915,18.641,34.444,18.641c58.08,0,69.562-126.941-34.444-126.941c-125.473,0-121.892,240.26,53.8,240.26
		c164.924,0,234.505-233.045,63.826-410.918c0,0,69.548,53.058,93.937,86.776c24.389,33.703,71.701,83.183,110.432,42.318
		c0,0,12.902,7.174,35.131,7.174s35.13-30.849,17.208-48.752c0,0,19.362,5.008,48.772,5.008
		c220.877,0,210.829-259.588,53.799-259.588c-37.29,0-83.93,16.502-83.93,74.582c0,26.502,11.489,39.437,11.489,39.437
		s1.07-13.978,21.503-13.978c48.409,0,65.61,111.852-86.05,111.852c-74.239,0-119.382-33.334-119.382-33.334
		s43.032,6.05,44.101-21.536c0.699-18.641-11.837-23.662-11.837-23.662s47.688-5.721,47.688-53.759
		c0-62.401-97.538-61.701-97.538-7.901c0,28.683,24.391,29.383,24.391,29.383s-17.943,10.796-39.451,10.796
		c-93.211,0-132.662-65.296-294.719-65.296c-178.88,0-395.141,150.655-580.971,251.269
		c-185.83-100.614-402.09-251.269-580.971-251.269c-162.057,0-201.509,65.296-294.719,65.296c-21.508,0-39.451-10.796-39.451-10.796
		s24.391-0.7,24.391-29.383c0-53.8-97.538-54.499-97.538,7.901c0,48.038,47.688,53.759,47.688,53.759s-12.537,5.02-11.837,23.662
		c1.069,27.586,44.101,21.536,44.101,21.536s-45.143,33.334-119.382,33.334c-151.66,0-134.458-111.852-86.05-111.852
		c20.432,0,21.503,13.978,21.503,13.978s11.489-12.936,11.489-39.437c0-58.08-46.64-74.582-83.93-74.582
		c-157.03,0-167.079,259.588,53.799,259.588c29.411,0,48.773-5.008,48.773-5.008c-17.922,17.902-5.02,48.752,17.208,48.752
		s35.131-7.174,35.131-7.174c38.731,40.864,86.043-8.615,110.432-42.318c24.389-33.717,93.937-86.776,93.937-86.776
		c-170.679,177.874-101.098,410.918,63.826,410.918c175.692,0,179.273-240.26,53.8-240.26c-104.005,0-92.524,126.941-34.444,126.941
		c26.528,0,34.444-18.641,34.444-18.641s-9.327,58.107-65.994,58.107c-85.322,0-104.692-94.664-104.692-94.664
		c9.328,14.335,27.971,2.141,27.971,2.141c0,20.795,48.038,25.115,48.038-16.502c0-57.38-19.342-35.844-19.342-113.279
		c0-91.084,103.251-148.463,103.251-148.463c-61.316,62.399-35.5,143.058,19.369,143.058c54.842,0,60.233-52.687,60.233-52.687
		c-60.233,5.39-49.479-105.392,60.247-100.027C979.633,169.364,1178.621,369.312,1317.025,407.774z M1317.025,152.784
		c163.113,79.995,329.595,201.497,450.093,201.497c166.736,0,201.166-294.746-32.262-294.746
		c-127.436,0-277.46,113.54-417.83,200.271c-140.37-86.731-290.395-200.271-417.83-200.271
		c-233.428,0-198.998,294.746-32.262,294.746C987.429,354.281,1153.912,232.779,1317.025,152.784z M1317.025,234.681
		c177.002,90.486,393.473,223.92,577.363,223.92c186.474,0,203.676-248.133-11.454-248.133
		c-198.922,0-408.068,206.368-565.91,252.137c-157.841-45.769-366.988-252.137-565.91-252.137
		c-215.13,0-197.928,248.133-11.454,248.133C923.552,458.601,1140.022,325.168,1317.025,234.681z M1317.025,56.926
		c31.089-7.324,65.742-11.383,104.099-11.383c476.158,0,423.071,507.722,195.034,507.722c-164.924,0-50.193-240.96,166.378-240.96
		c166.364,0,143.429,195.075,1.427,195.075c-124.15,0-286.676-123.123-466.939-213.771
		c-180.263,90.648-342.789,213.771-466.939,213.771c-142.001,0-164.937-195.075,1.427-195.075
		c216.571,0,331.302,240.96,166.378,240.96c-228.037,0-281.123-507.722,195.034-507.722
		C1251.282,45.544,1285.936,49.602,1317.025,56.926z M1317.025,306.156c170.823,89.486,337.204,205.148,465.169,205.148
		c152.729,0,189.299-204.363-10.768-204.363c-203.319,0-335.61,251.701-154.898,251.701c252.758,0,288.286-519.56-197.914-519.56
		c-37.246,0-71.075,3.93-101.589,11.044c-30.514-7.114-64.343-11.044-101.589-11.044c-486.2,0-450.672,519.56-197.914,519.56
		c180.713,0,48.422-251.701-154.898-251.701c-200.067,0-163.497,204.363-10.768,204.363
		C979.82,511.304,1146.202,395.642,1317.025,306.156z M1317.025,467.745c164.961-43.898,369.494-252.242,561.973-252.242
		c215.143,0,185.006,238.819,9.684,238.819c-170.921,0-387.068-140.634-571.656-231.731
		c-184.589,91.097-400.735,231.731-571.656,231.731c-175.323,0-205.46-238.819,9.684-238.819
		C947.53,215.502,1152.064,423.846,1317.025,467.745z M1317.025,268.602c143.347-87.41,294.677-204.774,418.899-204.774
		c219.438,0,182.853,287.215,30.124,287.215c-103.637,0-276.07-126.558-449.024-206.723
		c-172.954,80.165-345.387,206.723-449.024,206.723c-152.729,0-189.313-287.215,30.124-287.215
		C1022.347,63.828,1173.678,181.192,1317.025,268.602z M1317.025,337.633c187.169-100.825,404.205-252.638,586.69-252.638
		c124.061,0,212.277,65.967,272.51,65.967c73.155,0,70.261-22.237,70.261-22.237s-35.844,13.622-35.844-21.508
		c0-49.492,88.21-50.191,88.21,7.188c0,42.318-43.738,50.179-43.738,50.179s-29.409-5.72-28.682,1.44
		c0.712,7.161,25.829,1.441,25.829,1.441s12.895-7.161,12.895,22.222c0,29.397-43.032,21.536-43.032,21.536
		s-31.193-24.76-36.57-16.159c-5.391,8.601,27.97,17.201,27.97,17.201s47.338,37.641,145.198,37.641
		c80.699,0,109.739-44.101,109.739-78.518c0-34.404-21.529-46.241-38.738-46.241c-17.201,0-18.292,11.837-18.292,11.837
		s-9.678-9.67-9.678-29.039c0-103.279,187.188-94.678,187.188,37.639c0,160.261-183.95,150.618-212.99,140.92
		c-10.418-3.457-36.577-13.978-36.577-10.741c0,3.21,4.28,11.824,29.04,11.824c17.208,0,25.809,45.158-16.133,45.158
		c-29.06,0-16.138-7.518-26.878-7.518c-8.629,0-19.39,16.118-36.599,16.118c-33.334,0-98.944-98.944-169.958-146.283
		c-11.455-7.64-48.382-43.018-51.619-30.11c-3.224,12.895,43.018,30.11,43.018,30.11c75.308,71.001,105.719,164.581,106.487,220.521
		c1.097,77.421-54.842,191.468-159.19,191.468c-175.335,0-173.168-231.276-50.548-231.276c94.65,0,81.741,116.187,31.207,116.187
		c-32.278,0-37.669-29.04-37.669-29.04s-11.839,75.281,71.001,79.602c79.507,4.102,97.888-66.721,112.949-119.423
		c15.048-52.717-19.369-67.737-10.768-48.395c8.601,19.355,12.909,68.847-6.46,71.014c-19.369,2.141-22.58-11.837-22.58-11.837
		c0,30.082-43.03,33.319-43.03-5.391c0-38.711,24.348-37.71,21.522-114.019c-3.224-87.147-97.901-146.31-116.173-155.967
		c-18.3-9.685-58.094-36.598-57.01-23.663c1.07,12.881,52.716,26.899,52.716,26.899c69.904,50.521,38.711,152.73-8.627,145.198
		c-47.312-7.53-51.619-43.018-51.619-43.018c67.778,3.211,51.619-111.878-68.848-109.739
		c-221.699,3.96-425.338,206.504-556.581,248.473c-131.244-41.969-334.882-244.514-556.582-248.473
		c-120.467-2.139-136.626,112.95-68.848,109.739c0,0-4.307,35.487-51.618,43.018c-47.339,7.532-78.532-94.677-8.627-145.198
		c0,0,51.645-14.019,52.716-26.899c1.084-12.936-38.71,13.978-57.01,23.663c-18.272,9.657-112.949,68.82-116.172,155.967
		c-2.826,76.31,21.522,75.308,21.522,114.019c0,38.71-43.03,35.473-43.03,5.391c0,0-3.211,13.978-22.58,11.837
		c-19.369-2.167-15.061-51.659-6.46-71.014c8.601-19.342-25.816-4.322-10.768,48.395c15.061,52.701,33.442,123.525,112.949,119.423
		c82.84-4.321,71.001-79.602,71.001-79.602s-5.391,29.04-37.669,29.04c-50.534,0-63.443-116.187,31.207-116.187
		c122.62,0,124.787,231.276-50.548,231.276c-104.348,0-160.287-114.047-159.19-191.468c0.768-55.939,31.179-149.519,106.487-220.521
		c0,0,46.241-17.216,43.018-30.11c-3.236-12.907-40.163,22.47-51.618,30.11c-71.014,47.338-136.624,146.283-169.958,146.283
		c-17.208,0-27.97-16.118-36.598-16.118c-10.74,0,2.181,7.518-26.878,7.518c-41.942,0-33.341-45.158-16.133-45.158
		c24.76,0,29.04-8.615,29.04-11.824c0-3.236-26.159,7.285-36.577,10.741c-29.04,9.698-212.99,19.341-212.99-140.92
		c0-132.318,187.188-140.918,187.188-37.639c0,19.369-9.678,29.039-9.678,29.039s-1.09-11.837-18.292-11.837
		c-17.209,0-38.738,11.837-38.738,46.241c0,34.417,29.04,78.518,109.739,78.518c97.86,0,145.198-37.641,145.198-37.641
		s33.361-8.601,27.97-17.201c-5.377-8.601-36.57,16.159-36.57,16.159s-43.032,7.86-43.032-21.536
		c0-29.383,12.895-22.222,12.895-22.222s25.117,5.72,25.829-1.441c0.728-7.16-28.682-1.44-28.682-1.44s-43.738-7.86-43.738-50.179
		c0-57.379,88.21-56.679,88.21-7.188c0,35.131-35.844,21.508-35.844,21.508s-2.894,22.237,70.261,22.237
		c60.233,0,148.449-65.967,272.51-65.967C912.819,84.995,1129.856,236.808,1317.025,337.633z M1317.025,122.191
		c28.319-9.042,60.726-14.246,97.281-14.246c343.128,0,392.62,374.32,153.801,374.32c-57.567,0-149.439-56.237-251.082-111.91
		c-101.643,55.674-193.515,111.91-251.082,111.91c-238.819,0-189.327-374.32,153.801-374.32
		C1256.299,107.945,1288.705,113.149,1317.025,122.191z"/>
</g>
</svg>
