<?xml version="1.0" encoding="utf-8"?>
<!-- Generator: Adobe Illustrator 27.8.1, SVG Export Plug-In . SVG Version: 6.00 Build 0)  -->
<svg version="1.1" id="Layer_1" xmlns="http://www.w3.org/2000/svg" xmlns:xlink="http://www.w3.org/1999/xlink" x="0px" y="0px"
	 viewBox="0 0 500 500" style="enable-background:new 0 0 500 500;" xml:space="preserve">
<style type="text/css">
	.st0{fill:#1572B6;}
	.st1{fill:#33A9DC;}
	.st2{fill:#FFFFFF;}
	.st3{fill:#EBEBEB;}
</style>
<polygon class="st0" points="85.2,439.3 48.5,27.9 451.5,27.9 414.8,439.2 249.8,485 "/>
<polygon class="st1" points="250,450 383.4,413 414.7,61.6 250,61.6 "/>
<polygon class="st2" points="250,210.6 316.8,210.6 321.4,158.9 250,158.9 250,108.5 250.2,108.5 376.5,108.5 375.3,122 362.9,261 
	250,261 "/>
<polygon class="st3" points="250.3,341.6 250.1,341.7 193.9,326.5 190.3,286.3 163,286.3 139.7,286.3 146.7,365.5 250.1,394.2 
	250.3,394.1 "/>
<polygon class="st2" points="312.5,258.9 306.4,326.5 250.1,341.6 250.1,394.1 353.6,365.5 354.3,357 363.1,258.9 "/>
<polygon class="st3" points="250.2,108.5 250.2,139.8 250.2,158.8 250.2,158.9 128.5,158.9 128.5,158.9 128.3,158.9 127.3,147.6 
	125,122 123.8,108.5 "/>
<polygon class="st3" points="250,210.6 250,241.9 250,260.9 250,261 194.7,261 194.7,261 194.5,261 193.5,249.7 191.2,224.1 
	190,210.6 "/>
</svg>
