<?xml version="1.0" encoding="utf-8"?>
<!-- Generator: Adobe Illustrator 26.5.0, SVG Export Plug-In . SVG Version: 6.00 Build 0)  -->
<svg version="1.1" id="Layer_1" xmlns="http://www.w3.org/2000/svg" xmlns:xlink="http://www.w3.org/1999/xlink" x="0px" y="0px"
	 viewBox="0 0 500 500" style="enable-background:new 0 0 500 500;" xml:space="preserve">
<style type="text/css">
	.st0{fill:#00ACD7;}
</style>
<g>
	<path class="st0" d="M285.2,174.9l1.1,0.7c12.6,8.3,21.7,19.8,27.6,33.6c1.4,2.1,0.5,3.3-2.4,4.1l-4.8,1.2
		c-10.9,2.8-19.6,5.2-30.4,8l-6.2,1.6c-2.2,0.5-2.8,0.3-5.2-2.4l-0.3-0.4c-3.4-3.8-5.9-6.4-10.3-8.6l-0.9-0.4
		c-15-7.4-29.5-5.2-43.1,3.6c-16.2,10.5-24.5,26-24.3,45.3c0.2,19.1,13.3,34.8,32.2,37.4c16.2,2.1,29.8-3.6,40.5-15.7
		c2.1-2.6,4.1-5.5,6.4-8.8h-46c-5,0-6.2-3.1-4.5-7.1l0.8-1.9c3.1-7.1,7.8-17.4,10.9-23.2l0.7-1.3c0.8-1.4,2.5-3.4,5.7-3.4l76.7,0
		c3.4-10.9,9-21.2,16.5-31c17.4-22.9,38.4-34.8,66.7-39.8c24.3-4.3,47.2-1.9,67.9,12.2c18.8,12.9,30.5,30.3,33.6,53.1
		c4.1,32.2-5.2,58.4-27.4,80.8c-15.7,16-35,26-57.2,30.5c-6.4,1.2-12.9,1.4-19.1,2.1c-21.7-0.5-41.5-6.7-58.1-21
		c-11.7-10.1-19.8-22.6-23.8-37.1c-2.8,5.6-6.1,11-10,16.1c-17.2,22.6-39.6,36.7-67.9,40.5c-23.3,3.1-45-1.4-64.1-15.7
		c-17.6-13.3-27.6-31-30.3-52.9c-3.1-26,4.5-49.3,20.3-69.8c16.9-22.2,39.3-36.2,66.7-41.2C245.2,160,266.2,162.4,285.2,174.9
		L285.2,174.9z M398.6,209l-0.8,0.2c-22.2,5-36.5,19.1-41.7,41.5c-4.3,18.6,4.8,37.4,21.9,45c13.1,5.7,26.2,5,38.8-1.4
		c18.8-9.8,29.1-25,30.3-45.5c-0.2-3.1-0.2-5.5-0.7-7.9C442.2,217.6,420.9,204.3,398.6,209L398.6,209z M116.9,252.6
		c1,0,1.4,0.7,1.4,1.7l-0.5,5.7c0,1-1,1.7-1.7,1.7l-51.9-0.2c-1,0-1.2-0.7-0.7-1.4l3.3-6c0.5-0.7,1.4-1.4,2.4-1.4H116.9z
		 M122.2,230.6c1,0,1.4,0.7,1.2,1.4l-1.9,5.7c-0.2,1-1.2,1.4-2.1,1.4L6.6,239.5c-1,0-1.2-0.5-0.7-1.2l5-6.4c0.5-0.7,1.7-1.2,2.6-1.2
		H122.2z M134.6,208.7c1,0,1.2,0.7,0.7,1.4l-4.1,6.2c-0.5,0.7-1.7,1.4-2.4,1.4l-86.2-0.2c-1,0-1.2-0.5-0.7-1.2l5-6.4
		c0.5-0.7,1.7-1.2,2.6-1.2H134.6z"/>
</g>
</svg>
