<?xml version="1.0" encoding="utf-8"?>
<!-- Generator: Adobe Illustrator 26.5.0, SVG Export Plug-In . SVG Version: 6.00 Build 0)  -->
<svg version="1.1" id="Layer_1" xmlns="http://www.w3.org/2000/svg" xmlns:xlink="http://www.w3.org/1999/xlink" x="0px" y="0px"
	 viewBox="0 0 500 500" style="enable-background:new 0 0 500 500;" xml:space="preserve">
<style type="text/css">
	.st0{fill:#3178C6;}
	.st1{fill-rule:evenodd;clip-rule:evenodd;fill:#FFFFFF;}
</style>
<rect x="27" y="27" class="st0" width="446" height="446"/>
<path id="path2" class="st1" d="M314.2,397.8v46.8c7.6,3.9,16.6,6.8,27,8.8c10.4,1.9,21.3,2.9,32.8,2.9c11.2,0,21.9-1.1,32-3.2
	c10.1-2.1,18.9-5.7,26.5-10.6c7.6-4.9,13.6-11.4,18.1-19.3s6.7-17.8,6.7-29.5c0-8.5-1.3-15.9-3.8-22.3c-2.5-6.4-6.2-12.1-11-17
	c-4.8-5-10.5-9.4-17.2-13.4c-6.7-3.9-14.2-7.7-22.6-11.2c-6.1-2.5-11.7-5-16.5-7.4c-4.9-2.4-9-4.8-12.4-7.3c-3.4-2.5-6-5.1-7.9-7.9
	c-1.9-2.8-2.8-5.9-2.8-9.4c0-3.2,0.8-6.1,2.5-8.7s4-4.8,7-6.7c3-1.9,6.7-3.3,11.1-4.3c4.4-1,9.3-1.5,14.6-1.5c3.9,0,8,0.3,12.4,0.9
	c4.3,0.6,8.7,1.5,13.1,2.7c4.4,1.2,8.7,2.8,12.8,4.6c4.1,1.9,8,4,11.5,6.4v-43.7c-7.1-2.7-14.9-4.8-23.3-6.1c-8.4-1.3-18.1-2-29-2
	c-11.1,0-21.6,1.2-31.6,3.6c-9.9,2.4-18.7,6.1-26.3,11.2c-7.6,5.1-13.5,11.5-17.9,19.4c-4.4,7.8-6.6,17.2-6.6,28.1
	c0,13.9,4,25.8,12.1,35.7c8,9.8,20.3,18.2,36.6,25c6.4,2.6,12.4,5.2,18,7.7c5.6,2.5,10.4,5.2,14.4,7.9c4,2.7,7.2,5.7,9.6,8.9
	c2.3,3.2,3.5,6.9,3.5,11c0,3-0.7,5.8-2.2,8.4c-1.5,2.6-3.7,4.8-6.7,6.7c-3,1.9-6.7,3.4-11.1,4.5c-4.4,1.1-9.6,1.6-15.6,1.6
	c-10.1,0-20.2-1.8-30.1-5.3C331.9,410.2,322.7,404.9,314.2,397.8z M235.5,282.5h60v-38.4H128.3v38.4H188v170.9h47.5V282.5z"/>
</svg>
