<?xml version="1.0" encoding="utf-8"?>
<!-- Generator: Adobe Illustrator 26.5.0, SVG Export Plug-In . SVG Version: 6.00 Build 0)  -->
<svg version="1.1" id="Layer_1" xmlns="http://www.w3.org/2000/svg" xmlns:xlink="http://www.w3.org/1999/xlink" x="0px" y="0px"
	 viewBox="0 0 500 500" style="enable-background:new 0 0 500 500;" xml:space="preserve">
<style type="text/css">
	.st0{fill:#F40000;}
</style>
<g>
	<path class="st0" d="M410.6,333.7c-2-1.7-4.5-2.4-7.6-2c-5.7,0.7-8.6,4.4-8.8,11l20.4-2.5C414,337.6,412.6,335.4,410.6,333.7z"/>
	<path class="st0" d="M257.6,354.6c-2-2.1-4.5-3-7.5-2.6c-6.4,0.8-9.1,5.8-7.9,15.1c0.5,3.8,1.6,6.8,3.5,9.1
		c1.9,2.3,4.5,3.2,7.7,2.8c2.9-0.4,5.1-1.7,6.6-4.2c1.5-2.4,2-6,1.4-10.8C260.9,359.9,259.7,356.8,257.6,354.6z"/>
	<path class="st0" d="M480.2,399.2l-16.9-138.9c-2.3-18.6-19.2-31.9-37.8-29.6l-42.7,5.2c-7.6-49.3-23.5-95-45.9-130.8
		c-26-41.8-58.5-66.2-89.2-67c-21.8-0.5-44.9,10.4-66.8,31.7c-22.7,22.1-42.2,53.5-56.2,90.7c-12.7,33.8-20.4,70.5-23,109.6
		l-52.3,6.4c-18.6,2.3-31.8,19.2-29.6,37.8l16.9,138.9c2.3,18.6,19.2,31.8,37.8,29.6l376-45.8C469.2,434.7,482.4,417.8,480.2,399.2z
		 M110,408.5c-12.6,1.5-22.5-0.7-29.7-6.7s-11.5-14.2-12.7-24.6c-0.9-7.4,0-14.1,2.6-20c2.7-6,6.6-10.7,11.9-14.2s11.3-5.6,18-6.5
		c8.4-1,15.6,0.3,21.8,4l-0.7-5.4l11.8-1.4l3,24.7l-11.8,1.4c-4.4-8.5-10.8-12.2-19.1-11.2c-6.9,0.8-11.8,3.8-14.7,8.9
		c-2.9,5.1-4,10.9-3.2,17.4c0.8,6.8,3.4,12.1,7.6,15.9s9.2,5.3,15,4.6c4.7-0.6,8.6-2.7,11.8-6.3c3.1-3.6,5-8.3,5.5-14.2l14.6,4.9
		C138.4,396.8,127.9,406.3,110,408.5z M171.8,400.1l-1.4-11.2l7.7-0.9l-5.8-47.6l-7.7,0.9l-1.4-11.2l23.2-2.8l7.2,58.9l7-0.9
		l1.4,11.2L171.8,400.1z M272.4,382c-4.3,5.2-10.2,8.2-17.5,9.1c-7.2,0.9-13.5-0.7-19.1-4.6c-5.5-4-8.8-9.9-9.7-17.8
		c-1-7.9,0.8-14.5,5.2-19.6c4.4-5.2,10.2-8.2,17.4-9c7.2-0.9,13.6,0.7,19.1,4.6c5.5,4,8.7,9.9,9.7,17.8
		C278.4,370.3,276.7,376.8,272.4,382z M348.4,375.1c-3,3.5-7.7,5.6-13.9,6.3c-5.8,0.7-9.9,0-12.4-2.1l0.3,2.4l-11.4,1.4l-2-16.8
		l11.4-1.4c0.4,2.3,1.7,4,3.8,5.1c2.2,1.1,4.8,1.5,7.7,1.1c2.6-0.3,4.5-1,5.8-2.1s1.9-2.3,1.7-3.7c-0.2-1.3-0.9-2.2-2.3-2.7
		s-4-0.9-8-1.1c-8.1-0.3-14-1.6-17.8-3.7c-3.8-2.2-6-5.4-6.5-9.7c-0.5-4,0.7-7.6,3.7-10.8c3-3.2,7.2-5.1,12.6-5.8
		c4.4-0.5,8.6-0.2,12.6,0.9l-0.2-1.7l11.1-1.4l1.7,14.2l-11.1,1.4c-1.4-3.3-5.2-4.5-11.3-3.8c-4.5,0.5-6.6,2.1-6.3,4.6
		c0.1,0.9,0.7,1.6,1.6,2c1,0.4,3.4,0.7,7.3,0.9c6.1,0.3,10.8,0.8,13.9,1.5s5.7,2.1,7.8,4.3c2.1,2.2,3.3,5,3.8,8.3
		C352.7,367.5,351.5,371.6,348.4,375.1z M130.1,266.7c6.9-86,39.6-147,70.3-176.8c16.1-15.7,32.7-24.1,46.6-23.8
		c20.7,0.5,45.4,20.6,66.1,53.8c20.2,32.5,34.8,74.2,41.8,119.4L130.1,266.7z M409.7,372.3c-8.6,1-15.6-0.4-21-4.4
		c-5.4-3.9-8.5-9.6-9.4-17c-0.9-7.5,0.8-14.1,5.2-19.8s10.4-8.9,18.1-9.9c5.6-0.7,10.6,0.1,15,2.5c4.4,2.3,7.7,5.5,9.8,9.5
		c2.1,4,3.5,8.6,4.1,13.8l-36.3,4.4c0.8,4.4,2.6,7.4,5.4,8.9s5.6,2.1,8.5,1.8c3.7-0.5,7.3-2.8,10.6-7.1l12.6,2.4
		C428,366,420.5,370.9,409.7,372.3z"/>
</g>
</svg>
