<?xml version="1.0" encoding="utf-8"?>
<!-- Generator: Adobe Illustrator 26.5.0, SVG Export Plug-In . SVG Version: 6.00 Build 0)  -->
<svg version="1.1" id="Layer_1" xmlns="http://www.w3.org/2000/svg" xmlns:xlink="http://www.w3.org/1999/xlink" x="0px" y="0px"
	 viewBox="0 0 500 500" style="enable-background:new 0 0 500 500;" xml:space="preserve">
<style type="text/css">
	.st0{fill:#00BEDD;}
</style>
<g>
	<g>
		<path class="st0" d="M297.9,202.1H250h-47.9c-26.3,0-47.9,21.6-47.9,47.9v71.9c0,8.8,4,16.8,9.6,22.4s13.6,9.6,22.4,9.6v71.9
			c0,26.3,21.6,47.9,47.9,47.9h16h16c26.3,0,47.9-21.6,47.9-47.9v-71.9c8.8,0,16.8-3.2,22.4-9.6c5.6-5.6,9.6-13.6,9.6-22.4V250
			C345.8,223.7,324.3,202.1,297.9,202.1z"/>
	</g>
	<g>
		<circle class="st0" cx="250" cy="114.3" r="55.9"/>
	</g>
	<g>
		<path class="st0" d="M135,383.3c-1.6-1.6-4-3.2-5.6-4.8c-15.2-16-24-35.9-24-56.7V250c0-25.6,10.4-49.5,27.1-66.3
			c4.8-4.8,0.8-13.6-5.6-13.6c-13.6,0-28.7,0-28.7,0H50.4c-26.3,0-47.9,21.6-47.9,47.9v71.9c0,8.8,4,16.8,9.6,22.4
			s13.6,9.6,22.4,9.6v71.9c0,26.3,21.6,47.9,47.9,47.9h16h16c7.2,0,13.6-1.6,19.2-4c3.2-1.6,4.8-4,4.8-7.2c0-9.6,0-31.9,0-40.7
			C138.2,387.3,137.4,384.9,135,383.3z"/>
	</g>
	<g>
		<circle class="st0" cx="98.3" cy="82.3" r="55.9"/>
	</g>
	<g>
		<path class="st0" d="M449.6,170.2h-47.9c0,0-15.2,0-28.7,0c-7.2,0-10.4,8-5.6,13.6c16.8,17.6,27.1,40.7,27.1,66.3V322
			c0,20.8-8,40.7-24,56.7c-1.6,1.6-3.2,3.2-5.6,4.8c-1.6,1.6-3.2,4-3.2,6.4c0,8.8,0,30.3,0,40.7c0,3.2,1.6,6.4,4.8,7.2
			c5.6,2.4,12,4,19.2,4h16h16c26.3,0,47.9-21.6,47.9-47.9V322c8.8,0,16.8-3.2,22.4-9.6c5.6-5.6,9.6-13.6,9.6-22.4v-71.9
			C497.5,191.7,476,170.2,449.6,170.2z"/>
	</g>
	<g>
		<circle class="st0" cx="401.7" cy="82.3" r="55.9"/>
	</g>
</g>
</svg>
