<?xml version="1.0" encoding="utf-8"?>
<!-- Generator: Adobe Illustrator 26.5.0, SVG Export Plug-In . SVG Version: 6.00 Build 0)  -->
<svg version="1.1" id="_x32_" xmlns="http://www.w3.org/2000/svg" xmlns:xlink="http://www.w3.org/1999/xlink" x="0px" y="0px"
	 viewBox="0 0 512 512" style="enable-background:new 0 0 512 512;" xml:space="preserve">
<style type="text/css">
	.st0{fill:#FFFFFF;}
	.st1{fill:#F2AA94;}
	.st2{fill:none;stroke:#FC4242;stroke-width:19;stroke-miterlimit:10;}
</style>
<circle class="st0" cx="257.8" cy="257.8" r="254.2"/>
<g>
	<path class="st1" d="M434.7,232.2L434.7,232.2L434.7,232.2c-1.7-1.7-3.6-3.3-5.7-4.7c-0.7,0-1.4-0.2-2.1-0.5
		c-1.1-0.5-2-1.3-2.6-2.2c-3.3-1.6-6.8-2.6-10.4-3.1c-3.1-0.4-5.2-3.3-4.8-6.4c0.4-3.1,3.3-5.2,6.4-4.8c3.5,0.5,7,1.4,10.5,2.7
		c0.5-2.5,0.8-5,0.8-7.5c0-5.6-1.3-11.2-4.1-16.5v0c-3.2-6-7.8-10.8-13.3-14c-4.8-2.8-10.2-4.5-15.7-4.9c-0.4,5-1.6,10.1-3.7,14.9
		c-1.2,2.9-4.6,4.2-7.4,3c-2.9-1.2-4.2-4.6-3-7.4c2-4.7,3-9.5,3-14.3c0-0.7,0-1.4-0.1-2.1c-0.4-6.6-2.6-13.1-6.3-18.5
		c-3.8-5.5-9-9.9-15.6-12.8c-4.7-2-9.5-3-14.3-3c-9.2,0-18.1,3.5-24.8,9.8c1.3,4.3,2,8.8,2,13.4c0,3.1-2.5,5.6-5.7,5.6
		c-3.1,0-5.7-2.5-5.7-5.6c0-4.6-0.8-8.9-2.4-13l0,0c-2.6-6.8-7.2-12.7-13.1-16.8c-5.9-4.1-13-6.6-20.8-6.6c-6.8,0-13,1.8-18.4,5
		c-4.3,2.6-8.1,6-11,10c5.7,7.9,9.1,17.5,9.1,28c0,3.1-2.5,5.6-5.7,5.6c-3.1,0-5.7-2.5-5.7-5.6c0-9.2-3.4-17.5-9-23.9l0,0
		c-6.7-7.6-16.4-12.4-27.3-12.4c-7.6,0-14.6,2.3-20.4,6.2c-5.8,3.9-10.4,9.5-13.2,16.1c-1.8,4.3-2.8,9-2.8,14c0,3.1-2.5,5.6-5.7,5.6
		c-3.1,0-5.7-2.5-5.7-5.6c0-4.6,0.7-9,1.9-13.2c-4.3-1.7-8.9-2.7-13.6-2.7c-2.7,0-5.4,0.3-8.1,0.9c-8,1.8-14.8,6.2-19.7,12.1
		c-3.6,4.2-6.1,9.3-7.4,14.7c11.7,0.2,23.4,4.7,32.4,13.5c2.2,2.2,2.3,5.8,0.1,8c-2.2,2.2-5.8,2.3-8,0.1
		c-7.1-6.9-16.2-10.4-25.4-10.4c-1.6,0-3.3,0.1-4.9,0.3l0,0h0h0c-7.7,1.1-15.1,4.6-21,10.6c-6.9,7.1-10.4,16.2-10.4,25.4
		c0,5.3,1.1,10.5,3.4,15.4c1.8,3.8,4.3,7.4,7.5,10.6l0,0c3.6,3.6,7.8,6.2,12.3,7.9c2.9,1.1,4.4,4.4,3.2,7.3s-4.4,4.4-7.3,3.2
		c-5.9-2.3-11.4-5.7-16.1-10.4c-2.1-2.1-4-4.3-5.6-6.6c-4.3,6.1-6.6,13.4-6.6,20.9c0,5.8,1.4,11.6,4.3,17.1
		c3.3,6.1,8,10.9,13.6,14.2c4.4,2.6,9.4,4.2,14.4,4.8l0-0.3c0-3,0.3-5.9,0.8-8.8c0.6-3.1,3.5-5.1,6.6-4.5c3.1,0.6,5.1,3.5,4.5,6.6
		c-0.4,2.2-0.6,4.4-0.6,6.7c0,0.9,0,1.7,0.1,2.6c0.1,0.9,0.2,1.8,0.3,2.6l0,0l0,0c2.6,17.8,17.9,31,35.9,31c0.9,0,1.7,0,2.6-0.1h0
		c8-0.6,15.1-3.7,20.8-8.4c4-3.4,7.2-7.6,9.5-12.3c1.3-2.8,4.7-4,7.5-2.7c2.8,1.3,4,4.7,2.7,7.5c-2.4,5.1-5.7,9.7-9.7,13.6
		c2.2,6.8,6.4,12.7,11.8,17.1c6.3,5,14.1,7.9,22.6,7.9c0.9,0,1.7,0,2.6-0.1h0c5.4-0.4,10.4-1.9,14.8-4.3c-0.7-3.3-1.1-6.6-1.1-9.9
		c0-6.9,1.5-14,4.7-20.6c1.4-2.8,4.7-4,7.5-2.6c2.8,1.4,4,4.7,2.6,7.5c-2.5,5.1-3.6,10.5-3.6,15.7c0,3.7,0.6,7.4,1.7,10.9l0,0
		c2.9,9.2,9.4,17.3,18.9,21.8c5.1,2.5,10.4,3.6,15.7,3.6c8.4,0,16.6-2.9,23.1-8.2l0,0c3.9-3.3,7.3-7.4,9.6-12.3l0,0
		c2.2-4.6,3.4-9.4,3.6-14.2c0.1-3.1,2.8-5.5,5.9-5.4c3.1,0.1,5.5,2.8,5.4,5.9c-0.3,6.3-1.8,12.6-4.7,18.6l0,0
		c-2.3,4.8-5.4,9.1-9,12.8c6.7,9.6,17.8,15.6,29.7,15.6c2.2,0,4.5-0.2,6.8-0.6c8.7-1.7,16.1-6.3,21.3-12.6c5.2-6.4,8.3-14.5,8.3-23
		c0-0.3,0-0.5,0-0.8v0c0-1.9-0.2-3.9-0.6-6c-0.9-4.8-2.7-9.2-5.2-13c-3.7-3.2-7.7-7.4-11.5-12.1c-4.1-5-7.8-10.4-10.4-15.9
		c-1.7-3.7-2.8-7.4-2.9-11.3c0-1.7,0.3-3.5,0.9-5.3c0.6-1.7,1.7-3.4,3.1-4.8v0c2.2-2.2,5.8-2.2,8,0c2.2,2.2,2.2,5.8,0,8
		c-0.2,0.2-0.3,0.4-0.4,0.7c-0.1,0.3-0.2,0.7-0.2,1.4c0,1.4,0.6,3.8,1.8,6.6c1.3,2.8,3.1,5.9,5.3,8.9c4.4,6.1,10.1,12.2,14.3,15.8
		l0.6,0.5l0.4,0.6c3.5,5.2,6.1,11.2,7.3,17.8v0c0.2,0.9,0.3,1.9,0.4,2.8c0.6,0,1.1,0.1,1.7,0.1c7.2,0,14.4-2.1,20.7-6.6
		c5-3.5,8.9-8.1,11.5-13.2c2.6-5.1,4-10.8,4-16.5c0-5.3-1.2-10.7-3.6-15.7c-2.2,0.7-4.5,1.3-6.8,1.7c-3.1,0.5-6-1.5-6.5-4.6
		c-0.5-3.1,1.5-6,4.6-6.5c10-1.7,19.2-7.6,24.9-16.9c3.6-5.9,5.3-12.4,5.3-18.8C445.1,248.3,441.5,239.1,434.7,232.2z M175.6,189.1
		c5.4-6.4,12.6-10.9,20.3-13.9c7.7-3,16-4.4,24-4.4c7.7,0,15.2,1.3,21.5,4.2c2.8,1.3,4.1,4.7,2.8,7.5c-1.3,2.8-4.7,4.1-7.5,2.8
		c-4.4-2-10.3-3.2-16.7-3.2c-6.6,0-13.6,1.2-19.9,3.7c-6.3,2.4-11.8,6-15.7,10.6v0c-2,2.4-5.6,2.7-8,0.7
		C173.9,195,173.6,191.5,175.6,189.1z M304.3,322.8c-6.6,0-12.5-0.7-18-2c0.2,1.6,0.3,3.3,0.3,5.1c0,3.7-0.4,7.9-1.6,12.3
		c-1.2,4.4-3.1,9.1-6.2,13.5c-1.8,2.6-5.3,3.2-7.9,1.4c-2.6-1.8-3.2-5.3-1.4-7.9c2.3-3.3,3.7-6.7,4.6-10c0.9-3.3,1.2-6.6,1.2-9.4
		c0-4-0.6-7.3-1-9.2c-2.8-1.3-5.3-2.7-7.7-4.2c-9.5-6.1-15.8-14.2-19.8-21.9c-2.7-5.1-4.3-10.1-5.2-14.5c-0.5-2.5-0.7-4.7-0.7-6.8
		c0-3.1,2.5-5.7,5.7-5.7c3.1,0,5.7,2.5,5.7,5.7c0,1.7,0.3,4.4,1.2,7.5c0.9,3.1,2.3,6.7,4.4,10.3c4.1,7.2,10.7,14.4,20.8,19.1
		c6.8,3.1,15.2,5.2,25.7,5.2c3.1,0,5.7,2.5,5.7,5.7C310,320.2,307.4,322.8,304.3,322.8z M344.1,281.5c-1.2,2.9-4.5,4.3-7.4,3.1
		c-2.9-1.2-4.3-4.4-3.2-7.3v0l0-0.1c0-0.1,0.1-0.3,0.2-0.5c0.2-0.4,0.4-1.2,0.6-2c0.4-1.8,0.9-4.3,0.9-7.1l0-0.4
		c-7.7,2.6-15,3.8-21.6,3.8c-10,0-18.7-2.7-25.8-6.9c-7.1-4.2-12.6-9.7-16.7-15.3c-4.7-6.4-10.8-12.1-17.8-16.1
		c-7-4-14.9-6.5-23.3-6.5c-7.3,0-15.1,1.8-23.3,6.3c-7.7,4.2-12.7,9.9-15.9,16.1c-3.2,6.2-4.5,13-4.5,19.1c0,5.7,1.2,10.9,2.8,14.1
		c1.3,2.8,0.1,6.2-2.7,7.5c-2.8,1.3-6.2,0.1-7.5-2.7c-2.4-5.2-3.8-11.8-3.8-19c0-7.2,1.4-15,4.9-22.5c-7,1.6-13.5,2.3-19.5,2.3
		c-3.2,0-6.2-0.2-9.1-0.6c-0.2,0.7-0.5,1.5-1.1,2.1l0,0h0l-0.1,0.1c-0.1,0.1-0.2,0.2-0.3,0.4c-0.3,0.4-0.7,0.9-1.2,1.7
		c-1,1.5-2.5,3.6-4,6.3c-3.1,5.4-6.6,13.1-8.3,21.7c-0.6,3.1-3.6,5.1-6.7,4.4c-3.1-0.6-5-3.6-4.4-6.7c2-10.2,6.1-18.9,9.6-25.1
		c1.8-3.2,3.5-5.7,4.7-7.5c-4.6-1.4-8.6-3.1-11.9-4.8c-7.4-4-11.3-7.9-11.6-8.2c-2.2-2.2-2.1-5.8,0.1-8c2.2-2.2,5.8-2.1,8,0.1l0,0
		l0.1,0.1l0.3,0.3c0.3,0.3,0.9,0.8,1.6,1.3c1.5,1.2,3.8,2.8,6.8,4.4c6.1,3.2,15.2,6.5,27.4,6.5c8.6,0,18.7-1.6,30.5-6.2
		c3-2.8,6.4-5.3,10.4-7.5c9.7-5.3,19.4-7.7,28.7-7.7c10.6,0,20.4,3.1,28.9,8c8.5,4.9,15.7,11.7,21.3,19.2c3.4,4.6,7.8,9,13.3,12.3
		c5.5,3.2,12,5.3,20,5.3c5.5,0,11.6-1,18.6-3.5c-1.7-2.7-4.2-5.4-8.4-7.8c-2.7-1.5-3.7-5-2.1-7.7c1.5-2.7,5-3.7,7.7-2.1
		c6.7,3.8,11.2,8.8,13.8,14c2.6,5.2,3.4,10.5,3.4,15C346.5,275.4,344.3,281.1,344.1,281.5z M342,212.2c-13.2,0-24.8-3.6-34.1-9
		c-1.3,1.8-3.1,4.1-5.4,6.6c-5.1,5.6-12.6,12.2-22.7,15.8c-2.9,1.1-6.2-0.5-7.2-3.4c-1-2.9,0.5-6.2,3.4-7.2
		c7.4-2.6,13.6-7.8,17.9-12.5c2-2.2,3.5-4.2,4.7-5.7c-5.6-4.7-10-10.1-13-15.6c-2.9-5.3-4.5-10.8-4.6-16.1c0-3.1,2.5-5.6,5.7-5.6
		c3.1,0,5.7,2.5,5.7,5.6c0,2.9,1,6.7,3.2,10.7c2.2,4,5.5,8.2,9.8,11.9c8.6,7.5,21.1,13.2,36.7,13.2c3.1,0,5.7,2.5,5.7,5.7
		C347.6,209.7,345.1,212.2,342,212.2z M386.6,291.8c-2,2.4-5.6,2.7-8,0.8c-2.4-2-2.7-5.6-0.8-8c6.2-7.5,8.4-15,8.5-22.2
		c0-6.6-2-12.9-5.1-18.3c-3.1-5.3-7.4-9.6-11.6-12c-2.8-1.6-5.4-2.3-7.5-2.3c-3.1,0-5.7-2.5-5.7-5.7c0-3.1,2.5-5.7,5.7-5.7
		c3.4,0,6.8,0.8,10,2.2c3.2,1.4,6.2,3.4,9,5.8c5.6,4.8,10.3,11.4,13.3,19.1c2,5.1,3.2,10.8,3.2,16.7
		C397.6,272.1,394.3,282.4,386.6,291.8z"/>
</g>
<circle class="st2" cx="257.8" cy="257.8" r="211.9"/>
<line class="st2" x1="410.4" y1="110.8" x2="111.2" y2="410.1"/>
</svg>
