<?xml version="1.0" encoding="utf-8"?>
<!-- Generator: Adobe Illustrator 26.5.0, SVG Export Plug-In . SVG Version: 6.00 Build 0)  -->
<svg version="1.1" id="_x32_" xmlns="http://www.w3.org/2000/svg" xmlns:xlink="http://www.w3.org/1999/xlink" x="0px" y="0px"
	 viewBox="0 0 512 512" style="enable-background:new 0 0 512 512;" xml:space="preserve">
<style type="text/css">
	.st0{fill:#CDDD00;}
</style>
<g>
	<path class="st0" d="M470.5,137.5H41.5C18.6,137.5,0,156.1,0,179v56.8l211.5,44.6v-28.3h87.8v28.3L512,235.5V179
		C512,156.1,493.4,137.5,470.5,137.5z"/>
	<path class="st0" d="M299.3,369.1h-87.8v-57L14.6,273v166.8c0,22.9,18.6,41.5,41.5,41.5h399.8c22.9,0,41.5-18.6,41.5-41.5V272.7
		l-198.1,39.4L299.3,369.1L299.3,369.1z"/>
	<rect x="233.5" y="274" class="st0" width="43.9" height="73.1"/>
	<path class="st0" d="M193.8,72.2c0-1.7,0.6-3.1,1.8-4.2c1.1-1.1,2.5-1.7,4.2-1.7h112.6c1.7,0,3.1,0.6,4.2,1.7
		c1.1,1.2,1.7,2.5,1.7,4.2v29.6h35.5V72.2c0-11.4-4.7-21.9-12.1-29.3c-7.4-7.5-17.9-12.2-29.3-12.2H199.7
		c-11.4,0-21.9,4.7-29.3,12.2c-7.5,7.5-12.2,17.9-12.1,29.3v29.6h35.5L193.8,72.2L193.8,72.2z"/>
</g>
</svg>
