<?xml version="1.0" encoding="utf-8"?>
<!-- Generator: Adobe Illustrator 26.5.0, SVG Export Plug-In . SVG Version: 6.00 Build 0)  -->
<svg version="1.1" id="_x32_" xmlns="http://www.w3.org/2000/svg" xmlns:xlink="http://www.w3.org/1999/xlink" x="0px" y="0px"
	 viewBox="0 0 512 512" style="enable-background:new 0 0 512 512;" xml:space="preserve">
<style type="text/css">
	.st0{fill:#DC8744;}
	.st1{fill:#F6C358;}
	.st2{fill:#FCD462;}
	.st3{fill:#64798A;}
	.st4{fill:#3A556A;}
</style>
<g>
	<g>
		<rect x="55.7" y="76.5" class="st0" width="52.4" height="13.9"/>
		<rect x="403.8" y="76.5" class="st0" width="52.4" height="13.9"/>
		<path class="st0" d="M512,256.2H0v235.5c0,5.3,4.3,9.6,9.6,9.6h492.9c5.3,0,9.6-4.3,9.6-9.6L512,256.2L512,256.2z"/>
	</g>
	<path class="st1" d="M512,246H0v235.5c0,5.3,4.3,9.6,9.6,9.6h492.9c5.3,0,9.6-4.3,9.6-9.6L512,246L512,246z"/>
	<g>
		<path class="st0" d="M366.6,138H145.4V24.5c0-7.6,6.2-13.8,13.8-13.8h193.7c7.6,0,13.8,6.2,13.8,13.8L366.6,138L366.6,138z
			 M176.1,107.3h159.8V41.4H176.1V107.3z"/>
		<rect y="246" class="st0" width="512" height="10.2"/>
	</g>
	<path class="st2" d="M512,246H0V95.4c0-5.3,4.3-9.6,9.6-9.6h492.9c5.3,0,9.6,4.3,9.6,9.6L512,246L512,246z"/>
	<rect x="375.6" y="222.7" class="st3" width="58.4" height="21"/>
	<rect x="375.6" y="243.7" class="st4" width="58.4" height="33.7"/>
	<rect x="78" y="222.7" class="st3" width="58.4" height="21"/>
	<rect x="78" y="243.7" class="st4" width="58.4" height="33.7"/>
</g>
</svg>
