<?xml version="1.0" encoding="utf-8"?>
<!-- Generator: Adobe Illustrator 26.5.0, SVG Export Plug-In . SVG Version: 6.00 Build 0)  -->
<svg version="1.1" id="Layer_1" xmlns="http://www.w3.org/2000/svg" xmlns:xlink="http://www.w3.org/1999/xlink" x="0px" y="0px"
	 viewBox="0 0 500 500" style="enable-background:new 0 0 500 500;" xml:space="preserve">
<path d="M428,90.6c-0.9,1.6-2,3.1-3.3,4.6L286.9,247.3l75.9,75.9c10.3,10.4,10.3,27.1,0,37.5c-5.2,5.2-12,7.8-18.7,7.8
	c-6.8,0-13.6-2.6-18.7-7.8l-74-74l-72.4,80c-5.2,5.8-12.4,8.7-19.7,8.7c-6.3,0-12.7-2.3-17.8-6.8c-10.9-9.8-11.7-26.6-1.9-37.4
	l74.2-82l-75.9-75.9c-10.4-10.3-10.4-27.1,0-37.5c10.3-10.4,27.1-10.4,37.5,0l74,74l136-150.2c1.2-1.4,2.6-2.6,4-3.6
	C350.2,27.7,302.1,11,250,11C118,11,11,118,11,250s107,239,239,239s239-107,239-239C489,188.8,465.9,132.9,428,90.6z"/>
</svg>
