<?xml version="1.0" encoding="utf-8"?>
<!-- Generator: Adobe Illustrator 26.5.0, SVG Export Plug-In . SVG Version: 6.00 Build 0)  -->
<svg version="1.1" id="Layer_1" xmlns="http://www.w3.org/2000/svg" xmlns:xlink="http://www.w3.org/1999/xlink" x="0px" y="0px"
	 viewBox="0 0 500 500" style="enable-background:new 0 0 500 500;" xml:space="preserve">
<style type="text/css">
	.st0{fill:#009AAF;}
</style>
<path class="st0" d="M250,486c-32.6,0-63.3-6.2-92-18.6c-28.8-12.4-53.7-29.2-75-50.4s-38-46.2-50.4-75C20.2,313.3,14,282.6,14,250
	s6.2-63.3,18.6-92S61.8,104.3,83,83s46.2-38,75-50.4S217.4,14,250,14s63.3,6.2,92,18.6s53.7,29.2,75,50.4s38.1,46.2,50.4,74.9
	c12.4,28.7,18.6,59.4,18.6,92s-6.2,63.3-18.6,92C455,370.8,438.2,395.7,417,417s-46.2,38-75,50.4C313.3,479.8,282.6,486,250,486z
	 M116.1,383.9L250,250V61.2c-52.7,0-97.4,18.3-133.9,54.9S61.2,197.3,61.2,250c0,25.2,4.7,49.4,14.2,72.6S98.4,366.2,116.1,383.9z"
	/>
</svg>
