<?xml version="1.0" encoding="utf-8"?>
<!-- Generator: Adobe Illustrator 26.5.0, SVG Export Plug-In . SVG Version: 6.00 Build 0)  -->
<svg version="1.1" id="Layer_1" xmlns="http://www.w3.org/2000/svg" xmlns:xlink="http://www.w3.org/1999/xlink" x="0px" y="0px"
	 viewBox="0 0 500 500" style="enable-background:new 0 0 500 500;" xml:space="preserve">
<style type="text/css">
	.st0{fill:#27C600;}
</style>
<g>
	<path class="st0" d="M305,327.3c-2-1.7-4.5-2.4-7.6-2c-5.7,0.7-8.6,4.4-8.8,11l20.4-2.5C308.3,331.2,307,329,305,327.3z"/>
	<path class="st0" d="M130.3,333.1c-4.1-3.8-9-5.3-14.7-4.7c-5.4,0.7-9.7,3.2-12.9,7.7c-3.3,4.5-4.4,10.6-3.5,18.4
		c0.8,6.9,3.4,12.2,7.6,15.9s9,5.2,14.5,4.5c5.4-0.7,9.7-3.2,13-7.7s4.4-10.6,3.5-18.2C136.9,342.2,134.5,336.9,130.3,333.1z"/>
	<path class="st0" d="M225.5,340c-2-1.9-4.5-2.7-7.4-2.3c-2.9,0.4-5.2,1.7-6.7,4.1c-1.6,2.4-2.1,5.7-1.6,10c0.5,3.9,1.8,6.9,3.9,9
		c2.1,2.1,4.7,3,7.7,2.6c2.8-0.3,4.9-1.7,6.5-4c1.5-2.3,2-5.7,1.5-10.2C228.8,345,227.5,341.9,225.5,340z"/>
	<path class="st0" d="M480.2,388.6l-16.9-138.9c-2.3-18.6-19.2-31.9-37.8-29.6l-42.7,5.2c-7.6-49.3-23.5-95-45.9-130.8
		c-26-41.8-58.5-66.2-89.2-67c-21.8-0.5-44.9,10.4-66.8,31.7c-22.7,22.1-42.2,53.5-56.2,90.7c-12.7,33.8-20.4,70.5-23,109.6
		l-52.3,6.4c-18.6,2.3-31.8,19.2-29.6,37.8l16.9,138.9c2.3,18.6,19.2,31.8,37.8,29.6l376-45.8C469.2,424.1,482.4,407.2,480.2,388.6z
		 M200.4,79.3c16.1-15.7,32.7-24.1,46.6-23.8c20.7,0.5,45.4,20.6,66.1,53.8c20.2,32.5,34.8,74.2,41.8,119.4L130,256.1
		C136.9,170.1,169.7,109.2,200.4,79.3z M150.1,373.8c-6.1,7.8-15.2,12.5-27.3,13.9c-12.5,1.5-22.6-0.9-30.2-7.2
		c-7.6-6.4-12-14.4-13.2-24.1c-1.2-10,1.2-18.9,7.2-26.8c6.1-7.8,15.2-12.5,27.3-14s22,0.9,29.8,7s12.3,14.2,13.5,24.3
		C158.6,357,156.2,365.9,150.1,373.8z M241.8,366.3c-3.3,5.2-8.1,8.2-14.5,9c-5.2,0.6-10.2-0.8-15-4.4l1.9,15.8l9.8-1.2l1.4,11.2
		l-33.6,4.1l-1.4-11.2l8.2-1l-5.9-48.3l-6.9,0.8l-1.4-11.2l22.4-2.7l0.7,6.1c3.8-5.1,8.3-8,13.7-8.6c6.5-0.8,11.8,1.2,16.2,5.8
		c4.3,4.7,6.9,10.4,7.8,17.2C246.2,354.8,245.1,361,241.8,366.3z M304.1,365.9c-8.6,1-15.6-0.4-21-4.4c-5.4-3.9-8.5-9.6-9.4-17
		c-0.9-7.5,0.8-14.1,5.2-19.8c4.4-5.6,10.4-8.9,18.1-9.9c5.6-0.7,10.6,0.1,15,2.5s7.7,5.5,9.8,9.5c2.1,4,3.5,8.6,4.1,13.8l-36.3,4.4
		c0.8,4.4,2.6,7.4,5.4,8.9s5.6,2.1,8.5,1.8c3.7-0.5,7.3-2.8,10.6-7.1l12.6,2.4C322.3,359.6,314.9,364.6,304.1,365.9z M392.7,354
		l-3.6-29.5c-0.3-2.7-0.9-4.4-1.7-5.3c-0.8-0.9-2.1-1.2-3.7-1c-2.9,0.4-5.7,1.8-8.5,4.3l2.7,22l7.5-0.9l1.4,11.2l-30.5,3.7
		l-1.4-11.2l7.5-0.9l-3.2-26.3l-7.5,0.9l-1.4-11.2l23-2.8l0.6,4.5c4.3-4.1,8.8-6.4,13.7-7c9.8-1.2,15.5,4.5,17.1,17.1l2.4,19.5
		l7.4-0.9l1.4,11.2L392.7,354z"/>
</g>
</svg>
