<?xml version="1.0" encoding="utf-8"?>
<!-- Generator: Adobe Illustrator 26.5.0, SVG Export Plug-In . SVG Version: 6.00 Build 0)  -->
<svg version="1.1" id="Layer_1" xmlns="http://www.w3.org/2000/svg" xmlns:xlink="http://www.w3.org/1999/xlink" x="0px" y="0px"
	 viewBox="0 0 500 500" style="enable-background:new 0 0 500 500;" xml:space="preserve">
<style type="text/css">
	.st0{fill:#262626;}
	.st1{fill:#FFFFFF;filter:url(#Adobe_OpacityMaskFilter);}
	
		.st2{mask:url(#path-1-outside-1_7_2359_00000006688311150961650900000013726140480900919215_);fill:none;stroke:#FFFFFF;stroke-width:4;}
	.st3{fill:#FF5A50;}
	.st4{fill:#FFFFFF;}
</style>
<path class="st0" d="M495.7,175.9L495.7,175.9c-2.3,9.4-9,16.2-13.9,20.5l-0.1,0.1c-0.8,0.7-1.5,1.3-2.4,1.8
	c0.4,0.7,0.7,1.5,0.9,2.3l0,0.1c0.9,3.1,1.2,6.3,0.7,9.5c-0.9,5.3-2.3,10.6-4.3,15.6c-0.9,2.4-1.7,4.8-2.3,7
	c-1.8,6.1-3.8,13.3-5.4,20.6c-1.1,5.4-1.5,10.9-1.2,16.3c0.2,2.4-0.2,4.8-1.3,7c-1,2.2-2.6,4.1-4.6,5.5c-3.9,3-8.2,5.3-12.9,6.9
	c-7.6,2.3-13,0.3-16.1-1.8c-0.5-0.3-1-0.7-1.5-1.1c-3.9,2.4-8.2,4-12.7,4.7c-1.8,0.3-3.6,0.4-5.4,0.4c-3.5,0.1-7.1-0.5-10.3-1.9
	c-3.3-1.4-6.2-3.4-8.6-6c-0.6-0.7-1.2-1.4-1.8-2.1c-1.7,1.2-3.5,2.3-5.3,3.3c-5.2,2.8-11.2,3.8-17.1,3c-5-0.5-9.6-2.5-13.5-5.7
	c-4.4-3.9-7.3-9.3-8.2-15.1c-0.3-1.5-0.5-2.9-0.6-4.4c-2.6,3.7-5.4,7.2-8.1,10.5c-5,6.4-11.4,11.5-18.7,15.1
	c-7.6,3.7-16.2,4.4-24.3,2.1c-4.5-1.1-8.7-2.9-12.6-5.3c-2.1-1.3-3.9-3-5.5-4.8c-1.6,1.6-3.2,3.1-4.7,4.6c-0.9,0.9-1.9,1.8-2.8,2.7
	c-1.4,1.4-3.1,2.5-5,3.2c-1.9,0.7-3.8,1.1-5.8,1.1c-1.1,0-2.1-0.1-3.2-0.3c-4.6-0.7-9.1-2-13.4-3.8l-0.1-0.1c-4.3-1.9-8-5-10.7-9
	c-4,3.3-8.4,6-13.1,8.2c-4.7,2.3-9.7,3.7-14.9,4.2c-4.5,0.5-9.1,0.7-13.7,0.5c-7.7-0.3-15.1-2.7-21.5-6.9
	c-6.7-4.6-11.5-11.4-13.4-19.3c0-0.2-0.1-0.3-0.1-0.5c-2.2,1-4.5,1.8-6.9,2.2c-6.2,1.4-12.7,0.9-18.6-1.3c-3.1-1.2-5.9-3.2-8.1-5.7
	c-2.2-2.6-3.6-5.6-4.3-8.9c-4.9,6.9-9.3,14.2-13.2,21.7c-0.4,0.8-0.8,1.7-1.3,2.7c-0.9,2-1.9,4-3.1,5.9c-2,3.3-4.8,6-8.1,7.8
	c-3.3,1.8-7.1,2.8-10.9,2.7h-0.1c-4.1,0.1-8.1-0.8-11.7-2.6c-0.4-0.2-0.8-0.5-1.2-0.7c-0.6,0.3-1.1,0.6-1.7,0.8
	c-5.2,2.6-10.9,4.3-16.7,5l-0.9,0.1c-2.4,0.2-5,0.5-7.8,0.5c-0.8,0-1.6,0-2.4-0.1c-8-0.3-15.7-3.2-21.9-8.2
	c-6.3-5.2-10.6-12.4-12.2-20.4c-1.1-5.4-1.3-11-0.5-16.4c1.2-8,3.7-15.7,7.6-22.7c3-5.6,6.5-11,10.5-15.9c4.4-5.4,9.6-10,15.4-13.7
	c4.7-3.1,10-5.2,15.5-6.2c7.5-1.4,14.8,0.4,22.2,5.5c3.8,2.6,7.1,6,9.7,9.8c5.1-7.1,11.4-11.2,18.8-12.1c3.8-0.6,7.6-0.1,11.1,1.6
	c3.4,1.6,6.3,4.3,8.2,7.5c2.1-1.5,4.4-2.8,6.8-3.8c4.9-2.4,10.4-3.6,15.9-3.5c8.5,0.4,15,3.2,19.7,8.6c1.9,2.2,3.3,4.7,4.2,7.4
	c1.9-2.3,4-4.5,6.3-6.5c6-5.6,13.5-9.3,21.5-10.8c3-0.4,5.9-0.5,8.9-0.3c0.6,0,1.3,0.1,1.9,0.1c4.5,0.2,8.9,1.2,13,3.1
	c5.2,2.2,9.6,5.9,12.7,10.7c0.6-1.1,1.4-2.1,2.1-3.2c4.4-6.1,9.9-9.7,16.4-10.7c2.9-0.5,5.8-0.5,8.7,0.2c2.9,0.7,5.5,1.9,7.9,3.6
	c2.8,2.2,4.9,5.1,6,8.4c1.2,3.3,1.3,6.9,0.5,10.3c-0.2,1.2-0.5,2.4-0.8,3.5c1.1-2.2,2.1-4.5,3.3-6.8c3.4-6.9,7.9-11.5,13.7-14.3
	c3.6-1.8,7.5-2.5,11.5-2.2c4,0.3,7.8,1.7,11,4c2.9,2,6.5,5.9,7,13.2c0.2,4.4-0.5,8.8-2,12.9c-0.3,0.9-0.6,1.9-0.9,2.8l0.5-1.2
	c1.1-2.5,2.2-5,3.4-7.5c3.5-7.7,7-15.5,16.5-21.3c2.1-1.4,4.3-2.5,6.7-3.3c7.3-2.5,22.5-1.9,27.8,7.8c2.8-2.6,6.1-4.8,9.6-6.4
	c4.8-2.4,10-3.6,15.3-3.6l0.5,0c4-0.1,8.1,0.4,12,1.5c2.5,0.8,4.8,2,6.9,3.6c5.8-2.1,13.2-1.9,18.7,2.4c1.1,0.9,2,1.9,2.9,3
	c1.7-2.6,3.5-5.1,5.6-7.4c2.3-2.6,5.2-4.7,8.3-6.3c-1.2-2.8-2.1-5.7-2.6-8.7c-0.6-2.8-1-5.7-1-8.6v-0.2c-0.1-5.5,1.5-10.8,4.6-15.3
	c1.9-2.8,4.5-5.1,7.5-6.7s6.3-2.5,9.7-2.6c4.8-0.2,9.6,0.8,13.9,3c4,2.2,7.2,5.7,9,9.9C496.6,166.8,496.9,171.5,495.7,175.9z"/>
<defs>
	<filter id="Adobe_OpacityMaskFilter" filterUnits="userSpaceOnUse" x="2.1" y="147.6" width="496.3" height="149.3">
		<feColorMatrix  type="matrix" values="1 0 0 0 0  0 1 0 0 0  0 0 1 0 0  0 0 0 1 0"/>
	</filter>
</defs>
<mask maskUnits="userSpaceOnUse" x="2.1" y="147.6" width="496.3" height="149.3" id="path-1-outside-1_7_2359_00000006688311150961650900000013726140480900919215_">
	<rect x="-2.4" y="143" class="st1" width="508.2" height="160.7"/>
	<path d="M495.7,175.9L495.7,175.9c-2.3,9.4-9,16.2-13.9,20.5l-0.1,0.1c-0.8,0.7-1.5,1.3-2.4,1.8c0.4,0.7,0.7,1.5,0.9,2.3l0,0.1
		c0.9,3.1,1.2,6.3,0.7,9.5c-0.9,5.3-2.3,10.6-4.3,15.6c-0.9,2.4-1.7,4.8-2.3,7c-1.8,6.1-3.8,13.3-5.4,20.6
		c-1.1,5.4-1.5,10.9-1.2,16.3c0.2,2.4-0.2,4.8-1.3,7c-1,2.2-2.6,4.1-4.6,5.5c-3.9,3-8.2,5.3-12.9,6.9c-7.6,2.3-13,0.3-16.1-1.8
		c-0.5-0.3-1-0.7-1.5-1.1c-3.9,2.4-8.2,4-12.7,4.7c-1.8,0.3-3.6,0.4-5.4,0.4c-3.5,0.1-7.1-0.5-10.3-1.9c-3.3-1.4-6.2-3.4-8.6-6
		c-0.6-0.7-1.2-1.4-1.8-2.1c-1.7,1.2-3.5,2.3-5.3,3.3c-5.2,2.8-11.2,3.8-17.1,3c-5-0.5-9.6-2.5-13.5-5.7c-4.4-3.9-7.3-9.3-8.2-15.1
		c-0.3-1.5-0.5-2.9-0.6-4.4c-2.6,3.7-5.4,7.2-8.1,10.5c-5,6.4-11.4,11.5-18.7,15.1c-7.6,3.7-16.2,4.4-24.3,2.1
		c-4.5-1.1-8.7-2.9-12.6-5.3c-2.1-1.3-3.9-3-5.5-4.8c-1.6,1.6-3.2,3.1-4.7,4.6c-0.9,0.9-1.9,1.8-2.8,2.7c-1.4,1.4-3.1,2.5-5,3.2
		c-1.9,0.7-3.8,1.1-5.8,1.1c-1.1,0-2.1-0.1-3.2-0.3c-4.6-0.7-9.1-2-13.4-3.8l-0.1-0.1c-4.3-1.9-8-5-10.7-9c-4,3.3-8.4,6-13.1,8.2
		c-4.7,2.3-9.7,3.7-14.9,4.2c-4.5,0.5-9.1,0.7-13.7,0.5c-7.7-0.3-15.1-2.7-21.5-6.9c-6.7-4.6-11.5-11.4-13.4-19.3
		c0-0.2-0.1-0.3-0.1-0.5c-2.2,1-4.5,1.8-6.9,2.2c-6.2,1.4-12.7,0.9-18.6-1.3c-3.1-1.2-5.9-3.2-8.1-5.7c-2.2-2.6-3.6-5.6-4.3-8.9
		c-4.9,6.9-9.3,14.2-13.2,21.7c-0.4,0.8-0.8,1.7-1.3,2.7c-0.9,2-1.9,4-3.1,5.9c-2,3.3-4.8,6-8.1,7.8c-3.3,1.8-7.1,2.8-10.9,2.7h-0.1
		c-4.1,0.1-8.1-0.8-11.7-2.6c-0.4-0.2-0.8-0.5-1.2-0.7c-0.6,0.3-1.1,0.6-1.7,0.8c-5.2,2.6-10.9,4.3-16.7,5l-0.9,0.1
		c-2.4,0.2-5,0.5-7.8,0.5c-0.8,0-1.6,0-2.4-0.1c-8-0.3-15.7-3.2-21.9-8.2c-6.3-5.2-10.6-12.4-12.2-20.4c-1.1-5.4-1.3-11-0.5-16.4
		c1.2-8,3.7-15.7,7.6-22.7c3-5.6,6.5-11,10.5-15.9c4.4-5.4,9.6-10,15.4-13.7c4.7-3.1,10-5.2,15.5-6.2c7.5-1.4,14.8,0.4,22.2,5.5
		c3.8,2.6,7.1,6,9.7,9.8c5.1-7.1,11.4-11.2,18.8-12.1c3.8-0.6,7.6-0.1,11.1,1.6c3.4,1.6,6.3,4.3,8.2,7.5c2.1-1.5,4.4-2.8,6.8-3.8
		c4.9-2.4,10.4-3.6,15.9-3.5c8.5,0.4,15,3.2,19.7,8.6c1.9,2.2,3.3,4.7,4.2,7.4c1.9-2.3,4-4.5,6.3-6.5c6-5.6,13.5-9.3,21.5-10.8
		c3-0.4,5.9-0.5,8.9-0.3c0.6,0,1.3,0.1,1.9,0.1c4.5,0.2,8.9,1.2,13,3.1c5.2,2.2,9.6,5.9,12.7,10.7c0.6-1.1,1.4-2.1,2.1-3.2
		c4.4-6.1,9.9-9.7,16.4-10.7c2.9-0.5,5.8-0.5,8.7,0.2c2.9,0.7,5.5,1.9,7.9,3.6c2.8,2.2,4.9,5.1,6,8.4c1.2,3.3,1.3,6.9,0.5,10.3
		c-0.2,1.2-0.5,2.4-0.8,3.5c1.1-2.2,2.1-4.5,3.3-6.8c3.4-6.9,7.9-11.5,13.7-14.3c3.6-1.8,7.5-2.5,11.5-2.2c4,0.3,7.8,1.7,11,4
		c2.9,2,6.5,5.9,7,13.2c0.2,4.4-0.5,8.8-2,12.9c-0.3,0.9-0.6,1.9-0.9,2.8l0.5-1.2c1.1-2.5,2.2-5,3.4-7.5c3.5-7.7,7-15.5,16.5-21.3
		c2.1-1.4,4.3-2.5,6.7-3.3c7.3-2.5,22.5-1.9,27.8,7.8c2.8-2.6,6.1-4.8,9.6-6.4c4.8-2.4,10-3.6,15.3-3.6l0.5,0c4-0.1,8.1,0.4,12,1.5
		c2.5,0.8,4.8,2,6.9,3.6c5.8-2.1,13.2-1.9,18.7,2.4c1.1,0.9,2,1.9,2.9,3c1.7-2.6,3.5-5.1,5.6-7.4c2.3-2.6,5.2-4.7,8.3-6.3
		c-1.2-2.8-2.1-5.7-2.6-8.7c-0.6-2.8-1-5.7-1-8.6v-0.2c-0.1-5.5,1.5-10.8,4.6-15.3c1.9-2.8,4.5-5.1,7.5-6.7s6.3-2.5,9.7-2.6
		c4.8-0.2,9.6,0.8,13.9,3c4,2.2,7.2,5.7,9,9.9C496.6,166.8,496.9,171.5,495.7,175.9z"/>
</mask>
<path class="st2" d="M495.7,175.9L495.7,175.9c-2.3,9.4-9,16.2-13.9,20.5l-0.1,0.1c-0.8,0.7-1.5,1.3-2.4,1.8
	c0.4,0.7,0.7,1.5,0.9,2.3l0,0.1c0.9,3.1,1.2,6.3,0.7,9.5c-0.9,5.3-2.3,10.6-4.3,15.6c-0.9,2.4-1.7,4.8-2.3,7
	c-1.8,6.1-3.8,13.3-5.4,20.6c-1.1,5.4-1.5,10.9-1.2,16.3c0.2,2.4-0.2,4.8-1.3,7c-1,2.2-2.6,4.1-4.6,5.5c-3.9,3-8.2,5.3-12.9,6.9
	c-7.6,2.3-13,0.3-16.1-1.8c-0.5-0.3-1-0.7-1.5-1.1c-3.9,2.4-8.2,4-12.7,4.7c-1.8,0.3-3.6,0.4-5.4,0.4c-3.5,0.1-7.1-0.5-10.3-1.9
	c-3.3-1.4-6.2-3.4-8.6-6c-0.6-0.7-1.2-1.4-1.8-2.1c-1.7,1.2-3.5,2.3-5.3,3.3c-5.2,2.8-11.2,3.8-17.1,3c-5-0.5-9.6-2.5-13.5-5.7
	c-4.4-3.9-7.3-9.3-8.2-15.1c-0.3-1.5-0.5-2.9-0.6-4.4c-2.6,3.7-5.4,7.2-8.1,10.5c-5,6.4-11.4,11.5-18.7,15.1
	c-7.6,3.7-16.2,4.4-24.3,2.1c-4.5-1.1-8.7-2.9-12.6-5.3c-2.1-1.3-3.9-3-5.5-4.8c-1.6,1.6-3.2,3.1-4.7,4.6c-0.9,0.9-1.9,1.8-2.8,2.7
	c-1.4,1.4-3.1,2.5-5,3.2c-1.9,0.7-3.8,1.1-5.8,1.1c-1.1,0-2.1-0.1-3.2-0.3c-4.6-0.7-9.1-2-13.4-3.8l-0.1-0.1c-4.3-1.9-8-5-10.7-9
	c-4,3.3-8.4,6-13.1,8.2c-4.7,2.3-9.7,3.7-14.9,4.2c-4.5,0.5-9.1,0.7-13.7,0.5c-7.7-0.3-15.1-2.7-21.5-6.9
	c-6.7-4.6-11.5-11.4-13.4-19.3c0-0.2-0.1-0.3-0.1-0.5c-2.2,1-4.5,1.8-6.9,2.2c-6.2,1.4-12.7,0.9-18.6-1.3c-3.1-1.2-5.9-3.2-8.1-5.7
	c-2.2-2.6-3.6-5.6-4.3-8.9c-4.9,6.9-9.3,14.2-13.2,21.7c-0.4,0.8-0.8,1.7-1.3,2.7c-0.9,2-1.9,4-3.1,5.9c-2,3.3-4.8,6-8.1,7.8
	c-3.3,1.8-7.1,2.8-10.9,2.7h-0.1c-4.1,0.1-8.1-0.8-11.7-2.6c-0.4-0.2-0.8-0.5-1.2-0.7c-0.6,0.3-1.1,0.6-1.7,0.8
	c-5.2,2.6-10.9,4.3-16.7,5l-0.9,0.1c-2.4,0.2-5,0.5-7.8,0.5c-0.8,0-1.6,0-2.4-0.1c-8-0.3-15.7-3.2-21.9-8.2
	c-6.3-5.2-10.6-12.4-12.2-20.4c-1.1-5.4-1.3-11-0.5-16.4c1.2-8,3.7-15.7,7.6-22.7c3-5.6,6.5-11,10.5-15.9c4.4-5.4,9.6-10,15.4-13.7
	c4.7-3.1,10-5.2,15.5-6.2c7.5-1.4,14.8,0.4,22.2,5.5c3.8,2.6,7.1,6,9.7,9.8c5.1-7.1,11.4-11.2,18.8-12.1c3.8-0.6,7.6-0.1,11.1,1.6
	c3.4,1.6,6.3,4.3,8.2,7.5c2.1-1.5,4.4-2.8,6.8-3.8c4.9-2.4,10.4-3.6,15.9-3.5c8.5,0.4,15,3.2,19.7,8.6c1.9,2.2,3.3,4.7,4.2,7.4
	c1.9-2.3,4-4.5,6.3-6.5c6-5.6,13.5-9.3,21.5-10.8c3-0.4,5.9-0.5,8.9-0.3c0.6,0,1.3,0.1,1.9,0.1c4.5,0.2,8.9,1.2,13,3.1
	c5.2,2.2,9.6,5.9,12.7,10.7c0.6-1.1,1.4-2.1,2.1-3.2c4.4-6.1,9.9-9.7,16.4-10.7c2.9-0.5,5.8-0.5,8.7,0.2c2.9,0.7,5.5,1.9,7.9,3.6
	c2.8,2.2,4.9,5.1,6,8.4c1.2,3.3,1.3,6.9,0.5,10.3c-0.2,1.2-0.5,2.4-0.8,3.5c1.1-2.2,2.1-4.5,3.3-6.8c3.4-6.9,7.9-11.5,13.7-14.3
	c3.6-1.8,7.5-2.5,11.5-2.2c4,0.3,7.8,1.7,11,4c2.9,2,6.5,5.9,7,13.2c0.2,4.4-0.5,8.8-2,12.9c-0.3,0.9-0.6,1.9-0.9,2.8l0.5-1.2
	c1.1-2.5,2.2-5,3.4-7.5c3.5-7.7,7-15.5,16.5-21.3c2.1-1.4,4.3-2.5,6.7-3.3c7.3-2.5,22.5-1.9,27.8,7.8c2.8-2.6,6.1-4.8,9.6-6.4
	c4.8-2.4,10-3.6,15.3-3.6l0.5,0c4-0.1,8.1,0.4,12,1.5c2.5,0.8,4.8,2,6.9,3.6c5.8-2.1,13.2-1.9,18.7,2.4c1.1,0.9,2,1.9,2.9,3
	c1.7-2.6,3.5-5.1,5.6-7.4c2.3-2.6,5.2-4.7,8.3-6.3c-1.2-2.8-2.1-5.7-2.6-8.7c-0.6-2.8-1-5.7-1-8.6v-0.2c-0.1-5.5,1.5-10.8,4.6-15.3
	c1.9-2.8,4.5-5.1,7.5-6.7s6.3-2.5,9.7-2.6c4.8-0.2,9.6,0.8,13.9,3c4,2.2,7.2,5.7,9,9.9C496.6,166.8,496.9,171.5,495.7,175.9z"/>
<path class="st3" d="M486.3,173.6c-1.6,6.2-6.2,11.4-10.9,15.5c-1.7,1.4-3.5,2.6-5.6,3.5c-2.4,1.1-4.1,0.4-5.5-1.8
	c-1.8-3-3-6.3-3.6-9.7c-0.5-2.3-0.8-4.6-0.8-7c-0.1-3.4,0.8-6.7,2.8-9.5c1.1-1.6,2.5-2.9,4.2-3.8c1.7-0.9,3.6-1.4,5.5-1.4
	c3.1-0.2,6.2,0.5,9,1.9C485.7,163.6,487.4,168.9,486.3,173.6z"/>
<path class="st3" d="M471,203.5c-1-3.3-4-3.8-6.9-4.1c-4.8-0.4-8.5,2-11.5,5.2c-2.5,2.8-4.6,5.8-6.4,9c-3.8,6.5-6.1,13.7-8.2,20.8
	c-1.4,4.6-2.7,8.7-4.5,14.8c-1.1,3.6-2.2,9.1-5.5,11.8c-0.8,0.8-1.9,1.2-3,1.2c-1.4-0.2-1.9-1.6-1.9-3c-0.1-1.5-0.1-3,0-4.5
	c0.4-4.6,1.3-9.1,2.8-13.4c2.2-7.1,4.6-14.2,6.7-21.4c0.9-2.5,1-5.2,0.1-7.7c-0.4-0.9-0.9-1.7-1.7-2.3c-3-2.3-8.4-1.9-11.6,0.2
	c-1.1,0.7-2.1,1.5-3.3,2.3c-0.2-0.4-0.4-0.7-0.6-1c-0.7-1.4-1.7-2.6-2.9-3.6c-1.2-1-2.6-1.8-4.1-2.2c-3.1-0.8-6.4-1.2-9.6-1.1
	c-3.8,0-7.6,0.9-11,2.6c-5.4,2.7-9.9,6.8-13.3,11.8c-3.7,5-7,10.3-9.8,15.9c-2.9,5.6-5.1,11.5-6.4,17.7c-0.4,2.3-0.7,4.6-0.8,6.9
	c0,1.9,0.1,3.7,0.5,5.6c0.5,3.6,2.2,7,4.9,9.5c2.5,2,5.4,3.2,8.6,3.5c3.8,0.6,7.7-0.1,11.2-1.9c3.7-2,7-4.5,9.9-7.6
	c1.2-1.3,2.4-2.5,3.8-3.9c0.2,0.8,0.3,1.3,0.4,1.9c0.5,3.9,2.1,7.5,4.7,10.5c4.4,4.6,10,5.4,15.9,4.5c3.3-0.5,6.4-1.7,9.1-3.4
	c1.4-0.9,5.7-5.9,7.4-4.6c2,1.6,2.2,4.5,4.5,6.1c1.2,0.7,2.5,1.1,3.9,1.2c1.4,0.1,2.7-0.1,4-0.6c3.6-1.3,7-3.2,10-5.5
	c0.7-0.4,1.2-1,1.5-1.8c0.3-0.7,0.4-1.5,0.3-2.3c-0.4-6.3,0.1-12.7,1.4-18.9c1.6-7.1,3.5-14.2,5.5-21.2c2-7.1,5.4-13.9,6.4-21.3
	C471.6,207.1,471.5,205.3,471,203.5z M405.5,226c-2.1,8.7-6.1,16.8-11.8,23.7c-2,2.6-4.4,4.9-7.1,6.8c-1.6,1.1-3.2,1.5-4-0.5
	c-0.2-0.5-0.4-1.1-0.5-1.7c-0.4-3.4,1.3-6.9,2.5-10c1.3-3.5,2.7-6.9,4.3-10.2c2.3-4.8,4.9-9.4,9.1-12.9c1.4-1,2.9-1.8,4.5-2.4
	c1.1-0.4,2.4,0.5,2.9,1.8C406,222.3,406,224.2,405.5,226z"/>
<path class="st4" d="M161.9,244c-2.3,7.2-6.9,11.8-14.5,13.4c-4.4,1-9,0.7-13.2-0.9c-1.9-0.7-3.5-2-4.7-3.6
	c-1.2-1.7-1.8-3.6-1.9-5.6c-0.3-5.4,1.9-10.1,4.4-14.7c1.1-1.9,2.1-3.8,3-5.8c0.4-1,0.5-2.1,0.4-3.1c-0.1-0.4-0.2-0.7-0.4-1
	c-0.2-0.3-0.5-0.5-0.8-0.7c-0.3-0.2-0.7-0.3-1-0.3c-0.4,0-0.7,0-1,0.2c-1.9,0.9-3.6,2-5.2,3.3c-6.3,5.8-11.4,12.7-16.3,19.7
	c-5.2,7.4-10,15.2-14.3,23.2c-1.4,2.6-2.4,5.5-4,8c-1.1,1.9-2.7,3.4-4.6,4.4s-4,1.5-6.2,1.4c-2.5,0.1-5-0.4-7.2-1.5
	c-1.7-0.9-3.1-2.5-3.7-4.3c-2.6,1.4-5.1,3-7.8,4.3c-4.2,2.1-8.8,3.5-13.5,4.1c-3.2,0.4-6.4,0.6-9.6,0.5c-6-0.2-11.7-2.3-16.4-6.1
	c-4.6-3.8-7.7-9-8.8-14.9c-0.9-4.3-1-8.7-0.4-13.1c1-6.8,3.2-13.4,6.6-19.4c2.6-5.1,5.8-9.8,9.4-14.2c3.8-4.6,8.2-8.5,13.2-11.7
	c3.7-2.4,7.8-4,12.1-4.9c5.6-1,10.4,0.9,14.8,4c3.1,2.1,5.7,4.9,7.7,8.1c1.8,3.3,2.3,7.1,1.3,10.7c-1,3.9-2.4,7.7-4.2,11.4
	c-1.7,3.7-3.4,7.5-5.1,11.2c-0.3,0.8-0.9,1.5-1.7,1.8c-0.8,0.4-1.7,0.4-2.5,0.1c-2.4-0.8-4.6-2.1-6.3-4c-1.7-1.9-2.9-4.1-3.5-6.6
	c-0.4-3.5,0.2-7.1,1.7-10.3c1.5-4,3.3-7.9,5-11.8c0.2-0.3,0.3-0.6,0.3-0.9c0-0.3,0-0.6-0.1-0.9c-0.1-0.3-0.2-0.6-0.4-0.8
	c-0.2-0.2-0.4-0.4-0.7-0.6c-2,0.5-3.8,1.5-5.1,3c-2.4,2.4-4.7,4.9-6.9,7.5c-4.4,5.5-8.1,11.5-11.2,17.8c-1.9,3.6-3.1,7.6-3.5,11.7
	c-0.4,3.1-0.3,6.3,0.3,9.4c0.3,2,1.3,3.8,2.8,5.1c1.5,1.3,3.4,2.1,5.4,2.2c7.7,0.4,15.3-1.5,21.8-5.6c2.5-1.7,4.9-3.5,7.1-5.5
	c0.4-0.4,0.7-0.9,0.9-1.4c2.3-6.1,4.5-12.3,6.9-18.4c1.8-4.5,3.9-8.9,5.9-13.3c1.9-4.3,4.2-8.5,6.9-12.4c3-4.3,6.9-7.5,12.2-8.2
	c4.3-0.6,8.3,0.9,10.3,5.7c1.8,4.3,0.8,8.4-0.6,12.5c-0.4,1.1-0.7,2.1-1.2,3.5c2.5-2.7,4.6-5.3,7-7.6c3.9-3.9,8.4-7.2,13.3-9.6
	c3.5-1.8,7.4-2.7,11.4-2.6c4.9,0.2,9.5,1.5,12.9,5.3c1.5,1.8,2.5,3.9,2.8,6.2c0.8,4.2-0.6,8-2.2,11.8c-1.2,2.8-2.3,5.6-3.2,8.5
	c-0.7,2.4,0.5,4,3,4.6c0.6,0.1,1.1,0.2,1.7,0.3C162,242.8,162.1,243.3,161.9,244z"/>
<path class="st4" d="M365.7,209.9c-2-4.6-12.2-5.1-16.3-3.7c-1.6,0.6-3.2,1.4-4.7,2.4c-7,4.3-9.5,9.9-12.7,17.1
	c-3.2,7.1-6.2,14.4-9.7,21.4c-2.3,4.5-4.9,8.9-7.9,13c-1.7,2.7-4.3,4.6-7.4,5.3c-1.8,0.4-2.6-0.5-3.2-2.1c-0.6-1.5-1-3-1.1-4.6
	c-0.3-4.5,0.3-9.1,1.7-13.4c2.1-6.9,4.3-13.8,6.4-20.7c1.1-3,1.6-6.2,1.6-9.4c0-1.1-0.2-2.2-0.7-3.2c-0.5-1-1.2-1.9-2.1-2.6
	c-1.8-1.3-4-2.2-6.3-2.3c-2.3-0.2-4.5,0.3-6.6,1.3c-4.3,2.1-7.1,5.7-9.2,9.9c-2.9,5.8-5.6,11.8-8.4,17.7c-2,4.1-4.1,8.1-6.1,12.1
	c-2.6,5.5-5.7,10.8-9.3,15.7c-0.6,0.7-1.6,1.7-2.2,1.6c-0.8-0.1-1.4-1.3-2.1-2c-0.1-0.1-0.2-0.3-0.2-0.5c-1-3.6-1.2-7.3-0.5-11
	c0.7-4.1,1.5-8.2,2.4-12.3c1.9-8.1,4-16.2,5.8-24.4c0.5-1.6,0.4-3.3-0.1-4.9c-0.5-1.6-1.5-3-2.8-4c-1.3-0.9-2.8-1.6-4.4-1.9
	c-1.6-0.3-3.2-0.3-4.8,0c-4.3,0.7-7.5,3.3-10,6.8c-3.1,4.3-5.3,9.2-6.5,14.4c-1,4.3-1.7,8.6-2.4,13c-0.3,2-0.3,4.1-0.6,6.1
	c-0.1,0.6-0.3,1.1-0.7,1.5c-1.7,1.8-3.5,3.6-5.3,5.3c-3.4,3.3-7.3,6-11.6,8.1c-2.8,1.5-5.9,2.4-9,2.6c-3.2,0.2-6.3-0.3-9.3-1.4
	c-1.9-0.7-3.6-1.9-4.9-3.5c-1.3-1.6-2.2-3.4-2.6-5.4c2.5,0,5,0,7.4,0c5.8-0.1,11.4-1.5,16.5-4.3c4.8-2.4,8.7-6.3,11.1-11.1
	c2.8-5.3,3.4-11.5,1.9-17.3c-0.7-2.7-2-5.3-3.9-7.4c-1.9-2.1-4.2-3.8-6.8-4.9c-2.9-1.4-6.1-2.2-9.3-2.3c-3-0.3-6-0.2-8.9,0.1
	c-6.3,1.2-12,4.1-16.7,8.4c-4.9,4.4-9,9.8-12,15.7c-3.5,6.6-5.6,13.8-6.3,21.2c-0.4,4.2-0.1,8.5,1,12.6c1.3,5.6,4.7,10.5,9.5,13.8
	c5,3.2,10.7,5,16.6,5.2c4.1,0.1,8.2,0,12.3-0.5c4.1-0.5,8-1.6,11.7-3.4c6.1-2.8,11.6-6.7,16.1-11.6c1.4-1.5,2.8-3.1,4-4.4
	c1.2,2.8,2.2,5.8,3.6,8.6c1.6,3.6,4.5,6.6,8.1,8.2c3.5,1.5,7.2,2.6,11,3.2c1,0.3,2,0.3,3,0c1-0.2,1.9-0.7,2.6-1.4
	c2.5-2.5,5.1-4.8,7.6-7.4c1.4-1.5,2.7-3.1,3.9-4.7c1.8-2.3,3.5-4.6,5.4-7c0.2,1.2,0.4,2.2,0.6,3.2c1.2,5,3.3,9.4,7.8,12.3
	c3,1.9,6.4,3.2,9.8,4.1c5.8,1.7,12,1.2,17.5-1.5c6-3,11.2-7.3,15.4-12.6c3.3-3.9,6.4-8,9.3-12.3c4.3-6.7,8.5-13.5,12.4-20.5
	c2-3.5,4-7.1,5.9-10.6c1.6-2.9,5.9-8,6.1-11.3C366.1,211.3,366,210.6,365.7,209.9z M193.6,235.3c1.3-3.7,3.4-7,5.9-9.9
	c1.6-2,3.7-3.3,6.1-3.9c0.8-0.1,1.6-0.1,2.4,0.2c0.8,0.3,1.5,0.7,2,1.3c0.5,0.6,0.9,1.3,1.1,2.1c0.2,0.8,0.2,1.6-0.1,2.4
	c-1.9,7.9-7.1,12.4-14.7,14.3c-1.7,0.3-3.3,0.4-5,0.5C192.2,239.8,192.8,237.5,193.6,235.3z"/>
</svg>
