<?xml version="1.0" encoding="utf-8"?>
<!-- Generator: Adobe Illustrator 27.8.1, SVG Export Plug-In . SVG Version: 6.00 Build 0)  -->
<svg version="1.1" id="Layer_1" xmlns="http://www.w3.org/2000/svg" xmlns:xlink="http://www.w3.org/1999/xlink" x="0px" y="0px"
	 viewBox="0 0 500 500" style="enable-background:new 0 0 500 500;" xml:space="preserve">
<style type="text/css">
	.st0{fill:#44B78B;}
</style>
<g>
	<path class="st0" d="M232.9,13.2h78.2v358.5c-33.4,6.9-67.4,10.4-101.5,10.6c-95.5-0.1-145.3-42.8-145.3-124.7
		c0-78.9,52.7-130.2,134.5-130.2c11.5-0.2,22.9,1.1,34,3.9L232.9,13.2L232.9,13.2z M232.9,193.6c-8.5-2.8-17.4-4.1-26.4-3.9
		c-39.5,0-62.4,24.1-62.4,66.4c0,41.2,21.8,63.9,61.9,63.9c9,0,18-0.7,26.9-2V193.6L232.9,193.6z"/>
	<path class="st0" d="M435.5,132.8v179.6c0,61.8-4.6,91.5-18.2,117.2c-13.9,26.1-36.5,46.4-63.9,57.3l-72.6-34.2
		c26.4-9,48.4-27.5,62-51.9c11.2-22.1,14.7-47.8,14.7-115.2V132.8H435.5z"/>
	<rect x="357.4" y="13.6" class="st0" width="78.2" height="79.5"/>
</g>
</svg>
