<?xml version="1.0" encoding="utf-8"?>
<!-- Generator: Adobe Illustrator 26.5.0, SVG Export Plug-In . SVG Version: 6.00 Build 0)  -->
<svg version="1.1" id="Layer_1" xmlns="http://www.w3.org/2000/svg" xmlns:xlink="http://www.w3.org/1999/xlink" x="0px" y="0px"
	 viewBox="0 0 500 500" style="enable-background:new 0 0 500 500;" xml:space="preserve">
<style type="text/css">
	.st0{fill:#01AFD0;}
	.st1{fill:#4AE0FE;}
	.st2{fill:#00AED0;}
	.st3{fill:#828282;}
	.st4{fill:#C5C5C5;}
</style>
<path class="st0" d="M12.4,275.6c23,13.4,43.6,25.5,64.2,37.5c4.3,2.5,4,6.5,4,10.5c0,23.5,0,47,0,73.3
	c-22.5-12.3-43.4-23.8-64.2-35.2c-4.2-2.3-4.1-6.4-4.1-10.5C12.4,327.2,12.4,303.1,12.4,275.6z"/>
<path class="st0" d="M80.6,200c-22.5-12.4-42.9-23.8-63.4-34.9c-4.3-2.3-4.8-5.9-4.8-10.1c0-24.5,0-48.9,0-76.4
	C35.2,92,56.1,104.2,77,116.5c2.8,1.6,3.7,4.5,3.7,7.7C80.6,148.6,80.6,172.9,80.6,200z"/>
<path class="st1" d="M493.1,80.1c0,27.3-0.2,51.3,0.1,75.2c0.1,6.3-2.1,10-7.7,13c-17.2,9.1-34.2,18.6-51.2,28.2
	c-6.6,3.7-9.8,3.5-9.7-5.3c0.3-21,0.2-42,0-63c0-4.9,1-8.7,5.5-11.3C450.5,105.1,470.6,93.3,493.1,80.1z"/>
<path class="st0" d="M164,246c-22.7-12.4-43.1-23.5-63.6-34.6c-4.3-2.3-4.3-6.1-4.3-10.3c0.1-24.5,0-49,0-76
	c22.2,12.9,42.7,24.8,63.3,36.7c3.4,2,4.7,4.8,4.7,8.7C164,194.9,164,219.2,164,246z"/>
<path class="st1" d="M493.1,178.4c0,28.1-0.1,53.3,0.1,78.6c0,5.6-3.7,7.6-7.7,9.8c-17.1,9.2-34.3,18.3-51.2,28
	c-7.8,4.5-9.5,1.7-9.5-5.7c0.1-21,0-41.9,0-62.9c0-4.1,0.4-8,4.4-10.4C449.8,203.8,470.3,191.8,493.1,178.4z"/>
<path class="st0" d="M245.2,486.3c-22.8-12.5-43.2-23.8-63.7-35c-3.7-2-4.2-5-4.2-8.7c0.1-25,0-49.9,0-77.4
	c22.2,12.9,42.7,25,63.3,36.8c4.9,2.8,4.6,7.2,4.6,11.8C245.2,436.9,245.2,460,245.2,486.3z"/>
<path class="st0" d="M12.4,220.2c0-11,0.2-22-0.1-33c-0.1-6.6,1.1-9.7,8.3-5.5c18,10.7,36.1,21.2,54.3,31.7c4.5,2.6,5.8,6.1,5.8,11
	c-0.2,21.5-0.3,43,0,64.4c0.1,8.2-2.9,8-8.8,4.7c-17.4-9.7-34.8-19.4-52.5-28.7c-5.8-3-7.4-7.2-7.2-13.3
	C12.7,241.2,12.4,230.7,12.4,220.2z"/>
<path class="st0" d="M96.2,223.4c22.5,13.1,42.9,25.2,63.5,37.1c4.2,2.4,4.4,6.2,4.4,10.3c0,21-0.1,41.9,0,62.9
	c0.1,7.7-1.8,10.1-9.5,5.7c-17.3-9.9-34.9-19.2-52.4-28.7c-3.7-2-6.2-4.2-6.2-9.1C96.3,276.3,96.2,251,96.2,223.4z"/>
<path class="st0" d="M245.2,387.7c-22.7-12.4-43.1-23.6-63.5-34.7c-4.3-2.3-4.3-6.1-4.3-10.2c0.1-24.4,0-48.9,0-76
	c22.2,13,42.7,24.9,63.2,36.9c3.3,1.9,4.7,5,4.7,8.8C245.2,336.6,245.2,360.9,245.2,387.7z"/>
<path class="st1" d="M493.1,277.1c0,27.8-0.1,52.7,0.1,77.6c0.1,5.5-2.9,7.9-7.1,10.2c-16.7,9.1-33.3,18.2-49.8,27.6
	c-7.7,4.4-11.7,4.4-11.5-6.2c0.4-20,0.1-40,0.1-60c0-4.6,0-9.2,4.6-11.9C449.9,302.2,470.5,290.3,493.1,277.1z"/>
<path class="st2" d="M177.4,211.1c0-11.5,0.1-23,0-34.6c-0.1-5.6,1.5-7.4,6.9-4.1c18.5,11,37.1,21.7,55.7,32.5c4,2.3,5.2,5.7,5.2,10
	c0,21.5-0.1,43.1,0.1,64.6c0.1,7-1.7,9.3-8.6,5.4c-17.4-9.8-35-19.5-52.6-28.9c-5.1-2.7-7-6.2-6.8-11.9
	C177.6,233.1,177.4,222.1,177.4,211.1z"/>
<path class="st2" d="M96.2,322c22.5,13.2,43,25.2,63.5,37.1c4.2,2.5,4.4,6.3,4.4,10.3c0,21-0.1,41.9,0.1,62.9
	c0.1,7.3-1.2,10.5-9.2,5.9c-17.3-10-34.8-19.4-52.4-28.9c-3.7-2-6.5-3.9-6.5-8.9C96.3,375.2,96.2,349.9,96.2,322z"/>
<path class="st1" d="M409.3,126.7c0,27.5-0.2,51.9,0.1,76.3c0.1,5.9-2.6,8.9-7.4,11.5c-16.7,9-33.3,18.1-49.7,27.5
	c-8.1,4.6-10.1,2.1-10-6.4c0.3-20.5,0.2-40.9,0.1-61.4c0-5.3,0.8-9.5,6-12.5C367.8,150.8,387.1,139.5,409.3,126.7z"/>
<path class="st1" d="M261.3,290.4c0-27.3,0-52.1,0-76.9c0-3.3,1.5-5.6,4.4-7.3c20.2-11.7,40.3-23.4,62.4-36.2c0,27.6,0,52.5,0,77.4
	c0,3.8-1.1,6.8-4.5,8.7C303.5,267.2,283.5,278.2,261.3,290.4z"/>
<path class="st1" d="M342.4,345.4c0-26.8,0-50.2,0-73.7c0-4.2,0.6-8,4.6-10.3c20.1-11.8,40.2-23.5,62.3-36.5c0,27.4,0,52.3,0,77.2
	c0,4.5-1.7,7.7-5.6,9.8C384.1,322.6,364.5,333.3,342.4,345.4z"/>
<path class="st1" d="M328,268.2c0,27.8-0.1,52.7,0.1,77.6c0,5.5-3.1,8-7.2,10.3c-16.7,9.2-33.4,18.2-49.9,27.6
	c-8.5,4.8-10,1.3-9.9-6.7c0.3-20,0.4-40.1-0.1-60.1c-0.1-6.9,2.3-11,8.2-14.4C287.9,291.8,306.4,280.9,328,268.2z"/>
<path class="st1" d="M342.4,443.9c0-26.7,0-51.1,0-75.4c0-4.6,2.3-7.4,6-9.6c19.3-11.3,38.7-22.6,60.8-35.6c0,28,0,53.5,0,79.1
	c0,3.4-1.8,5.8-4.5,7.2C384.7,420.9,364.6,431.8,342.4,443.9z"/>
<path class="st1" d="M261.2,487.3c0-27.1,0-51.4,0-75.7c0-3.9,1.5-6.7,4.8-8.6c19.7-11.5,39.4-22.9,62-36c0,28.4,0,54,0,79.6
	c0,2.6-1.2,4.8-3.6,6.2C304.1,463.8,283.7,474.9,261.2,487.3z"/>
<path class="st3" d="M22.3,67.3c22.3-13,42.4-24.7,62.5-36.5c3.6-2.1,6.4-1.5,9.7,0.5c19.6,11.6,39.3,23.1,61.3,36
	C133,79.8,112.6,91,92.2,102.3c-2.9,1.6-5.6,1.9-8.5,0.2C63.9,91.2,44.1,79.8,22.3,67.3z"/>
<path class="st3" d="M236.5,113.1c-22.5,12.4-42.6,23.3-62.5,34.5c-4.6,2.6-8.4,1.7-12.6-0.7c-18.5-10.8-37.1-21.4-58.3-33.7
	c22.7-13.2,43.5-25.3,64.4-37.4c3.3-1.9,5.7,0.1,8.3,1.5C195.1,88.6,214.4,100,236.5,113.1z"/>
<path class="st4" d="M354.3,65.5c22.4-13.2,42.5-25,62.5-36.9c2.2-1.3,4.4-2.7,6.9-1.2C444.5,39.7,465.4,52,488,65.3
	c-22.1,12.2-41.7,22.9-61.2,33.9c-5.7,3.2-10.5,1.5-15.4-1.3C393.2,87.6,375,77.3,354.3,65.5z"/>
<path class="st4" d="M338.8,73.9c3.3,1.6,7,3,10.4,5c15.5,9.1,30.7,18.7,46.3,27.4c7.5,4.1,7.2,7.6,0.5,11.2
	c-17.9,9.8-36.1,19.2-54,29.1c-4.1,2.2-7.4,1.8-11.2-0.4c-16.9-9.6-33.9-19-50.7-28.8c-3.6-2.1-8.9-5.3-1.7-9.6
	c18.4-10.9,37-21.6,55.6-32.3C335.4,74.8,336.9,74.6,338.8,73.9z"/>
<path class="st4" d="M249.4,121.9c3.9-4.8,7.4-0.9,10.4,0.9c19.3,11.1,38.5,22.5,60,35.1c-23,13.8-44.3,26.6-67.4,36.3
	c-5-5.9-4.6-13-4.4-20C248.4,156.8,246.4,139.2,249.4,121.9z"/>
<path class="st3" d="M249.4,121.9c6.8,10,2.3,21.2,2.9,31.9c0.8,13.4,0.1,27,0.1,40.4c-22.4-9-42-23-65.4-35.9
	C209.4,145.2,229.4,133.5,249.4,121.9z"/>
</svg>
