<?xml version="1.0" encoding="utf-8"?>
<!-- Generator: Adobe Illustrator 27.8.1, SVG Export Plug-In . SVG Version: 6.00 Build 0)  -->
<svg version="1.1" id="Layer_1" xmlns="http://www.w3.org/2000/svg" xmlns:xlink="http://www.w3.org/1999/xlink" x="0px" y="0px"
	 viewBox="0 0 500 500" style="enable-background:new 0 0 500 500;" xml:space="preserve">
<style type="text/css">
	.st0{fill:#AEAEAE;}
</style>
<circle class="st0" cx="250" cy="250" r="237.8"/>
<path d="M446.3,367.5c-12.2,4.6-25.8-0.6-31.9-12.1l-58-80.2L348,264l-67.3,91.5c-5.7,11-18.6,16.1-30.3,11.9l86.7-116.3L256.5,146
	c12-4.3,25.3,0.4,31.9,11.2l60.1,81.2l60.5-80.9c5.7-10.8,18.6-15.7,30.1-11.2l-31.3,41.5L365.3,243c-4.6,4.1-5,11.2-0.9,15.8
	c0.3,0.3,0.6,0.6,0.9,0.9l80.8,107.8L446.3,367.5z M42.8,249.6l7.1-34.9c19.4-69,98.5-97.7,152.9-55c31.9,25,39.8,60.5,38.2,100.4
	H61.6c-2.9,71.3,48.6,114.4,114.4,92.4c21.7-7.8,38-26,43.4-48.3c3.5-11.2,9.2-13.1,19.7-9.9c-3.6,27.7-19.6,52.2-43.5,66.5
	c-40,21.9-89.6,15.6-122.8-15.7c-16-18-25.7-40.8-27.6-64.9c0-4-1.3-7.6-2.3-11.2C42.8,262.6,42.8,256.2,42.8,249.6L42.8,249.6z
	 M61.8,244.8h162.3c-1-51.7-33.6-88.4-77.2-88.7c-48.5-0.7-83.1,35.2-85.3,88.5L61.8,244.8z"/>
</svg>
