<?xml version="1.0" encoding="utf-8"?>
<!-- Generator: Adobe Illustrator 26.5.0, SVG Export Plug-In . SVG Version: 6.00 Build 0)  -->
<svg version="1.1" id="Layer_1" xmlns="http://www.w3.org/2000/svg" xmlns:xlink="http://www.w3.org/1999/xlink" x="0px" y="0px"
	 viewBox="0 0 500 500" style="enable-background:new 0 0 500 500;" xml:space="preserve">
<style type="text/css">
	.st0{fill:#FEFEFE;}
	.st1{fill:#D7AE2E;}
	.st2{fill:#31302C;}
	.st3{fill:#2B2B29;}
	.st4{fill:#454545;}
	.st5{fill:#008FD0;}
	.st6{fill:#F5D81D;}
	.st7{fill:#B1B1B1;}
	.st8{fill:#838383;}
	.st9{fill:#505050;}
	.st10{fill:#0E0E0E;}
	.st11{fill:#909090;}
	.st12{fill:#DADADA;}
	.st13{fill:#929292;}
	.st14{fill:#5F5F5F;}
	.st15{fill:#7E7E7E;}
	.st16{fill:#797979;}
	.st17{fill:#3797A7;}
	.st18{fill:#25A8DF;}
	.st19{fill:#FDFDFD;}
	.st20{fill:#FBFBFB;}
	.st21{fill:#FAFAFA;}
	.st22{fill:#FCFCFC;}
	.st23{fill:#D7AE2D;}
	.st24{fill:#CFD3D5;}
	.st25{fill:#989898;}
	.st26{fill:#EDEDED;}
	.st27{fill:#34A1D0;}
	.st28{fill:#949494;}
	.st29{fill:#C3C3C3;}
	.st30{fill:#676767;}
	.st31{fill:#B7B7B7;}
	.st32{fill:#B4B4B4;}
	.st33{fill:#666666;}
	.st34{fill:#878787;}
	.st35{fill:#A3A3A3;}
	.st36{fill:#BDBDBD;}
	.st37{fill:#757575;}
	.st38{fill:#AEAEAE;}
	.st39{fill:#939494;}
	.st40{fill:#777877;}
	.st41{fill:#979797;}
	.st42{fill:#7D7D7D;}
	.st43{fill:#C1C1C1;}
	.st44{fill:#9A9A9A;}
	.st45{fill:#BCBCBC;}
	.st46{fill:#999999;}
	.st47{fill:#6A6A6A;}
	.st48{fill:#6C6C6C;}
	.st49{fill:#707070;}
	.st50{fill:#8F8F8F;}
	.st51{fill:#7C7C7C;}
	.st52{fill:#C2C2C2;}
	.st53{fill:#A0A0A0;}
	.st54{fill:#C6C6C6;}
	.st55{fill:#C8C8C8;}
	.st56{fill:#8E8E8E;}
	.st57{fill:#777777;}
	.st58{fill:#AEC0C8;}
	.st59{fill:#D4D4D4;}
	.st60{fill:#C7C8C9;}
	.st61{fill:#A1A1A1;}
	.st62{fill:#D4D3C8;}
	.st63{fill:#B9B9B9;}
	.st64{fill:#C8C5AE;}
	.st65{fill:#434343;}
	.st66{fill:#818181;}
	.st67{fill:#C2C8CA;}
	.st68{fill:#C2D5DC;}
	.st69{fill:#A7A7A7;}
	.st70{fill:#B8B8B8;}
	.st71{fill:#B5B5B5;}
	.st72{fill:#ABB9BE;}
	.st73{fill:#B5BDC1;}
	.st74{fill:#CFA62B;}
	.st75{fill:#A4A4A4;}
	.st76{fill:#888888;}
	.st77{fill:#C9C9C9;}
	.st78{fill:#C4C4C4;}
	.st79{fill:#CECECE;}
	.st80{fill:#D1D9DC;}
	.st81{fill:#CAC8B8;}
	.st82{fill:#A5A5A3;}
	.st83{fill:#FCFDFD;}
	.st84{fill:#F1F1F1;}
	.st85{fill:#3A3A3A;}
	.st86{fill:#40ABDC;}
	.st87{fill:#016D9C;}
	.st88{fill:#3093A8;}
	.st89{fill:#7D7E7D;}
	.st90{fill:#ACACAC;}
	.st91{fill:#B3B3B3;}
	.st92{fill:#CBCECF;}
	.st93{fill:#151515;}
	.st94{fill:#B6B6B6;}
	.st95{fill:#717171;}
	.st96{fill:#5E5E5E;}
	.st97{fill:#8C8C8C;}
	.st98{fill:#868686;}
	.st99{fill:#C6CED2;}
	.st100{fill:#8B8B8B;}
	.st101{fill:#B4C2C7;}
	.st102{fill:#FCFDFC;}
	.st103{fill:#F9FAFA;}
	.st104{fill:#959595;}
	.st105{fill:#535353;}
	.st106{fill:#5C5C5C;}
	.st107{fill:#6B6B6B;}
	.st108{fill:#525252;}
	.st109{fill:#3F3F3F;}
	.st110{fill:#FAFBFB;}
	.st111{fill:#F6F7F7;}
	.st112{fill:#919191;}
	.st113{fill:#606060;}
	.st114{fill:#3DA2A1;}
	.st115{fill:#3EABDA;}
	.st116{fill:#40ABDB;}
	.st117{fill:#06719D;}
	.st118{fill:#1582B1;}
	.st119{fill:#127FAE;}
	.st120{fill:#117EAD;}
	.st121{fill:#2C98C8;}
	.st122{fill:#1D8AB9;}
	.st123{fill:#2F9BCB;}
	.st124{fill:#208CBB;}
	.st125{fill:#2B97C7;}
	.st126{fill:#1E8AB8;}
	.st127{fill:#2894C4;}
	.st128{fill:#127EAE;}
	.st129{fill:#2B98C7;}
	.st130{fill:#218DBD;}
	.st131{fill:#1A87B6;}
	.st132{fill:#1884B4;}
	.st133{fill:#1F8CBB;}
	.st134{fill:#1F8BBB;}
	.st135{fill:#1C89B8;}
	.st136{fill:#208CBC;}
	.st137{fill:#1B87B7;}
	.st138{fill:#2894C2;}
	.st139{fill:#2A2A2A;}
	.st140{fill:#7A7A7A;}
	.st141{fill:#AFAFAF;}
	.st142{fill:#545454;}
	.st143{fill:#393939;}
	.st144{fill:#464646;}
	.st145{fill:#515151;}
	.st146{fill:#969696;}
	.st147{fill:#595959;}
	.st148{fill:#939393;}
	.st149{fill:#353535;}
	.st150{fill:#3C3C3C;}
	.st151{fill:#D4D2C0;}
	.st152{fill:#171717;}
	.st153{fill:#333333;}
	.st154{fill:#C09768;}
	.st155{fill:#ECECEC;}
	.st156{fill:#BABABA;}
	.st157{fill:#107DAC;}
	.st158{fill:#1C88B8;}
	.st159{fill:#1E8BBB;}
	.st160{fill:#117DAD;}
	.st161{fill:#1D89B9;}
	.st162{fill:#2591C1;}
	.st163{fill:#35A1D1;}
	.st164{fill:#1783B3;}
	.st165{fill:#0C79A8;}
	.st166{fill:#238FBE;}
	.st167{fill:#1E8BBA;}
	.st168{fill:#137FAF;}
	.st169{fill:#FBFCFC;}
	.st170{fill:#218EBD;}
	.st171{fill:#107CAB;}
	.st172{fill:#0D79A9;}
</style>
<path d="M285.3,130.8c0.5,0.6,1.4,0.6,1.9,0.6c2.9-0.3,5.7,0.9,8.5,0.7c1.6-0.1,3.4-0.4,4.4-2c1.4-0.2,2.6,0.4,4,0.6
	c3.3,0.4,6.6-0.3,9.9-0.1c2.1,0,4.3,0,6.4,0c1.4,0,2.8,0.5,4.3,0.3c0.8,0,1.6,0.1,2.3-0.2c0.6-0.1,1.2-0.2,1.7-0.2
	c0.8,0,1.5,0,2.3-0.2c11.6-1.1,23.1-2.7,34.5-5.2c9.8-2.1,19.5-4.9,28.9-8.6c0.7-0.3,1.3-0.8,2.1-1c1.8,0,3.5-0.7,5.2-1.1
	c4.5-1,9-1.8,13.5-2.8c1.1-0.3,2.1-0.7,3.2-1.1c1.2-0.4,2-0.1,2.2,1.2c0.2,0.9-0.2,1.9,0.2,2.8c0,1.5,0,3.1,0,4.6
	c-0.3,1.2-0.3,2.4,0,3.6c0,1.3,0,2.6,0,3.9c-0.4,0.8-0.1,1.6-0.2,2.5c0.1,0.7-0.2,1.5,0.2,2.2c0,1.2,0,2.4,0,3.6
	c-0.7,1.4-0.5,3.1-0.6,4.6c-0.7,7.3-1.6,14.6-3.3,21.8c-1.5,6.4-2.3,12.9-3.3,19.5c-1.5,10.4-2.5,21-3.6,31.5
	c-1,10.6-1.8,21.2-2.5,31.9c-1.1,18.7-2.1,37.5-3.2,56.2c-1.2,19.7-2.5,39.5-4.6,59.1c-1,9.2-1.4,18.4-2.4,27.6
	c-1.2,10.8-2.6,21.5-4.2,32.2c-1,6.5-2,13-3,19.5c-0.4,2.8,0.1,5.7,0,8.5c-0.3,8.3-1.3,16.4-5.2,23.9c-4.8,9.1-12.3,14-22.5,15
	c-2.4,0.2-4.7,1.2-7,1.9c-12.8,3.7-25.9,6.1-39.1,7.7c-18.4,2.2-36.8,2.8-55.3,3.5c-15.7,0.6-31.2-0.7-46.8-2.1
	c-15.1-1.3-30-3.7-44.6-7.9c-8.1-2.3-15.9-5.2-23.6-8.7c-1.3-0.6-2-1.4-2.4-2.7c-7.9-26.7-14.4-53.8-19.6-81.2
	c-3-15.4-6.8-30.6-10.4-45.8c-4.4-18.9-8.8-37.7-12.2-56.8c-1.6-9-2.9-18.1-3.9-27.2c-0.5-4-0.1-7.9,0.9-11.8
	c0.3-1.2,0.6-2.4,1.8-3.2c1.2-0.6,1.6,0.3,2.1,1c1.2,2,1.7,4.3,2.2,6.6c3.1,14.1,6.4,28.2,9.8,42.2c1.9,7.8,3.8,15.6,5.8,23.4
	c4.8,19.2,10.1,38.2,16.1,57.1c1.9,6,3.8,12,5.9,17.9c0.2,0.6,0.4,1.1,0.7,1.6c0.9,0.8,1.9,0.4,2.9,0.2c0.7-0.2,1.4-0.6,2,0
	c0.6,0.6,0,1.3-0.2,2c-0.5,1.2-1,2.4-1.5,3.6c-1.1,2.4-0.5,4.8,0.7,7c1.7,3,4,5.4,6.6,7.6c0.9,0.8,1.9,1.6,2.7,2.5
	c0.5,0.6,1.2,1.1,0.8,2c-0.4,0.8-1.3,0.7-2.1,0.7c-1,0-1.9-0.2-2.8-0.4c-1.2-0.2-1.6,0.2-1.3,1.4c1.2,4.1,2,8.4,3,12.6
	c1.1,4.9,2.1,9.9,3.5,14.7c1.5,4.9,3.2,9.7,5.8,14.1c1.9,3.1,4.2,5.7,6.9,8.1c2.2,1.9,4.6,3.2,7.5,3.8c12.3,2.5,24.6,4.3,37,5.6
	c3,0.3,6,0.6,9,0.8c0.6,0.2,1.3,0.2,2,0.2c1.1,0,2.2-0.1,3.3,0.1c0.9,0.3,1.8,0.3,2.7,0.2c1,0,2,0,3,0.1c0.9,0.3,1.8,0.3,2.7,0.2
	c1.8,0,3.6-0.1,5.4,0.1c1.1,0.4,2.2,0.2,3.3,0.3c0.7,0,1.4,0,2.2,0c0.8,0,1.7,0,2.5,0c0.8,0,1.5,0,2.3-0.1c5.3,0,10.6,0,15.9,0
	c0.7,0.1,1.3,0.1,2,0.1c1.1,0,2.1,0,3.2,0c0.7,0,1.5,0,2.2,0c1.2,0,2.5,0.1,3.7-0.3c2.3-0.3,4.5-0.1,6.8-0.1c1,0.1,2.1,0.1,3.1-0.2
	c1.6-0.3,3.1-0.1,4.7-0.1c0.9,0.1,1.8,0.1,2.7-0.2c0.9-0.2,1.8-0.1,2.7-0.2c0.9,0,1.8,0.1,2.7-0.2c1.2-0.2,2.4-0.1,3.6-0.1
	c0.8,0,1.6,0.1,2.3-0.2c0.6-0.1,1.2-0.2,1.8-0.2c0.6,0,1.2,0,1.8-0.1c2.8-0.4,5.5-0.5,8.3-0.7c0.8,0.1,1.6,0,2.4-0.2
	c3.3-0.3,6.6-0.6,9.9-0.8c0.8,0,1.5,0.1,2.2-0.1c8.9-1.7,17.6-4,25.7-8c4.9-2.4,9.4-5.3,12.6-9.9c0.3-0.4,0.6-0.8,0.8-1.2
	c0.8-1.3,0.7-1.6-0.8-1.9c-0.6-0.1-1.3-0.2-1.9-0.3c-0.6-0.1-1.2-0.3-1.4-1c-0.1-0.7,0.5-1,1-1.3c0.7-0.3,1.4-0.7,2.1-0.9
	c1.4-0.6,2.8-1.2,4.1-2c1.9-1.1,3.4-2.6,4.1-4.7c0.4-0.9,0.2-1.7,0-2.6c-0.3-1.9,0.6-3.5,1.2-5.1c1.3-4,1.9-8.2,2.4-12.3
	c0.3-1,0.2-1.9,0.2-2.9c0-0.3,0-0.6,0-0.9c0-2.1,0-4.2,0-6.3c0-0.4,0-0.8,0-1.2c0-1,0.1-2-0.2-2.9c-0.2-0.8-0.2-1.6-0.2-2.4
	c0-0.6,0-1.2,0-1.8c0-1,0.1-2.1-0.3-3.1c-0.2-3.2-0.2-6.3,0-9.5c0.2-0.8,0.3-1.6,0.3-2.5c0.9-5,1.8-10,2.5-15
	c0.8-6.5,1.2-13,1.9-19.5c0.2-0.8,0.3-1.6,0.2-2.4c0-0.9,0-1.8,0.1-2.7c0.3-0.8,0.2-1.6,0.2-2.4c0.3-7,1.2-14,2.3-20.9
	c0.5-3.7,0.7-7.4,1.1-11.1c0.3-0.9,0.3-1.8,0.2-2.8c0-1.4-0.1-2.7,0.1-4.1c0.3-0.9,0.3-1.8,0.2-2.8c0-1.9-0.1-3.8,0.1-5.7
	c0.3-1,0.3-2,0.2-3.1c0-1.5-0.1-2.9,0.1-4.4c0.3-0.8,0.3-1.6,0.2-2.4c-0.1-3.6,0.3-7.1,0.8-10.6c0.2-0.7,0.3-1.3,0.3-2
	c0.3-3,1-5.9,1.5-8.9c0.2-1,0.8-1.7,1.5-2.3c3.1-2.9,3.4-4.9,1.2-8.6c-0.9-1.5-2-2.8-2.9-4.2c-1.1-1.6-1.7-3.4-2-5.2
	c0-0.7,0-1.3,0-2c0.2-2.7,1.9-4.7,3.7-6.5c1.2-1.2,1.8-2.4,1.7-4c-0.1-1.2,0-2.3,0-3.5c0-0.7,0.1-1.4-0.1-2.1
	c-0.3-4.4-0.9-8.8-1-13.2c0.1-0.7,0.1-1.4-0.2-2.1c-0.2-0.9-0.1-1.8-0.2-2.7c0.1-0.7,0-1.4-0.2-2c-0.2-1-0.1-2-0.2-3
	c0-1,0.1-2-0.2-3c-0.2-0.9-0.1-1.8-0.2-2.8c0-0.6,0-1.2,0-1.9c0-1,0-2.1,0-3.1c0-0.8,0-1.7,0.9-2.1c1.8-0.7,2.8-2.1,3-4
	c0.1-0.5,0-1.1,0.2-1.6c0.1-0.2,0.2-0.3,0.3-0.4c0.5-0.3,1.1-0.4,1.4-0.9c0.2-0.4,0.3-0.9,0.8-1.2c1.9-1.2,2.1-2.9,1.7-4.9
	c0.1-0.7,0.1-1.4,0.4-2.1c2.2-5.4,2.1-11.1,2.2-16.7c0.1-3.7,0.9-7.3,1.7-10.8c0.3-1.2,0.4-2.4,0.4-3.7c0-5.2-0.3-10.4-0.3-15.6
	c0-5-0.4-9.9-0.8-14.8c-0.1-1.2-0.5-1.7-1.7-1.7c-4.9-0.2-9.8,0.6-14.6,1.4c-0.3,0.1-0.5,0.3-0.8,0.4c-0.2,0.1-0.4,0.1-0.6,0.2
	c-0.7,0.1-1.3,0.1-2,0.3c-2.3,0.2-4.4,0.9-6.7,0.8c-0.7-0.1-1.4,0-2,0.2c-2.3,0.4-4.6,0.6-6.8,0.9c-0.7-0.1-1.4,0-2.1,0.2
	c-3.4,0.5-6.8,1-10.3,1.2c-0.7,0-1.4-0.1-2,0.2c-0.6,0.1-1.2,0.1-1.7,0.2c-0.7,0-1.3,0-2,0.2c-2.6,0.5-5.2,0.7-7.8,0.8
	c-0.7,0-1.3,0-2,0.2c-0.6,0.1-1.1,0.1-1.7,0.2c-0.7,0-1.3,0-2,0.2c-1.8,0.3-3.5,0.6-5.3,0.5c-0.7,0-1.3,0-2,0.2
	c-0.6,0.1-1.1,0.1-1.7,0.2c-0.7,0-1.5,0-2.2,0.2c-0.6,0.1-1.1,0.1-1.7,0.2c-0.8,0-1.5,0-2.2,0.2c-0.7,0.1-1.3,0.1-2,0.2
	c-0.8,0-1.5-0.1-2.3,0.2c-0.8,0.2-1.5,0.1-2.3,0.2c-0.7,0-1.3,0-2,0.2c-0.8,0.2-1.5,0.1-2.3,0.2c-0.7,0-1.3,0-2,0.2
	c-0.7,0.1-1.3,0.2-2,0.2c-0.9,0-1.7-0.1-2.6,0.2c-0.9,0.2-1.8,0.1-2.7,0.2c-0.8,0-1.5-0.1-2.3,0.2c-0.7,0.1-1.4,0.2-2,0.2
	c-0.9,0-1.7-0.1-2.6,0.2c-0.8,0.2-1.6,0.1-2.4,0.2c-1,0-2-0.1-2.9,0.2c-1,0.2-2,0.1-3,0.2c-0.9,0-1.8-0.1-2.7,0.2
	c-1,0.2-2,0.1-3,0.2c-1.1,0-2.2-0.1-3.3,0.2c-1.4,0.1-2.8,0.3-4.1,0.3c-1.1-0.3-2.1-0.3-3.2,0c-1.3,0.2-2.6,0.1-3.9,0.1
	c-1.1,0-2.1-0.2-3.2,0.1c-0.8,0.2-1.4,0.7-2.3,0.5c-3.1-0.8-6.3-1.7-9.6-1c-0.9,0.2-1.8,0-2.1-1.1c-0.2-0.6-0.7-0.6-1.1-0.7
	c-0.9-0.1-1.9-0.4-2.8-0.3c-6.7,0.2-13.4-0.2-20-0.4c-9-0.2-18-0.5-27-0.7c-7.3-0.2-14.5-0.4-21.8-0.7c-7.9-0.3-15.8-0.5-23.7-0.9
	c-3.7-0.2-7.3-0.3-11-0.5c-5.8-0.3-11.6-0.5-17.3-0.9c-4.2-0.3-8.5-0.5-12.7-0.8c-6.7-0.5-13.4-1-20.2-1.6
	c-7.7-0.6-15.3-1.5-22.9-2.3c-0.5-0.1-1.2-0.3-1.5,0.2c-0.3,0.6,0.3,1.1,0.6,1.5c1,1.2,2.3,2.1,3.7,2.8c0.6,0.3,1.3,0.6,1.8,1.1
	c1,0.8,0.9,1.5-0.3,1.9c-0.8,0.3-1.6,0.4-2.4,0.5c-0.8,0.1-1.3,0.5-1.1,1.5c1.5,7.9,2.4,15.9,5.8,23.4c0,0.1,0.1,0.2,0.2,0.3
	c3.4,6.9,8.8,8.8,15.8,5.4c0.4-0.2,0.8-0.3,1.1-0.6c5.3-4.1,11.8-5,18.1-6.3c9-1.9,18.1-3,27.2-3.8c6.3-0.5,12.6-0.9,18.9-1.2
	c6.7-0.3,13.3-0.5,20-0.9c3.1-0.2,6.3-0.2,9.4-0.4c0.8-0.1,1.8-0.3,2.3,0.8c-0.3,0.6-0.9,0.7-1.5,0.8c-7.1,1.2-14.3,2.4-21.5,3
	c-2.3,0.2-4.7,0.3-7,0.6c-0.8,0-1.6-0.1-2.3,0.2c-0.6,0.1-1.1,0.1-1.7,0.2c-0.7,0-1.3,0-1.9,0.2c-0.6,0.1-1.1,0.1-1.7,0.2
	c-0.7,0-1.3,0-2,0.2c-6.3,0.9-12.6,1.3-18.8,2.2c-6.2,0.9-12.4,1.7-18.5,3.4c-0.6,0.2-1.2,0.3-1.7,0.3c-0.9,0-1.9-0.1-2.8,0.1
	c-8.5,1-14.5,5.6-18.5,13.1c-0.4,0.8-0.8,1.7-0.9,2.7c-0.2,0.6-0.2,1.2-0.2,1.8c0,3.1,1.6,5.2,4.3,6.5c1.5,0.7,3.2,1.1,4.9,1.4
	c0.6,0.2,1.3,0.2,1.9,0.2c1,0,2,0,3,0c3.7,0.9,7.5,1.4,11.1,2.3c0.9,0.2,1.9,0.4,2.2,1.5c-0.1,1-1,1.3-1.7,1.6c-1,0.4-1,0.8-0.1,1.4
	c0.6,0.4,1.7,0.9,1.3,1.8c-0.5,1-1.6,0.5-2.4,0.2c-4.6-1.3-9.2-2.6-13.8-4c-2.5-0.8-5.2-1.1-7.7-1.9c-0.6-0.2-1.1-0.6-1.7,0
	c0.2,1.2,1.4,1.7,2.1,2.5c0.4,0.4,0.8,0.8,0.5,1.4c-0.3,0.6-0.9,0.5-1.4,0.4c-0.9-0.1-1.7-0.5-2.5-0.8c-1.3,0.2-0.2,1-0.4,1.5
	c0.4,4,1.1,7.9,1.7,11.9c0.1,1.1,0.4,2.1,0.5,3.2c0.5,2.2,0.6,4.4,0.9,6.6c0.1,0.5,0.1,0.9-0.2,1.3c0,0.8,0,1.5,0,2.5
	c-0.8-0.4-0.9-1.2-1.1-1.7c-2.1-5.3-3.1-10.9-4.3-16.4c-2.1-9.8-4.4-19.6-8.1-29c-0.6-1.5-1.2-2.9-2.5-4.5c-0.1,3.3,0.4,6.3,0.9,9.2
	c1.4,9,4.4,17.6,6.7,26.4c1.8,6.8,3.1,13.6,3,21.1c-1.2-2.3-1.8-4.4-2.4-6.4c-4.1-12.4-6.7-25.1-8.9-37.9c-3-17.6-5.2-35.4-9.3-52.9
	c-0.9-4.1-1.9-8.2-3.2-12.2c-1.6-4.6-0.2-8.3,2.9-11.7c4-4.2,8.9-6.8,14.2-8.7c2.8-1,5.7-1.7,8.7-1.5c1.5,0.1,3.1,0.3,3.5,2.1
	c0.5,1.7-0.3,3-1.8,4c-3.5,2.3-7.5,3.1-11.5,3.9c-2.4,0.5-4.8,0.8-7.1,1.7c-2.6,1-3.2,2.5-1.6,4.8c1.9,2.7,4.2,4.8,7.7,5.8
	c14.1,3.7,28.3,5.8,42.8,7c18.8,1.5,37.6,1.4,56.4,2.1c20.3,0.7,40.6,1,60.9,1.2c10.7,0.1,21.4-0.1,32.1-1.2c2-0.2,4,0.1,6-0.1
	c0.7,0.2,1.3,0.7,1.9,0.9c0.6,0.3,1.2,0.2,1.7,0C284,131,284.5,130.3,285.3,130.8z"/>
<path class="st0" d="M420.8,114.8c-0.7-1-0.2-2.1-0.5-3.2c-1.2-3.8-1.1-7.8-1.7-11.7c-1.3-8.5-2.9-17-5.4-25.3
	c-1.6-5.3-4-10.3-6.4-15.3c-1.1-2.3-2-4.8-3.3-7.1c-2.9-5.1-5.7-10.3-8.9-15.3c-3.3-5.2-6.8-10.1-10.8-14.7
	c-6.7-7.8-14.5-14.3-23.6-19.3c-1.1-0.6-2.2-1.4-3.4-1.8c-0.4-0.2-1.1-0.3-1-1.1c21.2,0,42.4,0,63.6,0c1.2,0,1.5,0.2,1.5,1.5
	C420.8,39.2,420.8,77,420.8,114.8z"/>
<path class="st1" d="M355.8,0c3.6,2,7.3,3.7,10.7,6c2.2,1.5,4.4,3.2,6.4,4.9c2.6,2.1,5.2,4.1,7.5,6.6c6.5,7.1,12.2,14.7,17.1,23
	c4,6.7,7.5,13.7,10.9,20.8c4.5,9.4,7.3,19.4,9.2,29.6c1.3,6.9,2.1,13.8,2.7,20.7c-0.2-0.7-0.8-1-1.3-0.7c-4.4,2.1-9.4,2.3-14,3.5
	c-2.2,0.6-4.5,1-6.8,1.6c-0.5,0.1-1.1,0.5-1.6-0.1c-0.4-1.3,0.8-2.3,0.8-3.5c0.2-0.6,0.3-1.3,0-1.9c-0.7-3.3-2.8-5.6-5.2-7.8
	c-0.6-0.6-1.3-1.1-1.4-2c0-0.9-0.2-1.9,0.2-2.8c0.8-1,2.1-0.8,3.2-1.3c1.8-0.7,2.9-2.4,2.4-4.3c-0.2-0.8-0.3-1.7-0.7-2.4
	c-2.7-5.1-3.2-10.9-4.9-16.3c-2.9-9.2-5.9-18.4-10.8-26.7c-1.5-2.6-3.3-5.1-5.2-7.4c-0.5-0.6-1-1.3-1.6-1.6c-2.4-1-2.7-3.2-3.2-5.3
	c-1.2-4.9-2.4-9.8-4.7-14.3c-1.4-2.8-3.3-4.9-6.1-6.4c-2.6-1.4-4.7-3.4-6.3-5.9c-0.5-0.7-1-1.5-1-2.4c0-0.3,0-0.5,0-0.8
	c-0.2-0.6-0.2-1.1,0-1.7c0-0.5,0.5-0.7,0.8-1C353.9,0,354.8,0,355.8,0z"/>
<path class="st2" d="M420.8,123c-0.5-1.2-0.6-2.4,0-3.6C420.8,120.6,420.8,121.8,420.8,123z"/>
<path class="st3" d="M420.4,129.4c0.1-0.8-0.3-1.7,0.3-2.5c0,0.8,0,1.7,0,2.5C420.7,129.5,420.6,129.5,420.4,129.4z"/>
<path class="st4" d="M420.4,129.4c0.1,0,0.2,0,0.3,0c0,0.7,0,1.4,0,2.1C420.1,130.9,420.5,130.1,420.4,129.4z"/>
<path class="st5" d="M393.5,326.6c-0.3,6.3-1.2,12.5-2.1,18.7c-0.7,4.5-0.8,9-1.2,13.6c-0.3,0.7,0,1.5-0.3,2.2
	c0,0.9-0.1,1.9-0.1,2.8c-0.3,0.7,0.1,1.4-0.3,2.1c-0.7,9.5-1.3,19-3.1,28.4c-0.4,2.1-0.9,4.2-1.2,6.4c-0.3,0.7,0,1.5-0.3,2.2
	c0,3.3,0,6.6,0,9.9c0.2,0.9,0.1,1.8,0.1,2.6c0.1,0.7-0.1,1.3,0.1,2c0,0.8,0.1,1.7,0.1,2.5c0.3,0.9-0.1,1.9,0.3,2.9
	c0,0.4,0,0.7,0,1.1c-0.2,2.2-0.2,4.5,0,6.7c0,0.2,0,0.5,0,0.7c-0.4,0.9,0.1,1.9-0.3,2.8c-0.3,5.1-1.2,10-3.1,14.8
	c-0.4,1-0.7,2-0.5,3.1c0.2,0.8,0.2,1.6,0,2.5c-1,3.5-3.9,4.9-6.7,6.4c-1.3,0.6-2.7,1.1-4,1.7c-0.3,0.1-0.9,0.2-0.8,0.7
	c0.1,0.5,0.7,0.3,1,0.5c0.9,0.5,2,0.5,2.9,0.5c1.8,0,1.2,0.8,0.8,1.6c-1.3,2.6-3.3,4.8-5.6,6.7c-5.5,4.4-11.8,7.2-18.4,9.3
	c-5.2,1.7-10.5,3.2-15.9,3.9c-0.7,0.3-1.5-0.1-2.2,0.3c-3.4,0.3-6.8,0.8-10.3,0.8c-0.7,0.3-1.4-0.1-2.1,0.3
	c-2.8,0.2-5.7,0.5-8.5,0.7c-0.6-0.1-1.2-0.2-1.7,0c-0.6,0-1.2,0.1-1.8,0.1c-0.7,0.3-1.5-0.1-2.1,0.3c-1.3,0-2.5,0.1-3.8,0.1
	c-0.8,0.3-1.7-0.1-2.6,0.3c-1,0-1.9,0.1-2.9,0.1c-0.8,0.3-1.7-0.1-2.5,0.3c-1.6,0-3.3,0.1-4.9,0.1c-0.9,0.3-1.9-0.1-2.9,0.3
	c-2.4,0-4.7,0.1-7.1,0.1c-1.2,0.3-2.3,0.1-3.5,0.1c-0.7,0-1.4,0-2.2,0c-1,0-2,0-3,0c-0.7,0.1-1.3-0.1-2,0.1c-5.5,0-10.9,0-16.4,0
	c-0.7-0.3-1.5-0.1-2.3-0.1c-0.8,0-1.6,0-2.4,0c-0.7,0-1.4,0-2.2,0c-1.1-0.1-2.1,0.1-3.2-0.1c-1.9,0-3.8-0.1-5.6-0.1
	c-0.8-0.3-1.7,0.1-2.5-0.3c-1.1,0-2.1-0.1-3.2-0.1c-0.8-0.4-1.7,0.1-2.5-0.3c-1.2,0-2.4-0.1-3.5-0.1c-0.5-0.3-1.2,0-1.8-0.3
	c-6.2-0.2-12.2-1.1-18.4-1.8c-7.3-0.8-14.6-2-21.8-3.3c-5.3-1-10.7-1.7-14.9-5.9c-4.1-4.2-7.1-9-9.3-14.4
	c-3.1-7.6-4.6-15.7-6.4-23.7c-0.9-3.9-1.9-7.9-2.9-11.8c-0.3-1.2-0.3-1.6,1.2-1.2c1.3,0.4,2.8,0.4,4.2,0.5c0.5,0,1.2,0.2,1.4-0.4
	c0.2-0.5-0.3-0.8-0.7-1.2c-2.1-2-4.1-3.9-6.2-5.8c-1.6-1.6-2.9-3.4-3.9-5.4c-1.3-2.6-1.3-5.1,0.2-7.7c0.7-1.2,1.1-2.7,1.6-4.1
	c-0.7-0.3-1.4,0.3-2.1,0.2c-1,0.2-2.1,0.2-3.1,0c-1.8-3.4-2.7-7.1-3.9-10.8c-5.6-16.8-10.6-33.9-15.2-51.1
	c-2.2-8.2-4.2-16.4-6.2-24.6c-2.6-10.4-5.2-20.9-7.6-31.3c-2.1-9.1-4.1-18.2-6.2-27.2c-0.3-1.5-0.8-2.9-1.5-4.3
	c-0.4-0.6-0.8-1.2-1.6-1.1c0-1.1,0-2.1,0-3.2c0-0.7,0.2-1.5-0.9-1.4c-0.5,0-0.5-0.4-0.5-0.8c0.1-1.2-0.3-2.3-0.3-3.5
	c0-1.2,0-2.4-1.1-3.1c-0.3-0.2-0.3-0.6-0.3-1c-0.9-4.7-0.7-9.5-0.7-14.2c0-0.9,0-1.6-1-1.9c-0.4-2.6-0.7-5.2-1.1-7.8
	c0.2-1.1,0.1-2.2-0.5-3.1c-0.5-2.7-1-5.5-1.4-8.2c-0.2-1.4-0.3-2.8-0.4-4.2c0-0.6-0.7-1.6,0.7-1.6c1,0.2,1.9,0.8,2.9,0.8
	c0.3,0,0.6,0.3,0.9-0.1c0.2-0.4-0.2-0.6-0.4-0.8c-0.8-0.7-1.6-1.5-2.5-2.2c-0.4-0.4-0.6-0.7-0.1-1.1c0.7-0.3,1.4-0.2,2.1-0.1
	c3.9,0.9,7.8,1.8,11.6,3c3.9,1.2,7.8,2.2,11.8,3.2c0.1,0,0.3-0.1,0.7-0.1c-0.6-1.1-1.6-1.5-2.5-2c-1-0.6-0.7-0.9,0.1-1.3
	c1-0.4,2-0.7,2.8-1.4c2.2-0.3,4.4-0.1,6.5-0.1c0.6,0,1.2,0.2,1.6,0.7c0.5,0.5,1,0.9,1.7,0.8c3-0.1,5.7,1.3,8.5,2.1
	c0.7,0.2,1.4,0.3,2.1,0.2c1.1,0,2.1,0.2,2.9,1c0.9,0.8,1.9,0.8,3,0.8c3.2,0,6.4,0,9.6,0c1.1,0,2.1,0.1,3,0.8
	c1.1,0.8,2.4,0.5,3.6,0.8c1.6,0.6,3.3,0.5,5,0.7c0.8,0.3,1.5,0.3,2.3,0.2c3.9,0.2,7.7,0.9,11.4,1.9c1.3,0.7,2.9,1.1,3.1,3
	c-0.2,1.8-1.1,3-2.7,3.8c-3.6,1.7-7.2,3.5-9.4,7.1c-0.1,0.2-0.4,0.4-0.6,0.6c-0.5,0.6-0.9,1.2-1.2,1.9c-0.1,0.2-0.2,0.4-0.2,0.7
	c-0.3,1.3-0.4,2.6-0.8,3.8c-0.5,1.5,0.3,2.8,0.5,4.2c0.7,3.6,2.5,6.6,5.2,9.1c8.5,7.9,18.5,13.5,29.2,17.8c7.1,2.9,14.5,4.7,22,6
	c3.2,0.6,6.4,1.2,9.6,1.4c3.7,0.2,7.3,1,11,0.7c2.1-0.2,4.3,0.9,6.5,0.6c3.7-0.6,7.3-0.3,11-0.3c1.9,0,3.9,0,5.8,0.3
	c1.7,0.2,3.5,0.2,5.3-0.1c2-0.4,3.9-0.7,6-0.2c1.5,0.3,3-0.3,4.5-0.5c4.9-0.7,9.8-1.3,14.6-2.1c15.7-2.5,31.1-6,45.2-13.9
	c6.2-3.5,12.1-7.6,17.7-12.1c2.2-1.8,4.5-3.5,6.5-5.4c1.7-1.7,3.5-3.3,5.3-4.8c2.4-2,4.3-4.5,6.9-6.3c1.8-1.3,3.4-2.9,5-4.5
	c2.9-2.8,6.1-5.4,9.3-7.8c0.4-0.3,0.9-0.6,1.5-0.3c0.4,0.9,0.1,1.8,0.2,2.7c0.1,0.6-0.1,1.3,0.1,1.9c0,1,0.1,1.9,0.1,2.9
	c0.3,0.9-0.1,1.9,0.3,2.9c0,1.1,0.1,2.1,0.1,3.2c0.3,0.6-0.1,1.2,0.3,1.8c0,1,0.1,1.9,0.1,2.9c0.3,0.5-0.1,1.2,0.3,1.7
	c0,4.2,0.9,8.3,0.8,12.5c0,0.3,0.2,0.7,0.3,1c-0.2,0.7-0.2,1.4,0,2.1c0,1.2,0,2.5,0.1,3.7c0.1,1.7-0.4,2.8-1.7,4
	c-1.8,1.6-3.3,3.6-3.7,6.1c-0.2,0.7-0.2,1.4,0,2.1c0.7,3.4,2.8,5.9,4.7,8.7c1.5,2.2,2.8,4.6,1.1,7.3c-0.3,0.5-0.6,1.2-1.1,1.5
	c-3.2,2-2.6,5.5-3.4,8.4c-0.3,1.1-0.3,2.2-0.5,3.3c-0.3,0.5,0,1.2-0.3,1.7c-0.3,3.7-0.8,7.4-0.8,11.1c-0.3,0.7,0,1.5-0.3,2.2
	c0,1.5-0.1,3.1-0.1,4.6c-0.4,0.9,0.1,1.9-0.3,2.8c0,2-0.1,4-0.1,6c-0.4,0.8,0.1,1.7-0.3,2.5c0,1.4-0.1,2.8-0.1,4.2
	C393.4,324.9,393.8,325.8,393.5,326.6z"/>
<path class="st6" d="M352.2,3.6c1.6,2.9,3.7,5.3,6.3,7.2c1.2,0.9,2.6,1.2,3.8,2.3c4,3.6,5.4,8.5,6.9,13.3c0.9,3,1.8,6,2.2,9.1
	c0,0.3,0.2,0.8,0.5,0.9c3.2,1.1,4.5,3.9,6.2,6.4c4.4,6.4,7.5,13.4,10.1,20.7c2.2,6.3,4.2,12.7,5.7,19.2c0.5,2.3,1.4,4.3,2.3,6.5
	c0.6,1.5,1.5,3,1.1,4.7c-0.5,2.4-2,3.5-4.8,3.8c-0.4,0-0.8,0.1-1.2,0.1c-0.7,0.6-1.5,0.1-2.2-0.1c-4-0.9-7.5-2.6-10.2-5.8
	c-2.1-2.5-2.1-6.2,0-9c0.6-0.8,1.5-1.5,1.3-2.6c-0.3-2.1-0.3-4.3-1.5-6.2c-0.5-0.7-0.9-0.4-1.5-0.1c-1.3,0.7-2.2,2-3.8,2
	c-0.2,0.2-0.7-0.4-0.8,0.2c1,0.6,1.9,1.4,2.6,2.3c2.1,2.6,1.8,5-0.9,7c-2.6,2-5.5,3.2-8.6,3.8c-2.5,0.5-4.9,1.3-7.5,1
	c-1-0.3-2.1-0.3-3.1,0c-0.4,0.1-0.7,0.1-1.1,0.1c-0.6,0-1.3-0.1-1.9-0.3c-0.4-0.2-0.8-0.3-1.3-0.3c-0.5-0.1-1.1,0-1.5-0.5
	c-1.3-0.9-3-1.1-4.4-2c-0.8-0.5-1-0.7-0.4-1.6c0.7-1.1,1.8-1.7,2.4-2.8c0.2-0.4,0.8-0.8,0.3-1.4c-0.6-0.3-1.2-0.1-1.8-0.1
	c-3.4,1.2-6.7,2.3-10.2,3.3c-2.3,0.6-4.6,1.2-7,0.5c-1.8-0.5-3.4,0.5-5.1,0.7c-2.2,0.3-4.4,0.5-6.6,0c-1-0.2-1.4-1-1.7-1.9
	c-0.6-0.8,0-1.7-0.4-2.5c1-3.3,2.3-6.5,4-9.4c1.4-2.3,2.5-4.8,3.9-7.1c1.5-2.6,2.5-5.5,4-8.2c2.4-4.5,4.5-9.1,6.7-13.8
	c1.5-3.3,3.1-6.5,4.6-9.8c2.3-5.1,4.3-10.3,6-15.7c1-3.3,1.9-6.7,2.8-10c-0.1-0.3-0.1-0.5,0.1-0.7C348.3,5.6,350,4.2,352.2,3.6z"/>
<path class="st6" d="M352.2,89.9c0.6,0.3,1.2,0.4,1.8,0.4c2.2,0.7,4.6,0.9,6.5,2.6c0.5,0.4,1,0.8,1.4,1.4c1,1.4,0.4,3.3-1.2,3.9
	c-1.7,0.6-3,1.8-4.9,2.4c5.6-1.4,10.9-3,16.6-2.4c2.3,0.2,3.5,1.2,4.1,3.3c0.1,1.2-0.1,2.4,0.2,3.6c-0.6,4.6-3.3,7.9-7.2,10
	c-5.2,2.8-10.8,4.4-16.6,5.2c-2.6,0.3-5.2,1-7.9,1.1c-4.1,0.3-8.2,1-12.3,1.3c-1.3,0.1-2.6,0.4-3.9,0.4c-0.5,0.1-1,0-1.5,0.1
	c-2.6,1-5.4,1.2-8.1,1.6c-1.5,0.2-2.9,0.5-4.3,1c0.2,0.4,0.6,0.2,0.9,0.3c1.6,0,3.1,0,4.7,0c0.7,0,1.3,0,2,0
	c8.7-0.5,17.1-3,25.7-4.3c4.3-0.6,8.5-1,12.8-1.7c4.6-0.8,9-2.1,13-4.5c2.6-1.6,4.6-3.8,6.3-6.4c0.6-0.9,0.5-1.7-0.1-2.5
	c-1-1.3-1.6-2.9-2.2-4.4c-1.4-3.5,0.3-5.7,4-5.2c3.5,0.4,6.6,1.8,9.4,3.9c1.1,1.2,2.3,2.3,3.3,3.5c1.6,1.8,2.9,3.6,3.1,6.1
	c0.2,0.6,0.2,1.1,0,1.7c0.2,1.4-0.7,2.4-1.1,3.6c-1.3,1.5-3.2,1.8-4.9,2.4c-10.3,3.7-20.8,6.6-31.6,8.6c-8.2,1.6-16.5,2.8-24.8,3.6
	c-1.5,0.1-2.9,0.3-4.4,0.3c-0.7,0.3-1.5-0.1-2.1,0.3c-0.6,0-1.2,0.1-1.7,0.1c-0.7,0.3-1.5-0.1-2.2,0.2c-1.4,0.3-2.8-0.1-4.2-0.3
	c-2.3-0.2-4.5-0.2-6.8,0c-3.4,0-6.8,0.4-10.3,0.1c-1.2-0.1-2.4-0.4-3.4-1.1c-2.1-0.7-2.7-3.2-1.2-4.8c3.2-3.4,7.2-5.6,11.6-7.1
	c2.8-0.9,5.6-1.7,7.9-3.7c1.5-1.3,3-2.6,4.2-4.1c1.4-1.8,3.2-3,4.8-4.4c1.1-0.9,2.1-1.9,3.1-3c-0.9-0.6-1.4-0.1-2,0.3
	c-6.6,3.8-12.8,8.2-19.1,12.4c-1.4,0.9-3,1.6-4,3.1c-1.3,0.3-2.7-0.1-4,0.2c-2.8-0.5-5.5-1.1-6.1-4.6c-0.2-0.7-0.2-1.4,0-2.2
	c1.2-6.1,4.8-10.9,8.4-15.5c1.9-2.4,3.9-4.9,6.6-6.7c1.4-0.9,3-1.6,4.5-2.2c0.6-0.2,1-0.1,1.4,0.4c0.6,0.6,0.1,0.9-0.1,1.4
	c-1.9,4-4.3,7.7-6.6,11.4c-0.3,0.5-0.7,1.1-0.3,1.6c0.3,0.3,1,0.2,1.5-0.1c1.8-1.1,3.7-1.9,4.5-4.3c1.4-3.9,3.7-7.2,8.2-7.9
	c0.7-0.2,1.4-0.2,2.2,0c3.8,0.5,6.5,2.7,8.7,5.7c0.4,0.5,0.5,1.2,1.3,1.4c0.5-0.8,0-1.7,0.3-2.5c0.9-2.7,2.8-4,5.6-4.4
	c1.1-0.2,2.2-0.6,3.3-0.9c1.2,0.2,2.4,0.2,3.6,0c0.2,0.1,0.5,0.2,0.7,0.3c0.6-0.2,1.2-0.1,1.7,0C351.2,89.9,351.7,90.1,352.2,89.9z"
	/>
<path d="M203.8,85.5c19.2-0.3,38.3-0.7,57.5-1.7c7.7-0.4,15.3-1.1,23-1.6c1.7-0.1,3.4,1.4,4.2,3.8c0.6,1.7,0.1,3.3-1.6,4.2
	c-2.9,1.6-6.2,1.9-9.4,2.2c-9.6,0.8-19.2-0.1-28.7-0.1c-5.5,0-11.1,0.6-16.6-0.6c-3.9-0.8-7.9-1.6-11.8-2.3
	c-2.3-0.4-4.6-0.5-6.9,0.1c-0.9,0.3-2,0.5-2.5,1.2c-1.5,2.1-3.1,1.4-5.1,0.7c-7.3-2.7-15-3-22.7-2.4c-8,0.6-15.9,2-23.9,3.2
	c-5,0.7-10.1,0.8-15.2,1.5c-11.3,1.5-22.4,4.1-33.4,7c-2.1,0.6-4.2,1-6.4,1.5c-0.4,0.1-1,0.2-1.3-0.3c-0.2-0.4,0.1-0.8,0.4-1.1
	c0.8-1,1.6-2,2.3-3.1c0.6-0.9,1.4-1.9,1.1-2.9c-0.4-1.3,0.3-1.4,1.2-1.6c9.8-2,19.5-4.2,29.4-5.5c7.3-1,14.7-1.2,22.1-1.2
	C174.2,86.3,189,85.8,203.8,85.5z"/>
<path class="st6" d="M285.3,130.8c-0.7,0.2-1.4,0.5-2.1,0.7c-0.6,0.2-1.2,0.2-1.8,0c-0.8-0.2-1.5-0.5-1.8-1.3
	c-1.2-1.6-0.6-3,0.7-4.2c1.1-1,1.8-2.3,2.6-3.5c1.2-1.8,4.1-3.2,5.7-2.5c1.5,0.6,2.5,2.9,2.2,4.4
	C290.1,127.6,288.2,129.6,285.3,130.8z"/>
<path class="st7" d="M301.4,119c1.3-0.7,2.6-0.2,4-0.2C304.1,119.4,302.7,118.9,301.4,119z"/>
<path class="st8" d="M348.3,89.6c-1.2,0.5-2.4,0.5-3.6,0C345.9,89.6,347.1,89.6,348.3,89.6z"/>
<path class="st9" d="M346.6,7.1c0,0.2-0.1,0.5-0.1,0.7c-0.6,0.1-0.6-0.4-0.5-0.8c0-0.2,0.1-0.5,0.4-0.4
	C346.4,6.6,346.5,6.9,346.6,7.1z"/>
<path class="st10" d="M350.8,90.2c-0.5-0.3-1.1-0.4-1.7-0.4c0.1-0.1,0.2-0.2,0.3-0.3c0.6,0,1.2,0.1,1.8,0.1
	C351.3,90,351,90.1,350.8,90.2z"/>
<path class="st11" d="M335.8,94.9c-0.1,0.8,0.4,1.7-0.3,2.5C335.7,96.5,335.2,95.6,335.8,94.9z"/>
<path class="st12" d="M298.9,88.2c0,0.6,0,1.1,0,1.7c-0.1,0-0.1,0-0.2,0c0-0.6,0-1.1,0-1.7C298.8,88.2,298.8,88.2,298.9,88.2z"/>
<path class="st13" d="M314.6,81.8c0.6,0.8,0.1,1.7,0.4,2.5C314,83.5,314.8,82.6,314.6,81.8z"/>
<path class="st11" d="M325.6,90.2c-0.7,0-1.4,0-2.2,0C324.1,89.8,324.9,89.8,325.6,90.2z"/>
<path class="st4" d="M295.3,112.3c0,0.7,0,1.4,0,2.2C294.9,113.7,294.9,113,295.3,112.3z"/>
<path class="st14" d="M307.5,86.1c0-0.4,0-0.9,0-1.6C308,85.3,307.7,85.8,307.5,86.1z"/>
<path class="st15" d="M345.5,81.6c0.6-0.3,1.2-0.5,1.8,0.1C346.7,81.7,346.1,81.7,345.5,81.6z"/>
<path class="st16" d="M352.2,1.1c0,0.6,0,1.1,0,1.7C351.7,2.2,351.7,1.7,352.2,1.1z"/>
<path class="st17" d="M397.7,208.2c-1.6,1.3-3.3,2.6-4.9,3.8c-1.2,0.9-1.8,2.6-3.5,2.9c-0.1,0-0.3,0.2-0.4,0.3
	c-1.2,2.3-3.5,3.5-5.3,5c-2.4,2-4,4.9-6.9,6.2c-0.5,0.3-0.8,1-1.3,1.4c-2,1.7-3.7,3.7-5.9,5.2c-1,0.7-1.9,1.7-2.8,2.5
	c-4.8,4.2-9.9,7.9-15.3,11.3c-9.8,6.4-20.7,10.4-31.9,13.4c-3.2,0.8-6.4,1.7-9.6,2.1c-3.1,0.4-6.1,1.1-9.2,1.5c-2,0.2-4.1,0.6-6.1,1
	c-2.2,0.3-4.4,0.6-6.7,0.8c-1.3,0.1-2.8,0-4.1,0.6c-0.4,0.2-0.9,0.2-1.4,0.2c-7.8,0-15.6,0.1-23.4,0c-2.1,0-4.2,0.4-6.4,0.4
	c-1.4,0-2.7,0-4-0.5c-0.7-0.3-1.5-0.2-2.3-0.1c-0.6,0.1-1.3,0.4-1.7,0.2c-2.1-0.9-4.3-0.4-6.4-0.7c-2.3-0.3-4.7-0.5-7.1-0.8
	c-3.3-0.3-6.6-1-9.8-1.8c-3.9-1-7.8-2-11.7-3.2c-6.2-2-12-4.7-17.6-7.9c-4.3-2.4-8.5-5-12.4-7.9c-4.6-3.4-8.4-7.5-9.9-13.3
	c-0.8-2.9-0.3-5.7,0.5-8.5c2.7-1.5,5.8-1.7,8.7-2.8c0.6-0.3,1.1-0.5,1.4-1.2c1.6-3.3,4-5.9,6.7-8.3c2-1.7,4-3.4,6.1-5
	c0.3-0.2,0.6-0.2,0.9-0.2c0.7,0.1,0.7-0.5,0.9-1c0.4-0.5,0.8-0.6,1.4-0.6c2.5,0,5,0.3,7.5-0.5c1.2-0.4,2.6,0,3.9-0.2
	c0.2,0,0.4-0.1,0.5-0.1c1.6,0.1,3,0.7,4.3,1.5c1.8,1,1.8,3.2,0.1,4.4c-1.4,0.9-3,1.6-4.3,2.8c-2,1.8-2.2,4.1-2.1,6.4
	c0.2,4.5,2.5,7.6,6.6,9.4c0.3,0.1,0.6,0.4,0.9,0.6c0.5,0.1,1.1,0.1,1.6,0c1-0.2,1.8-0.9,2.6-1.4c0.2-0.5-0.3-0.5-0.5-0.7
	c-2.5-2.5-4.8-5.1-5-8.9c-0.1-3.1,1.1-5.5,3.6-7.5c5-4,10.8-5.2,16.9-6c0.6,0,1.3,0,1.9-0.1c1.7-0.1,3.5-0.4,5.2,0
	c0.7,0.1,1.5,0,2.2,0.1c3.2,0.5,6.4,0.9,9.4,2.5c0.5,0.3,1,0.7,1.5,1c0.9,0.6,0.9,1.4,0.3,2.1c-2,2.1-2,4.8-2.2,7.4
	c0,0.6,0,1.2,0.1,1.8c0.8,4.6,2.3,9.1,3.2,13.8c0,0,0.4-0.2,0.8-0.1c1.4,0.1,2.7,0.1,3.6-1.3c0.1-0.2,0.5-0.2,0.8-0.3
	c0.6,0,1,0.4,1.4,0.7c1.7,1.4,3.7,2.1,5.8,2.7c0.9,0.3,1.9,0.3,2.8,0c0.6-0.1,1.3-0.3,1.9-0.5c2-0.9,3.9-0.8,5.8,0.3
	c1.6,0.9,3.2,1.1,5,0.5c2.3-0.8,4.8-1.1,7.3-1.4c0.6,0,1.2,0,1.8-0.2c0.2,0,0.3-0.1,0.5-0.1c0.6-0.1,1.1,0,1.7-0.3
	c0.8-0.5,1.8-0.1,2.7-0.4c0.6-0.1,1.2-0.1,1.7-0.3c1.4-0.6,2.8-0.7,4.3-0.8c0.6-0.1,1.2-0.1,1.8-0.3c5.8-1.2,11.5-2.6,17.2-4.3
	c6.1-1.9,11.9-4.6,17.2-8.3c3.7-2.6,7.5-5,10.9-7.9c0.9-0.8,1.7-1.8,2.8-2.5c0.6-0.2,1.4-0.4,1.2-1.3c0.7-1.5,1.7-2.9,2.4-4.4
	c0.3-0.5,0.2-1.2,0.6-1.7c0.7-1.3,0-2.8,0.7-4.1c0.2-0.2,0.3-0.3,0.5-0.3c0.9-0.2,1.8-0.2,2.6-0.2c7.2,0,14.4,0,21.6,0
	c1.1,0,2.1,0,2.9-0.9c0.6-0.6,1.4-0.6,2.2-0.5c3.6,0.4,7.2-0.5,10.7-0.9c2.4-0.3,4.8-1,7.3-0.9c1.1,0,1.8,0.4,1.9,1.6
	c0.8,2.2,0.3,3.5-1.7,4.7c-0.7,0.4-0.1,1.2-0.6,1.5c-0.6,0.1-1.1,0.4-1.6,0.6c-0.1,0-0.1,0.1-0.2,0.1c-0.4,0.3-0.9,0.6-1,1.2
	c-0.3,1.8-1.7,3.1-2.2,4.8c-1.2,0.2-0.5,1.2-0.8,1.8C398.2,208.2,397.9,208.1,397.7,208.2z"/>
<path class="st6" d="M207.9,203c-4,0.4-7.9,1.5-11.9,0.9c-0.1,0-0.1-0.1-0.1-0.1c0-0.9,0.8-1.2,1.3-1.5c4.5-3.2,8.9-6.6,13.4-9.9
	c3.5-2.6,6.5-5.6,9.6-8.6c2.4-2.3,5-4.3,7.4-6.5c2.5-2.3,5.1-4.5,7.7-6.8c1.6-1.4,3.1-2.8,4.7-4.2c1.8-1.6,3.7-3.1,5.3-4.9
	c1.8-2,4-3.7,5.9-5.5c4.8-4.5,9.6-9.1,14.3-13.7c0.5-0.5,1-1.2,1.8-1.3c0.5-0.3,0.8-1,1.6-0.8c1.1-0.3,2.2,0.1,3.3-0.2
	c1.4,0,2.8-0.1,4.3-0.1c1-0.2,1.9-0.2,2.9,0c1.4-0.2,2.8-0.5,4.3-0.4c1-0.3,2.1,0.1,3.2-0.3c1,0,2.1-0.1,3.1-0.1
	c0.8-0.3,1.7,0.1,2.6-0.2c1.1,0,2.1-0.1,3.2-0.1c1-0.3,2,0.1,2.9-0.3c0.8,0,1.6-0.1,2.4-0.1c0.8-0.3,1.7,0.1,2.5-0.3
	c0.7,0,1.4-0.1,2.1-0.1c0.7-0.3,1.4,0.1,2.1-0.2c1,0,1.9-0.1,2.9-0.1c0.8-0.3,1.7,0.1,2.5-0.3c0.7,0,1.4-0.1,2.1-0.1
	c0.6-0.3,1.2,0.1,1.8-0.2c0.8,0,1.6-0.1,2.4-0.1c0.6-0.3,1.3,0.1,1.8-0.3c0.8,0,1.7-0.1,2.5-0.1c0.7-0.3,1.4,0.1,2.1-0.3
	c0.7,0,1.4-0.1,2.1-0.1c0.7-0.3,1.5,0.1,2.2-0.3c0.6,0,1.2-0.1,1.8-0.1c0.7-0.3,1.4,0.1,2.1-0.3c0.6,0,1.1-0.1,1.7-0.1
	c0.6-0.3,1.3,0.1,1.8-0.2c1.8-0.2,3.7-0.3,5.5-0.5c0.6-0.3,1.3,0.1,1.9-0.3c0.6,0,1.2-0.1,1.8-0.1c0.6-0.3,1.2,0.1,1.8-0.2
	c2.7-0.3,5.4-0.5,8.2-0.8c0.6-0.3,1.2,0.1,1.8-0.3c0.5,0,1.1-0.1,1.6-0.1c0.6-0.3,1.3,0,1.9-0.3c3.6-0.4,7.2-0.8,10.7-1.2
	c0.5-0.3,1.2,0.1,1.7-0.3c2.4-0.3,4.8-0.5,7.2-0.8c0.5-0.3,1.2,0.1,1.7-0.3c2.4,0,4.7-0.9,7.1-0.8c0.6-0.3,1.2,0.1,1.8-0.3
	c0.1,0,0.3-0.1,0.4-0.1c0.6-0.2,1.2-0.4,1.8-0.1c1.4,1.9,1.7,4,1.4,6.3c-0.2,0.7-0.3,1.4-0.1,2.1c0,2.9-0.7,5.6-1.6,8.3
	c-2.3,6.8-5.4,13.2-8.9,19.5c-2.2,4-4.4,8.1-6.2,12.3c-2.5,5.8-7.1,9.8-12.6,12.8c-2.4,1.3-5,2.4-7.7,3.1c-5.2,1.7-10.5,2.7-16,2.6
	c-1.2-0.3-2.4-0.1-3.6-0.2c-0.7,0-1.4-0.1-2.1,0.2c-3.2,0-6.4-0.6-9.6-1.1c-0.9-0.2-0.9-1-0.9-1.7c0-1.3-0.2-2.5-0.9-3.6
	c-1.3-2-3.6-2.2-5.7-0.6c1.5,0.9,3.6,1,3.8,3.2c0.1,1-0.5,1.8-1.5,2.2c-0.5-0.1-1.3-1-1.3,0.5c-1.4,1.6-3.5,1.9-5.4,2.4
	c-3.5,1-7.1,1.2-10.7,0.9c-1.4-0.1-2.5-0.6-2.7-2.2c-0.1-0.9-0.5-1.7-0.8-2.5c-0.6-1.4-1.3-1.6-2.2-0.3c-0.6,0.8-1.3,1.7-1.9,2.6
	c-1.4,2.1-3.4,3.4-6,3.6c-0.6,0.1-1.3,0.1-1.9,0c-1.4-0.5-3-0.5-4.4-1.3c-3.7-2.1-5.2-5.5-5.7-9.4c0-0.7,0-1.4,0-2.2
	c0.3-5.1,2-9.8,3.7-14.5c1.6-4.6,3.4-9.1,4.4-13.8c0.3-1.4,0.3-2.9,0.7-4.3c0-1.1,0-2.1,0-3.2c-0.1-1-0.5-1.9-0.8-3.1
	c-1.1,1.4-1.5,2.8-2,4.2c-3.1,7.5-5.2,15.3-7.4,23.1c-1.3,4.4-2.1,9-3,13.5c-0.3,1.6-0.9,3.2-1.1,4.8c-0.1,0.7-0.5,1.2-1.1,1.6
	c-1.8,1.3-3.7,2.6-6,2.9c-0.6,0.1-1.3,0.1-1.9-0.1c-0.9-0.4-1.2-1.2-1.4-2c-0.1-0.5-0.1-1.1-0.1-1.6c0.4-4.6,2.4-8.7,4-13
	c1.9-5,4.1-9.8,6-14.7c0.2-0.5,0.4-1,0.5-1.5c0.9-2.7,0.7-2.9-2-3.3c-0.6-0.2-1.3-0.2-2-0.1c-1.9,0.6-3.5,1.5-5.1,3
	c-4,3.9-6.2,8.8-8.9,13.5c-3.5,6.3-6.3,13-11.1,18.5c-1.6,1.9-3.7,3.2-6,4c-2.2,0.8-4.5,1.5-6.9,1.5c-0.6,0-1.2,0-1.8-0.1
	c-2.8-0.6-3.4-1.9-2-4.5c2-3.7,4.9-6.5,7.8-9.4c5-4.9,9.7-10,14.6-15c4.2-4.3,7.7-9.3,11-14.3c0.9-1.4,2.1-2.6,2.4-4.4
	c-1.4,2.2-4.1,3.2-5.4,5.6c-0.4,0.7-1,1.3-1.6,1.9c-4.5,4.1-8.4,8.9-12.3,13.6c-3.3,3.9-6.7,7.8-10.3,11.4
	c-3.7,3.7-7.7,7.3-12.4,9.9c-3.1,1.8-6.1,3.5-9.5,4.7c-1.3,0.5-2.6,0.7-4,0.8c-0.6,0-1.2,0-1.7,0.3
	C206.9,202.5,207.7,202.4,207.9,203z"/>
<path class="st18" d="M162.8,203.3c-1.7-0.1-3.4,0.4-4.7-1.2c-0.2-0.3-1-0.2-1.5-0.2c-3.5,0-7.1,0-10.6,0c-1.2,0-2.4,0-3.1-1.3
	c-0.3-0.5-0.8-0.6-1.2-0.5c-1.9,0.3-4,0-5.4-0.9c-2.4-1.6-4.9-1-7.4-1.6c-0.1,0-0.3,0-0.3-0.1c-1.4-2.5-3.7-0.9-5.6-1.3
	c-0.9-0.2-1.9,0.3-2.7-0.4c-0.5-1.3-1.8-1.1-2.8-1.4c-3.4-0.9-6.9-1-10.2-2.2c-1.1-0.3-2.1-0.1-3.2-0.1c-0.6-0.1-1.2,0.1-1.8-0.1
	c-4.8-0.2-8.2-2.5-9.4-6.1c-0.2-0.7-0.2-1.4-0.2-2.1c0.3-0.5,0-1.2,0.3-1.7c0.3-2.6,1.7-4.8,3.2-6.7c4.1-5.2,9.3-8.9,16.3-9.4
	c1-0.3,2,0.1,3-0.2c7-1.8,14.1-3,21.3-3.9c5-0.6,10.1-1.4,15.2-1.5c1,0,1.9-0.5,2.9-0.4c0.6-0.3,1.3,0.1,1.8-0.3
	c0.6,0,1.1-0.1,1.7-0.1c0.6-0.3,1.3,0.1,1.8-0.3c0.6,0,1.2-0.1,1.8-0.1c0.7-0.3,1.4,0.1,2.1-0.3c10.1-0.9,20.2-2.2,30.3-4
	c0.3-0.6,0.8-0.5,1.4-0.5c5,0.2,10,0.4,14.9-0.3c2.4-0.4,4.8-0.7,7.2-1.4c3.1-0.9,6.3-1.2,9.5-1.7c6.4-1,12.8-0.5,19.3-0.7
	c2.1-0.1,4.1,0.9,6.3,0.9c1,0,1.1,0.8,0.6,1.5c-0.5,0.8-1.3,1.4-2,2c-7,5.9-14.5,11-21.6,16.7c-2.6,2-4.9,4.4-7.1,6.9
	c-2.2,2.6-4.7,5.1-7.5,7.3c-1.5,1.2-2.8,2.6-4.4,3.8c-3.1,2.2-6.2,4.4-9.4,6.3c-3.4,2-7,3.4-10.8,4.3c-3.4,1.1-6.9,1.7-10.4,1.8
	c-4.4,0.1-8.9-0.4-13.2,0.7C165.5,202.7,164.2,203.1,162.8,203.3z"/>
<path class="st0" d="M190.5,199.4c4.1-1,8.1-2.7,11.7-4.9c3.1-1.8,6.2-3.8,8.9-6.1c2.4-2,5-3.8,7-6.4c0.9-1.2,2.2-2.1,3.4-3.1
	c1.5-1.4,2.3-3.3,3.9-4.7c3.4-2.9,6.9-5.8,10.6-8.4c3-2.2,6-4.4,9-6.7c2.5-2,5-4.1,7.4-6.2c0.4-0.4,1-0.7,1.1-1.6
	c-2.3,0.5-4.4-0.7-6.6-0.7c-4.1,0-8.2,0.1-12.2,0c-2.9-0.1-5.7,1.1-8.5,0.9c-2.8-0.1-5.6,0.6-8,1.5c-2,0.7-4.2,0.4-6.2,1.4
	c-1.4,0.7-3.3,0.4-5,0.4c-4,0.1-8,0.4-12-0.2c-0.2,0-0.4,0.1-0.7,0.2c-0.4-0.6-1-0.3-1.5-0.3c-16.2,0.8-32.4,1.1-48.6,2.5
	c-13,1.1-25.9,3-38.6,6.3c-1.3,0.4-2.5,0.9-3.7,1.7c-2.3,1.6-4.8,3-7.6,3.8c-4.8,1.4-8.8,0.1-11.7-4c-2.4-3.4-3.6-7.2-4.7-11.2
	c-1.4-5.2-2.2-10.5-3.2-15.8c-0.2-1-0.1-1.5,1.2-1.7c1.3-0.1,2.7-0.1,4.2-1c-3.5-1.8-7-3.1-8.4-7.3c2.5,0.3,4.8,0.5,7.1,0.7
	c18.9,2.2,37.8,3.6,56.8,4.6c25.4,1.4,50.8,2.1,76.3,2.8c13.7,0.4,27.3,0.8,41,1.2c0.9,0,1.8,0.1,2.7,0.2c0.7,0.1,1.1,0.2,0.4,0.9
	c-0.8,0.8,0,1.1,0.6,1c0.9-0.2,1.8,0.1,2.6-0.2c2-0.6,3.7-0.2,5.5,0.6c0.9,0.4,2,0,2.7,0.9c-3.3,3.7-7,6.8-10.5,10.3
	c-3.3,3.3-6.8,6.2-10.1,9.4c-3,2.9-6.2,5.6-9.2,8.5c-1.4,1.3-3,2.7-4.5,4c-2.4,2-4.8,4.1-7.1,6.3c-2.1,2-4.6,3.7-6.6,5.8
	c-4.2,4.4-9.1,8.1-14.1,11.6c-3.2,2.3-6.3,4.7-9.4,7c-0.2,0.3-0.8,0.1-0.9,0.6c-0.1,0.5-0.4,0.8-0.8,1c-0.3,0-0.7,0.1-1,0.1
	c-1.9,0.3-3.7,1.6-5.8,0.7c-0.4-0.7,0-1.2,0.3-1.8C188.6,202.7,189.7,201.1,190.5,199.4z"/>
<path class="st1" d="M395.5,135.5c0.3-2.3-0.4-4.4-1.1-6.5c-0.4-0.4-1,0.1-1.4-0.3c0.8-1,2-0.6,3.1-0.8c4.4-0.7,8.8-1.2,13.3-1
	c0.8,0,0.9,0.3,1,1.1c0.2,3.5,0.3,7,1,10.5c0.3,1.2-0.4,2.3-0.3,3.5c0.5,6.2,0.4,12.4,0.3,18.6c0,2.6-0.9,5-1.5,7.5
	c-0.4,1.7-0.6,3.6-0.6,5.4c0.1,3.8-0.5,7.5-0.4,11.3c0,2.2-1.4,4.1-1.8,6.3c-0.1,0.8-0.4,1.6-0.6,2.4c-0.4-0.7-0.8-1.1-1.7-1
	c-1.3,0.1-2.6,0-3.9,0c-0.7,0-1.7-0.5-2,0.8c0,0.1-0.5,0.2-0.8,0.2c-4.1-0.3-8,1.2-12.1,0.7c-0.7-0.1-1.6-0.3-1.6,1
	c0,0.7-0.7,0.4-1.2,0.4c-8.8,0-17.6,0-26.4,0c-0.6-0.9-0.2-1.6,0.7-1.8c0.6-0.1,0.9-0.4,1-0.9c3.1-0.3,5.8-1.8,8.5-3.3
	c6.5-3.6,10.9-8.9,13.4-16c1.1-3.1,3-5.8,4.6-8.7c3.1-5.7,6-11.5,8.1-17.6c1.2-3.2,2-6.5,2.3-9.9C395.3,136.6,395.3,136,395.5,135.5
	z"/>
<path class="st0" d="M148.5,476.4c-4.5-7.8-7.7-15.7-8.7-24.4c-0.6-5.1-2.3-9.9-3.7-14.7c-1.3-4.5-2.9-9-3.6-13.7
	c-0.2-1.3-0.2-2.6-0.1-3.9c0.1-1,0.4-2,1.1-2.8c0.5-0.6,1.2-1.1,1.8-1c0.7,0.1,0.5,1.1,0.6,1.7c1.2,7.9,3.8,15.5,6.3,23
	c2.4,7.3,4.9,14.5,6.4,22.1C149.5,467.7,149.6,473.1,148.5,476.4z"/>
<path class="st0" d="M118.7,347.5c1.7,2.1,2.9,4.2,3.2,6.3c1.5,9.8,4.6,19.2,7.1,28.7c1.9,6.9,3.6,13.8,3.8,21c0.1,2-0.1,4-0.1,6
	c0,1.1-0.5,1.1-1.2,0.5c-1.6-1.3-2.4-3-3.1-4.9c-1.5-4.5-2-9.2-2.4-13.9c-0.5-6.3-2.5-12.3-3.5-18.4c-1.2-7.2-2.9-14.2-3.9-21.4
	C118.5,350.3,118.4,349.2,118.7,347.5z"/>
<path class="st0" d="M160.3,477c-0.8-0.3-1.3-0.8-1.7-1.5c-9.1-16.9-14.8-34.8-16.3-54c0-0.2,0-0.3,0-0.8c2.1,3.3,3.5,6.6,4.9,10
	c4.3,10.4,6.9,21.3,9.5,32.2C158,467.5,159.2,472.2,160.3,477z"/>
<path class="st19" d="M246.1,493.9c-1.5,0.8-2.8,1.1-4.1,1c-13.3-0.6-26.6-1.1-39.8-3.2c-3.1-0.5-6.1-1-9.2-2.3
	C195.8,488.2,242.6,492.2,246.1,493.9z"/>
<path class="st19" d="M264.7,495.2c1.8-1.5,4-1.7,6.1-2c7.6-1.1,15.2-1.4,22.8-1.8c4.7-0.2,9.3-0.4,14.1-0.6c-0.2,1.4-1.3,1.7-2.2,2
	c-2.4,0.8-5,0.9-7.5,1.1c-7.4,0.4-14.8,0-22.1,0.7C272.1,495,268.5,495.5,264.7,495.2z"/>
<path class="st19" d="M403.2,232.9c-1-3.6-1-7.3-0.8-11c0.4-6.1,1.2-12.2,1.9-18.3c0-0.4,0-0.7,0.2-1c0.1-0.2,0.4-0.5,0.6-0.5
	c0.4,0,0.4,0.4,0.5,0.6c0.1,0.5,0.3,1,0.3,1.6C406.1,213.9,405,223.4,403.2,232.9z"/>
<path class="st19" d="M108.5,306.3c2.8,8.2,4.5,16.7,4.8,25.6c-1.9-0.5-2.3-1.8-2.5-3.1c-0.3-1.5-0.5-3-0.6-4.6
	c-0.3-4.7-2-9.2-2.2-14c-0.1-1.3-0.1-2.5-0.2-3.8C108,306.4,108.3,306.3,108.5,306.3z"/>
<path class="st20" d="M139.9,406c-0.2,0.6,0.4,1.6-0.4,1.8c-0.7,0.2-1-0.9-1.3-1.5c-1.3-2.8-2-5.7-2.5-8.8c-0.1-0.5-0.2-1.1,0.3-1.3
	c0.6-0.2,0.9,0.5,1.1,0.9C138.8,399.8,139.7,402.8,139.9,406z"/>
<path class="st21" d="M102.8,288.5c-1-1.9-1.8-3.5-1.7-5.5c0-0.9,0.4-1.7,1.3-1.9c1-0.2,1.7,0.5,2,1.4
	C105.2,284.8,104,286.5,102.8,288.5z"/>
<path class="st22" d="M252.8,493c0.9,0.3,2.4-0.1,2.4,1.4c0,1.1-1,2-2.1,2.3c-0.8,0.2-3.2-1.6-3.1-2.2
	C250.3,492.9,251.7,493.3,252.8,493z"/>
<path class="st23" d="M399.1,206.1c0-1-0.2-2,1.1-2.7c0.7-0.3,0.5-1.4,0.6-2.1c0.1-1.2,0.6-1.4,1.6-1.2c0,0.9,0,1.9,0,2.8
	c0,0.6,0.1,1.2-0.9,1.1c-0.6-0.1-0.5,0.4-0.6,0.8C400.7,205.9,400.2,206.4,399.1,206.1z"/>
<path class="st24" d="M385.5,430.7c-0.5-2.2-0.5-4.5,0-6.7C385.5,426.2,385.5,428.4,385.5,430.7z"/>
<path class="st25" d="M313.8,131.1c2.3-0.5,4.5-0.5,6.8,0C318.4,131.1,316.1,131.1,313.8,131.1z"/>
<path class="st26" d="M93.9,211.9c1.5,0.9,0.7,2,0.5,3.1C94.3,214,94.1,212.9,93.9,211.9z"/>
<path class="st27" d="M397.7,208.2c0.1-0.3,0.4-0.3,0.7-0.4c0,1.1,0,2.2,0,3.3c-0.1,0-0.2,0-0.2,0
	C397.8,210.2,398.4,209.1,397.7,208.2z"/>
<path class="st15" d="M276.2,489.4c1.2,0,2.4,0,3.6,0c-1.2,0.4-2.4,0.3-3.6,0.2C276.2,489.5,276.2,489.4,276.2,489.4z"/>
<path class="st28" d="M142.7,402.3c1,0,2.1,0,3.1,0C144.8,402.8,143.7,402.8,142.7,402.3z"/>
<path class="st29" d="M270.9,489.4c1.1,0,2.1,0,3.2,0c0,0.1,0,0.2,0,0.2c-1.1,0-2.1,0-3.2,0c-0.1-0.1-0.1-0.1-0.1-0.2
	C270.8,489.4,270.8,489.4,270.9,489.4z"/>
<path class="st30" d="M242.8,489.4c1.1,0,2.2,0,3.2,0c0,0.1,0,0.2,0,0.2C244.9,489.7,243.8,489.8,242.8,489.4z"/>
<path class="st7" d="M286.9,139c-1,0.6-2.1,0.2-3.2,0.3C284.7,138.9,285.8,138.9,286.9,139z"/>
<path class="st31" d="M104,192c1.1,0,2.2-0.4,3.2,0.3c-1.1,0-2.2,0-3.2,0C104,192.1,104,192,104,192z"/>
<path class="st32" d="M272.3,139.7c-1.1,0.6-2.2,0.2-3.3,0.2C270.1,139.6,271.2,139.7,272.3,139.7z"/>
<path class="st33" d="M286.8,489.3c0.9-0.6,1.9-0.2,2.9-0.3C288.8,489.4,287.8,489.3,286.8,489.3z"/>
<path class="st34" d="M398.7,218.6c-0.6-0.9-0.2-1.9-0.3-2.9C398.8,216.6,398.7,217.6,398.7,218.6z"/>
<path class="st35" d="M279.4,139.6c-1,0-1.9,0-2.9,0C277.5,139.4,278.5,139,279.4,139.6z"/>
<path class="st36" d="M298.7,138.3c-0.9,0.7-1.9,0.2-2.9,0.3C296.7,138.2,297.7,138.2,298.7,138.3z"/>
<path class="st37" d="M394.2,311.3c0-1-0.4-1.9,0.3-2.8C394.5,309.4,394.6,310.4,394.2,311.3z"/>
<path class="st38" d="M115.3,165.7c-0.9,0.5-2,0.2-3,0.2C113.3,165.4,114.3,165.8,115.3,165.7z"/>
<path class="st39" d="M385,415.8c0-1,0-1.9,0-2.9c0.4,0.9,0.3,1.9,0.2,2.9C385.1,415.8,385,415.8,385,415.8z"/>
<path class="st40" d="M385.6,422.9c-0.6-0.9-0.2-1.9-0.3-2.9C385.7,420.9,385.6,421.9,385.6,422.9z"/>
<path class="st41" d="M385.3,434.2c0.1-0.9-0.4-1.9,0.3-2.8C385.6,432.3,385.7,433.3,385.3,434.2z"/>
<path class="st38" d="M292.6,138.7c-0.8,0.6-1.7,0.2-2.6,0.2C290.8,138.5,291.7,138.6,292.6,138.7z"/>
<path class="st42" d="M393.5,326.6c0-0.9-0.3-1.8,0.3-2.6C393.8,324.9,393.9,325.8,393.5,326.6z"/>
<path class="st43" d="M313.2,137.2c-0.8,0.6-1.7,0.1-2.5,0.3C311.5,137.1,312.3,137.2,313.2,137.2z"/>
<path class="st43" d="M303.6,137.9c-0.8,0.6-1.7,0.1-2.5,0.3C301.9,137.8,302.8,137.9,303.6,137.9z"/>
<path class="st44" d="M92.9,197.9c-1,0.2-0.6,1-0.7,1.6c-0.3-0.6-0.5-1.2-0.2-1.8C92.1,197.4,92.6,197.6,92.9,197.9z"/>
<path class="st45" d="M381.7,454.5c0-0.8,0-1.6,0-2.5C382.3,452.8,382.2,453.7,381.7,454.5z"/>
<path class="st13" d="M300,488.5c0.8-0.6,1.7-0.2,2.6-0.3C301.7,488.7,300.9,488.6,300,488.5z"/>
<path class="st46" d="M229,488.6c0.8,0.1,1.7-0.4,2.5,0.3C230.6,489,229.8,489,229,488.6z"/>
<path class="st47" d="M294.7,488.9c0.8-0.6,1.7-0.2,2.5-0.3C296.4,489.1,295.5,489,294.7,488.9z"/>
<path class="st42" d="M234.7,489c0.8,0.1,1.7-0.4,2.5,0.3C236.3,489.3,235.5,489.4,234.7,489z"/>
<path class="st48" d="M393.8,319.8c0-0.8-0.3-1.7,0.3-2.5C394.1,318.2,394.2,319,393.8,319.8z"/>
<path class="st7" d="M248.2,489.4c0.8,0,1.7,0,2.5,0c0,0.1,0,0.2,0,0.2c-0.8,0-1.7,0-2.5,0C248.2,489.5,248.2,489.4,248.2,489.4z"/>
<path class="st43" d="M395.2,259.8c-0.5-0.7-0.5-1.4,0-2.1C395.2,258.3,395.2,259.1,395.2,259.8z"/>
<path class="st49" d="M394.5,303.9c0-0.7-0.3-1.5,0.3-2.2C394.8,302.4,394.9,303.2,394.5,303.9z"/>
<path class="st50" d="M389.9,361.1c0.1-0.7-0.3-1.5,0.3-2.2C390.3,359.6,390.3,360.4,389.9,361.1z"/>
<path class="st51" d="M389.6,366c0-0.7-0.3-1.5,0.3-2.1C389.9,364.6,390,365.3,389.6,366z"/>
<path class="st47" d="M95.8,194.3c-0.7,0-1.4,0-2.1,0.1C94.4,193.7,95.1,194,95.8,194.3z"/>
<path class="st11" d="M384.9,403c0.1-0.7-0.4-1.5,0.3-2.2C385.3,401.6,385.3,402.3,384.9,403z"/>
<path class="st38" d="M307.8,137.6c-0.6,0.6-1.4,0.2-2.1,0.2C306.4,137.5,307.1,137.5,307.8,137.6z"/>
<path class="st52" d="M328.8,131.1c0.7-0.6,1.4-0.2,2.1-0.3C330.2,131.2,329.5,131.2,328.8,131.1z"/>
<path class="st53" d="M324.9,131.4c0.7-0.6,1.4-0.2,2.2-0.2C326.3,131.6,325.6,131.5,324.9,131.4z"/>
<path class="st54" d="M334.1,135.5c-0.6,0.6-1.4,0.1-2.1,0.3C332.7,135.4,333.4,135.4,334.1,135.5z"/>
<path class="st29" d="M330.2,135.8c-0.7,0.6-1.5,0.2-2.2,0.3C328.7,135.7,329.5,135.8,330.2,135.8z"/>
<path class="st55" d="M326,136.2c-0.6,0.6-1.4,0.1-2.1,0.3C324.5,136.1,325.2,136.1,326,136.2z"/>
<path class="st56" d="M332.9,486.1c0.7-0.6,1.4-0.2,2.2-0.3C334.4,486.2,333.7,486.1,332.9,486.1z"/>
<path class="st50" d="M320.6,487.1c0.6-0.6,1.4-0.2,2.1-0.3C322,487.2,321.3,487.2,320.6,487.1z"/>
<path class="st57" d="M306.4,488.2c0.7-0.6,1.4-0.2,2.1-0.3C307.9,488.3,307.1,488.3,306.4,488.2z"/>
<path class="st58" d="M163.9,158.9c-0.6,0.6-1.4,0.1-2.1,0.3C162.5,158.8,163.2,158.8,163.9,158.9z"/>
<path class="st56" d="M248.2,489.4c0,0.1,0,0.2,0,0.2c-0.7,0-1.4,0-2.1,0c0-0.1,0-0.2,0-0.2C246.7,489.4,247.4,489.4,248.2,489.4z"
	/>
<path class="st59" d="M250.6,489.6c0-0.1,0-0.2,0-0.2c0.7,0,1.5-0.4,2.1,0.2C252.1,489.6,251.3,489.6,250.6,489.6z"/>
<path class="st60" d="M400.5,243.8c-0.6-0.7-0.4-1.4,0-2.1C400.5,242.4,400.5,243.1,400.5,243.8z"/>
<path class="st61" d="M274.1,489.6c0-0.1,0-0.2,0-0.2c0.7,0,1.4,0,2.1,0c0,0.1,0,0.2,0,0.2C275.5,489.6,274.8,489.6,274.1,489.6z"/>
<path class="st62" d="M374.6,131.2c-0.5,0.6-1.2,0.1-1.7,0.3C373.4,131.1,374,131.1,374.6,131.2z"/>
<path class="st63" d="M383.5,130.1c-0.5,0.6-1.1,0.2-1.7,0.3C382.3,130,382.9,130.1,383.5,130.1z"/>
<path class="st64" d="M392.3,129.1c-0.5,0.6-1.2,0.2-1.8,0.3C391.1,129,391.7,129,392.3,129.1z"/>
<path class="st65" d="M393.1,128.6c0.4,0.2,1-0.2,1.4,0.3c-0.6,0-1.2,0-1.8,0C392.8,128.9,393,128.8,393.1,128.6z"/>
<path class="st66" d="M399.1,223.5c-0.6-0.5-0.2-1.2-0.3-1.8C399.2,222.3,399.1,222.9,399.1,223.5z"/>
<path class="st67" d="M385,415.8c0.1,0,0.2,0,0.2,0c0,0.6,0,1.2,0,1.7C384.6,417,385,416.4,385,415.8z"/>
<path class="st68" d="M398.1,211.2c0.1,0,0.2,0,0.2,0c0,0.6,0,1.1,0,1.7C397.8,212.4,398.1,211.7,398.1,211.2z"/>
<path class="st69" d="M92.9,182c-0.1,0.6,0.3,1.2-0.3,1.7C92.5,183.1,92.4,182.5,92.9,182z"/>
<path class="st70" d="M156.5,159.6c-0.5,0.6-1.2,0.1-1.8,0.3C155.3,159.5,155.9,159.6,156.5,159.6z"/>
<path class="st71" d="M160.1,159.3c-0.5,0.6-1.2,0.1-1.8,0.3C158.8,159.2,159.4,159.2,160.1,159.3z"/>
<path class="st72" d="M395.6,290.6c0.2-0.5-0.4-1.2,0.3-1.7C395.9,289.5,396,290.1,395.6,290.6z"/>
<path class="st73" d="M310.3,487.8c0.6-0.5,1.1-0.4,1.7,0C311.5,487.8,310.9,487.8,310.3,487.8z"/>
<path class="st42" d="M223.7,488.3c0.6,0,1.2-0.3,1.8,0.3C224.8,488.6,224.2,488.7,223.7,488.3z"/>
<path class="st74" d="M402.6,200c0.3-0.7,1-0.7,1.6-0.6C403.7,199.8,403.2,200.2,402.6,200z"/>
<path class="st75" d="M317.1,136.9c-0.5,0.6-1.2,0.2-1.8,0.2C315.8,136.8,316.4,136.8,317.1,136.9z"/>
<path class="st76" d="M104,192c0,0.1,0,0.2,0,0.2c-0.6,0.1-1.2,0.1-1.7-0.2C102.8,192,103.4,192,104,192z"/>
<path class="st25" d="M399.4,228.2c-0.6-0.5-0.2-1.1-0.3-1.7C399.5,227,399.5,227.6,399.4,228.2z"/>
<path class="st53" d="M321.3,136.5c-0.5,0.6-1.2,0.2-1.8,0.3C320.1,136.4,320.7,136.5,321.3,136.5z"/>
<path class="st77" d="M337.7,135.1c-0.5,0.6-1.2,0.1-1.8,0.2C336.4,135,337,135,337.7,135.1z"/>
<path class="st78" d="M345.1,134.4c-0.6,0.6-1.3,0.2-1.9,0.3C343.8,134.3,344.5,134.3,345.1,134.4z"/>
<path class="st79" d="M348.7,134c-0.5,0.6-1.2,0.1-1.8,0.2C347.4,134,348.1,134,348.7,134z"/>
<path class="st80" d="M270.9,489.4c0,0.1,0,0.2,0,0.3c-0.6,0-1.1,0-1.7,0C269.7,489.1,270.3,489.4,270.9,489.4z"/>
<path class="st63" d="M358.6,133c-0.5,0.6-1.2,0.2-1.8,0.3C357.4,132.9,358,132.9,358.6,133z"/>
<path class="st81" d="M362.1,132.6c-0.6,0.6-1.3,0.2-1.9,0.3C360.8,132.5,361.5,132.5,362.1,132.6z"/>
<path class="st82" d="M281.5,131.6c0.6,0,1.2,0,1.8,0C282.7,132,282.1,132.1,281.5,131.6z"/>
<path class="st83" d="M328.8,122.7c2.7-0.4,5.4-0.4,8-0.9c2.8-0.5,5.6-0.7,8.3-0.9c3-0.2,5.9-1.2,9-1.2c1.7,0,3.4-0.8,5.1-1.2
	c3.4-0.9,6.7-2,9.8-3.7c3.3-1.9,5.9-4.3,6.8-8.2c0.1-0.5,0.8-0.8,0.6-1.4c-0.4-1.3,0.1-2.6-0.3-3.9c-0.6-1.7-2-2.4-3.7-2.7
	c-2.2-0.3-4.4,0-6.5,0.2c-3.4,0.4-6.6,1.2-9.9,2.2c-0.4,0.1-0.9,0.6-1.2,0c-0.3-0.7,0.4-0.7,0.8-0.8c2-0.5,3.5-2,5.6-2.5
	c1-0.2,1.1-2.3,0.2-3.4c-1.6-1.9-3.8-2.6-6.1-3.3c-0.5-0.1-1.1-0.1-1.3-0.7c0.3,0,0.7,0,1-0.1c1.1-0.2,2.1-0.2,3.2,0
	c3-0.2,5.9-0.8,8.8-1.6c2.5-0.7,4.7-1.8,6.8-3.2c2.5-1.7,3-4.2,1-6.5c-0.8-0.9-1.8-1.6-2.7-2.5c0-0.9,0.8-0.3,1.1-0.7
	c1.5-0.2,2.6-1.2,3.7-2.1c1.2-1,1.7-0.9,2.4,0.5c1,2,1,4.2,1.4,6.3c0.2,0.8-0.2,1.3-0.8,1.9c-2.9,2.8-3.1,7,0.2,10.3
	c2.7,2.6,5.7,3.9,9.2,4.6c0.7,0.1,1.3,0.7,2,0.6c0,1,0,2.1,0,3.1c-1.6-0.2-2.7-1.3-4.1-1.9c-1.9-0.9-3.9-1.5-6.1-1.6
	c-2.9-0.1-4.2,2.1-2.8,4.6c0.9,1.7,1.4,3.7,2.8,5.2c0.5,0.5,0.2,1-0.1,1.4c-1.9,3.2-4.3,5.8-7.6,7.7c-4.8,2.9-10.2,3.8-15.6,4.7
	c-4.9,0.8-9.9,1.2-14.8,2c-4.1,0.7-8.1,1.8-12.2,2.6c-1.4,0.3-2.8,0.5-4.2,0.4c-1.3-0.1-2.6,0.1-3.8,0.4c-0.8-0.3-1.5-0.1-2.3-0.1
	c-1.7,0.1-3.4-0.2-5.1,0.1c-0.6,0.1-1.3,0.1-1.4-0.7c-0.1-0.9,0.8-0.3,1.1-0.5c2.1-1,4.5-0.7,6.6-1.3c1.8-0.5,3.8-0.2,5.5-1.3
	C327.7,122.9,328.2,122.9,328.8,122.7z"/>
<path class="st0" d="M379.2,23.6c0,1.8-0.2,1.9-1.8,1.3c-2.4-1-3.8-3.1-5.5-4.7c-1.7-1.7-3.2-3.7-4.6-5.6c-0.7-0.9-1.8-2.2-1-3.1
	c0.7-0.8,2,0.3,2.8,0.8c3.8,2.4,7.4,5.1,9.6,9.2C379.1,22.1,379.3,22.9,379.2,23.6z"/>
<path class="st84" d="M414.2,86.9c0.1,0.9-0.3,0.9-0.6,0.9c-0.6,0.1-0.7-0.3-0.8-0.7c-0.1-0.5,0.3-0.3,0.5-0.3
	C413.7,86.7,414.2,86.6,414.2,86.9z"/>
<path class="st85" d="M397.7,112.3c0-0.6,0-1.1,0-1.7C398.2,111.1,398.2,111.7,397.7,112.3z"/>
<path class="st83" d="M172.1,321.3c1,0.3,1.1-0.7,1.4-1.2c0.8-1.2,2.3-1.9,2.8-3.4c0.3-0.5,0.9-0.7,1.5-0.9
	c5.2-1.7,10.2-3.7,15.5-5.2c4.2-1.2,8.5-2.1,12.9-2.3c5.5-0.2,10.9,0.7,15.5,4c0.8,0.5,1.6,1.1,2.4,1.5c8.8,4.2,14,11.2,16.5,20.4
	c2.6,9.8,1.3,19-4.9,27.3c-1,1.3-2.1,2.5-3.3,3.5c-6.1,4.7-12.4,8.9-20.3,10c-7.5,1-14.6-0.2-21.4-3.4c-9.2-4.3-16.3-10.7-20.5-20
	c-3.4-7.6-3.4-15.3-0.4-23C170.8,326.3,171.9,323.9,172.1,321.3z"/>
<path d="M224.3,389.8c0.3-3.6,2-6.5,4.2-9.2c3.8-4.5,8.5-7.9,12.9-11.8c0.7-0.6,1.5-1,2-1.7c2.2-3.2,5.5-3.5,8.9-3.6
	c9.2-0.2,17.2,3.1,24.3,8.8c5.7,4.5,10.1,10,12.9,16.8c0.3,0.8,0.7,1.6,0.9,2.5c1.5,4.6,1.3,4.9-2.9,7.6c-3,1.9-6.3,3.5-8.8,6.1
	c-1.6,1.6-3.2,3.3-3.2,5.8c-0.3,0.6,0,1.3-0.3,1.9c-0.2,1.6,0.2,3,0.5,4.5c0.6,2.8-1.1,8-5,8.8c-1.9,0.4-3.7,0-5.5-0.4
	c-3.6-0.8-7-2.4-10.8-2.3c-2.4,0.1-4.5,0.9-6,3c-1.1,1.5-2.4,1.4-4.8,0.1c-3.2-1.8-4.6-4.7-5.4-8.1c-1-4.2-0.9-8.5-1.8-12.6
	c-0.7-3.7-2.6-6.5-5.9-8.4c-1-0.5-2-0.7-3-0.9c-3-0.6-3-0.5-3.2-3.5C224.1,392,224.1,390.9,224.3,389.8z"/>
<path d="M345.5,341.6c-0.5,5-1.9,9.8-4.4,14.1c-1.7,2.8-3.7,5.6-6.1,8c-4,4-8.5,7-13.6,9.3c-3.4,1.6-6.9,2.4-10.6,3
	c-0.4,0.1-0.8,0.2-1.2,0.3c-0.6-0.2-1.2-0.2-1.7,0c-1.2,0-2.4,0-3.6,0c-0.8-0.3-1.7,0.1-2.5-0.3c-7.5-0.6-14.4-3.2-20.9-7
	c-4.6-2.6-8.5-6.1-12-10c-3.8-4.3-6.1-9.5-7.2-15.1c-0.4-2-0.3-4-0.4-6c-0.2-1.1-0.2-2.1,0-3.2c0.4-7.3,3.6-13.5,8.1-19.1
	c5.2-6.6,11.9-11.3,19.6-14.5c3-1.2,6.4-1.5,9.7-1.6c2.1-0.2,4.3-0.2,6.4,0c21,1.6,37.6,15,40.5,37.7
	C345.7,338.7,345.7,340.1,345.5,341.6z"/>
<path d="M172.1,321.3c0.7,1.5,0,2.9-0.5,4.3c-1.2,3.1-2.6,6.2-3.1,9.6c-1.3,8.7,1,16.6,6.3,23.4c8.8,11.1,20.3,16.8,34.7,16.3
	c2.6-0.1,5.1-0.5,7.5-1.4c8.2-3.4,16-7.4,20.7-15.5c8.7-15.2,1.8-36.5-14.1-43.8c-0.4-0.2-0.9-0.4-1.2-0.7
	c-6.2-4.7-13.3-5.1-20.6-4.1c-7.9,1.1-15.4,4-22.9,6.6c-0.8,0.3-1.7,0.5-2.5,0.8c1.3-3,3.8-4.9,6.3-6.7c4.8-3.5,10.2-5.5,16.1-5.9
	c1-0.1,2-0.3,3-0.4c1.3-0.2,2.6-0.2,3.9,0c10.2,0.8,19.7,3.6,27.7,10.1c6.5,5.3,11.3,11.8,13,20.2c0.3,1.5,0.4,3,0.5,4.5
	c0.2,1.3,0.2,2.6,0,3.9c-0.5,4.8-1.6,9.3-3.5,13.8c-2.6,6-6.6,10.8-11.6,14.7c-4.3,3.4-9.4,5.8-14.9,7.1c-3.1,0.7-6.3,1-9.5,1.4
	c-1.5-0.4-3.1,0.1-4.6-0.3c-9.2-0.6-17.2-3.7-24.5-9.5c-7.5-6-12-13.6-13.8-23c-0.5-2.4-0.5-4.9-0.4-7.4c0.3-0.7-0.1-1.5,0.3-2.2
	c0.4-4.6,0.8-9.3,4-13.1C169.3,322.9,170.1,321.3,172.1,321.3z"/>
<path d="M165.7,436c-0.6,0.1-1.3,0.1-1.3-0.7c0-1.1-0.2-2.3,0.9-3c1-0.7,2.1-0.9,3.2-0.8c5,0.6,9.7,2.3,14.6,3.7
	c4.8,1.4,9.6,2.9,14.7,3.1c2.2,0.1,4.3,1.2,6.5,1.5c3.2,0.4,6.5,0.9,9.7,1.3c3.9,0.5,7.8,0.9,11.7,1.4c0.9,0.1,1.8,0.1,2.7,0.1
	c0.2,0.2,0.2,0.4,0,0.6c-2.6,0.2-5.2-0.3-7.8,0.4c-1.2-0.3-2.4-0.1-3.5-0.1c-0.7-0.1-1.4,0.1-2.1-0.1c-0.6,0-1.2-0.1-1.8-0.1
	c-0.7-0.3-1.5,0.1-2.2-0.3c-5.5-0.3-10.8-1.5-16.1-2.6c-4.8-1-9.7-1.9-14.5-2.8c-3.7-0.7-7.5-1.2-11.3-1.5
	C167.8,435.7,166.8,435.8,165.7,436z"/>
<path d="M190.5,199.4c0.4,1.3-0.7,2-1.1,3c-0.5,1.2-1.4,2.4-2.1,3.5c-0.2,0.4-0.6,0.5-1,0.6c-1.5,0.2-3.1,0.1-4.5-0.4
	c-3.1-0.6-6.1-1.4-9.3-1.7c-0.8-0.1-1.6-0.1-2.4-0.2c-0.7-0.3-1.5,0.1-2.2-0.3c-1.7-0.2-3.4,0.2-5-0.7c0.2-0.5,0.6-0.6,1.1-0.7
	c4-1.2,8.1-1.7,12.3-1.4C181.1,201.5,185.9,200.9,190.5,199.4z"/>
<path class="st86" d="M186.7,206.2c0.2-0.1,0.4-0.2,0.5-0.2c0.9,0.3,1.7,0.2,2.6-0.3c1-0.6,2.1-0.2,3.2-0.2
	c-0.4,1.3-1.8,1.8-2.6,2.5c-1.9,1.5-3.9,3-5.6,4.8c-1.7,1.9-3.5,3.9-4.7,6.2c-0.8,1.5-2.5,1.8-3.8,1.9c-1.7,0.2-3.2,0.7-4.7,1.4
	c-0.5,0.2-1,0.6-1.6,0.1c0.1-0.1,0.2-0.2,0.3-0.4c1-1.8,3.1-1.3,4.5-1.9c-1.1,0.2-2.3,0.7-3.4-0.2c1-0.5,1.1-1.6,1.7-2.3
	c2.2-2.3,5-4,7.8-5.3c1.7-0.8,2.8-1.7,3.2-3.5C184.5,207.5,185.3,206.5,186.7,206.2z"/>
<path class="st87" d="M186.7,206.2c-0.9,0.8-1.9,1.6-2.5,2.7c0-1.7-1.5-2-2.5-2.7C183.4,206.2,185.1,206.2,186.7,206.2z"/>
<path class="st88" d="M171.5,219.9c1.3,0,2.6,0,4.2,0c-1.7,1.4-3.8,0.9-5.3,2.2C170.4,221.2,171.1,220.6,171.5,219.9z"/>
<path class="st89" d="M305,299.5c-2.1,0-4.3,0-6.4,0C300.7,299,302.9,299,305,299.5z"/>
<path class="st90" d="M202.7,379.2c1.5,0.1,3.1-0.4,4.6,0.3C205.8,379.4,204.2,379.8,202.7,379.2z"/>
<path class="st91" d="M345.5,341.6c0-1.4,0-2.9,0-4.3C346,338.7,346,340.1,345.5,341.6z"/>
<path class="st92" d="M205.5,303.8c-1.3,0-2.6,0-3.9,0C202.9,303.3,204.2,303.3,205.5,303.8z"/>
<path class="st93" d="M162.1,428.5c-0.1,0.4-0.3,0.6-0.7,0.7c-0.4,0.1-0.7,0-0.7-0.5c0-0.5,0.3-0.5,0.7-0.5
	C161.7,428.2,162.1,428.1,162.1,428.5z"/>
<path class="st56" d="M246.8,342.6c0-1.3,0-2.6,0-3.9C247.3,340,247.3,341.3,246.8,342.6z"/>
<path class="st94" d="M216.9,443.2c1.2,0,2.4-0.4,3.6,0.2c-1.2,0-2.4,0-3.6,0C216.9,443.3,216.9,443.3,216.9,443.2z"/>
<path class="st49" d="M165.7,436c1.1-0.5,2.1-0.4,3.2,0C167.8,436,166.8,436,165.7,436z"/>
<path class="st95" d="M224.3,389.8c0,1.1,0,2.1,0,3.2C223.8,392,223.8,390.9,224.3,389.8z"/>
<path class="st42" d="M261.2,334.7c0,1.1,0,2.1,0,3.2C260.7,336.9,260.7,335.8,261.2,334.7z"/>
<path class="st96" d="M228.2,443.1c0-0.2,0-0.4,0-0.6c0.5,0.1,1,0.2,1.8,0.3C229.3,443.3,228.8,443.1,228.2,443.1z"/>
<path class="st97" d="M301.8,376c0.9-0.1,1.7-0.1,2.5,0.3C303.4,376.2,302.5,376.7,301.8,376z"/>
<path class="st98" d="M164.3,337.2c0.1,0.7,0.1,1.5-0.3,2.2C164.1,338.7,163.7,337.9,164.3,337.2z"/>
<path class="st99" d="M216.9,443.2c0,0.1,0,0.2,0,0.2c-0.7,0-1.4,0.4-2.1-0.3C215.5,443.2,216.2,443.2,216.9,443.2z"/>
<path class="st44" d="M167.9,204c0.7-0.1,1.5-0.1,2.2,0.3C169.3,204.2,168.5,204.7,167.9,204z"/>
<path class="st100" d="M210.8,442.8c0.7-0.1,1.5-0.1,2.2,0.3C212.3,443,211.5,443.4,210.8,442.8z"/>
<path class="st13" d="M307.9,376.3c0.6-0.2,1.2-0.6,1.7,0C309,376.3,308.4,376.3,307.9,376.3z"/>
<path class="st101" d="M275.2,412.9c0-0.7-0.2-1.3,0.3-1.9C275.3,411.7,275.8,412.4,275.2,412.9z"/>
<path class="st83" d="M375.6,50.2c2,4.9,0.5,8.9-2.8,12.6c-3.9,4.4-8.6,7.6-13.5,10.6c-2,1.3-4,2.6-6,4c-0.3,0.2-0.4,0.6-0.8,0.2
	c-0.3-0.3-0.2-0.6-0.1-0.9c0.5-2,1.8-3.5,3.1-4.7c1.9-1.7,3.7-3.6,5.5-5.3c3.1-2.9,6.7-5.3,9.2-8.7c1.6-2.2,3.9-4.1,4.5-7.1
	C374.8,50.8,375.2,50.6,375.6,50.2z"/>
<path class="st102" d="M349.1,36.3c-0.3,4.2-2.2,7.7-4.5,11.1c-1.6,2.4-2.7,5.2-4.5,7.4c-0.7,0.9-1.3,2.8-2.4,2.3
	c-1.2-0.6,0.3-2,0.6-2.9c1.8-5.1,4.1-10,6.8-14.7c0.8-1.5,1.8-2.8,2.7-4.3c0.3-0.4,0.6-0.8,1.2-0.6
	C349.3,35.1,349.2,35.7,349.1,36.3z"/>
<path class="st83" d="M368.1,37.3c-1.8,4.2-5.2,7-8.8,10.2c0.8-5.5,3.3-10.1,4.3-15.1c0.3-0.5-0.1-1.3,0.8-1.4
	c1.2,1.3,3.3,1.8,3.7,3.8C367.9,35.6,367.9,36.5,368.1,37.3z"/>
<path class="st103" d="M341.7,75.9c0.2,1.7-0.9,3.7-2.3,4c-0.7,0.2-1.2-0.2-1.6-0.7c-0.3-0.5-0.1-0.9,0.3-1.2
	C339.2,77.1,340.2,75.9,341.7,75.9z"/>
<path class="st104" d="M358.3,90.2c-1.1,0-2.1,0-3.2,0C356.1,89.7,357.2,89.7,358.3,90.2z"/>
<path class="st105" d="M373.2,75.8c-0.2,0.6-1,0-1.1,0.7c-0.3,0-0.6,0-0.7-0.3c-0.2-0.5,0.2-0.4,0.5-0.4
	C372.3,75.7,372.7,75.8,373.2,75.8z"/>
<path class="st106" d="M368.1,37.3c-0.5-0.8-0.5-1.6,0-2.5C368.1,35.6,368.1,36.5,368.1,37.3z"/>
<path class="st107" d="M350.8,90.2c0.1-0.2,0.3-0.4,0.4-0.6c0.4-0.2,0.7,0.2,1,0.3C351.8,90.6,351.2,90.1,350.8,90.2z"/>
<path class="st108" d="M349.1,36.3c0-0.6,0-1.1,0-1.7C349.6,35.1,349.5,35.7,349.1,36.3z"/>
<path class="st109" d="M364.5,31c-0.6,0.2-0.3,1.1-0.8,1.4C363.7,31.8,363,30.8,364.5,31z"/>
<path class="st110" d="M336.3,105.9c-1.7,1.9-3.9,3.1-6,4.5c-2,1.3-4.2,2.4-6.3,3.6c-1,0.6-2.1,0.8-3.1,0.2c0.6-0.8,1.1-1.7,2-2.1
	C327.3,109.8,331.4,107.2,336.3,105.9z"/>
<path class="st111" d="M347.2,102.8c0.7,1-0.4,1.2-0.8,1.3c-1.4,0.5-2.9,0.8-4.4,1.1c-0.8,0.2-1.2-0.4-1.3-1.1
	c-0.1-0.8,0.7-0.7,1.1-0.7c0.8,0,1.5-0.3,2.3-0.6C345.1,103,346.2,103,347.2,102.8z"/>
<path class="st48" d="M315.3,126.5c1.7-0.7,3.5-0.2,5.3-0.2c0,0.1,0,0.2,0,0.2C318.8,126.5,317.1,126.5,315.3,126.5z"/>
<path class="st41" d="M376.1,101.3c0.6,1.3,0,2.6,0.3,3.9C375.7,103.9,376.1,102.6,376.1,101.3z"/>
<path class="st100" d="M347.2,102.8c-1,0.5-2.1,0.4-3.1,0C345.1,102.8,346.2,102.8,347.2,102.8z"/>
<path class="st112" d="M320.6,126.5c0-0.1,0-0.2,0-0.2c0.7-0.1,1.5-0.2,2.2,0.2C322,126.5,321.3,126.5,320.6,126.5z"/>
<path class="st113" d="M328.8,122.7c-0.5,0.6-1.1,0.3-1.6,0C327.7,122.7,328.2,122.7,328.8,122.7z"/>
<path class="st114" d="M302.1,230.6c-1.4,0.2-2.9,0.5-4.3,0.7c-0.5,0.4-1.2-0.1-1.8,0.3c-0.7,0.7-1.7-0.3-2.5,0.4
	c-0.5,0.4-1.2-0.1-1.8,0.3c-0.1,0-0.2,0-0.4,0c-0.5,0.4-1.2-0.1-1.8,0.3c-2.9,0.6-5.9,0.8-8.7,1.8c-1,0.4-2.3,0.1-3.4-0.6
	c-2.1-1.4-4.3-1.7-6.6-0.3c-0.4,0.2-1,0.1-1.6,0.2c-0.9,0.3-1.9,0.3-2.8,0c-2.8-0.4-5-1.9-7.1-3.6c-1.1-0.3-1.4-1.4-2-2.2
	c-1.2-2-2-4.1-2.3-6.4c-0.1-0.5-0.1-1-0.1-1.5c-1-7.1,2.6-14.4,9.7-15.9c1.1,0,2.2,0,3.3,0c5.1,0.3,5.9,3.4,4.5,7.9
	c-0.9,2.9-2.1,5.6-3.6,8.3c-0.8,1.5-1.4,3.1-1.8,4.8c-0.1,0.7-0.2,1.4,0.2,2c0.6,0.9,1.3,1.5,2.4,1.8c1.1,0.3,2.2,0.1,3.3,0.1
	c0.3,0,0.6-0.1,0.9-0.2c0.5-0.1,1,0,1.5-0.3c0.1-0.1,0.2-0.2,0.3-0.3c0.2-0.7,0-1.5,0-2.2c-0.1-1.1,0.2-2.3,0.3-3.4
	c0.1-1.2,0-2.4,0.1-3.5c0-0.6,0.2-1.1,0.3-1.7c0.1-0.5,0.1-1.1,0.1-1.6c0.5-3.7,1.1-7.4,3.4-10.6c1.1-1.5,2.3-2.6,4-3.3
	c0.6-0.2,1.1-0.5,1.6-0.8c0.3-0.1,0.5-0.1,0.8-0.1c1,0.2,2,0.1,3,0.1c0.4,0,0.7,0,1.1,0c1.6,0.3,3.2,0.9,4.8,1.3
	c1.4,0.4,2.2,1.3,2.5,2.7c0.9,3.3,1.5,6.7,3.2,9.7c2.2,4,5,7.3,9.7,8.4c1.7,0.4,3.4,0.2,5.1,0.2c1.8,0,3.6,0,5.4,0
	c4.9-0.5,7.7-3.6,9.2-8c1-2.9,2-5.9,2.9-8.9c0.8-2.6,1.8-4.9,3.8-6.8c1.3-1.2,2.9-1.7,4.5-2.4c0.3-0.1,0.5,0,0.8,0
	c1.1,0.3,2.1-0.1,3.1-0.4c1-0.4,2.1-0.4,3.1-0.5c1.3,0,2.6-0.1,3.9,0c0.6,0.1,1.2,0.4,1.8,0.5c1.2,0.2,1.6,1,1.6,2.1
	c-0.2,0.7,0.1,1.5-0.3,2.1c-0.7,1.5-1.5,2.9-2.5,4.2c0.3,1-0.6,1-1.1,1.4c-6.6,6-13.8,11-21.7,15.2c-3.3,1.7-6.8,3.1-10.4,4.1
	c-5,1.5-10.1,2.8-15.3,3.8c-0.3,0.1-0.6,0-0.9,0C303.4,230.7,302.7,230.2,302.1,230.6z"/>
<path class="st83" d="M290.4,201.8c-0.3,0-0.7,0-1,0c-1-0.4-2.2,0.1-3.2-0.3c-0.2,0-0.5,0-0.7,0c-0.9,0.5-1.8,0.4-2.8,0.5
	c-13.9,0.6-27.9,0.7-41.8,0.2c-10-0.4-20,0.5-30,0.2c-0.9,0-1.8,0-2.6,0.4c-0.1,0-0.2,0.1-0.4,0.1c-0.7-0.2-1.9-0.1-1.9-1
	c0-1.2,1.3-0.9,2-0.9c4.1,0,7.4-1.9,10.8-3.7c3.3-1.8,6.5-3.9,9.4-6.5c3.3-2.9,6.5-5.8,9.4-9c1.4-1.5,2.7-3.3,4.2-4.7
	c1-1,2.3-2.2,3-3.7c0.5-1.1,1.7-1.9,2.5-2.8c1.3-1.3,2.6-2.7,3.6-4.1c2.3-3.2,5.9-5,7.8-8.5c0.6-1.2,2-1.8,2.9-2.7
	c0.7-0.7,1.2-1.4,1.8-2.1c0.3-0.3,0.5-0.9,1.1-0.6c0.6,0.3,0.2,0.8,0.1,1.2c-0.7,2.1-2.3,3.8-3.5,5.6c-2.4,3.7-5.1,7.2-7.9,10.5
	c-1.2,1.4-2.5,2.8-3.8,4.1c-4.8,4.7-9.5,9.6-14.1,14.4c-2.4,2.5-4.9,5-6.6,8.1c-0.4,0.7-0.7,1.5-0.8,2.3c-0.2,1.7,1.2,1.4,2.1,1.8
	c0.7,0.2,1.4,0.2,2.2,0c4.3-0.4,8.4-1.6,11.6-4.5c2-1.9,3.6-4.3,5.1-6.7c2.3-3.8,4.1-7.8,6.3-11.6c1.6-2.9,3-5.9,4.7-8.8
	c1.3-2.1,3-3.9,4.7-5.8c1.5-1.7,3.3-2.5,5.3-3.1c0.7,0.3,1.4,0,2.1,0.2c3,0.2,3.4,0.8,2.4,3.6c-1.3,3.5-2.8,6.9-4.2,10.4
	c-1.9,4.7-4,9.3-5.4,14.2c-0.4,1.5-0.8,3-1.1,4.5c-0.2,0.6-0.2,1.2,0,1.8c0.4,0.6,0.5,1.4,1.2,1.8c0.7,0.2,1.4,0.2,2.1,0
	c2.1-0.7,4-1.7,5.8-3.1c0.4-0.3,0.7-0.6,0.8-1.1c0.6-2.9,1.2-5.9,1.8-8.8c1.3-6.2,3.1-12.3,4.8-18.4c1.4-4.8,3-9.4,4.7-14.1
	c0.6-1.7,1.1-3.5,2.4-5c1.1,0.9,0.9,2.3,1.4,3.5c-0.2,1.3-0.2,2.6,0,3.9c-0.8,4.2-1.6,8.3-3.2,12.3c-2.2,5.6-4,11.3-5.5,17
	c-0.2,0.9-0.1,1.8-0.2,2.7c-0.2,0.8-0.2,1.7,0,2.5c0.5,2.8,1.3,5.4,3.4,7.4c1.4,1.4,3.1,2.2,5.1,2.5c0.4,0.1,0.8,0.2,1.1,0.4
	c0.7,0.2,1.4,0.2,2.2,0c3.6-0.5,5.4-3.2,7.1-5.9c0.5-0.8,1.2-1.5,1.9-1.5c0.8,0,1.2,1,1.4,1.8c0.2,0.9,0.9,1.8,0.9,2.7
	c0.1,1.5,1.2,1.6,2.1,1.6c3.2,0,6.3,0.2,9.5-0.7c2.1-0.6,4.1-1,6-2c0.2-0.1,0.4-0.3,0.4-0.5c0.6,0.2,0.9-0.4,1.4-0.4
	c1.9-1.5,1.7-2.8-0.5-3.9c-0.8-0.4-1.7-0.5-2.7-0.7c1.1-1.9,2.9-2.5,4.4-2.1c3.5,1,4,3.9,3.6,7c3.4,0.4,6.7,0.8,10,1.2
	c0.7-0.3,1.5-0.1,2.2-0.1c1.3,0.1,2.6-0.1,3.8,0.1c4-0.2,7.9-0.3,11.8-1.7c0.9-0.3,2-0.5,2.9-0.5c0.6,0,0.5-0.6,0.9-0.7
	c0,0.4,0.2,1-0.5,1c-1.2,0-1.2,0.9-1.2,1.7c0,0-0.1,0.1-0.1,0.1c-1.2,0.9-2.6,1.2-4.1,1.2c-1.2,0-2.5-0.2-3.7,0.2
	c-0.3,0.1-0.5,0.2-0.8,0.3c-0.9,0.2-1.8,0.3-2.8,0.5c-1.1,0-2.1,0.5-3.2,0.3c-0.2,0-0.5,0-0.7,0c-1.8,0.4-3.6,0.5-5.4,0.5
	c-9.6,0-19.2,0-28.9,0c-1.4,0-2.6,0.1-3.8,1c-1.3,0.9-3.1,1.2-4.8,1.2c-1.8,0-3.7,0-5.5,0C292,200.6,291.1,200.9,290.4,201.8z"/>
<path class="st86" d="M208.3,202.9c0.4-0.7,1-1.1,1.9-1c9.2,0.3,18.4-0.8,27.6-0.3c11.9,0.6,23.8,0.2,35.6,0.2c4,0,8-0.3,12-0.2
	c-0.4,1.2-1.8,0.9-2.7,1.5c-2.2,1.4-3.4,3.5-4.3,5.7c-0.9,2.2-1.4,4.6-1.6,7c-0.3,0.6-0.3,1.2,0,1.8c-0.1,0.5-0.2,0.9-0.4,1.4
	c-0.3,1.3-0.3,2.6,0,3.9c-0.2,1.2-0.5,2.3-0.4,3.5c-0.4,0.8,0.1,1.7-0.3,2.5l0,0c-0.5,0.4-1.2-0.1-1.8,0.4c-0.2,0.1-0.5,0.2-0.7,0.4
	c-1.3-0.5-2.6,0.1-3.9-0.3c-1.3,0-1.9-1-2.5-1.8c-0.4-0.8,0.1-1.7-0.3-2.5c1.7-4.9,4.6-9.3,6-14.4c0.9-3-0.4-4.8-4.3-5.9
	c-1.3-0.3-2.6-0.3-3.9,0c-2.7,0.6-5,2.3-6.5,4.4c-1.5,2.1-2.7,4.7-2.5,7.6c0.1,1.1-0.6,2.2,0.1,3.2c-0.3,0.6-0.3,1.2,0,1.8
	c0.5,3.2,2,5.9,3.9,8.5c-1.3,2.6-4,1.4-5.7,2c-0.5-4.8-2.2-9.3-3.1-14c0.3-0.7,0.3-1.4,0-2.2c0.1-2.7,0-5.4,2.3-7.5
	c0.4-0.4,0.7-0.9-0.3-1.6c-2.4-1.7-5-2.4-7.8-2.9c-0.8-0.1-1.6-0.2-2.4-0.4c-0.8-0.3-1.7-0.3-2.5,0c-1.8-0.5-3.6,0-5.3,0
	c-0.7-0.3-1.4-0.3-2.1,0c-3.7,0.3-7.3,1.4-10.8,2.6c-1.9,0.7-3.7,1.8-5.3,3.2c-1.6,1.4-2.8,2.7-3.4,4.8c-1,3.3,0.3,6,2.2,8.5
	c0.7,0.9,1.3,2.1,2.4,2.7c0.3,0.3,1,0.4,0.7,1c-0.9,0.6-1.7,1.4-2.8,1.8c-0.7-0.3-1.4-0.3-2.1,0c-1.7-1.1-3.5-2-4.9-3.6
	c-2.1-2.5-2.8-5.3-2.8-8.5c0.1-4.4,3.2-6.2,6.4-7.8c1-0.5,1.4-1.3,1.4-1.9c0-0.8-0.3-1.8-1.5-2.1
	C210.7,203.8,209.5,203.3,208.3,202.9z"/>
<path class="st115" d="M244,225.3c0,0.5,0.6,1.2-0.5,1.2c-1.4,0-4.3-1.8-4-2.7c0.3-1,1.1-1.7,2.3-1.8C243.2,222,244,223.1,244,225.3
	z"/>
<path class="st116" d="M348.6,196.8c0.2-0.2,0.4-0.6,0.6-0.6c2.6,0,5.1-0.1,7.6-0.7c0,1,0,2.1,0.1,3.1c0,0.5,0,1.1-0.7,1.1
	c-0.2-0.2-0.1-0.5-0.4-0.7c-0.2-1.8-2-1-2.8-1.8C351.5,196.7,350,197.4,348.6,196.8z"/>
<path class="st117" d="M352.2,207.2c0.4-0.5,0.7-1,1.1-1.4C353.7,206.8,353.6,207,352.2,207.2z"/>
<path class="st118" d="M231.8,233.5c-0.9,0-1.9,0-2.8,0c0-0.1,0-0.2,0-0.3c0.9,0,1.9,0,2.8,0c0.1,0.1,0.2,0.1,0.1,0.2
	C231.9,233.4,231.8,233.5,231.8,233.5z"/>
<path class="st119" d="M249.2,235c0.7,0,1.4,0,2.1,0c0,0.1,0,0.1,0,0.2c-0.7,0-1.4,0-2.1,0C249.2,235.1,249.2,235.1,249.2,235z"/>
<path class="st120" d="M266.6,233.8c0.9,0,1.9,0,2.8,0C268.5,234.4,267.6,234.4,266.6,233.8z"/>
<path class="st6" d="M194.1,205.3c0.1-0.5,0.3-0.8,0.8-1c0.4,0.2,0.4,0.6,0.3,0.9C194.9,205.6,194.5,205.4,194.1,205.3z"/>
<path class="st121" d="M219.6,232.6c0.7-0.2,1.3-0.3,2,0C220.9,232.8,220.3,232.9,219.6,232.6z"/>
<path class="st122" d="M355.8,199c0.3,0.1,0.4,0.4,0.4,0.7c-0.1,0.6,0.3,1.3-0.4,1.8C355.8,200.7,355.8,199.8,355.8,199z"/>
<path class="st123" d="M231.8,233.5c0-0.1,0-0.2,0-0.3c0.7,0,1.4,0,2.1,0c0,0.1,0,0.2,0,0.3C233.2,233.5,232.5,233.5,231.8,233.5z"
	/>
<path class="st124" d="M240,203.6c0.8-0.5,1.7-0.6,2.5,0C241.6,203.6,240.8,203.6,240,203.6z"/>
<path class="st125" d="M245.2,234.7c1.1-0.2,1.7-0.2,2.4,0C246.8,235,246.3,234.9,245.2,234.7z"/>
<path class="st126" d="M239.5,234.2c-0.6,0-1.1-0.1-2.1-0.1C238.4,233.8,239,233.7,239.5,234.2z"/>
<path class="st127" d="M217.2,232.1c-0.7,0.5-1.2,0.3-2,0.3C215.9,231.9,216.4,232.1,217.2,232.1z"/>
<path class="st128" d="M225.1,233.1c-0.6,0-1.2,0-1.7,0c0-0.1,0-0.2,0-0.3c0.6,0,1.2,0,1.7,0c0.1,0.1,0.2,0.1,0.1,0.2
	C225.1,233.1,225.1,233.1,225.1,233.1z"/>
<path class="st129" d="M225.1,233.1c0-0.1,0-0.2,0-0.3c0.6,0,1.2,0,1.7,0c0,0.1,0,0.2,0,0.3C226.2,233.1,225.6,233.1,225.1,233.1z"
	/>
<path class="st130" d="M236.7,233.8c-0.4,0-0.9,0-1.6,0C235.8,233.4,236.3,233.5,236.7,233.8z"/>
<path class="st131" d="M232.5,203.6c0.7-0.5,1.4-0.5,2.1,0C233.9,203.6,233.2,203.6,232.5,203.6z"/>
<path class="st132" d="M250.7,216c0.5,0.7,0.5,1.4,0,2.2C250.6,217.5,250.6,216.8,250.7,216z"/>
<path class="st130" d="M213.3,228.1c0.7-0.5,1.4-0.5,2.1,0C214.8,228.1,214,228.1,213.3,228.1z"/>
<path class="st133" d="M210.4,231.5c-0.7,0.2-1.2,0.2-1.8,0C209.2,231.2,209.6,231.3,210.4,231.5z"/>
<path class="st134" d="M291.8,232.4c0.5-0.6,1.2-0.3,1.8-0.3C293.1,232.7,292.4,232.3,291.8,232.4z"/>
<path class="st133" d="M289.7,232.8c0.5-0.6,1.2-0.3,1.8-0.3C291,233,290.3,232.7,289.7,232.8z"/>
<path class="st135" d="M201.7,230.3c0.3,0,0.9,0,0.9,0.1c0.1,0.4-0.3,0.2-0.5,0.2c-0.1,0-0.3-0.1-0.5-0.1
	C201.6,230.4,201.6,230.4,201.7,230.3z"/>
<path class="st130" d="M218.3,226.4c-0.2-0.3-0.5-0.7-0.7-1C218.1,225.5,219,225.4,218.3,226.4z"/>
<path class="st136" d="M302.1,230.6c0.5-0.6,1.2-0.3,1.8-0.3C303.4,230.9,302.7,230.5,302.1,230.6z"/>
<path class="st137" d="M205.2,230.9c-0.7,0-1.1,0-1.5,0C204.1,230.5,204.4,230.6,205.2,230.9z"/>
<path class="st134" d="M207.4,231.2c-0.5,0.2-0.9,0.3-1.3,0C206.5,230.9,206.9,231,207.4,231.2z"/>
<path class="st122" d="M296.1,231.7c0.5-0.6,1.2-0.3,1.8-0.3C297.4,232,296.7,231.6,296.1,231.7z"/>
<path class="st138" d="M178.6,222.6c0.4,0.5,0.2,0.9,0.3,1.4C178.3,223.5,178.6,223.1,178.6,222.6z"/>
<path class="st83" d="M312.8,148.1c2.5,0.8,4.8,2.1,7.1,3.3c3.6,1.9,7.1,3.9,10.9,5.2c1.8,0.6,3.6,1,5.5,1.5c0.7-0.2,1.4-0.2,2.1,0
	c3.6-1.5,6.6,0.2,9.7,1.7c4.2,2.1,8.3,4.4,11.9,7.5c-0.6,1-1.5,0.5-2.2,0.3c-2.8-0.8-5.5-1.9-8.1-3.2c-4.1-2-8.3-3.3-12.6-4.5
	c-2.3-0.7-4.7-0.7-7.1-0.7c-1.1,0-1.3,0.3-0.9,1.4c0.7,2,2.6,2.7,4,3.7c2.8,1.9,5.9,3.5,8.9,5.1c4.3,2.3,9,3.8,13.7,5
	c1.6,0.4,3.4,0.5,5,0.5c1.1,0.3,2.2-0.1,3.2,0.2c2.2-0.6,4.5-0.4,6.5-1.7c0.6-0.4,1.1-0.1,1.4,0.2c0.4,0.3,0.2,1,0.1,1.5
	c-0.4,1.8-3.7,3.8-6.3,3.6c-0.6-0.2-1.2-0.2-1.8,0c-6.8,0.4-13.3-1-19.6-3.6c-8.6-3.5-16-8.7-22.9-14.8c-3.6-3.2-6.9-6.8-10.2-10.3
	c-0.6-0.7-1-1.2-0.1-1.9C311.6,148,312.2,148,312.8,148.1z"/>
<path class="st83" d="M387.8,141.1c0.4,2.7-0.9,5.1-1.8,7.5c-1.3,3.5-3.3,6.7-5.7,9.6c-0.5,0.6-0.9,1.4-2.2,1.4
	c1.9-4,3.4-8,4.9-11.9c0.1-0.3,0-0.6,0-0.9c-0.2-1.1-0.2-2.1,0-3.2c-1-2.2-1.9-4.5-3.6-6.3c-0.4-0.5-0.6-1.1,0.3-1.5
	c1.6-0.7,3.4-0.5,5.1-0.6c1.4-0.1,2.7,1.9,2.9,3.8C388,139.7,388,140.4,387.8,141.1z"/>
<path class="st83" d="M298.3,149.9c0.8-1,1.5-0.7,2.3,0c3,3,5.3,6.4,7.2,10.2c0.9,1.8,1.5,3.6,2,5.6c0.2,0.8-0.3,1.4-0.1,2.1
	c-0.8,0.1-1.3-0.4-1.9-0.8c-3.9-2.7-6.2-6.6-8-10.9c-0.6-1.4-0.9-2.9-1.4-4.3C298.5,151.2,298.5,150.6,298.3,149.9z"/>
<path class="st83" d="M344,151c2.2-0.1,3.8,0.9,5.3,2.4c1,0.9,1.2,1.5-0.4,1.8c-0.2,0-0.4,0.1-0.7,0.1c-1.4-0.3-2.7-0.1-4.1-0.1
	c-0.8,0.1-1.5-0.1-2.3,0.1c-1.2-0.5-2.5-0.4-3.8-0.7c-0.7-0.2-1.7-0.5-1.7-1.3c0-0.5,0.8-1.1,1.4-1.5c1-0.7,2.2-1,3.4-0.8
	C342.2,150.8,343.1,150.8,344,151z"/>
<path class="st102" d="M374.3,161.5c0.2,1.1,0,1.4-0.9,1c-3.9-1.6-6.6-4.4-8.1-8.3c-0.2-0.6-0.3-1.4,0-1.7c0.5-0.5,1.2,0,1.9,0.2
	c1,0.3,1.4,1.1,2,1.7c1.4,1.5,2.9,3,4.3,4.5C374.5,159.9,373.8,160.9,374.3,161.5z"/>
<path class="st139" d="M322.2,193.8c-0.4,0.5-0.7,1.2-1.4,0.4c-0.4-0.4-0.5-0.8,0-1.1C321.5,192.7,321.8,193.3,322.2,193.8z"/>
<path class="st140" d="M344.1,155c1.4,0,2.9-0.3,4.3,0.2c-1.4,0-2.9,0-4.3,0c-0.1-0.1-0.1-0.1-0.1-0.2C344,155,344,155,344.1,155z"
	/>
<path class="st98" d="M288.6,153.8c-0.5-1.3-0.5-2.6,0-3.9C288.6,151.2,288.6,152.5,288.6,153.8z"/>
<path class="st141" d="M343,195.4c-1.3,0-2.6,0-3.9,0c0-0.1,0-0.2,0-0.2C340.4,195.2,341.7,194.8,343,195.4z"/>
<path class="st75" d="M383.1,143.6c0,1.1,0,2.1,0,3.2C382.6,145.7,382.6,144.6,383.1,143.6z"/>
<path class="st105" d="M363.9,175.1c-1.1-0.1-2.2,0.4-3.2-0.2C361.8,174.9,362.9,174.5,363.9,175.1z"/>
<path class="st4" d="M344,151c-0.9,0-1.9,0-2.8,0C342.2,150.5,343.1,150.5,344,151z"/>
<path class="st142" d="M279.7,188.4c-0.5-0.8-0.5-1.7,0-2.5C279.7,186.7,279.7,187.5,279.7,188.4z"/>
<path class="st143" d="M232.2,200.8c-0.7,0.5-1.4,0.5-2.2,0C230.7,200.8,231.5,200.8,232.2,200.8z"/>
<path class="st144" d="M291.5,198.7c-0.7,0.5-1.4,0.5-2.2,0C290,198.7,290.8,198.7,291.5,198.7z"/>
<path class="st145" d="M267,196.9c-0.7,0.4-1.4,0.3-2.1,0C265.6,196.9,266.3,196.9,267,196.9z"/>
<path class="st146" d="M339.1,195.2c0,0.1,0,0.2,0,0.2c-0.7,0-1.4,0-2.1,0C337.6,194.8,338.4,195.2,339.1,195.2z"/>
<path class="st147" d="M387.8,141.1c0-0.7,0-1.4,0-2.1C388.2,139.7,388.3,140.4,387.8,141.1z"/>
<path class="st148" d="M344.1,155c0,0.1,0,0.2,0,0.2c-0.7,0-1.4,0-2.1,0C342.6,154.8,343.3,155,344.1,155z"/>
<path class="st104" d="M338.4,158.1c-0.7,0-1.4,0-2.1,0C336.9,157.6,337.7,157.6,338.4,158.1z"/>
<path class="st108" d="M271.9,160.6c-0.7,0-1.5,0.3-2.1-0.2C270.5,160.4,271.3,160,271.9,160.6z"/>
<path class="st149" d="M263.7,195.1c-0.5-0.6-0.5-1.2,0-1.8C263.7,193.9,263.7,194.5,263.7,195.1z"/>
<path class="st150" d="M363.9,178.7c0.6-0.5,1.2-0.4,1.8,0C365.1,178.7,364.5,178.7,363.9,178.7z"/>
<path class="st97" d="M298.3,149.9c0.5,0.6,0.4,1.3,0,1.9C298.3,151.2,298.3,150.6,298.3,149.9z"/>
<path class="st44" d="M312.8,148.1c-0.6,0.2-1.1,0.2-1.7,0C311.6,147.7,312.2,147.7,312.8,148.1z"/>
<path class="st151" d="M395.5,135.5c0,0.6,0,1.1,0,1.7C395,136.6,395,136,395.5,135.5z"/>
<path class="st152" d="M186.8,157.5c2,0,3.9,0,5.8,0C191.5,158.3,188.1,158.3,186.8,157.5z"/>
<path class="st153" d="M258.3,143.5c-0.3-0.5-0.2-1-0.1-1.6C258.6,142.5,258.5,143,258.3,143.5z"/>
<path d="M185.9,330.8c2.7,0,4.9,1,6.9,2.8c2.2,2,3.7,4.6,4.8,7.3c1,2.5,0.5,4.9-0.9,7.1c-2.9,4.5-6.8,7-12.4,6.3
	c-2.3-0.3-4.6-0.2-6.8-0.8c-5.1-1.5-7.3-5.4-6-10.5C173.1,336.5,179.9,330.8,185.9,330.8z"/>
<path class="st154" d="M273.4,379.6c6,0.3,10.5,4.3,11.6,10.3c1,5.4,1.2,5.2-4.5,6.6c-4.6,1.2-9.3,0.4-13.8-0.5
	c-4.7-0.9-9.5-1.9-14.3-2.2c-4.9-0.3-9.6,0.6-13.8,3.4c-1.2,0.8-2.3,0.9-3.6,0.5c-4-1.3-6.9-3.4-7.7-7.8c0.2-0.6,0.2-1.2,0-1.8
	c0.8-4.5,4-6.6,8-7.7c1.1-0.3,2.3,0.1,3.4,0.5c3.2,1.2,6.5,1.4,9.9,1.4c5.7-0.1,11.1-1.5,16.7-2.2c1.4-0.2,2.8-0.3,4.2-0.4
	C270.8,379.8,272.1,379.8,273.4,379.6z"/>
<path class="st83" d="M274.1,412.2c-0.1,4.5-1.7,7.5-5.2,9.7c-3,1.9-6.4,0.4-7.6-2.4c-1-2.3-1.2-4.8-1.4-7.3
	c-0.2-2.2-0.3-4.4-0.4-6.5c0-2.6,1.4-4.5,3.4-5.8c2-1.2,3.9-0.6,5.6,0.8C272.3,403.8,273.9,407.9,274.1,412.2z"/>
<path class="st83" d="M255.4,410.3c0,2-0.2,3.9-1,5.7c-2,4.8-5.6,5.7-9.4,5.7c-1.7,0-2.6-1.1-2.8-2.8c-0.2-1.7-0.1-3.3,0.4-4.9
	c0.8-3.4,0.5-7,2.1-10.2c0.6-1.3,1.2-2.6,2.2-3.6c1.9-2.1,3.9-2.1,5.6,0.1c1.8,2.3,2.5,5,2.9,7.9
	C255.3,408.9,255.3,409.6,255.4,410.3z"/>
<path class="st155" d="M240.5,377c-0.2,0.3-0.4,0.8-0.9,0.7c-0.3-0.1-0.6-0.5-0.6-0.8c0-0.5,0.5-0.6,0.9-0.5
	C240.3,376.3,240.5,376.5,240.5,377z"/>
<path class="st59" d="M273.4,379.6c-1.3,0.5-2.6,0.5-3.9,0C270.8,379.6,272.1,379.6,273.4,379.6z"/>
<path class="st156" d="M227.3,388c0.4,0.6,0.4,1.2,0,1.8C227.3,389.2,227.3,388.6,227.3,388z"/>
<path class="st83" d="M304.2,305.1c10.3,0.2,19.7,3.1,26.6,11.1c4.3,5,8.1,10.3,9.4,17c2.4,12.3-3.6,25.4-14.6,32
	c-5.7,3.4-11.9,4.8-18.5,4.2c-1.4-0.1-2.7,0-4.1,0.2c-12.4,1.5-21.9-3.6-29-13.4c-8.6-11.8-8.5-27.1,0.3-37.9
	c6.1-7.5,14.2-11.2,23.6-12.7C299.9,305.3,302.1,305.1,304.2,305.1z"/>
<path class="st86" d="M290.4,201.8c-0.2-1.3,0.2-1.9,1.7-1.8c2.4,0.1,4.7-0.1,7.1,0.1c1.4,0.1,2.5-1,3.9-0.8
	c1.7-2.9,4.4-1.3,6.5-1.3c10.6-0.2,21.3,0,31.9,0c-2.1,0.8-4,1.8-5.4,3.6c-1.3,1.7-1.9,3.8-2.6,5.8c-1.4,4-2.3,8.2-4.4,11.9
	c-1.7,2.9-4.4,4.2-7.4,5c-2.1-0.3-4.3-0.3-6.4,0c-4.3,0.6-8-0.8-11.2-3.6c-0.8-0.7-1.4-1.8-2.1-2.7c-2.2-3.1-3.8-6.6-4.4-10.3
	c-0.5-3.1-1.7-4.8-4.8-5.2C292.1,202.4,291.2,202.1,290.4,201.8z"/>
<path class="st157" d="M315.3,224.2c2.1-0.5,4.3-0.6,6.4,0C319.6,224.2,317.4,224.2,315.3,224.2z"/>
<path class="st158" d="M348.6,196.8c1.4,0.3,3-0.3,4.4,0.4c-1.6,0-3.2,0-4.7,0C348.3,197.1,348.4,196.9,348.6,196.8z"/>
<path class="st159" d="M342.3,198c1-0.5,2.1-0.4,3.2-0.3C344.4,197.9,343.4,198.8,342.3,198z"/>
<path class="st160" d="M264.5,204.7c1.3-0.6,2.6-0.6,3.9,0C267.1,204.7,265.8,204.7,264.5,204.7z"/>
<path class="st161" d="M276.5,222.8c-0.5-1.3-0.6-2.6,0-3.9C276.5,220.2,276.5,221.5,276.5,222.8z"/>
<path class="st162" d="M269.5,229.2c1.3,0.1,2.7-0.4,3.9,0.3C272.1,229.4,270.7,230,269.5,229.2z"/>
<path class="st163" d="M286.2,201.5c1.1,0,2.2-0.4,3.2,0.3C288.3,201.7,287.2,202.2,286.2,201.5z"/>
<path class="st164" d="M266.6,224.9c0.7,0.8,0.2,1.6,0.3,2.5C266.3,226.7,266.7,225.8,266.6,224.9z"/>
<path class="st165" d="M275.9,228.9c0.1-0.8-0.3-1.7,0.3-2.5C276.1,227.2,276.5,228.1,275.9,228.9z"/>
<path class="st166" d="M255.6,221.8c-0.5-0.6-0.5-1.2,0-1.8C255.6,220.6,255.6,221.2,255.6,221.8z"/>
<path class="st167" d="M274.1,229.2c0.5-0.6,1.2-0.2,1.8-0.4C275.4,229.4,274.7,229.1,274.1,229.2z"/>
<path class="st168" d="M276.9,217.5c-0.5-0.6-0.5-1.2,0-1.8C276.9,216.3,276.9,216.9,276.9,217.5z"/>
<path class="st6" d="M268.1,170.5c0.3,4.4-1.3,8.4-2.8,12.3c-1.3,3.2-3.1,6.1-4.9,9c-2.1,3.4-5.1,5.6-8.5,7.4
	c-1.1,0.6-3-1.2-3.3-2.8c-0.3-1.7,0.2-3.1,0.9-4.6c2-4.5,4.8-8.5,7.8-12.4c2.9-3.9,5.8-7.8,8.5-11.8c1.1-1.6,1.4-0.7,2,0.1
	C268.4,168.6,268,169.6,268.1,170.5z"/>
<path class="st169" d="M190.6,344.3c0.2,0,0.5,0,0.9,0.1c1.9,0.3,3.3,1.4,3.3,2.7c0,1.1-1.9,3.6-3.1,3.9c-0.1,0-0.2,0.1-0.3,0.1
	c-1.1-0.1-4.3-3.8-4.2-5C187.2,344.9,188.4,344.3,190.6,344.3z"/>
<path d="M286.4,343.1c1.8,1.4,3.6,2.6,5.3,4c2.3,1.9,2.1,3.1-0.7,4c-3.6,1.2-7.3,1.8-11.1,1.1c-6.4-1.3-9.6-5.1-9-11.6
	c0.5-5.7,3.2-10.2,8.1-13.3c3.7-2.4,8-2.1,11.6,0.7c3.7,2.9,6,6.8,7.2,11.3c0.6,2.3-0.3,3.3-2.6,3.2c-1.6-0.1-3.2-0.3-4.8-0.4
	C289.1,342.1,287.8,342.1,286.4,343.1z"/>
<path class="st114" d="M311.7,203.6c0.8,0.5,1.5,0.3,2.4-0.2c3.8-2,7.7-2.8,11.7-0.2c1.4,0.9,1.7,2.3,2.2,3.7
	c0.2,0.4,0.3,0.9,0.4,1.3c0.3,0.8,0.3,1.7,0,2.5c-0.8,2.3-1.3,4.7-3.8,6c-2,1-3.9,1.7-6.1,1.4c-1-0.1-1.9,0-2.9,0.1
	c-1.3,0.2-2.6,0.2-4,0c-1.2-0.6-2.6-0.8-3.7-1.5c-2.7-1.8-4.1-4.3-4.8-7.4c-0.2-0.6-0.2-1.2,0-1.8c0.3-2.3,1.7-3.5,3.9-3.9
	C308.6,203.4,310.2,203.4,311.7,203.6z"/>
<path class="st122" d="M311.7,203.6c-1.6,0-3.1,0-4.7,0C308.6,203.1,310.2,203.1,311.7,203.6z"/>
<path class="st170" d="M311.7,218.2c1.3,0,2.6,0,4,0C314.3,218.8,313,218.8,311.7,218.2z"/>
<path class="st171" d="M328.4,210.7c0-0.8,0-1.7,0-2.5C329,209.1,329,209.9,328.4,210.7z"/>
<path class="st172" d="M303.2,207.5c0,0.6,0,1.2,0,1.8C302.7,208.7,302.7,208.1,303.2,207.5z"/>
</svg>
