<?xml version="1.0" encoding="utf-8"?>
<!-- Generator: Adobe Illustrator 26.5.0, SVG Export Plug-In . SVG Version: 6.00 Build 0)  -->
<svg version="1.1" id="Layer_1" xmlns="http://www.w3.org/2000/svg" xmlns:xlink="http://www.w3.org/1999/xlink" x="0px" y="0px"
	 viewBox="0 0 500 500" style="enable-background:new 0 0 500 500;" xml:space="preserve">
<style type="text/css">
	.st0{fill:#FE3405;}
	.st1{fill:#FE3102;}
	.st2{fill:#FE7D41;}
	.st3{fill:#FE793E;}
	.st4{fill:#FE3303;}
	.st5{fill:#FE8245;}
	.st6{fill:#FE3808;}
	.st7{fill:#FE3707;}
	.st8{fill:#FE6E35;}
	.st9{fill:#FE662E;}
	.st10{fill:#FE6029;}
	.st11{fill:#FE6931;}
	.st12{fill:#FE3B0A;}
	.st13{fill:#FE3D0C;}
	.st14{fill:#FE7339;}
	.st15{fill:#FE5C26;}
	.st16{fill:#FE763B;}
	.st17{fill:#FE5520;}
	.st18{fill:#FE501C;}
	.st19{fill:#FE8548;}
	.st20{fill:#FE4110;}
	.st21{fill:#FE6A32;}
	.st22{fill:#FE672F;}
	.st23{fill:#FE3E0D;}
	.st24{fill:#FE4513;}
	.st25{fill:#FE753B;}
	.st26{fill:#FE5F28;}
	.st27{fill:#FE622B;}
	.st28{fill:#FE5923;}
	.st29{fill:#FE4916;}
	.st30{fill:#FE4412;}
	.st31{fill:#FE5B24;}
	.st32{fill:#FE4815;}
	.st33{fill:#FE4C19;}
	.st34{fill:#FE4D19;}
	.st35{fill:#FE7138;}
	.st36{fill:#FE541F;}
	.st37{fill:#FE5721;}
	.st38{fill:#FE9759;}
</style>
<g>
	<path class="st0" d="M138.9,462.8c-8.6-5.3-16.2-11.8-23.5-18.8c-1.4-7.4,4.5-6.7,8.5-6.9c18.2-0.9,36.5-0.2,54.7-0.6
		c8.9-0.2,17.9,0.6,26.5-2.3c2.2-0.6,4.4-0.7,6.6-0.1c13.9,3.3,27.9,4.6,42.1,4.2c2.2-0.1,4.4,0.3,6.6,1c1.6,0.5,2.9,2.4,4.4,2.2
		c15.9-1.4,31.7,2.8,47.6-0.3c9.1-1.8,18.3-2.8,27.5-0.7c6.9,1.6,13.9,1.4,20.9,0.3c5.3-0.8,10.6-1.2,15.9-0.7c3.3,0.4,7,0.7,7,5.4
		c-6.2,5.1-12.3,10.3-18.5,15.4c-18.5-1.6-37,0-55.5,0c-13.2,0-26.3,0-39.5-0.5c-19-0.6-38.1-0.8-57,1.3c-3.7,0.4-7.2,0.8-10.9,0.2
		c-10.8-1.8-21.7-3.5-32.5,0.5c-2.9,1.1-6.1,0.1-9.2-0.3C153.4,461.2,146.1,460.5,138.9,462.8z"/>
	<path class="st1" d="M341.5,475.6c-32.3,16-66.3,24-102.4,22c-28.3-1.6-55.2-8.6-80.1-22.6c-0.3-5.6,3.8-6.4,7.2-4.9
		c11.1,4.9,22.2,0.7,33.1,0.1c12.9-0.7,25.7,0.2,38.5-0.6c17.3-1.1,34.6,1.4,51.9-0.4c15.7-1.6,31.3-0.1,46.9,2
		C339.1,471.4,341.5,472.2,341.5,475.6z"/>
	<path class="st2" d="M312.6,73.4c6.8,8,13.9,15.8,18.6,25.3c-0.8,2.2-2.6,2.8-4.7,2.8c-25.7-1-51.5,0.2-77.2,0.4
		c-17.1,0.1-34.2,0.6-51.3-0.3c-3.1-0.2-6.2,0.3-8.2-2.9c5.1-9.6,11.1-18.6,17.7-27.2c4-2.6,8.2-0.6,12.3-0.6
		c19.4,0.2,38.7,0.5,58.1-0.7C289.3,69.5,301.3,70.4,312.6,73.4z"/>
	<path class="st3" d="M189.8,98.7c18.5,0.5,36.8,2.8,55.4,0.6c12.1-1.4,24.7-1.1,36.8,0.5c6.4,0.8,11.9-1.6,18.1-0.9
		c10.2,1.1,20.7,0,31-0.1c5.1,5.7,10,11.7,13.6,18.5c-2.4,2.9-5.7,3.5-9.1,3.3c-20.1-1.3-40.1,2.3-60.2,0.2
		c-3.2-0.3-6.1,0.6-8.9,1.9c-9-0.4-10.3-8.8-14.3-13.2c-3.3,5.6-6,12.3-13.7,14.8c-17.3,2.7-34.7-0.8-52.1,1.2
		c-4,0.5-7.8-1.1-10.1-4.8C180.2,112.9,184.7,105.6,189.8,98.7z"/>
	<path class="st4" d="M341.5,475.6c-6.5-3.8-14-3-21.1-3.9c-14.4-1.8-29.1,1.8-43.2,0.3c-14.8-1.5-29.3,1.4-44.1-0.3
		c-14.7-1.7-30-0.8-44.6,1.5c-8.2,1.3-15.4,2.1-23-1.5c-3.3-1.6-5.3,0.4-6.6,3.3c-7.4-2.9-14-7.1-20.1-12.2
		c6.2-8.1,14.5-2.1,21.8-3.3c1.2-0.2,2.9,1.4,4,1c17.2-6.5,34.9,1.9,51.9-2c5.5-1.3,10.5,0,15.6,0c15.2,0.1,30.4-1,45.8,0
		c12.3,0.8,25.1,0.2,37.7-0.4c14.3-0.6,28.8-1.1,43.2-0.5c2.6,0.1,4.9,1.2,6.5,3.4C358.2,467.2,349.9,471.5,341.5,475.6z"/>
	<path class="st5" d="M312.6,73.4c-8.4,1.6-17,1.1-25.3-0.3c-6-1-11.4-1.2-17.2,0.3c-5.9,1.5-12,0.4-18,0.2
		c-14.9-0.4-29.8,1.3-44.6-2.1c5.8-9.9,12.4-19.3,19.6-28.3c18.1-2.9,36.3-2,54.5-2c3.4,0,6.4,2,9.4,3.5
		C298.8,53.9,306.7,63,312.6,73.4z"/>
	<path class="st6" d="M204.9,435.3c-4.7,6.7-11.8,3-17.5,3.4c-14.5,1-29.1,0.6-43.7,0.2c-6.9-0.2-13.7,2.3-20.7,0.4
		c-3.1-0.8-6.8,0.5-7.6,4.8c-9.6-9-18.5-18.6-25.6-29.8c-0.5-4.4,2.6-5.4,5.8-5.2c20.2,1.3,40.2-2.4,60.4-1.8c3.2,0,6,1.2,8.4,3.2
		c11,9.2,23.4,16,36.8,21.1C202.9,432.1,204.9,432.8,204.9,435.3z"/>
	<path class="st7" d="M383.8,445.5c-5.4-6.2-12.8-3.5-18.8-2.8c-10.1,1.2-19.7,0.9-29.8-0.6c-7.5-1.1-16.1-1.5-23.7,1.8
		c-4.1,1.8-8.2,2.3-12.3,1.3c-10-2.5-20.1-1.6-30-0.7c-4.5,0.4-6.8-0.4-8.7-4c0-3.2,2.6-3.3,4.7-3.6c17.7-2,34-8,49.8-15.8
		c2.2-1.1,4.6-2.1,7.2-2.1c22,1.4,44,0.7,66-0.6c5.7-0.3,12.6-2.8,15.8,5.1C398.5,432,392.4,439.9,383.8,445.5z"/>
	<path class="st8" d="M132.6,155.8c3.5,3.9,7.1,7.7,10.5,11.6c4,4.5,7,4.8,9.1-1.7c0.7-2.3,2.1-4.4,3.2-6.5c3.1-2.2,6.8-3.6,10.3-3
		c13.1,2.3,26.2,0.8,39.2,1.1c2,0.1,3.9,0.5,5.2,2.2c-0.1,8.9-10.8,22.3-18.8,23.6c-8.3-1.4-16.6-1.8-25.1-1.5
		c-23.2,0.9-46.4,0-69.7,0.2c-4.2,0-8.5-0.3-11.4-4c2.2-7.2,5.4-14,9.3-20.4C107.2,154.4,119.7,151.9,132.6,155.8z"/>
	<path class="st9" d="M71.6,218.3c1.4-7.5,3.6-14.8,6.7-21.8c18.1-3.3,36.3-1.6,54.4-0.7c13,0.7,25.8-2.3,38.7-1.4
		c3.4,0.2,6.8-0.2,9.5,2.5c0.8,7.8-6.8,19.8-15.1,24c-11.4-1.5-22.9-1.7-34.2-1.1c-17.1,1-34.1-0.9-51.1,0.7
		C77.5,220.6,74.4,220,71.6,218.3z"/>
	<path class="st10" d="M71.6,218.3c15.9-0.3,31.8,0.1,47.6-0.5c12.7-0.4,25.4,1.2,38-0.4c3.8-0.5,6.5,0,8.9,2.7
		c-0.9,10.1-6.4,17.2-14.6,22.7c-24.8-0.6-49.7-1.9-74.5-0.3c-3.8,0.2-7.9,0.9-11-2.4C67.5,232.7,68.8,225.3,71.6,218.3z"/>
	<path class="st11" d="M181.4,198.1c-8.1-3.3-16.6-2-24.7-1.2c-10.6,1-21.4-0.8-31.4,0.5c-13.2,1.7-26.5-5-39.3,1.6
		c-2.8,1.4-5.1-1.6-7.7-2.5c1.4-6.5,3.9-12.6,6.9-18.6c28.2,2.9,56.4,1.4,84.7,1.1c7.4-0.1,16.5-3.1,23.1,4.1
		C190.9,189.4,189.4,196.2,181.4,198.1z"/>
	<path class="st12" d="M404,423.6c-4.6-4.6-10.6-3.7-15.9-2.8c-9.8,1.7-19.5,0-29,0.7c-9.4,0.7-18.6,0.4-28,0.6
		c-3.4,0.1-6.7,0.2-9.8-1.7c-0.4-1.2-0.1-2.2,0.8-3c8.3-6.4,16.6-12.8,24.1-20.1c1.4-1.4,3.4-1.9,5.4-1.8
		c19.6,1.5,39.2,0.9,58.7,0.5c3.4-0.1,8.3-1.8,9,4.3C415.7,409.1,410.9,417,404,423.6z"/>
	<path class="st13" d="M157.9,408.5c-5.4,0.6-10.9,2.1-16.2,1.6c-15.6-1.5-31.1,4.5-46.8,0.5c-2.6-0.7-4.1,1.3-5.1,3.5
		c-6.1-7.9-11.6-16.1-15-25.6c-0.4-4.4,2.9-5.6,5.8-5.4c19.5,1,39.1-2.5,58.4,1.7C147.3,391.2,153.5,399.1,157.9,408.5z"/>
	<path class="st8" d="M370.5,155.9c4.2,5.2,7.7,10.7,10.5,16.7c-2.5,3.9-6.5,4-10.5,4.2c-17.1,0.8-34.3,0.4-51.4-0.3
		c-3.4-0.1-6.7-0.6-9.8,1.3c-0.8,0.3-1.8,0.9-2.3,0.4c-7.8-6.4-15.4-12.9-16.3-23.9c4-3.6,9.1-2.4,13.7-2.6
		c18.5-1.1,37.1,0.5,55.6,0C364,151.6,367.9,152.2,370.5,155.9z"/>
	<path class="st14" d="M370.5,155.9c-3.3-1.8-7-1.7-10.6-1.7c-21.8,0-43.6,0-65.3,0.1c-1.2,0-2.4,1-3.7,1.6
		c-8.2-3.9-14.4-13.2-13.3-20c6.4-5.7,14.3-4.3,21.6-3.6c13.4,1.2,26.7,0.2,40.1-0.5c5.8-0.3,11.8-1.5,17.1,2.2
		C361.3,141.2,366.9,147.9,370.5,155.9z"/>
	<path class="st15" d="M65.9,240c9.7,0.4,19.4-1,29-1.2c11-0.2,22,1.3,33.1,1c8.1-0.2,16.5-1.5,24.4,2c-0.2,7.9-3.7,13.9-10.6,17.8
		c-20-1.6-40-0.5-59.9,0.1c-6.3,0.2-13.6,1.5-18.8-4.3C63.3,250.1,64.2,245,65.9,240z"/>
	<path class="st16" d="M356.4,134.1c-13.3,0.6-26.5,1.3-39.8,1.6c-7.4,0.2-15,0.3-22.3-1c-6.3-1.1-11.6,0.6-17,2.8
		c-7.4-2.3-11.7-7.8-11.8-15.1c4.1-8.4,11.4-3.5,16.9-3.3c9.2,0.3,18.3-1.2,27.2-0.7c8.2,0.5,16.4-2.2,24.5,0.2
		c3.8,1.1,7-1.8,10.7-1.3C349.3,122.4,353.1,128.1,356.4,134.1z"/>
	<path class="st17" d="M58.1,290.7c-0.6-5.8,0.8-11.3,1.8-16.9c1.6-3.5,4.7-3.3,7.9-3.6c17.1-1.4,34.2,0.4,51.2-1.9
		c5.2-0.7,10.6,0.7,15.6,2.6c2.5,7-0.9,17-7.7,22.5c-20-3.5-40.2,1.8-60.2-0.3C63.7,292.8,60.5,293,58.1,290.7z"/>
	<path class="st18" d="M58.1,290.7c14.9-0.2,29.7,1.2,44.7-1.2c7.8-1.2,16.6,0.3,24.6,2.9c1.9,8.2,0.4,15.6-4.8,22.3
		c-10.8-4.6-22.2-2.3-33.2-2.1c-11,0.2-21.9,0.6-32.8-0.1C56.1,305.2,56.4,297.9,58.1,290.7z"/>
	<path class="st19" d="M291,44.8c-18.9-2.5-37.8-1.3-56.7,0c-2.6,0.2-5-0.2-7.2-1.6c9-14.2,19.8-27.1,31.1-40.9
		C269.5,16.9,280.3,30.8,291,44.8z"/>
	<path class="st20" d="M140.3,386.8c-18.9-3.4-38,0-57-1.7c-3.3-0.3-6.8-0.5-8.6,3.5c-3.9-6.3-7.2-12.8-8.5-20.1
		c0.5-5.5,5.2-5.4,8.8-5.7c17.3-1.3,34.7-1.4,52,0.4C134.7,369.2,138.9,377.2,140.3,386.8z"/>
	<path class="st21" d="M307.8,177.9c0.8-5.6,4.3-4.6,8.7-4.3c21.5,1.3,43.1,3,64.5-0.9c4.3,5.9,8.1,12.1,11,18.7
		c-3.8,3.6-8.6,4.1-13.3,3.6c-16.4-1.6-32.8,0.2-49.1-1.2c-3.1-0.3-6.1,0.3-9,1.3C312.7,192,308.8,186.1,307.8,177.9z"/>
	<path class="st22" d="M319.6,194.7c1.7-5.8,6.6-3.2,9.9-3.2c14,0,28,0.2,41.9,1c7,0.4,13.7-0.3,20.6-1.1c4.1,5.8,7.5,12,10.2,18.5
		c-2.4,2.5-5.6,2.6-8.6,2.3c-13-1.3-26,2-39.1,0.3c-6.5-0.9-13.4-0.9-19.9,1.1C324.6,211.3,322,203.1,319.6,194.7z"/>
	<path class="st23" d="M419.4,400.4c-8-4.9-16.6-1.3-24.9-1.6c-14.8-0.6-29.7,1.4-44.4-2c2.4-8.7,7.3-15.4,15.4-19.8
		c16.2-1.3,32.4,1.6,48.6-0.7c5.4-0.8,10.7,0,14,5.5C425.2,388,424.3,395.2,419.4,400.4z"/>
	<path class="st24" d="M128.8,364.8c-16.7,0-33.4,0-50,0c-4.5,0-8.9,0.3-12.5,3.6c-3.1-7.7-6.3-15.3-6.4-23.8
		c5.8-4.7,12.5-0.7,18.7-1.7c13-2.2,26.3,0.9,39.2-2.1c1.9-0.4,3.9,0.2,5.7,1.2C127.9,349,131,356.3,128.8,364.8z"/>
	<path class="st25" d="M176.4,120.6c5.9,3.4,12.1,2,18.4,1.8c15.2-0.4,30.3-0.1,45.5-0.1c-1,8.6-11,20.7-18.7,22.8
		c-15.1-0.2-30.1,0.3-45.2-0.3c-4.1-0.1-8.4-0.2-12.2-2.3C167.3,134.6,171.7,127.6,176.4,120.6z"/>
	<path class="st26" d="M410.7,226.7c3.6,5.8,6.5,11.9,8.5,18.5c-4.1,2.3-8.6,2.6-13,2.2c-13.4-1.1-26.7,1-40.1-0.1
		c-3.8-0.3-7.1,0.7-10.2,2.9c-1.1,0.5-2.4,0.6-3-0.3c-4.4-6.4-9.8-12.4-10.3-20.8c3.3-4.3,8.3-4.6,12.9-4.6
		c15.9,0.3,31.7,0.1,47.6-0.6C406,224,408.7,224.4,410.7,226.7z"/>
	<path class="st27" d="M410.7,226.7c-12.8,0.2-25.6,0.4-38.4,0.8c-8.7,0.2-17.6-2.5-26.2,1c-1,0.4-1.9,1-2.8,1.6
		c-6.6-3.6-10.6-8.8-10.2-16.7c0.6-4.1,3.8-3.5,6.5-3.4c9.2,0.2,18.7,1.6,27.6,0.9c11.8-0.9,23.4-0.2,35.1-0.9
		C405.6,215.2,408.8,220.6,410.7,226.7z"/>
	<path class="st28" d="M135.7,272.2c-23.7-2.5-47.4,1.5-71.1,0.1c-1.5-0.1-3.1,1-4.7,1.5c0.4-6.3,1.2-12.5,3.2-18.5
		c7.7,1.1,15,3.3,23.4,0.9c5.6-1.6,12.3,0.8,18.8,0.3c10.5-0.8,21.2,0.1,31.9,0.4c1.9,0.1,4-0.1,5.2,2
		C142.3,264.3,142.2,269.9,135.7,272.2z"/>
	<path class="st29" d="M123.6,343c-15.6,3.5-31.6,0.3-47.3,2.9c-5.3,0.9-10.8-1.9-16.4-1.2c-1.5-4.7-2.5-9.6-2.1-14.6
		c-0.7-1.4-0.8-2.8-0.1-4.2c6.3-4.5,13.2-0.9,19.7-1.3c13.2-0.8,26.3-1.6,39.6-1.2c1.9,0.1,4-0.1,5.7,1.2
		C124.7,330.6,126.9,336.6,123.6,343z"/>
	<path class="st30" d="M436.3,351.8c0.2,5.3-0.9,10.3-3.4,15c-16.7-1-33.4-1.3-50.1,0.1c-4.4,0.4-9,0.6-13-2.2
		c0.3-7.8,1.8-15.1,7.7-20.9c16.6-1.6,33.2,1.7,49.8-0.4C434.8,342.4,436.6,344.4,436.3,351.8z"/>
	<path class="st31" d="M355.1,250.3c1-5.1,3.4-6.1,8.8-5.5c9.3,1,18.8,0.6,28.3-0.2c8.9-0.7,17.9,0.3,26.9,0.6
		c3.1,5.3,5.4,10.9,6.7,16.9c-2.2,2.1-5,2.3-7.8,2.3c-18.4-0.1-36.9,1.2-55.3-0.7C357,261,354.4,256.6,355.1,250.3z"/>
	<path class="st32" d="M436.3,351.8c0-4.9-2.5-7.4-7.3-6.7c-11.6,1.6-23,2.4-34.6-0.2c-5.5-1.2-11.6,4-17.4-0.3
		c-3.9-6.1-1.1-11.7,1.3-17.3c9.1-4,18.8-0.4,28.1-2.2c5.1-1,10.6-0.6,15.9-1.2c14.3-1.5,17.4,1.9,15.7,16.2
		C438.2,344.2,438.2,348.1,436.3,351.8z"/>
	<path class="st18" d="M435.9,295.7c1.4,4.4,2.5,8.8,2,13.5c-8.2,4.4-17.3,3.6-26.1,3.5c-11.1-0.1-22.2,1-33.3,0.7
		c-6.1-6.1-6.4-13.5-5.2-21.3c4.7-3.2,10.4-2.8,15.4-2.5c13.6,1,27.2,0.8,40.8,0.9C433.2,290.5,435.1,292.4,435.9,295.7z"/>
	<path class="st33" d="M378.7,312.8c6.3-4,14.3-3.5,20.2-2.7c13.3,1.8,26.1-1.7,39.1-0.8c2.5,10.3,2,20.6,0.1,31
		c-0.5-12.6-2.7-15.4-14-14c-15.1,1.9-30.1,2.1-45.2,1.5C375.2,322.8,375.3,317.8,378.7,312.8z"/>
	<path class="st34" d="M121.9,324.4c-6.8,3.3-14,0.8-21.1,1.4c-14.1,1.3-28.4,1.4-42.6,0.3c-2.6-3.6,0.1-8-1.7-11.8
		c0-0.6,0-1.2,0-1.8c1.6-2.1,3.3-2.5,6.3-2.2c8.9,0.8,17.9-0.3,26.7-0.2c9.5,0.2,19.3-2.6,28.8,0.6c2.1,0.7,3.6,1.3,3.8,3.6
		C124.9,317.8,124.9,321.2,121.9,324.4z"/>
	<path class="st35" d="M164.2,142.5c4.6-3.4,9.1,0.3,13.7,0.2c12.5-0.4,25.1-0.2,37.6-0.1c2.7,0,5.6-0.9,7.9,1.6
		c-2.8,7-5.6,14-13.5,16.9c-5-3.7-11.2-2.2-15.9-1.3c-13.1,2.3-25.7-3.4-38.5-0.6C157.9,153.3,160.4,147.6,164.2,142.5z"/>
	<path class="st20" d="M370.4,364.8c15.4,1.2,30.6-3.2,46.1-0.5c5.4,0.9,11.4-2.6,16.4,2.4c-0.5,5.4-2,10.4-4.9,15
		c-6.1-3.1-12.2-2.7-19-2.5c-15,0.5-30.2,1.4-45.3-1C363,372.4,365.4,368,370.4,364.8z"/>
	<path class="st36" d="M435.9,295.7c-1.6-1.4-2.8-4.1-5.4-3.2c-9.8,3.2-19.8-0.2-29.7,0.4c-8.7,0.6-18,0-27.1-0.5
		c-5-4.2-8.1-9-5.1-15.8c4.7-2.8,9.9-0.6,14.8-1c13.9-1,27.8-1.2,41.7-1.4c2,0,3.9,0,5.5,1.4C433.1,282.1,435.2,288.8,435.9,295.7z"
		/>
	<path class="st37" d="M430.7,275.6c-20.7,2-41.5,2.6-62.3,1.7c-6.4-3.2-7.6-8.7-6.8-15.2c21.4,0,42.8,0,64.2,0
		C427.5,266.6,429.1,271.1,430.7,275.6z"/>
	<path class="st14" d="M132.6,155.8c-12.7,0.1-25.3,2.6-38,1.6c3.7-9,9.3-17,14.8-25c2.1-3.1,3.7-3.4,6-0.1
		C121,140.3,126.9,148,132.6,155.8z"/>
	<path class="st18" d="M56.6,314.4c2.8,3.6,0.6,7.9,1.7,11.8c-0.2,1.3-0.3,2.6-0.5,3.9C56,324.9,56.4,319.6,56.6,314.4z"/>
	<path class="st38" d="M361.7,262.1c2,5.2,3.2,10.7,6.8,15.2c0.6,5.4,3.4,10.1,5.3,15.1c2.1,6.7,2,13.9,5,20.4c0.1,5,0.1,10,0.2,15
		c-0.6,5.6-1.2,11.2-1.8,16.8c-2.2,6.7-4.4,13.5-6.6,20.2c-2.3,4.5-4.5,9-6.8,13.5c-4.5,6.2-9.1,12.3-13.6,18.5
		c-9,8.5-18.5,16.5-28.7,23.6c-19,10.6-39.4,16.8-60.8,20.1c-18.8,1-37.3-0.9-55.6-5.2c-17.3-6.1-32.8-15.3-47-26.7
		c-5.8-7.3-11.7-14.5-17.6-21.8c-3.8-7.3-7.7-14.6-11.5-21.9c-1.7-7.3-3.5-14.6-5.2-21.9c-0.6-6.2-1.1-12.4-1.7-18.5
		c0.1-3.3,0.2-6.7,0.2-10c1.7-7.3,3.5-14.7,5.2-22c2.8-6.7,5.5-13.5,8.3-20.2c3.7-3.7,3.8-9.3,6.7-13.4c4-5.3,7.3-11,10.1-17
		c4.6-7.2,10.2-13.8,13.6-21.7c6.1-6.6,11.1-14,15.3-22c5.8-3.6,6.9-10.8,11.7-15.1c6.3-6.8,12.4-13.7,16.9-21.9
		c4.5-5.6,9-11.3,13.5-16.9c6.4-6.7,12.5-13.6,16.9-21.8c3.9-4.6,7.8-9.2,11.9-14.1c5.6,3.7,7.3,11,13.3,14.2
		c2.6,6,6.4,11.2,11.8,15.1c3.2,7.1,8.9,12.4,13.6,18.5c5.3,7.6,10.3,15.3,16.9,21.9c3.9,5.6,7.9,11.2,11.8,16.8
		c4.5,6.2,7.8,13.3,13.4,18.7c2.4,6.2,6.6,11.3,10.2,16.7c3.9,6.7,7.9,13.5,11.8,20.2C357.3,254.2,359.5,258.2,361.7,262.1z"/>
</g>
</svg>
