<?xml version="1.0" encoding="utf-8"?>
<!-- Generator: Adobe Illustrator 26.5.0, SVG Export Plug-In . SVG Version: 6.00 Build 0)  -->
<svg version="1.1" id="Layer_1" xmlns="http://www.w3.org/2000/svg" xmlns:xlink="http://www.w3.org/1999/xlink" x="0px" y="0px"
	 viewBox="0 0 500 500" style="enable-background:new 0 0 500 500;" xml:space="preserve">
<style type="text/css">
	.st0{fill-rule:evenodd;clip-rule:evenodd;fill:#EA2845;}
</style>
<path class="st0" d="M292.7,10.4c-3.5,0-6.7,0.7-9.7,1.7c6.3,4.3,9.8,9.8,11.6,16.1c0.1,0.9,0.4,1.5,0.5,2.4s0.3,1.5,0.3,2.3
	c0.5,10.9-2.8,12.3-5.2,18.8c-3.6,8.3-2.6,17.3,1.7,24.4c0.4,1,0.9,1.9,1.5,2.7c-4.7-31.4,21.5-36.2,26.4-46
	c0.4-8.6-6.7-14.3-12.3-18.3c-5.3-3.2-10.2-4.3-14.7-4.3L292.7,10.4z M332.2,17.5c-0.5,2.8-0.1,2.1-0.3,3.6l-0.3,3.2l-0.9,3
	c-0.3,1-0.6,2-1,3l-1.4,2.8c-0.4,0.5-0.6,1-1,1.5l-0.7,1.1l-1.9,2.5c-0.7,0.7-1.4,1.6-2.3,2.3c-0.9,0.7-1.5,1.5-2.4,2.1
	c-2.6,2-5.6,3.5-8.3,5.3c-0.9,0.6-1.7,1.1-2.5,1.9c-0.8,0.6-1.6,1.3-2.4,2c-0.9,0.7-1.5,1.5-2.3,2.4c-0.8,0.9-1.4,1.6-1.9,2.5
	l-1.7,2.6l-1.4,2.8l-1,2.8l-0.9,3.1c-0.1,0.5-0.1,1.1-0.3,1.6c-0.2,0.5-0.1,1-0.3,1.5l-0.1,3.1c0,0.7,0,1.5,0.1,2.3
	c0,1,0.1,2,0.4,3.1c0.3,1.1,0.4,2,0.6,3l1,3c0.3,0.6,0.6,1.3,0.9,1.7l-28.6-11.1l-14.4-3.7l-7.8-1.9c-7.5-1.5-15-2.6-22.6-3.4
	c-0.3,0-0.4-0.1-0.6-0.1l-22.3-1.1l-16.3,0.6c-7.6,0.5-15.2,1.5-22.7,2.7l-5.6,1L148,73l-5.6,1.5l-5.3,2.4l-4.1,1.9
	c-0.3,0.1-0.5,0.1-0.6,0.3l-3.5,1.7c-0.4,0.1-0.6,0.3-0.9,0.4l-3.9,2c-0.9,0.4-1.7,0.9-2.5,1.3c-0.4,0.3-0.9,0.5-1.1,0.6l-3.2,1.9
	c-1,0.6-2,1.2-3,1.9l-2.5,1.7l-2.7,2l-2.1,1.7c-0.3,0.1-0.5,0.4-0.7,0.5l-1.9,1.6c-0.1,0.3-0.4,0.4-0.5,0.5l-2.3,2.1l-2.5,2.4
	l-2.1,2.3c-0.3,0.3-0.6,0.5-0.9,0.7c-0.7,0.8-1.4,1.5-2.1,2.2c-0.1,0.3-0.4,0.4-0.5,0.6l-2.8,3l-6.7,6.5c-2.3,2-4.6,3.9-7,5.5
	l-7.4,4.7c-2.5,1.4-5.1,2.6-7.8,3.7c-2.6,1.1-5.3,2.1-8.1,3c-5.2,1.1-10.6,3.2-15.2,3.6c-1,0-2.1,0.3-3.1,0.4l-3.1,0.7l-3,1.1
	c-1,0.4-2,0.9-3,1.4c-0.9,0.6-1.9,1.1-2.7,1.7c-0.9,0.6-1.7,1.4-2.5,2.1c-0.8,0.7-1.7,1.5-2.5,2.3l-2.1,2.5c-0.6,1-1.4,1.9-1.9,2.8
	c-0.7,0.9-1.2,1.9-1.7,2.9l-1.4,3.2l-1.1,3.2l-0.6,3c-0.4,1.5-0.4,3-0.5,3.7c-0.1,0.7,0,1.6,0,2.5c0,0.5,0,1.1,0.1,1.6
	c0.1,0.9,0.3,1.6,0.5,2.4l0.9,2.3c0.4,0.9,0.9,1.6,1.4,2.4l1.6,2.3l2.1,2c0.7,0.7,1.5,1.4,2.4,2c3,2.6,3.7,3.5,7.6,5.5
	c0.6,0.4,1.3,0.6,2,1c0.4,0.4,0.4,0.5,0.5,0.7c0.1,1,0.4,2,0.6,3c0.2,1,0.6,2,1,3l1,2.3c0.1,0.3,0.3,0.5,0.4,0.6l1.5,2.7l1.9,2.6
	l2.1,2.4c0.7,0.7,1.5,1.4,2.4,2.1l2.5,1.9c0.9,0.6,1.7,1.1,2.7,1.6c0.9,0.5,1.9,1,2.9,1.4c0.7,0.4,1.6,0.6,2.5,0.9
	c0.9,0.2,1.6,0.5,2.1,0.6c-0.4,6.7-0.5,13.1,0.5,15.3c1.1,2.5,6.6-5.1,12.1-13.8c-0.7,8.6-1.3,18.6,0,21.6c1.3,3,8.8-6.6,15.3-17.3
	c88.1-20.4,168.6,40.5,177,126.6c-1.6-13.4-18.1-20.9-25.7-19c-3.7,9.2-10.1,21-20.3,28.3c0.9-8.2,0.5-16.7-1.3-24.9
	c-2.8,11.4-8,22.1-15.4,31.3c-11.8,0.9-23.6-4.8-29.9-13.4c-0.5-0.4-0.6-1.1-1-1.6l-1-2.6c-0.4-0.9-0.6-1.7-0.7-2.6
	s-0.1-1.7-0.1-2.7v-1.9c0.1-0.9,0.4-1.7,0.6-2.6l0.9-2.6c0.5-0.9,0.9-1.7,1.5-2.6c2.1-5.7,2.1-10.8-1.7-13.6
	c-0.7-0.5-1.5-0.9-2.4-1.3c-0.5-0.1-1.1-0.4-1.6-0.5l-1-0.4l-2.6-0.6c-0.9-0.2-1.7-0.4-2.6-0.4c-0.9-0.1-1.8-0.2-2.7-0.3
	c-0.6,0-1.3,0.1-1.9,0.1c-0.9,0-1.8,0.1-2.7,0.4l-2.6,0.5l-2.6,0.9l-2.5,1.1l-2.4,1.3c-29,18.9-11.7,63.1,8.1,76
	c-7.4,1.4-15.1,3-17.1,4.6c5.1,3.5,10.7,6.3,16.5,8.6l20.1,5.7c10.3,2.3,20.8,3,31.3,2.4c55.3-4.1,100.4-46,108.4-101l0.7,3.2l1.1,7
	l0.5,3.4l0.3,3.7l0.3,4.1v2c0,0.6,0.1,1.4,0.1,2s-0.1,1.5-0.1,2.3v1.7c0,0.9-0.1,1.6-0.1,2.5c0,0.5,0,1-0.1,1.6l-0.1,2.7
	c-0.1,0.4-0.1,0.7-0.1,1.1l-0.4,2.8c0,0.4,0,0.7-0.1,1.1l-0.5,3.6v0.3l-0.7,3.5l-0.7,3.7l-1,3.9l-1,3.9l-1.3,4l-2.7,7.2l-1.5,3.6
	l-1.7,3.5c-0.1,0.4-0.3,0.6-0.4,0.9c-8.3,16.7-20.3,31-35.2,42.1c-1,0.6-2,1.4-3,2.1c-0.3,0.3-0.6,0.4-0.9,0.6l-2.7,1.9l0.4,0.7h0.1
	l5.2-0.7h0.1l9.7-1.7c0.9-0.1,1.9-0.4,2.7-0.6l1.7-0.4l2.6-0.5l2.3-0.6c12.4-3,24.4-7.1,36-11.9c-19.8,27-46.3,48.7-77.2,63
	c14.3-1,28.6-3.4,42.4-7.3c50.1-14.8,92.3-48.5,117.5-93.9c-5.1,28.8-16.5,56.1-33.4,79.9c12.1-8,23.1-17.1,33.2-27.6
	c27.8-29.1,46.1-65.9,52.3-105.7c4.3,19.6,5.5,39.9,3.6,59.9c89.7-125.2,7.4-255-27-289.2c-0.1-0.3-0.3-0.4-0.3-0.6
	c-0.3,1.5-0.4,3-0.5,4.5c-0.4,2.8-0.7,5.6-1.3,8.3c-0.5,2.7-1.4,5.5-2.1,8.2c-0.7,2.8-1.9,5.3-3,8c-1.1,2.6-2.4,5.1-3.7,7.6
	c-1.4,2.4-2.9,4.8-4.5,7.1c-1.6,2.4-3.4,4.6-5.1,6.7c-1.9,2.2-3.8,4.2-5.9,6.2c-1.3,1.1-2.4,2.1-3.6,3.1l-2.8,2.5
	c-2.2,1.8-4.5,3.4-7,4.9c-2.4,1.5-4.8,2.9-7.3,4.2c-2.6,1.3-5.2,2.4-7.8,3.5c-2.6,1-5.3,1.9-8.1,2.6c-2.7,0.7-5.6,1.4-8.3,1.9
	c-2.7,0.5-5.7,0.7-8.4,1c-2,0.1-4,0.3-5.7,0.3c-2.8,0-5.7-0.3-8.4-0.5c-2.8-0.2-5.7-0.6-8.5-1.3c-2.8-0.5-5.6-1.2-8.3-2.1h-0.1
	c2.7-0.3,5.5-0.5,8.2-1s5.6-1.1,8.3-1.9c2.7-0.7,5.5-1.6,8.1-2.6c2.6-1,5.3-2.3,7.8-3.5c2.5-1.2,5-2.6,7.4-4.1c2.4-1.6,4.7-3.2,7-5
	c2.2-1.7,4.3-3.6,6.3-5.6c2.1-1.9,4-4,5.9-6.1c1.9-2.1,3.6-4.5,5.2-6.7c0.3-0.4,0.5-0.9,0.7-1.3l3.6-5.7c1.4-2.5,2.6-5,3.7-7.6
	c1.1-2.6,2.1-5.2,3-8c0.9-2.7,1.5-5.3,2.1-8.1c0.6-2.7,1-5.6,1.3-8.3c0.3-2.7,0.5-5.7,0.5-8.4c0-2-0.1-4-0.3-5.7
	c-0.3-2.8-0.6-5.6-1-8.3c-0.5-2.8-1.1-5.6-1.9-8.3c-0.9-2.6-1.7-5.3-2.7-8s-2.3-5.2-3.5-7.7s-2.7-5-4.3-7.3c-1.5-2.4-3.2-4.6-5-6.8
	l-5.7-6.3c-1.1-1.1-2.1-2.1-3.2-3.1c-5.6-4.3-11.3-8.4-17.3-12.2c-0.9-0.5-1.6-0.9-2.5-1.3c-4.1-2.6-8-4-11.8-5.2L332.2,17.5z"/>
</svg>
