<?xml version="1.0" encoding="utf-8"?>
<!-- Generator: Adobe Illustrator 26.5.0, SVG Export Plug-In . SVG Version: 6.00 Build 0)  -->
<svg version="1.1" id="Layer_1" xmlns="http://www.w3.org/2000/svg" xmlns:xlink="http://www.w3.org/1999/xlink" x="0px" y="0px"
	 viewBox="0 0 500 500" style="enable-background:new 0 0 500 500;" xml:space="preserve">
<style type="text/css">
	.st0{fill:#FFFFFF;}
	.st1{fill:#3D3D3D;}
</style>
<g>
	<path class="st0" d="M373.5,406.6l40.8-64.6l-114.9,67.7l-25.2-41.8l82.3-102.1L76.9,425.1l-33.4-28.2l106.9-125.1l-88.6,46.9
		l-30-35.4L114,177.5l-88.8,44.4l-2-3.9c-1.5-2.9-3-5.7-4.5-8.5c-4-7.5-7.7-14.6-11.1-22.1c-1.8-4.1-1.7-11.2,1.3-15.1
		c23.9-31.1,48.6-62.7,72.4-93.2c5.6-7.2,19.6-25.1,19.6-25.1l38,29.4l-33.9,44.1l147.6-74.3l22.2,42.3l-4,2.1
		c-4.3,2.2-8.5,4.4-12.7,6.5c-9.7,4.9-18.9,9.5-27.7,15c-7.8,4.8-17.6,11.4-24.5,20c-22.2,27.3-42.6,54-62.1,81.2
		c3.6-1.9,7.1-3.8,10.6-5.7c20.7-11.2,42.2-22.8,63.9-33.1c18.6-8.7,30.6-23.5,43.3-39.1c3.9-4.8,8-9.8,12.2-14.5
		c18.8-21,36.6-42.1,55.5-64.4c7.8-9.3,15.9-18.8,24.1-28.3l2.9-3.4l36.9,31l-38.5,45.4l87.4-46l22.9,42.1l-4,2.1
		c-6.2,3.3-12.4,6.7-18.5,10c-13.8,7.4-26.8,14.4-40.1,21.5c-14.8,7.9-29.6,15.7-44.3,23.6c-26.5,14.1-54,28.6-80.9,43.1
		c-4.4,2.3-8.9,4.9-11.8,8.3c-24.5,28.2-52.3,60.5-78.9,94.6c8.4-4.7,16.8-9.4,25-14c33-18.5,67.2-37.7,100.3-57.4
		c15-8.9,30.6-17.3,45.6-25.4c33.4-18,68-36.6,98.4-62l2.8-2.4l29.8,23.8l0.3,1.8c2,14.4-6.8,21.7-13.9,27.5
		c-2.8,2.3-5.4,4.4-7.3,6.8c-19.8,24.3-39.9,49.1-59.2,73.1l-3.1,3.8c-4.1,5.1-7.9,9.9-11.4,14.9l65.8-38.5l35.2,47l-80.7,126.1
		L373.5,406.6z"/>
	<path class="st1" d="M356.8,38.1c10,8.4,19.4,16.3,30,25.2C371.7,81,357,98.5,342.2,115.9c0.6,1,1.3,1.9,1.9,2.9
		c31.8-16.7,63.5-33.4,96.2-50.6c6.1,11.2,12,21.9,18.6,34.2c-19.9,10.7-39.3,21.1-58.7,31.5c-41.8,22.2-83.6,44.3-125.3,66.6
		c-4.7,2.5-9.7,5.4-13.1,9.3c-31.6,36.4-62.9,73.1-92.5,112.4c48.2-27.4,96.9-54,144.6-82.3c48-28.5,100.1-50.6,144.6-87.8
		c7.6,6.1,16.8,13.4,25.5,20.4c2.4,16.8-12.6,21.3-20.3,30.8c-20.9,25.6-41.6,51.3-62.3,77c-7.6,9.4-15,18.9-20.9,30.5
		c26-15.2,52.1-30.4,77.5-45.4c10.4,13.9,20,26.7,30.9,41.3c-24.6,38.4-50.3,78.6-76.6,119.7c-11.2-7.1-21.4-13.7-32.9-21.1
		c15.4-24.4,30.3-47.9,45.2-71.4c-0.5-0.7-1.1-1.5-1.6-2.2c-40.3,23.8-80.7,47.5-122.3,72c-7.3-12.1-14-23.3-21.2-35.3
		c30.1-37.3,60-74.3,89.8-111.4c-0.6-0.8-1.3-1.7-1.9-2.5C271.3,309.2,175,364.1,77.4,419.7c-8-6.7-16.9-14.3-27.6-23.3
		c38.4-44.9,76.4-89.4,114.5-134c-0.6-0.7-1.1-1.4-1.7-2.2c-33.3,17.6-66.6,35.2-99.8,52.8c-8.3-9.8-16.4-19.4-25.3-29.9
		c29.1-37.4,58.6-75.4,88.2-113.4c-0.5-0.8-0.9-1.6-1.4-2.5c-32,16-63.9,32-97.2,48.6c-5.4-10.4-10.9-20.1-15.4-30.3
		c-1.3-2.9-1.1-8.2,0.7-10.5C41.8,136.9,71.5,99,101.7,60.3c10.7,8.3,20.4,15.8,30.9,23.9c-13,16.9-25.7,33.4-38.4,49.9
		c0.7,0.9,1.4,1.9,2.1,2.8c50.8-25.6,101.6-51.1,154.3-77.7c5.8,11.1,11.7,22.2,18.1,34.4c-14,7.3-27.8,13.6-40.7,21.6
		c-9.3,5.8-18.8,12.6-25.6,21c-25.4,31.2-49.8,63.3-73.2,97c30.3-16,60-33.1,91-47.6c25.6-12,39.5-35,56.9-54.6
		C304,100.8,329.8,69.7,356.8,38.1 M355.8,25.4l-5.8,6.8c-8.1,9.5-16.2,19.1-24.1,28.3c-18.9,22.3-36.7,43.4-55.5,64.4
		c-4.3,4.8-8.4,9.8-12.3,14.6c-12.4,15.2-24.1,29.5-41.8,37.8c-19.5,9.2-38.7,19.4-57.3,29.5c15.9-21.7,32.5-43.1,50.3-65
		c6.6-8.1,16.5-14.8,23.4-19c8.6-5.4,17.7-9.9,27.4-14.8c4.2-2.1,8.5-4.3,12.7-6.5l8-4.2l-4.2-8l-12.1-22.9l-6-11.5l-4.1-7.8l-7.9,4
		l-24.1,12.1l-101.9,51.3l4.4-5.8l14.7-19.1l5.5-7.1l-7.1-5.5l-19-14.7l-11.9-9.2l-7.1-5.5l-5.5,7.1C89,61.9,83.4,69.1,77.8,76.3
		c-23.9,30.6-48.6,62.2-72.5,93.3c-4.2,5.5-4.2,14.3-1.8,19.7c3.4,7.6,7.4,15.1,11.2,22.4c1.5,2.8,3,5.6,4.5,8.5l4.1,7.9l7.9-4
		l67.1-33.6l-56,72l-11.8,15.2l-4.5,5.8l4.7,5.6L56,318.9l4.7,5.5l6.4-3.4l58.5-30.9l6.1-3.2l-11.2,13.1L43,390.5l-5.9,6.9l6.9,5.8
		l14.1,11.9l13.5,11.4l4.8,4.1l5.5-3.1l168.4-95.9l87.9-50.1l-65.4,81.1l-4,4.9l3.2,5.4l7.8,12.9l13.5,22.4l4.6,7.6l7.7-4.5
		l78.8-46.4l16.2-9.6l-12.8,20.2L372,400.4l-4.8,7.6l7.5,4.8l32.9,21.1l7.6,4.9l4.9-7.6l53.2-83.2l23.3-36.5l3.4-5.3l-3.7-5
		l-19.8-26.4l-11.2-14.9l-4.8-6.4l-6.9,4.1L434,268.9l-22.7,13.3c19.4-24.1,39.6-49,59.4-73.4c1.7-2.1,4.1-4.1,6.7-6.2
		c7.6-6.2,17.9-14.7,15.5-31.6l-0.5-3.5l-2.8-2.2l-11.1-8.9l-14.4-11.5l-5.7-4.6l-5.6,4.7c-30,25.1-64.4,43.6-97.7,61.5
		c-15.1,8.1-30.8,16.6-45.8,25.5c-33,19.6-67.2,38.8-100.2,57.3c-1.7,0.9-3.3,1.9-5,2.8c22.1-27.4,44.4-53.4,64.6-76.5
		c2.4-2.8,6.7-5.2,10.6-7.3c26.9-14.4,54.3-28.9,80.8-43c14.8-7.9,29.6-15.7,44.5-23.6c13.3-7.1,26.3-14.1,40.1-21.5
		c6.2-3.3,12.4-6.7,18.6-10l8-4.3l-4.3-8l-18.6-34.2l-4.2-7.8l-7.8,4.1L393,82.8l-19.8,10.4l20.5-24.2l5.9-6.9l-6.9-5.8l-17.5-14.7
		l-12.5-10.5L355.8,25.4L355.8,25.4z"/>
</g>
</svg>
